<svg width="24" height="24" viewBox="0 0 24 24" fill="none" xmlns="http://www.w3.org/2000/svg">
<path d="M20.1186 1.85695L20.9463 1.15901" stroke="#499A9A" stroke-width="1.5" stroke-miterlimit="10" stroke-linecap="round" stroke-linejoin="round"/>
<path d="M21.1578 4.24863L22.2328 4.12017" stroke="#499A9A" stroke-width="1.5" stroke-miterlimit="10" stroke-linecap="round" stroke-linejoin="round"/>
<path d="M3.88131 1.85695L3.05362 1.15901" stroke="#499A9A" stroke-width="1.5" stroke-miterlimit="10" stroke-linecap="round" stroke-linejoin="round"/>
<path d="M2.84252 4.24863L1.76748 4.12017" stroke="#499A9A" stroke-width="1.5" stroke-miterlimit="10" stroke-linecap="round" stroke-linejoin="round"/>
<path d="M11.9041 13.5245C14.425 13.5245 16.4686 11.4809 16.4686 8.95996C16.4686 6.43903 14.425 4.39541 11.9041 4.39541C9.38312 4.39541 7.3395 6.43903 7.3395 8.95996C7.3395 11.4809 9.38312 13.5245 11.9041 13.5245Z" stroke="#499A9A" stroke-width="1.5" stroke-miterlimit="10" stroke-linecap="round" stroke-linejoin="round"/>
<path d="M7.75915 17.9222H16.0489C16.1238 16.6629 16.6562 15.4705 17.5505 14.5705C18.9805 13.1315 19.8641 11.1489 19.8641 8.95998C19.8641 4.59585 16.352 1.05197 12.0001 1.00056C7.62316 0.948883 4.00052 4.47943 3.94476 8.85627C3.91643 11.0809 4.80087 13.099 6.24717 14.5599C7.14342 15.4652 7.68336 16.6584 7.75915 17.9222Z" stroke="#499A9A" stroke-width="1.5" stroke-miterlimit="10" stroke-linecap="round" stroke-linejoin="round"/>
<path d="M16.4474 20.4612H7.36102C7.11305 20.4612 6.91204 20.2602 6.91204 20.0122V18.3713C6.91204 18.1233 7.11305 17.9223 7.36102 17.9223H16.4473C16.6953 17.9223 16.8963 18.1233 16.8963 18.3713V20.0122C16.8964 20.2602 16.6953 20.4612 16.4474 20.4612Z" stroke="#499A9A" stroke-width="1.5" stroke-miterlimit="10" stroke-linecap="round" stroke-linejoin="round"/>
<path d="M13.9971 23.0001H9.81115C8.57655 23.0001 7.57569 21.9992 7.57569 20.7646V20.4612H16.2325V20.7646C16.2326 21.9992 15.2317 23.0001 13.9971 23.0001Z" stroke="#499A9A" stroke-width="1.5" stroke-miterlimit="10" stroke-linecap="round" stroke-linejoin="round"/>
<path d="M13.6955 7.77538L11.3263 10.1446L10.4188 9.23704" stroke="#499A9A" stroke-width="1.5" stroke-miterlimit="10" stroke-linecap="round" stroke-linejoin="round"/>
</svg>
