<svg width="80" height="80" viewBox="0 0 80 80" fill="none" xmlns="http://www.w3.org/2000/svg">
<path fill-rule="evenodd" clip-rule="evenodd" d="M34.3175 16.8089C34.3175 17.3648 33.8643 17.818 33.3025 17.818H22.115C21.5548 17.818 21.1009 17.3648 21.1009 16.8089C21.1009 16.2446 21.555 15.7913 22.115 15.7913H33.3025C33.8643 15.7913 34.3175 16.2446 34.3175 16.8089ZM61.7345 6.53052H45.3903C42.9244 6.80764 41.0081 8.74716 41.0081 11.0969V26.0872C41.0081 26.9678 42.0606 27.4371 42.7107 26.8312L46.203 23.6073C47.0342 22.8462 48.0219 22.47 49.2249 22.47H61.1263C63.879 22.47 66.1167 20.4092 66.1167 17.8696V11.0968C66.1167 8.747 64.201 6.80748 61.7345 6.53052ZM34.6103 6.53052H18.266C15.7999 6.80764 13.8828 8.74716 13.8828 11.0969V17.8694C13.8828 20.4091 16.1223 22.4699 18.8742 22.4699H30.7766C31.9788 22.4699 32.9673 22.846 33.7977 23.6072L37.29 26.831C37.9406 27.4376 38.9926 26.967 38.9926 26.087V11.0968C38.9924 8.747 37.0769 6.80748 34.6103 6.53052ZM18.5595 12.1571C18.5595 11.6012 19.0127 11.1395 19.5737 11.1395H33.3025C33.8643 11.1395 34.3175 11.6012 34.3175 12.1571C34.3175 12.7216 33.8643 13.1747 33.3025 13.1747H19.5737C19.0127 13.1747 18.5595 12.7216 18.5595 12.1571ZM15.9129 11.0968V17.8692C15.9129 19.2888 17.2417 20.4432 18.8742 20.4432H30.7766C32.4894 20.4432 33.9687 21.0075 35.1735 22.1192L36.9633 23.7696V11.0968C36.9633 9.67724 35.6353 8.52284 34.002 8.52284H18.8742C17.2417 8.52284 15.9129 9.67724 15.9129 11.0968ZM47.2982 69.39C47.3868 69.7627 47.2718 70.106 47.0177 70.3649L44.2231 73.1697C43.8294 73.5708 43.1783 73.5654 42.7875 73.1782C42.3899 72.7848 42.3881 72.1435 42.7841 71.7416L43.251 71.2713C27.9508 73.278 14.2103 61.3936 14.2103 45.7974C14.2103 38.9308 16.8843 32.4747 21.7379 27.6262C22.6913 26.6684 23.7251 25.7876 24.8119 24.9924C25.2652 24.6675 25.8996 24.7616 26.2297 25.2147C26.559 25.668 26.4588 26.3092 26.0057 26.6342C19.863 31.0675 16.2403 38.211 16.2403 45.7974C16.2403 52.1168 18.703 58.0598 23.1718 62.532C28.3966 67.7481 35.7745 70.2024 43.0052 69.2532L42.2638 68.9198C41.7524 68.6889 41.5249 68.0904 41.7567 67.5772C41.9868 67.0728 42.587 66.8419 43.0985 67.0728L46.855 68.7744H46.8559C46.8559 68.7828 46.8577 68.7828 46.8577 68.7828C47.0681 68.9104 47.2337 69.1334 47.2982 69.39ZM58.0777 27.6262C68.1231 37.6609 68.1188 53.9192 58.0777 63.96C56.3606 65.6787 54.4187 67.1409 52.3083 68.304C51.8158 68.575 51.1979 68.4001 50.9289 67.9105C50.6587 67.4145 50.8374 66.7988 51.3275 66.5252C58.8847 62.3387 63.5753 54.4976 63.5753 45.7972C63.5753 39.4694 61.1126 33.5264 56.6438 29.054C56.5951 29.0113 56.5463 28.96 56.4975 28.9172L56.6788 29.5843C56.8233 30.1316 56.5027 30.6873 55.9614 30.8328C55.4219 30.9782 54.8643 30.6532 54.718 30.1145C54.5892 29.6379 53.6569 26.2745 53.65 26.0699C53.6355 25.8561 53.6937 25.6252 53.8279 25.4286H53.8287C53.8415 25.4115 53.8535 25.3944 53.8655 25.3772H53.8673C54.1028 25.0844 54.4236 24.9598 54.7788 25.0011L58.7243 25.3772C59.2819 25.4286 59.6905 25.9246 59.6375 26.4889C59.5838 27.0448 59.0886 27.4552 58.5302 27.3953L57.7759 27.327C57.8777 27.4209 57.9777 27.5235 58.0777 27.6262ZM58.9004 16.8089C58.9004 17.3648 58.4455 17.818 57.8854 17.818H46.6979C46.1369 17.818 45.6836 17.3648 45.6836 16.8089C45.6836 16.2446 46.1369 15.7913 46.6979 15.7913H57.8854C58.4454 15.7913 58.9004 16.2446 58.9004 16.8089ZM61.4419 12.1571C61.4419 12.7216 60.9886 13.1747 60.4268 13.1747H46.698C46.1371 13.1747 45.6838 12.7214 45.6838 12.1571C45.6838 11.6012 46.1371 11.1395 46.698 11.1395H60.4268C60.9886 11.1395 61.4419 11.6012 61.4419 12.1571ZM64.0867 17.8692C64.0867 19.2888 62.7594 20.4432 61.1262 20.4432H49.2247C47.5119 20.4432 46.0326 21.0075 44.827 22.1192L43.038 23.7696V11.0968C43.038 9.67724 44.366 8.52284 45.9983 8.52284H61.1262C62.7594 8.52284 64.0867 9.67724 64.0867 11.0968V17.8692ZM49.1255 59.1884C51.2641 59.1884 52.3295 56.5804 50.787 55.0838C50.1831 54.4979 50.5107 53.4611 51.3566 53.348C55.1156 52.8435 57.9503 49.594 57.9503 45.7972C57.9503 41.992 55.1156 38.751 51.3566 38.238C50.5055 38.1233 50.1868 37.0846 50.787 36.5022C51.2582 36.0489 51.5164 35.4419 51.5164 34.7835C51.5164 32.6356 48.8937 31.6132 47.4289 33.0988C46.7615 33.7758 45.6234 33.2406 45.6974 32.3121C45.8063 30.9432 44.7084 29.7382 43.3124 29.7382C41.9947 29.7382 40.9215 30.8156 40.9215 32.1326V38.2467C44.3129 38.7 47.0031 41.3849 47.4563 44.7798H50.5492C50.9161 43.2577 52.0867 42.0177 53.6422 41.5988C54.1835 41.4534 54.7411 41.7784 54.8855 42.3171C55.03 42.8644 54.7094 43.4201 54.1689 43.5656C53.1615 43.8307 52.4587 44.7457 52.4587 45.7974C52.4587 46.8406 53.1615 47.7556 54.1689 48.0292C54.7094 48.1747 55.03 48.7305 54.8855 49.2692C54.7369 49.8236 54.1611 50.1323 53.6422 49.9875C52.0867 49.5684 50.9161 48.3286 50.5492 46.8064H47.4563C47.003 50.2011 44.3129 52.8862 40.9215 53.3395V59.4536C40.9215 60.779 41.9947 61.8478 43.3124 61.8478C44.7108 61.8478 45.8078 60.6473 45.6974 59.2739C45.6234 58.354 46.7569 57.8056 47.4289 58.4872C47.8822 58.9404 48.4843 59.1884 49.1255 59.1884ZM39.9075 51.3812C42.9894 51.3812 45.4956 48.8758 45.4956 45.7974C45.4956 42.7104 42.9892 40.2049 39.9075 40.2049C36.8257 40.2049 34.3201 42.7104 34.3201 45.7974C34.3201 48.8758 36.8255 51.3812 39.9075 51.3812ZM38.8924 59.4536V53.3395C35.5028 52.8862 32.8126 50.2012 32.3593 46.8064H29.2663C28.9012 48.3284 27.7297 49.5684 26.1734 49.9875C26.0852 50.0131 25.9964 50.0217 25.9092 50.0217C24.7414 50.0217 24.5031 48.3382 25.6467 48.0292C26.6532 47.7556 27.3569 46.8406 27.3569 45.7974C27.3569 44.7456 26.6532 43.8307 25.6467 43.5656C25.1054 43.4201 24.7847 42.8644 24.93 42.3171C25.0745 41.7784 25.6321 41.4534 26.1734 41.5988C27.7297 42.0179 28.9012 43.2577 29.2663 44.7798H32.3593C32.8126 41.3849 35.5027 38.7 38.8924 38.2467V32.1326C38.8924 30.8156 37.8209 29.7382 36.5023 29.7382C35.1084 29.7382 34.0078 30.9419 34.1183 32.3121C34.1924 33.2297 33.0599 33.7816 32.3867 33.0988C31.9334 32.6456 31.3315 32.3976 30.6902 32.3976C28.5479 32.3976 27.4891 35.01 29.0279 36.5022C29.6284 37.0844 29.3113 38.1232 28.4583 38.238C24.7001 38.7512 21.8646 41.992 21.8646 45.7972C21.8646 49.5939 24.7001 52.8433 28.4583 53.348C29.3068 53.4614 29.6316 54.4985 29.0279 55.0838C28.5575 55.5371 28.2995 56.1441 28.2995 56.8025C28.2995 58.9504 30.9222 59.9726 32.3868 58.4872C33.0601 57.8044 34.1924 58.3563 34.1185 59.2739C34.0075 60.6507 35.1071 61.8478 36.5025 61.8478C37.8209 61.8478 38.8924 60.779 38.8924 59.4536ZM53.5465 56.8027C53.5465 59.9262 50.3836 62.063 47.4889 60.9072C46.358 64.1472 42.1115 64.9228 39.9075 62.2753C37.706 64.9225 33.4563 64.1475 32.3268 60.9072C31.8129 61.1124 31.2596 61.2235 30.6902 61.2235C27.4788 61.2235 25.3713 57.9118 26.6412 55.0153C22.67 53.7924 19.8353 50.0643 19.8353 45.7972C19.8353 41.5216 22.67 37.7934 26.6412 36.5705C26.3975 36.0147 26.2692 35.4076 26.2692 34.7833C26.2692 31.6592 29.4327 29.523 32.3268 30.6787C33.4561 27.4382 37.706 26.6633 39.9075 29.3105C42.1115 26.6628 46.3582 27.4387 47.4889 30.6787C48.0028 30.4734 48.5561 30.3624 49.1255 30.3624C52.3411 30.3624 54.4451 33.6814 53.1737 36.5705C57.1457 37.7934 59.9804 41.5216 59.9804 45.7972C59.9804 50.0643 57.1457 53.7926 53.1737 55.0153C53.4182 55.5713 53.5465 56.1785 53.5465 56.8027Z" fill="#499A9A"/>
</svg>
