<svg width="80" height="80" viewBox="0 0 80 80" fill="none" xmlns="http://www.w3.org/2000/svg">
<g clip-path="url(#clip0_4080_7897)">
<mask id="mask0_4080_7897" style="mask-type:luminance" maskUnits="userSpaceOnUse" x="0" y="-1" width="80" height="81">
<path d="M0 -0.000236511H80V79.9998H0V-0.000236511Z" fill="white"/>
</mask>
<g mask="url(#mask0_4080_7897)">
<path d="M55.9995 29.0028C58.1522 32.1289 59.4125 35.9171 59.4125 39.9998C59.4125 50.7215 50.7208 59.4131 39.9992 59.4131C29.2775 59.4131 20.5859 50.7215 20.5859 39.9998C20.5859 29.2782 29.2775 20.5865 39.9992 20.5865C44.6611 20.5865 48.9391 22.2298 52.2858 24.9687" stroke="#499A9A" stroke-width="1.5" stroke-miterlimit="10" stroke-linecap="round" stroke-linejoin="round"/>
<path d="M12.5439 12.5451L6.91047 18.1785C6.64062 18.4484 6.60547 18.8737 6.82734 19.1841L12.4745 27.0902C12.5552 27.2034 12.5687 27.3502 12.5111 27.4766C12.2209 28.1124 11.9522 28.7599 11.7058 29.4185C11.6572 29.5484 11.5437 29.6429 11.4069 29.6657L1.82422 31.2627C1.44781 31.3256 1.17188 31.6512 1.17188 32.0327V47.9665C1.17188 48.348 1.44781 48.6737 1.82422 48.7365L11.4069 50.3335C11.5437 50.3563 11.6572 50.4509 11.7058 50.5807C11.9522 51.2393 12.2209 51.887 12.5111 52.5226C12.5687 52.649 12.5552 52.796 12.4745 52.909L6.82734 60.8151C6.60547 61.1255 6.64062 61.5509 6.91047 61.8207L18.1773 73.0876C18.4472 73.3574 18.8725 73.3926 19.1831 73.1707L27.0891 67.5235C27.2022 67.4429 27.3491 67.4295 27.4755 67.487C28.1111 67.7771 28.7587 68.046 29.4173 68.2923C29.5472 68.341 29.6417 68.4545 29.6645 68.5912L31.2616 78.1738C31.3244 78.5504 31.65 78.8262 32.0316 78.8262H47.9653C48.3469 78.8262 48.6725 78.5504 48.7353 78.1738L50.3323 68.5912C50.3551 68.4545 50.4497 68.341 50.5795 68.2923C51.2381 68.046 51.8858 67.7771 52.5214 67.487C52.6478 67.4295 52.7947 67.4429 52.9078 67.5235L60.8139 73.1707C61.1244 73.3926 61.5497 73.3574 61.8195 73.0876L73.0864 61.8207C73.3562 61.5509 73.3914 61.1255 73.1695 60.8151L67.5223 52.909C67.4417 52.796 67.4283 52.649 67.4858 52.5226C67.7759 51.887 68.0448 51.2393 68.2911 50.5807C68.3398 50.4509 68.4533 50.3563 68.59 50.3335L78.1726 48.7365C78.5492 48.6737 78.825 48.348 78.825 47.9665V32.0327C78.825 31.6512 78.5492 31.3256 78.1726 31.2627L68.59 29.6657C68.4533 29.6429 68.3398 29.5484 68.2911 29.4185C68.0448 28.7599 67.7759 28.1124 67.4858 27.4766C67.4283 27.3502 67.4417 27.2034 67.5223 27.0902L73.1695 19.1843C73.3914 18.8737 73.3562 18.4484 73.0864 18.1785L61.8195 6.91165C61.5497 6.64181 61.1244 6.60665 60.8139 6.82852L52.9078 12.4757C52.7948 12.5563 52.6478 12.5699 52.5214 12.5123C51.8858 12.2221 51.2381 11.9534 50.5795 11.707C50.4497 11.6584 50.3551 11.5448 50.3323 11.4081L48.7353 1.8254C48.6727 1.44899 48.3469 1.17305 47.9653 1.17305H32.0316C31.65 1.17305 31.3244 1.44899 31.2616 1.8254L29.6645 11.4081C29.6417 11.5448 29.5472 11.6584 29.4173 11.707C28.7587 11.9534 28.1112 12.2221 27.4755 12.5123C27.3491 12.5699 27.2022 12.5563 27.0891 12.4757L19.1831 6.82852C18.8725 6.60665 18.4472 6.64181 18.1773 6.91165L16.4453 8.64368" stroke="#499A9A" stroke-width="1.5" stroke-miterlimit="10" stroke-linecap="round" stroke-linejoin="round"/>
<path d="M69.625 45.8845C70.0009 43.9811 70.198 42.0136 70.198 39.9998C70.198 37.9861 70.0009 36.0184 69.625 34.1151" stroke="#499A9A" stroke-width="1.5" stroke-miterlimit="10" stroke-linecap="round" stroke-linejoin="round"/>
<path d="M56.7812 65.1074C60.0697 62.9046 62.9014 60.073 65.1042 56.7845" stroke="#499A9A" stroke-width="1.5" stroke-miterlimit="10" stroke-linecap="round" stroke-linejoin="round"/>
<path d="M34.1133 69.6251C36.0167 70.0011 37.9842 70.1982 39.998 70.1982C42.0117 70.1982 43.9794 70.0011 45.8827 69.6251" stroke="#499A9A" stroke-width="1.5" stroke-miterlimit="10" stroke-linecap="round" stroke-linejoin="round"/>
<path d="M14.8906 56.7847C17.0934 60.0731 19.925 62.9049 23.2136 65.1077" stroke="#499A9A" stroke-width="1.5" stroke-miterlimit="10" stroke-linecap="round" stroke-linejoin="round"/>
<path d="M10.3739 34.1151C9.99797 36.0186 9.80078 37.9861 9.80078 39.9998C9.80078 42.0136 9.99797 43.9812 10.3739 45.8845" stroke="#499A9A" stroke-width="1.5" stroke-miterlimit="10" stroke-linecap="round" stroke-linejoin="round"/>
<path d="M23.2136 14.8921C19.9252 17.0949 17.0934 19.9265 14.8906 23.2151" stroke="#499A9A" stroke-width="1.5" stroke-miterlimit="10" stroke-linecap="round" stroke-linejoin="round"/>
<path d="M45.8827 10.3745C43.9792 9.99857 42.0117 9.80139 39.998 9.80139C37.9842 9.80139 36.0166 9.99857 34.1133 10.3745" stroke="#499A9A" stroke-width="1.5" stroke-miterlimit="10" stroke-linecap="round" stroke-linejoin="round"/>
<path d="M65.1042 23.2151C62.9014 19.9267 60.0698 17.0949 56.7812 14.8921" stroke="#499A9A" stroke-width="1.5" stroke-miterlimit="10" stroke-linecap="round" stroke-linejoin="round"/>
<path d="M31.5859 43.9741L33.7816 41.7785" stroke="#499A9A" stroke-width="1.5" stroke-miterlimit="10" stroke-linecap="round" stroke-linejoin="round"/>
<path d="M34.7617 47.1499L36.9573 44.9543" stroke="#499A9A" stroke-width="1.5" stroke-miterlimit="10" stroke-linecap="round" stroke-linejoin="round"/>
<path d="M47.1342 42.6997L50.1414 45.7069C50.7572 46.3226 51.7555 46.3226 52.3711 45.7069L53.3172 44.7608C53.933 44.145 53.933 43.1467 53.3172 42.5311L50.31 39.5239C49.4331 38.6469 48.0113 38.6469 47.1342 39.5239C46.2573 40.4009 46.2573 41.8226 47.1342 42.6997Z" stroke="#499A9A" stroke-width="1.5" stroke-miterlimit="10" stroke-linecap="round" stroke-linejoin="round"/>
<path d="M43.9623 45.8755L46.9695 48.8826C47.5853 49.4984 48.5836 49.4984 49.1992 48.8826L50.1453 47.9366C50.7611 47.3208 50.7611 46.3225 50.1453 45.7069L47.1381 42.6997C46.2613 41.8226 44.8394 41.8226 43.9623 42.6997C43.0855 43.5767 43.0855 44.9984 43.9623 45.8755Z" stroke="#499A9A" stroke-width="1.5" stroke-miterlimit="10" stroke-linecap="round" stroke-linejoin="round"/>
<path d="M40.7867 49.0512L43.7939 52.0584C44.4096 52.6742 45.4079 52.6742 46.0236 52.0584L46.9696 51.1123C47.5854 50.4966 47.5854 49.4983 46.9696 48.8826L43.9625 45.8755C43.0856 44.9984 41.6637 44.9984 40.7867 45.8755C39.9096 46.7525 39.9096 48.1742 40.7867 49.0512Z" stroke="#499A9A" stroke-width="1.5" stroke-miterlimit="10" stroke-linecap="round" stroke-linejoin="round"/>
<path d="M37.857 52.4745L40.0196 54.6372C40.6353 55.2528 41.6336 55.2528 42.2493 54.6372L43.1954 53.6911C43.8111 53.0753 43.8111 52.077 43.1954 51.4614L41.0328 49.2987C40.1557 48.4217 38.734 48.4217 37.857 49.2987C36.98 50.1758 36.98 51.5975 37.857 52.4745Z" stroke="#499A9A" stroke-width="1.5" stroke-miterlimit="10" stroke-linecap="round" stroke-linejoin="round"/>
<path d="M34.3633 31.9369C34.6858 32.5605 35.2088 33.0636 35.847 33.3611" stroke="#499A9A" stroke-width="1.5" stroke-miterlimit="10" stroke-linecap="round" stroke-linejoin="round"/>
<path d="M35.847 33.3609C36.2544 33.5507 36.7087 33.6567 37.1878 33.6567H38.5014V34.1254C38.5014 36.3446 40.3003 38.1436 42.5195 38.1436C42.645 38.1436 42.7655 38.0937 42.8542 38.005C42.943 37.9162 42.9927 37.7959 42.9927 37.6704C42.9925 36.2592 42.9928 32.197 42.9922 32.1523C42.9647 29.7559 41.0137 27.8189 38.6077 27.8189H34.887H34.8837C34.6666 27.8189 34.4581 27.7326 34.3045 27.579L30.0508 23.3253" stroke="#499A9A" stroke-width="1.5" stroke-miterlimit="10" stroke-linecap="round" stroke-linejoin="round"/>
<path d="M22.0312 32.6361L25.6716 36.2764C25.8177 36.4225 25.9048 36.6195 25.9053 36.8262C25.9102 38.5606 26.4139 40.2937 27.417 41.7919C27.6958 42.2083 28.0036 42.5934 28.3356 42.947" stroke="#499A9A" stroke-width="1.5" stroke-miterlimit="10" stroke-linecap="round" stroke-linejoin="round"/>
<path d="M49.9437 23.3256L45.6841 27.5853C45.5369 27.7325 45.3381 27.8196 45.13 27.8192C43.7967 27.8159 42.4627 28.1076 41.2344 28.6943" stroke="#499A9A" stroke-width="1.5" stroke-miterlimit="10" stroke-linecap="round" stroke-linejoin="round"/>
<path d="M52.5781 41.792C53.5813 40.2939 54.0852 38.5606 54.0898 36.8264C54.0903 36.6196 54.1775 36.4226 54.3236 36.2765L57.9639 32.6362" stroke="#499A9A" stroke-width="1.5" stroke-miterlimit="10" stroke-linecap="round" stroke-linejoin="round"/>
<path d="M29.3477 39.8577L28.4072 40.7982C27.7877 41.4177 27.795 42.4155 28.4072 43.0277L29.3535 43.974C29.9692 44.5896 30.9674 44.5896 31.5831 43.974C30.9674 44.5896 30.9674 45.5879 31.5831 46.2035L32.5292 47.1498C33.145 47.7654 34.1431 47.7654 34.7589 47.1498C34.1431 47.7654 34.1431 48.7637 34.7589 49.3793L37.8541 52.4746" stroke="#499A9A" stroke-width="1.5" stroke-miterlimit="10" stroke-linecap="round" stroke-linejoin="round"/>
<path d="M35.8489 33.3611L33.3008 35.9092" stroke="#499A9A" stroke-width="1.5" stroke-miterlimit="10" stroke-linecap="round" stroke-linejoin="round"/>
</g>
</g>
<defs>
<clipPath id="clip0_4080_7897">
<rect width="80" height="80" fill="white"/>
</clipPath>
</defs>
</svg>
