<svg width="80" height="80" viewBox="0 0 80 80" fill="none" xmlns="http://www.w3.org/2000/svg">
<path d="M29.0144 70.7852C26.3233 69.8244 23.7952 68.5206 21.4825 66.9267L16.7823 70.92L9.07984 63.2175L13.0736 58.5169C10.5184 54.8078 8.70812 50.5459 7.8625 45.9458L1.71875 45.4464V34.5534L7.86125 34.0541C8.70734 29.4539 10.5172 25.1911 13.0733 21.4823L9.07984 16.7822L16.7823 9.07969L21.483 13.0734C25.192 10.5183 29.4541 8.70797 34.0541 7.86234L34.5534 1.71875H45.4464L45.9459 7.86234C50.5461 8.70813 54.8089 10.5175 58.5177 13.073L63.2177 9.07969L70.9202 16.7822L66.9272 21.482C69.4828 25.1909 71.2927 29.4536 72.1384 34.0539L78.2812 34.5534V45.4464L72.1389 45.9458C71.2928 50.5459 69.483 54.8087 66.9269 58.5173L70.9203 63.2175L63.2178 70.92L58.5172 66.9263C56.1944 68.5266 53.6547 69.8344 50.9509 70.7963" stroke="#499A9A" stroke-width="1.5" stroke-miterlimit="22.9256" stroke-linecap="round" stroke-linejoin="round"/>
<path d="M31.5382 61.7542C22.5671 58.2645 16.6582 49.6259 16.6582 40C16.6582 27.1086 27.1088 16.658 40.0002 16.658C52.8916 16.658 63.3424 27.1086 63.3424 40C63.3424 49.6256 57.4338 58.2641 48.463 61.7539" stroke="#499A9A" stroke-width="1.5" stroke-miterlimit="22.9256" stroke-linecap="round" stroke-linejoin="round"/>
<path d="M26.9395 78.2812C30.0771 70.2683 33.9707 54.542 33.9707 43.0631H27.7207L40.0002 26.74L52.2798 43.0631H46.0298C46.0298 54.542 49.9234 70.2683 53.061 78.2812" stroke="#499A9A" stroke-width="1.5" stroke-miterlimit="22.9256" stroke-linecap="round" stroke-linejoin="round"/>
</svg>
