<svg width="80" height="80" viewBox="0 0 80 80" fill="none" xmlns="http://www.w3.org/2000/svg">
<g clip-path="url(#clip0_3455_37611)">
<path d="M33.4365 39.6888V46.8627H26.5615V39.6888" stroke="#499A9A" stroke-width="1.5" stroke-miterlimit="10" stroke-linejoin="round"/>
<path d="M46.2394 26.5681L42.4391 29.3289C40.4033 28.1011 38.1713 27.1666 35.8013 26.5812L35.0275 21.7216L24.9477 21.7258L24.1777 26.5856C21.8083 27.1726 19.5769 28.1089 17.5419 29.3383L13.5578 26.4486L6.43281 33.5784L9.32578 37.5606C8.09797 39.5964 7.16344 41.8284 6.57812 44.1983L1.71875 44.9723L1.72297 55.052L6.58281 55.822C7.16984 58.1914 8.10609 60.4228 9.33547 62.4578L6.44594 66.4419L13.5758 73.5669L17.558 70.6739C19.5938 71.9017 21.8258 72.8362 24.1958 73.4216L24.9694 78.2812L35.0491 78.277L35.8191 73.4172C38.1884 72.8301 40.4198 71.8939 42.4548 70.6645L46.4389 73.5541L53.5639 66.4242L50.6709 62.442C51.8988 60.4062 52.8333 58.1742 53.4186 55.8044L58.2783 55.0306L58.2747 46.2233" stroke="#499A9A" stroke-width="1.5" stroke-miterlimit="10" stroke-linejoin="round"/>
<path d="M40.3115 39.6888H19.6865V60.3138H40.3115V39.6888Z" stroke="#499A9A" stroke-width="1.5" stroke-miterlimit="10" stroke-linejoin="round"/>
<path d="M62.0312 46.6604C71.0059 46.6604 78.2812 39.385 78.2812 30.4104C78.2812 21.4358 71.0059 14.1604 62.0312 14.1604C53.0566 14.1604 45.7812 21.4358 45.7812 30.4104C45.7812 39.385 53.0566 46.6604 62.0312 46.6604Z" stroke="#499A9A" stroke-width="1.5" stroke-miterlimit="10" stroke-linejoin="round"/>
<path d="M65.0616 23.7999C64.3348 23.3981 62.6431 22.6663 60.7389 23.2399C58.4077 23.9422 57.8286 27.1321 59.4128 28.3746C60.3225 29.088 61.6912 29.6747 63.5359 30.3267C67.6647 31.7861 66.1384 37.6086 61.9386 37.6366C60.2997 37.6475 59.5334 37.5435 58.0938 36.6016" stroke="#499A9A" stroke-width="1.5" stroke-miterlimit="10" stroke-linecap="round" stroke-linejoin="round"/>
<path d="M61.9395 37.907V39.7618" stroke="#499A9A" stroke-width="1.5" stroke-miterlimit="10" stroke-linecap="round" stroke-linejoin="round"/>
<path d="M61.9395 21.0591V22.8506" stroke="#499A9A" stroke-width="1.5" stroke-miterlimit="10" stroke-linecap="round" stroke-linejoin="round"/>
<path d="M10.2607 20.9903L25.6137 5.6375L34.3481 14.3719L46.6107 2.10938" stroke="#499A9A" stroke-width="1.5" stroke-miterlimit="10" stroke-linecap="round" stroke-linejoin="round"/>
<path d="M47.0016 7.59938V1.71875H41.1211" stroke="#499A9A" stroke-width="1.5" stroke-miterlimit="10" stroke-linecap="round" stroke-linejoin="round"/>
</g>
<defs>
<clipPath id="clip0_3455_37611">
<rect width="80" height="80" fill="white"/>
</clipPath>
</defs>
</svg>
