<svg width="80" height="80" viewBox="0 0 80 80" fill="none" xmlns="http://www.w3.org/2000/svg">
<path d="M46.5955 57.5216C44.2228 58.1541 41.7548 58.5125 39.2083 58.5125C17.5361 58.5125 1.5625 32.5578 1.5625 32.5578C1.5625 32.5578 17.5361 6.60315 39.2083 6.60315C60.8805 6.60315 76.8541 32.5578 76.8541 32.5578C76.8541 32.5578 72.6353 39.4127 65.5923 46.0767" stroke="#499A9A" stroke-width="1.5" stroke-miterlimit="10" stroke-linecap="round" stroke-linejoin="round"/>
<path d="M54.972 24.6055C52.9284 24.6055 51.2718 22.9488 51.2718 20.9052C51.2718 19.8611 51.7043 18.9181 52.3998 18.2453C48.9315 15.0469 44.298 13.0931 39.2082 13.0931C28.4585 13.0931 19.7441 21.8078 19.7441 32.5578C19.7441 43.3078 28.4585 52.0225 39.2082 52.0225C49.9579 52.0225 58.6723 43.3078 58.6723 32.5578C58.6723 29.5439 57.9873 26.6899 56.7645 24.1431C56.2332 24.4377 55.6223 24.6055 54.972 24.6055Z" stroke="#499A9A" stroke-width="1.5" stroke-miterlimit="10" stroke-linecap="round" stroke-linejoin="round"/>
<path d="M39.2088 39.5225C43.0553 39.5225 46.1735 36.4043 46.1735 32.5578C46.1735 28.7113 43.0553 25.5931 39.2088 25.5931C35.3623 25.5931 32.2441 28.7113 32.2441 32.5578C32.2441 36.4043 35.3623 39.5225 39.2088 39.5225Z" stroke="#499A9A" stroke-width="1.5" stroke-miterlimit="10" stroke-linecap="round" stroke-linejoin="round"/>
<path d="M41.9753 64.8506L55.0948 44.4304C57.2783 41.032 62.2456 41.032 64.429 44.4304L77.5486 64.8506C79.9206 68.5426 77.2697 73.3967 72.8815 73.3967H46.6423C42.254 73.3968 39.6033 68.5426 41.9753 64.8506Z" stroke="#499A9A" stroke-width="1.5" stroke-miterlimit="10" stroke-linecap="round" stroke-linejoin="round"/>
<path d="M59.7617 53.3V59.1666" stroke="#499A9A" stroke-width="1.5" stroke-miterlimit="10" stroke-linecap="round" stroke-linejoin="round"/>
<circle cx="59.7617" cy="65.2692" r="1.5625" fill="#499A9A"/>
</svg>
