<svg width="53" height="53" viewBox="0 0 53 53" fill="none" xmlns="http://www.w3.org/2000/svg">
<g clip-path="url(#clip0_3125_3936)">
<mask id="mask0_3125_3936" style="mask-type:luminance" maskUnits="userSpaceOnUse" x="0" y="0" width="53" height="53">
<path d="M0 3.8147e-06H53V53H0V3.8147e-06Z" fill="white"/>
</mask>
<g mask="url(#mask0_3125_3936)">
<path d="M36.8682 46.2399C37.2167 46.0565 37.5597 45.8642 37.897 45.6632C38.1886 45.4893 38.5553 45.5051 38.8317 45.7025L40.4757 46.8768C41.1578 47.364 42.0923 47.2867 42.6851 46.6939L46.6937 42.6852C47.2865 42.0925 47.3639 41.1581 46.8765 40.4759L45.7022 38.8319C45.5049 38.5556 45.4891 38.1888 45.6629 37.8971C46.7464 36.0794 47.5788 34.0947 48.1118 31.9905C48.1951 31.6616 48.4658 31.4138 48.8005 31.358L50.7907 31.0264C51.6175 30.8885 52.2236 30.1731 52.2236 29.3347V23.6657C52.2236 22.8274 51.6175 22.1119 50.7907 21.9741L48.8005 21.6424C48.4658 21.5867 48.1951 21.3388 48.1118 21.01C47.5788 18.9057 46.7464 16.9211 45.6629 15.1033C45.4891 14.8117 45.5049 14.4449 45.7022 14.1685L46.8765 12.5246C47.3639 11.8424 47.2865 10.908 46.6937 10.3152L42.6851 6.30663C42.0922 5.71379 41.1578 5.63647 40.4757 6.12371L38.8317 7.29799C38.5553 7.4953 38.1886 7.51124 37.897 7.33733C36.0791 6.25383 34.0945 5.42146 31.9903 4.88846C31.6615 4.80523 31.4136 4.53444 31.3579 4.19977L31.0261 2.20958C30.8883 1.3827 30.1728 0.776615 29.3346 0.776615H23.6655C22.8272 0.776615 22.1118 1.3827 21.9739 2.20958L21.6422 4.19977C21.5864 4.53444 21.3386 4.80523 21.0097 4.88846C18.9056 5.42146 16.921 6.25383 15.1031 7.33733C14.8114 7.51124 14.4447 7.4953 14.1684 7.29799L12.5245 6.12371C11.8422 5.63647 10.9078 5.71379 10.315 6.30663L6.30638 10.3152C5.71365 10.908 5.63632 11.8424 6.12357 12.5246L7.29775 14.1685C7.49515 14.4449 7.51099 14.8117 7.33719 15.1033C6.25359 16.9211 5.42122 18.9057 4.88832 21.01C4.80499 21.3388 4.5343 21.5867 4.19963 21.6424L2.20944 21.9741C1.38245 22.1119 0.776367 22.8274 0.776367 23.6657V29.3347C0.776367 30.1731 1.38245 30.8885 2.20944 31.0264L4.19963 31.358C4.5343 31.4138 4.80499 31.6616 4.88832 31.9905C5.42122 34.0947 6.25359 36.0794 7.33719 37.8971C7.51099 38.1888 7.49515 38.5556 7.29775 38.8319L6.12357 40.4759C5.63632 41.1581 5.71365 42.0925 6.30638 42.6852L10.315 46.6939C10.9078 47.2867 11.8422 47.364 12.5245 46.8768L14.1684 45.7025C14.4447 45.5051 14.8114 45.4893 15.1031 45.6632C16.9209 46.7467 18.9056 47.579 21.0097 48.1119C21.3386 48.1953 21.5864 48.4659 21.6422 48.8006L21.9739 50.7908C22.1118 51.6178 22.8272 52.2239 23.6655 52.2239H29.3346C30.1728 52.2239 30.8883 51.6178 31.0261 50.7908L31.3579 48.8006C31.4136 48.4659 31.6615 48.1953 31.9903 48.1119C32.5129 47.9796 33.0281 47.8288 33.5351 47.6602" stroke="#499A9A" stroke-width="1.5" stroke-miterlimit="10" stroke-linecap="round" stroke-linejoin="round"/>
<path d="M14.5009 11.9436C17.7617 9.25248 21.9421 7.63598 26.5001 7.63598C36.9184 7.63598 45.3641 16.0817 45.3641 26.4999C45.3641 36.9183 36.9184 45.364 26.5001 45.364C16.0818 45.364 7.63611 36.9183 7.63611 26.4999C7.63611 21.9355 9.25727 17.7497 11.9552 14.4869" stroke="#499A9A" stroke-width="1.5" stroke-miterlimit="10" stroke-linecap="round" stroke-linejoin="round"/>
<path d="M4.20627 2.49122C4.20627 3.43828 3.4385 4.20605 2.49133 4.20605C1.54426 4.20605 0.776489 3.43828 0.776489 2.49122C0.776489 1.54405 1.54426 0.776272 2.49133 0.776272C3.4385 0.776272 4.20627 1.54405 4.20627 2.49122Z" stroke="#499A9A" stroke-width="1.5" stroke-miterlimit="10" stroke-linecap="round" stroke-linejoin="round"/>
<path d="M4.2063 2.4914H8.5229C8.98023 2.4914 9.35103 2.86219 9.35103 3.31952V7.27051" stroke="#499A9A" stroke-width="1.5" stroke-miterlimit="10" stroke-linecap="round" stroke-linejoin="round"/>
<path d="M48.7938 2.49122C48.7938 3.43828 49.5616 4.20605 50.5087 4.20605C51.4558 4.20605 52.2236 3.43828 52.2236 2.49122C52.2236 1.54405 51.4558 0.776272 50.5087 0.776272C49.5616 0.776272 48.7938 1.54405 48.7938 2.49122Z" stroke="#499A9A" stroke-width="1.5" stroke-miterlimit="10" stroke-linecap="round" stroke-linejoin="round"/>
<path d="M48.7939 2.4914H44.4773C44.02 2.4914 43.6492 2.86219 43.6492 3.31952V7.27051" stroke="#499A9A" stroke-width="1.5" stroke-miterlimit="10" stroke-linecap="round" stroke-linejoin="round"/>
<path d="M48.7938 50.5089C48.7938 49.5619 49.5616 48.7941 50.5087 48.7941C51.4558 48.7941 52.2236 49.5619 52.2236 50.5089C52.2236 51.4561 51.4558 52.2239 50.5087 52.2239C49.5616 52.2239 48.7938 51.4561 48.7938 50.5089Z" stroke="#499A9A" stroke-width="1.5" stroke-miterlimit="10" stroke-linecap="round" stroke-linejoin="round"/>
<path d="M48.7939 50.5088H44.4773C44.02 50.5088 43.6492 50.138 43.6492 49.6807V45.7297" stroke="#499A9A" stroke-width="1.5" stroke-miterlimit="10" stroke-linecap="round" stroke-linejoin="round"/>
<path d="M4.20627 50.5089C4.20627 49.5619 3.4385 48.7941 2.49133 48.7941C1.54426 48.7941 0.776489 49.5619 0.776489 50.5089C0.776489 51.4561 1.54426 52.2239 2.49133 52.2239C3.4385 52.2239 4.20627 51.4561 4.20627 50.5089Z" stroke="#499A9A" stroke-width="1.5" stroke-miterlimit="10" stroke-linecap="round" stroke-linejoin="round"/>
<path d="M4.2063 50.5088H8.5229C8.98023 50.5088 9.35103 50.138 9.35103 49.6807V45.7297" stroke="#499A9A" stroke-width="1.5" stroke-miterlimit="10" stroke-linecap="round" stroke-linejoin="round"/>
<path d="M33.6451 23.0703V29.9299" stroke="#499A9A" stroke-width="1.5" stroke-miterlimit="10" stroke-linecap="round" stroke-linejoin="round"/>
<path d="M37.5288 25.0061C37.5288 26.0752 36.6242 26.9418 35.5551 26.9418C35.0249 26.9418 33.6584 26.9504 33.6584 26.9504C33.6584 26.9504 33.6499 25.545 33.6499 25.0061C33.6499 24.5635 33.6451 23.0703 33.6451 23.0703H35.5551C36.6242 23.0703 37.5288 23.937 37.5288 25.0061Z" stroke="#499A9A" stroke-width="1.5" stroke-miterlimit="10" stroke-linecap="round" stroke-linejoin="round"/>
<path d="M30.2154 26.5001C30.2154 28.3944 28.6798 29.9299 26.7856 29.9299C24.8913 29.9299 23.3557 28.3944 23.3557 26.5001C23.3557 24.6059 24.8913 23.0704 26.7856 23.0704C28.6798 23.0704 30.2154 24.6059 30.2154 26.5001Z" stroke="#499A9A" stroke-width="1.5" stroke-miterlimit="10" stroke-linecap="round" stroke-linejoin="round"/>
<path d="M19.6992 23.7754C19.6992 23.7754 18.4683 22.7408 17.0168 23.178C15.6841 23.5795 15.4976 25.1164 16.4619 25.7449C16.4619 25.7449 17.408 26.167 18.4574 26.5542C20.9836 27.4859 19.8955 29.9299 17.8618 29.9299C16.8434 29.9299 15.9887 29.4839 15.4714 28.9131" stroke="#499A9A" stroke-width="1.5" stroke-miterlimit="10" stroke-linecap="round" stroke-linejoin="round"/>
</g>
</g>
<defs>
<clipPath id="clip0_3125_3936">
<rect width="53" height="53" fill="white"/>
</clipPath>
</defs>
</svg>
