<svg width="220" height="80" viewBox="0 0 220 80" fill="none" xmlns="http://www.w3.org/2000/svg">
<rect width="220" height="80" rx="8" fill="white"/>
<path d="M81.4509 43.0655V51.0046H79V30H84.7362C86.9525 30 88.6994 30.5521 89.9248 31.6299C91.1503 32.734 91.75 34.2588 91.75 36.2567C91.75 38.2546 91.0721 39.8845 89.7163 41.1464C88.3604 42.4082 86.5092 43.0392 84.2147 43.0392H81.4509V43.0655ZM81.4509 32.2345V40.8572H84.0061C85.7009 40.8572 86.9785 40.4629 87.865 39.7005C88.7515 38.9381 89.1948 37.834 89.1948 36.4144C89.1948 33.6541 87.5782 32.2608 84.319 32.2608H81.4509V32.2345ZM100.459 51.3727C98.2684 51.3727 96.4954 50.6629 95.1917 49.2696C93.888 47.8763 93.2362 46.0098 93.2362 43.6964C93.2362 41.1727 93.9141 39.201 95.296 37.7814C96.6518 36.3619 98.5031 35.6521 100.824 35.6521C103.04 35.6521 104.761 36.3356 106.012 37.7289C107.264 39.0959 107.89 41.015 107.89 43.4598C107.89 45.8521 107.212 47.7711 105.882 49.217C104.552 50.6629 102.727 51.3727 100.459 51.3727ZM100.641 37.6763C99.1028 37.6763 97.9034 38.2021 97.0169 39.2536C96.1304 40.3052 95.6871 41.751 95.6871 43.5912C95.6871 45.3789 96.1304 46.7722 97.0429 47.7974C97.9555 48.8227 99.1549 49.3485 100.667 49.3485C102.206 49.3485 103.379 48.849 104.213 47.85C105.048 46.851 105.465 45.4052 105.465 43.565C105.465 41.6985 105.048 40.2526 104.213 39.2273C103.379 38.2021 102.179 37.6763 100.641 37.6763ZM130.417 36.0201L125.959 51.0309H123.482L120.405 40.3052C120.301 39.8845 120.222 39.4376 120.17 38.9119H120.118C120.092 39.2536 119.988 39.7268 119.805 40.2789L116.468 51.0572H114.095L109.584 36.0464H112.087L115.164 47.3242C115.268 47.666 115.321 48.1129 115.373 48.6649H115.477C115.503 48.2443 115.581 47.7711 115.738 47.2979L119.153 36.0464H121.344L124.42 47.3505C124.525 47.7186 124.603 48.1655 124.629 48.6912H124.733C124.759 48.3232 124.837 47.85 124.968 47.3505L127.992 36.0464H130.417V36.0201ZM145.149 44.117H134.641C134.667 45.7995 135.137 47.0876 135.971 47.9814C136.805 48.8753 138.005 49.3485 139.491 49.3485C141.16 49.3485 142.698 48.7964 144.106 47.666V49.9268C142.802 50.8732 141.081 51.3727 138.917 51.3727C136.805 51.3727 135.163 50.6892 133.963 49.3222C132.764 47.9552 132.164 46.0361 132.164 43.565C132.164 41.2253 132.816 39.3325 134.12 37.8603C135.423 36.3881 137.066 35.6521 138.995 35.6521C140.951 35.6521 142.437 36.283 143.506 37.5448C144.575 38.8067 145.097 40.568 145.097 42.8289V44.117H145.149ZM142.698 42.0665C142.698 40.6732 142.359 39.5954 141.707 38.833C141.055 38.0706 140.143 37.6763 138.995 37.6763C137.874 37.6763 136.91 38.0706 136.127 38.8856C135.345 39.7005 134.85 40.7521 134.667 42.0665H142.698ZM156.491 38.4387C156.074 38.1232 155.474 37.9655 154.692 37.9655C153.675 37.9655 152.814 38.4387 152.137 39.4113C151.459 40.384 151.12 41.6985 151.12 43.3546V51.0046H148.747V35.9938H151.12V39.0959H151.172C151.511 38.0443 152.032 37.2294 152.736 36.6247C153.44 36.0464 154.222 35.7309 155.083 35.7309C155.709 35.7309 156.178 35.8098 156.517 35.9412V38.4387H156.491ZM167.572 51.0046V30H173.491C175.29 30 176.724 30.4469 177.767 31.3407C178.81 32.2345 179.357 33.3912 179.357 34.8108C179.357 35.9938 179.044 37.0454 178.393 37.9129C177.741 38.7804 176.88 39.4113 175.759 39.7794V39.832C177.167 39.9897 178.288 40.5418 179.123 41.4356C179.957 42.3294 180.374 43.5124 180.374 44.9582C180.374 46.7459 179.722 48.218 178.445 49.3222C177.167 50.4263 175.551 51.0046 173.595 51.0046H167.572ZM169.997 32.2345V39.017H172.5C173.83 39.017 174.899 38.7015 175.655 38.0443C176.411 37.3871 176.802 36.467 176.802 35.3103C176.802 33.2598 175.472 32.2608 172.813 32.2608H169.997V32.2345ZM169.997 41.2253V48.7964H173.308C174.742 48.7964 175.863 48.4546 176.646 47.7711C177.428 47.0876 177.819 46.1412 177.819 44.9582C177.819 42.4871 176.15 41.2253 172.787 41.2253H169.997ZM187.049 51.0046H184.598V30H187.049V51.0046Z" fill="black"/>
<path d="M62.3632 19.6006V58.7444C62.3632 59.7171 61.581 60.5321 60.5902 60.5321H49.5611C48.5964 60.5321 47.7881 59.7434 47.7881 58.7444V19.6006C47.7881 18.6279 48.5703 17.813 49.5611 17.813H60.5902C61.555 17.8393 62.3632 18.6279 62.3632 19.6006Z" fill="url(#paint0_linear_3125_4084)"/>
<path d="M53.7592 30.2998V60.5581H39.1841V30.2998C39.1841 29.3272 39.9663 28.5122 40.9571 28.5122H51.9862C52.951 28.5122 53.7592 29.3009 53.7592 30.2998Z" fill="url(#paint1_linear_3125_4084)"/>
<path d="M30.5796 40.9732V58.7706C30.5796 59.7433 31.3618 60.5582 32.3526 60.5582H45.1547V40.9732C45.1547 40.0005 44.3725 39.1855 43.3817 39.1855H32.3526C31.3879 39.1855 30.5796 39.9742 30.5796 40.9732Z" fill="url(#paint2_linear_3125_4084)"/>
<defs>
<linearGradient id="paint0_linear_3125_4084" x1="45.3844" y1="17.8222" x2="63.8895" y2="57.9416" gradientUnits="userSpaceOnUse">
<stop stop-color="#E6AD10"/>
<stop offset="1" stop-color="#C87E0E"/>
</linearGradient>
<linearGradient id="paint1_linear_3125_4084" x1="38.3923" y1="28.9095" x2="53.9744" y2="59.8187" gradientUnits="userSpaceOnUse">
<stop stop-color="#F6D751"/>
<stop offset="1" stop-color="#E6AD10"/>
</linearGradient>
<linearGradient id="paint2_linear_3125_4084" x1="33.1113" y1="38.1434" x2="41.6994" y2="58.9615" gradientUnits="userSpaceOnUse">
<stop stop-color="#F9E589"/>
<stop offset="1" stop-color="#F6D751"/>
</linearGradient>
</defs>
</svg>
