<svg width="220" height="80" viewBox="0 0 220 80" fill="none" xmlns="http://www.w3.org/2000/svg">
<rect width="220" height="80" rx="8" fill="white"/>
<path d="M90.6777 22.9785V41.026H87.5012V26.8834H87.4472L81.7754 41.026H79.6779L73.8644 26.8834H73.824V41.026H70.8903V22.9785H75.4426L80.6896 36.359H80.7705L86.3142 22.9785H90.6777Z" fill="#787878"/>
<path d="M96.7275 41.026H93.6454V28.0907H96.7275V41.026ZM93.3284 24.3544C93.3217 23.8688 93.524 23.4102 93.8814 23.0865C94.2389 22.7493 94.711 22.5672 95.2033 22.5739C95.7024 22.5604 96.188 22.7493 96.5521 23.0932C96.8961 23.4169 97.0917 23.8688 97.0849 24.3476C97.0917 24.8197 96.8893 25.2783 96.5386 25.5953C96.1745 25.9325 95.6956 26.1079 95.1966 26.1011C94.7042 26.1146 94.2254 25.9325 93.8612 25.5886C93.5173 25.2783 93.3217 24.8265 93.3284 24.3544Z" fill="#787878"/>
<path d="M106.034 38.814C106.554 38.8005 107.066 38.6926 107.552 38.497C108.098 38.2879 108.611 38.0114 109.083 37.6675V40.5C108.557 40.79 107.99 40.9991 107.403 41.1272C106.729 41.2756 106.034 41.3498 105.346 41.343C103.6 41.4105 101.893 40.763 100.646 39.5356C99.4318 38.3149 98.7776 36.6423 98.8383 34.9226C98.7709 33.0342 99.4318 31.193 100.686 29.7835C101.92 28.4347 103.667 27.7603 105.926 27.7603C106.52 27.7603 107.107 27.8344 107.68 27.9828C108.172 28.0907 108.644 28.2661 109.089 28.4954V31.4156C108.638 31.0851 108.152 30.8154 107.633 30.6198C107.147 30.431 106.628 30.3365 106.109 30.3365C105.003 30.2893 103.937 30.7142 103.161 31.51C102.386 32.3733 101.981 33.5063 102.042 34.6663C101.974 35.7926 102.366 36.8919 103.121 37.7214C103.89 38.47 104.955 38.8679 106.034 38.814Z" fill="#787878"/>
<path d="M117.864 27.8749C118.086 27.8749 118.309 27.8884 118.525 27.9288C118.693 27.9558 118.862 27.9963 119.024 28.057V31.1391C118.808 30.9907 118.565 30.8828 118.315 30.8086C117.951 30.6939 117.567 30.64 117.189 30.6535C116.434 30.6535 115.726 30.9974 115.274 31.5977C114.687 32.4474 114.411 33.4726 114.492 34.5044V41.0328H111.409V28.0907H114.492V30.1274H114.539C114.788 29.4598 115.233 28.8865 115.813 28.4751C116.414 28.0637 117.135 27.8546 117.864 27.8749Z" fill="#787878"/>
<path d="M122.416 34.6459C122.342 35.7587 122.672 36.858 123.347 37.7415C124.028 38.4834 125.006 38.8745 126.011 38.8138C126.982 38.8745 127.933 38.4834 128.573 37.7415C129.221 36.8176 129.531 35.698 129.45 34.5717C129.531 33.4455 129.207 32.3259 128.54 31.4222C127.892 30.6938 126.955 30.3027 125.984 30.3566C124.979 30.3027 124.014 30.7141 123.354 31.4694C122.672 32.3866 122.342 33.5129 122.416 34.6459ZM119.199 34.7471C119.098 32.8722 119.759 31.0378 121.033 29.662C122.396 28.3536 124.244 27.6792 126.132 27.7871C127.913 27.6859 129.659 28.3401 130.934 29.5945C132.134 30.9299 132.755 32.6834 132.66 34.4706C132.755 36.3185 132.094 38.1259 130.826 39.4815C129.491 40.7696 127.683 41.4441 125.829 41.3429C124.041 41.4373 122.295 40.7966 120.993 39.5759C119.752 38.281 119.105 36.5343 119.199 34.7471Z" fill="#787878"/>
<path d="M137.246 31.49C137.226 31.8744 137.381 32.2521 137.664 32.5151C138.238 32.913 138.865 33.23 139.526 33.4525C140.511 33.7763 141.401 34.3428 142.122 35.0981C142.628 35.7253 142.891 36.5076 142.871 37.3035C142.905 38.4567 142.372 39.5493 141.448 40.2372C140.328 41.0263 138.973 41.4174 137.604 41.3432C136.997 41.3365 136.397 41.269 135.803 41.1476C135.23 41.0397 134.663 40.8779 134.131 40.6486V37.6542C134.69 38.0386 135.297 38.3488 135.938 38.5714C136.504 38.7804 137.098 38.8951 137.698 38.9086C138.231 38.9423 138.757 38.8411 139.243 38.6186C139.58 38.4163 139.775 38.0386 139.742 37.6474C139.742 37.2293 139.553 36.8381 139.222 36.5818C138.622 36.1569 137.961 35.8197 137.267 35.5837C136.343 35.26 135.513 34.7137 134.845 33.9988C134.353 33.3581 134.097 32.569 134.131 31.7597C134.11 30.6335 134.636 29.5611 135.54 28.8867C136.592 28.0976 137.88 27.6997 139.189 27.7604C139.708 27.7672 140.221 27.8144 140.733 27.9088C141.219 27.9897 141.697 28.1179 142.163 28.3V31.2C141.718 30.91 141.239 30.6807 140.733 30.5053C140.214 30.3165 139.667 30.2221 139.114 30.2153C138.636 30.1883 138.157 30.303 137.745 30.5525C137.422 30.7616 137.24 31.1123 137.246 31.49Z" fill="#787878"/>
<mask id="mask0_3125_4094" style="mask-type:luminance" maskUnits="userSpaceOnUse" x="23" y="21" width="174" height="39">
<path d="M23 21.6431V59.3566H197V21.6431" fill="white"/>
</mask>
<g mask="url(#mask0_3125_4094)">
<path d="M147.437 34.6459C147.363 35.7587 147.693 36.858 148.368 37.7415C149.049 38.4834 150.027 38.8745 151.032 38.8138C152.01 38.8745 152.954 38.4834 153.594 37.7415C154.242 36.8176 154.552 35.698 154.471 34.5717C154.552 33.4455 154.228 32.3259 153.561 31.4222C152.913 30.6938 151.976 30.3027 151.005 30.3566C150 30.3027 149.035 30.7141 148.374 31.4694C147.693 32.3866 147.363 33.5129 147.437 34.6459ZM144.22 34.7471C144.119 32.8722 144.78 31.0378 146.054 29.662C147.417 28.3536 149.265 27.6792 151.153 27.7871C152.934 27.6859 154.68 28.3401 155.955 29.5945C157.155 30.9299 157.776 32.6834 157.681 34.4706C157.776 36.3185 157.115 38.1259 155.847 39.4815C154.512 40.7696 152.704 41.4441 150.85 41.3429C149.062 41.4373 147.316 40.7966 146.014 39.5759C144.773 38.281 144.126 36.5343 144.22 34.7471Z" fill="#787878"/>
</g>
<mask id="mask1_3125_4094" style="mask-type:luminance" maskUnits="userSpaceOnUse" x="23" y="21" width="174" height="39">
<path d="M23 21.6431V59.3566H197V21.6431" fill="white"/>
</mask>
<g mask="url(#mask1_3125_4094)">
<path d="M164.918 21.6502C165.248 21.6502 165.579 21.6637 165.909 21.7041C166.165 21.7378 166.422 21.7918 166.671 21.8727V24.503C166.503 24.4153 166.321 24.3411 166.138 24.2871C165.855 24.1995 165.558 24.159 165.262 24.159C164.702 24.1253 164.156 24.3411 163.771 24.7592C163.387 25.265 163.205 25.8923 163.245 26.5262V28.0909H166.165V30.5795H163.245V41.0262H160.123V30.5862H157.931V28.0976H160.123V26.2902C160.082 25.0357 160.568 23.8218 161.465 22.945C162.402 22.0683 163.643 21.5962 164.918 21.6502Z" fill="#787878"/>
</g>
<path d="M172.795 38.8141C173.018 38.8074 173.234 38.7669 173.443 38.686C173.672 38.6118 173.895 38.5106 174.097 38.3825V40.8981C173.787 41.0464 173.456 41.1476 173.119 41.2016C172.674 41.296 172.229 41.3364 171.777 41.3432C170.698 41.4241 169.639 41.0532 168.85 40.3181C168.135 39.4548 167.784 38.342 167.872 37.2292V30.5862H165.721V28.0909H167.872V25.1841L170.968 24.2534V28.0909H174.09V30.5862H170.968V36.6357C170.914 37.2292 171.069 37.8295 171.406 38.3218C171.784 38.6792 172.289 38.8613 172.795 38.8141Z" fill="#787878"/>
<mask id="mask2_3125_4094" style="mask-type:luminance" maskUnits="userSpaceOnUse" x="23" y="21" width="174" height="39">
<path d="M23 21.6431V59.3566H197V21.6431" fill="white"/>
</mask>
<g mask="url(#mask2_3125_4094)">
<path d="M70.4048 58.7028V56.7672C70.5937 56.9358 70.8095 57.0774 71.032 57.1921C71.2816 57.3202 71.5379 57.4281 71.8076 57.5158C72.0774 57.6035 72.3472 57.6709 72.6237 57.7181C72.8732 57.7653 73.1227 57.7855 73.379 57.7923C73.9995 57.8328 74.62 57.6979 75.1662 57.3944C75.5507 57.1448 75.7732 56.7065 75.753 56.2479C75.7597 55.9983 75.6923 55.7555 75.5574 55.5465C75.409 55.3307 75.2269 55.1486 75.0111 55.0069C74.7481 54.8248 74.4716 54.6697 74.1816 54.5348C73.8646 54.3865 73.5206 54.2246 73.1632 54.0628C72.772 53.8537 72.4079 53.6514 72.0707 53.4355C71.7537 53.24 71.4569 53.0039 71.1939 52.7341C70.9511 52.4846 70.7488 52.1879 70.6072 51.8709C70.4588 51.5135 70.3846 51.129 70.3913 50.7379C70.3779 50.2523 70.506 49.7667 70.7555 49.3486C70.9983 48.9574 71.3288 48.6269 71.72 48.3774C72.1381 48.1144 72.5967 47.9188 73.0755 47.8109C73.5813 47.6895 74.1007 47.6221 74.6267 47.6221C75.5237 47.5681 76.4139 47.7097 77.2502 48.0267V49.8881C76.5083 49.3958 75.6248 49.153 74.7346 49.1935C74.4513 49.1935 74.1681 49.2204 73.8916 49.2744C73.6286 49.3216 73.3723 49.4093 73.1362 49.5374C72.9272 49.6521 72.7383 49.8072 72.5967 50.0028C72.4551 50.2051 72.3809 50.4479 72.3876 50.6907C72.3809 50.92 72.4348 51.1493 72.5495 51.3448C72.6709 51.5404 72.826 51.7158 73.0148 51.8507C73.2509 52.0193 73.5004 52.1744 73.7702 52.2958C74.0669 52.4374 74.4109 52.5993 74.802 52.7679C75.2 52.9769 75.5776 53.1928 75.9351 53.4153C76.2723 53.6311 76.5893 53.8807 76.8725 54.1639C77.1355 54.4269 77.3513 54.7372 77.5132 55.0744C77.6751 55.4318 77.756 55.823 77.7493 56.2141C77.7965 57.1988 77.2974 58.1295 76.4476 58.6353C76.0227 58.8916 75.5574 59.0737 75.0718 59.1748C74.5323 59.2895 73.9793 59.3435 73.4262 59.3435C73.2374 59.3435 73.0013 59.33 72.7181 59.303C72.4348 59.276 72.1516 59.2288 71.8548 59.1748C71.5716 59.1209 71.2951 59.0535 71.0253 58.9725C70.8095 58.9118 70.6004 58.8242 70.4048 58.7028Z" fill="#787878"/>
</g>
<mask id="mask3_3125_4094" style="mask-type:luminance" maskUnits="userSpaceOnUse" x="23" y="21" width="174" height="39">
<path d="M23 21.6431V59.3566H197V21.6431" fill="white"/>
</mask>
<g mask="url(#mask3_3125_4094)">
<path d="M83.0571 52.3296C82.3962 52.3027 81.7622 52.5792 81.3373 53.0782C80.8855 53.6717 80.6629 54.4068 80.7034 55.1487C80.6629 55.8703 80.8922 56.5852 81.3441 57.1517C81.7757 57.6441 82.4029 57.9071 83.0571 57.8801C83.6978 57.9206 84.325 57.6508 84.7431 57.1585C85.168 56.565 85.3771 55.8434 85.3299 55.1082C85.3771 54.3731 85.168 53.6448 84.7431 53.0445C84.325 52.5589 83.6978 52.2892 83.0571 52.3296ZM82.9627 59.3436C80.8113 59.492 78.9499 57.8734 78.8015 55.722C78.788 55.5466 78.788 55.3713 78.8015 55.2027C78.7341 54.0224 79.1589 52.8692 79.9817 52.0127C80.845 51.2168 81.9915 50.8055 83.165 50.8661C84.2778 50.7987 85.3636 51.2034 86.1594 51.9789C86.9148 52.8287 87.2992 53.9415 87.2317 55.0745C87.3868 57.2799 85.7278 59.1885 83.5224 59.3436C83.3403 59.3571 83.1515 59.3571 82.9627 59.3436Z" fill="#787878"/>
</g>
<mask id="mask4_3125_4094" style="mask-type:luminance" maskUnits="userSpaceOnUse" x="23" y="21" width="174" height="39">
<path d="M23 21.6431V59.3566H197V21.6431" fill="white"/>
</mask>
<g mask="url(#mask4_3125_4094)">
<path d="M89.12 47.1631H90.9881V59.1542H89.12V47.1631Z" fill="#787878"/>
</g>
<mask id="mask5_3125_4094" style="mask-type:luminance" maskUnits="userSpaceOnUse" x="23" y="21" width="174" height="39">
<path d="M23 21.6431V59.3566H197V21.6431" fill="white"/>
</mask>
<g mask="url(#mask5_3125_4094)">
<path d="M100.558 59.1545H98.7036V57.8731H98.6699C98.191 58.8172 97.2064 59.3905 96.1543 59.3433C94.2187 59.3433 93.2476 58.1968 93.2476 55.897V51.0547H95.109V55.7082C95.109 57.1649 95.6755 57.8933 96.8152 57.8933C97.3345 57.9068 97.8336 57.6842 98.1708 57.2931C98.5417 56.8547 98.7306 56.2949 98.7036 55.7217V51.0614H100.565V59.1545" fill="#787878"/>
</g>
<mask id="mask6_3125_4094" style="mask-type:luminance" maskUnits="userSpaceOnUse" x="23" y="21" width="174" height="39">
<path d="M23 21.6431V59.3566H197V21.6431" fill="white"/>
</mask>
<g mask="url(#mask6_3125_4094)">
<path d="M107.302 59.0665C106.85 59.2621 106.358 59.3565 105.866 59.3363C104.274 59.3363 103.478 58.5809 103.478 57.077V52.4977H102.109V51.0612H103.478V49.1863L105.34 48.667V51.0612H107.302V52.4977H105.34V56.5442C105.306 56.9084 105.4 57.2726 105.603 57.5693C105.839 57.7986 106.156 57.9133 106.486 57.8795C106.783 57.8863 107.073 57.7919 107.302 57.6098V59.0665Z" fill="#787878"/>
</g>
<mask id="mask7_3125_4094" style="mask-type:luminance" maskUnits="userSpaceOnUse" x="23" y="21" width="174" height="39">
<path d="M23 21.6431V59.3566H197V21.6431" fill="white"/>
</mask>
<g mask="url(#mask7_3125_4094)">
<path d="M110.769 59.1545H108.907V51.0548H110.769V59.1545ZM109.845 49.3552C109.555 49.362 109.278 49.2541 109.062 49.0652C108.847 48.8764 108.732 48.6066 108.739 48.3234C108.732 48.0401 108.853 47.7636 109.062 47.5748C109.271 47.3792 109.555 47.2713 109.845 47.2713C110.141 47.2645 110.425 47.3725 110.647 47.5748C110.863 47.7636 110.984 48.0401 110.978 48.3234C110.978 48.6066 110.856 48.8697 110.647 49.0518C110.425 49.2541 110.141 49.362 109.845 49.3552Z" fill="#787878"/>
</g>
<mask id="mask8_3125_4094" style="mask-type:luminance" maskUnits="userSpaceOnUse" x="23" y="21" width="174" height="39">
<path d="M23 21.6431V59.3566H197V21.6431" fill="white"/>
</mask>
<g mask="url(#mask8_3125_4094)">
<path d="M116.913 52.3296C116.252 52.3027 115.618 52.5792 115.193 53.0782C114.741 53.6717 114.519 54.4068 114.559 55.1487C114.519 55.8703 114.748 56.5852 115.2 57.1517C115.631 57.6441 116.265 57.9071 116.913 57.8801C117.554 57.9206 118.181 57.6508 118.599 57.1585C119.024 56.565 119.233 55.8434 119.186 55.1082C119.233 54.3731 119.024 53.6448 118.599 53.0445C118.188 52.5589 117.56 52.2892 116.913 52.3296ZM116.825 59.3436C114.674 59.492 112.812 57.8734 112.664 55.722C112.651 55.5466 112.651 55.3713 112.664 55.2027C112.597 54.0224 113.021 52.8692 113.844 52.0127C114.708 51.2168 115.854 50.8055 117.028 50.8661C118.14 50.7987 119.226 51.2034 120.022 51.9789C120.777 52.8287 121.162 53.9415 121.094 55.0745C121.249 57.2799 119.59 59.1885 117.385 59.3436C117.196 59.3571 117.014 59.3571 116.825 59.3436Z" fill="#787878"/>
</g>
<mask id="mask9_3125_4094" style="mask-type:luminance" maskUnits="userSpaceOnUse" x="23" y="21" width="174" height="39">
<path d="M23 21.6431V59.3566H197V21.6431" fill="white"/>
</mask>
<g mask="url(#mask9_3125_4094)">
<path d="M130.286 59.1545H128.425V54.5887C128.425 53.078 127.886 52.3227 126.8 52.3227C126.26 52.3092 125.748 52.5385 125.397 52.9499C125.019 53.3883 124.824 53.9548 124.844 54.5348V59.1545H122.983V51.0548H124.844V52.3969H124.878C125.404 51.4257 126.436 50.8322 127.535 50.8659C128.31 50.8187 129.066 51.1357 129.578 51.7225C130.091 52.4441 130.34 53.3208 130.28 54.2043L130.286 59.1545Z" fill="#787878"/>
</g>
<mask id="mask10_3125_4094" style="mask-type:luminance" maskUnits="userSpaceOnUse" x="23" y="21" width="174" height="39">
<path d="M23 21.6431V59.3566H197V21.6431" fill="white"/>
</mask>
<g mask="url(#mask10_3125_4094)">
<path d="M132.047 58.8982V57.1987C132.701 57.7113 133.51 57.981 134.347 57.981C135.466 57.981 136.026 57.6573 136.026 57.0031C136.033 56.8345 135.979 56.6659 135.884 56.531C135.776 56.3894 135.648 56.2747 135.493 56.1871C135.311 56.0792 135.115 55.9847 134.92 55.9173C134.697 55.8364 134.448 55.7487 134.178 55.6475C133.868 55.5261 133.564 55.3845 133.267 55.2294C133.018 55.1013 132.789 54.9259 132.593 54.7303C132.418 54.5482 132.276 54.3324 132.188 54.0964C132.094 53.8333 132.047 53.5501 132.053 53.2668C132.047 52.9026 132.141 52.5452 132.337 52.235C132.526 51.9315 132.789 51.6752 133.092 51.4864C133.423 51.2773 133.787 51.1222 134.164 51.0278C134.569 50.9266 134.987 50.8726 135.405 50.8726C136.1 50.8592 136.788 50.9738 137.442 51.2099V52.815C136.855 52.4238 136.161 52.2147 135.453 52.2282C135.237 52.2282 135.028 52.2485 134.819 52.3024C134.65 52.3429 134.481 52.4103 134.333 52.498C134.205 52.5722 134.097 52.6801 134.023 52.8015C133.949 52.9161 133.908 53.051 133.908 53.1926C133.901 53.3478 133.942 53.5029 134.023 53.6378C134.104 53.7659 134.218 53.8806 134.353 53.9615C134.522 54.0626 134.697 54.1503 134.879 54.2178C135.082 54.2919 135.324 54.3796 135.587 54.4673C135.911 54.5954 136.228 54.7438 136.538 54.8989C136.801 55.0338 137.037 55.2024 137.253 55.398C137.449 55.5801 137.604 55.8026 137.712 56.0454C137.827 56.3219 137.88 56.6254 137.874 56.9222C137.88 57.2999 137.779 57.6775 137.584 58.0013C137.388 58.3115 137.125 58.5678 136.815 58.7633C136.471 58.9724 136.1 59.1208 135.709 59.2085C135.277 59.3096 134.832 59.3568 134.38 59.3568C133.571 59.3568 132.775 59.2085 132.047 58.8982Z" fill="#787878"/>
</g>
<mask id="mask11_3125_4094" style="mask-type:luminance" maskUnits="userSpaceOnUse" x="23" y="21" width="174" height="39">
<path d="M23 21.6431V59.3566H197V21.6431" fill="white"/>
</mask>
<g mask="url(#mask11_3125_4094)">
<path d="M146.243 49.3622V53.5031H147.477C148.145 53.5503 148.813 53.348 149.345 52.9433C149.784 52.5387 150.02 51.9587 149.986 51.3584C149.986 50.0231 149.204 49.3554 147.632 49.3554H146.243M146.243 55.0408V59.1547H144.341V47.811H147.828C148.927 47.7436 150.013 48.0673 150.897 48.7215C151.639 49.3622 152.043 50.3064 151.989 51.2843C152.023 52.3094 151.605 53.294 150.849 53.9887C150 54.7238 148.894 55.1015 147.774 55.0408H146.243Z" fill="#787878"/>
</g>
<mask id="mask12_3125_4094" style="mask-type:luminance" maskUnits="userSpaceOnUse" x="23" y="21" width="174" height="39">
<path d="M23 21.6431V59.3566H197V21.6431" fill="white"/>
</mask>
<g mask="url(#mask12_3125_4094)">
<path d="M157.756 55.1754L156.029 55.4114C155.604 55.4451 155.193 55.5733 154.822 55.7958C154.532 56.0319 154.377 56.4028 154.417 56.7805C154.41 57.1042 154.545 57.4144 154.788 57.6235C155.071 57.8528 155.422 57.9675 155.786 57.954C156.319 57.9675 156.832 57.7516 157.189 57.3672C157.567 56.9626 157.762 56.4298 157.742 55.8835L157.756 55.1754ZM159.55 59.1544H157.749V57.8865H157.715C157.23 58.8105 156.265 59.377 155.226 59.3433C154.532 59.3837 153.857 59.1477 153.331 58.6958C152.866 58.2507 152.616 57.6235 152.643 56.9828C152.643 55.4519 153.534 54.5616 155.321 54.3121L157.756 53.9749C157.756 52.8216 157.203 52.2416 156.09 52.2416C155.119 52.2416 154.174 52.5923 153.446 53.2398V51.6279C154.356 51.1086 155.395 50.8456 156.44 50.8658C158.511 50.8658 159.55 51.8707 159.55 53.8872V59.1544Z" fill="#787878"/>
</g>
<mask id="mask13_3125_4094" style="mask-type:luminance" maskUnits="userSpaceOnUse" x="23" y="21" width="174" height="39">
<path d="M23 21.6431V59.3566H197V21.6431" fill="white"/>
</mask>
<g mask="url(#mask13_3125_4094)">
<path d="M166.57 52.8017C166.287 52.6128 165.943 52.5184 165.599 52.5386C165.046 52.5386 164.533 52.8151 164.223 53.2737C163.825 53.8605 163.63 54.5619 163.67 55.2768V59.1547H161.809V51.0549H163.67V52.7207H163.704C163.852 52.2082 164.142 51.7428 164.54 51.3854C164.891 51.0751 165.336 50.9065 165.801 50.9065C166.064 50.893 166.327 50.9403 166.57 51.0549V52.8017Z" fill="#787878"/>
</g>
<mask id="mask14_3125_4094" style="mask-type:luminance" maskUnits="userSpaceOnUse" x="23" y="21" width="174" height="39">
<path d="M23 21.6431V59.3566H197V21.6431" fill="white"/>
</mask>
<g mask="url(#mask14_3125_4094)">
<path d="M172.681 59.0665C172.229 59.2621 171.736 59.3565 171.244 59.3363C169.652 59.3363 168.857 58.5809 168.857 57.077V52.4977H167.488V51.0612H168.857V49.1863L170.718 48.667V51.0612H172.681V52.4977H170.718V56.5442C170.684 56.9084 170.779 57.2726 170.981 57.5693C171.217 57.7986 171.534 57.9133 171.865 57.8795C172.161 57.8863 172.445 57.7919 172.681 57.6098V59.0665Z" fill="#787878"/>
</g>
<mask id="mask15_3125_4094" style="mask-type:luminance" maskUnits="userSpaceOnUse" x="23" y="21" width="174" height="39">
<path d="M23 21.6431V59.3566H197V21.6431" fill="white"/>
</mask>
<g mask="url(#mask15_3125_4094)">
<path d="M181.589 59.1545H179.735V54.5887C179.735 53.078 179.195 52.3227 178.109 52.3227C177.57 52.3092 177.057 52.5385 176.707 52.9499C176.329 53.3883 176.133 53.9548 176.154 54.5348V59.1545H174.285V51.0548H176.147V52.3969H176.181C176.707 51.4257 177.732 50.8322 178.838 50.8659C179.613 50.8187 180.369 51.1357 180.881 51.7225C181.394 52.4441 181.643 53.3208 181.583 54.2043L181.589 59.1545Z" fill="#787878"/>
</g>
<mask id="mask16_3125_4094" style="mask-type:luminance" maskUnits="userSpaceOnUse" x="23" y="21" width="174" height="39">
<path d="M23 21.6431V59.3566H197V21.6431" fill="white"/>
</mask>
<g mask="url(#mask16_3125_4094)">
<path d="M188.678 54.3054C188.705 53.7524 188.536 53.2061 188.206 52.7677C187.889 52.3968 187.41 52.1945 186.924 52.2147C186.412 52.208 185.919 52.417 185.569 52.7947C185.184 53.2128 184.941 53.7389 184.881 54.3054H188.678ZM190.472 55.607H184.881C184.861 56.2545 185.117 56.8884 185.582 57.3403C186.095 57.7719 186.756 57.9877 187.423 57.9473C188.287 57.954 189.13 57.6775 189.831 57.1717V58.6487C188.927 59.1545 187.902 59.3905 186.87 59.3433C185.811 59.404 184.773 58.9993 184.031 58.244C183.303 57.3807 182.932 56.268 182.999 55.1417C182.952 54.0019 183.363 52.8959 184.132 52.0596C184.854 51.2773 185.879 50.8456 186.945 50.8726C187.929 50.8187 188.887 51.2098 189.548 51.9382C190.209 52.7812 190.532 53.84 190.472 54.9056V55.607Z" fill="#787878"/>
</g>
<path d="M197 52.8017C196.717 52.6128 196.373 52.5184 196.029 52.5386C195.476 52.5386 194.963 52.8151 194.653 53.2737C194.255 53.8605 194.059 54.5619 194.1 55.2768V59.1547H192.239V51.0549H194.1V52.7207H194.134C194.282 52.2082 194.572 51.7428 194.97 51.3854C195.321 51.0751 195.766 50.9065 196.231 50.9065C196.494 50.893 196.764 50.9403 197 51.0549V52.8017Z" fill="#787878"/>
<path d="M23 22.8643H40.5147V40.1631H23V22.8643Z" fill="#E64619"/>
<path d="M42.3356 22.8643H59.8502V40.1631H42.3356V22.8643Z" fill="#82B729"/>
<path d="M23 41.957H40.5147V59.2559H23V41.957Z" fill="#34A0DA"/>
<path d="M42.3356 41.957H59.8502V59.2559H42.3356V41.957Z" fill="#F9B801"/>
</svg>
