<svg width="220" height="80" viewBox="0 0 220 80" fill="none" xmlns="http://www.w3.org/2000/svg">
<rect width="220" height="80" rx="8" fill="white"/>
<g clip-path="url(#clip0_3125_4181)">
<path d="M85.3118 43.159L84.3104 45.9265H84.2269C84.06 45.3025 83.754 44.3528 83.2533 43.2133L77.8845 30.0544H72.627V51.0273H76.1042V38.0854C76.1042 37.2714 76.1042 36.349 76.0763 35.2094C76.0485 34.6397 75.9929 34.2056 75.9651 33.88H76.0485C76.2154 34.6939 76.4102 35.2908 76.5492 35.6707L83.0029 50.973H85.4509L91.849 35.535C91.9881 35.1823 92.1271 34.4769 92.2662 33.88H92.3497C92.2662 35.4265 92.2106 36.8102 92.1828 37.6513V50.9459H95.8825V30.0001H90.8197L85.3118 43.159ZM99.3876 35.9149H103.004V50.9459H99.3876V35.9149ZM101.224 29.566C100.612 29.566 100.111 29.7831 99.6935 30.1629C99.2763 30.5428 99.0537 31.0311 99.0537 31.628C99.0537 32.1978 99.2763 32.6862 99.6935 33.066C100.111 33.4459 100.612 33.6358 101.224 33.6358C101.836 33.6358 102.364 33.4187 102.753 33.066C103.171 32.6862 103.393 32.1978 103.393 31.628C103.393 31.0583 103.171 30.5699 102.753 30.1629C102.392 29.7831 101.863 29.566 101.224 29.566ZM115.828 35.7792C115.16 35.6435 114.465 35.5621 113.797 35.5621C112.156 35.5621 110.654 35.9149 109.402 36.6203C108.15 37.3257 107.149 38.3025 106.509 39.5234C105.841 40.7714 105.507 42.2094 105.507 43.8645C105.507 45.3025 105.841 46.5776 106.481 47.7443C107.121 48.8838 108.011 49.8063 109.207 50.4304C110.348 51.0544 111.683 51.38 113.185 51.38C114.91 51.38 116.384 51.0273 117.552 50.3761L117.58 50.349V47.0931L117.441 47.2017C116.913 47.5815 116.301 47.9071 115.689 48.097C115.049 48.3141 114.465 48.4226 113.964 48.4226C112.518 48.4226 111.377 48.0156 110.57 47.1203C109.736 46.2521 109.318 45.0583 109.318 43.566C109.318 42.0195 109.736 40.7986 110.598 39.9032C111.46 39.0079 112.601 38.5466 113.992 38.5466C115.16 38.5466 116.356 38.9265 117.441 39.6862L117.58 39.7947V36.349L117.552 36.3218C117.08 36.1319 116.551 35.9149 115.828 35.7792ZM127.762 35.6707C126.871 35.6707 126.037 35.942 125.314 36.5118C124.702 37.0001 124.284 37.7056 123.923 38.5466H123.895V35.9149H120.279V50.9459H123.895V43.2676C123.895 41.9652 124.173 40.88 124.785 40.0931C125.397 39.2792 126.176 38.8722 127.122 38.8722C127.456 38.8722 127.789 38.9536 128.207 39.0079C128.596 39.1164 128.874 39.2249 129.069 39.3606L129.208 39.4691V35.942L129.125 35.9149C128.874 35.7521 128.374 35.6707 127.762 35.6707ZM137.609 35.5893C135.078 35.5893 133.047 36.3218 131.628 37.7598C130.182 39.1978 129.486 41.1784 129.486 43.6745C129.486 46.0079 130.21 47.9071 131.6 49.2908C132.991 50.6474 134.883 51.3528 137.247 51.3528C139.723 51.3528 141.698 50.6203 143.117 49.1552C144.563 47.69 145.259 45.7366 145.259 43.3218C145.259 40.9342 144.591 39.035 143.228 37.6513C141.921 36.2676 140.001 35.5893 137.609 35.5893ZM140.502 47.1474C139.834 47.9885 138.777 48.3955 137.47 48.3955C136.163 48.3955 135.105 47.9885 134.354 47.0931C133.603 46.2521 133.242 45.0311 133.242 43.4846C133.242 41.8838 133.631 40.6629 134.354 39.7947C135.105 38.9265 136.135 38.4924 137.442 38.4924C138.722 38.4924 139.723 38.8994 140.446 39.7404C141.17 40.5815 141.559 41.8025 141.559 43.4032C141.504 45.0311 141.198 46.3063 140.502 47.1474ZM153.326 42.1552C152.186 41.6939 151.462 41.3412 151.128 41.0428C150.85 40.7714 150.711 40.3916 150.711 39.9032C150.711 39.4962 150.878 39.0893 151.295 38.818C151.713 38.5466 152.186 38.411 152.881 38.411C153.493 38.411 154.133 38.5195 154.745 38.6823C155.357 38.8451 155.913 39.0893 156.358 39.4149L156.497 39.5234V36.2133L156.414 36.1862C155.997 36.0234 155.44 35.8606 154.773 35.7249C154.105 35.6164 153.493 35.5621 152.992 35.5621C151.268 35.5621 149.849 35.9691 148.736 36.8645C147.623 37.7056 147.095 38.8451 147.095 40.1745C147.095 40.88 147.206 41.504 147.456 42.0195C147.707 42.535 148.068 43.0234 148.569 43.4304C149.07 43.8102 149.793 44.2443 150.795 44.6513C151.629 45.004 152.269 45.2753 152.658 45.4924C153.048 45.7094 153.298 45.9536 153.493 46.1435C153.632 46.3606 153.715 46.6319 153.715 46.9846C153.715 47.9885 152.937 48.4769 151.351 48.4769C150.739 48.4769 150.099 48.3683 149.348 48.1242C148.597 47.88 147.902 47.5273 147.317 47.1203L147.178 47.0118V50.4575L147.262 50.4846C147.79 50.7288 148.43 50.8916 149.209 51.0815C149.988 51.2172 150.683 51.3257 151.295 51.3257C153.159 51.3257 154.689 50.9187 155.774 50.0234C156.887 49.1552 157.471 48.0428 157.471 46.6048C157.471 45.6009 157.193 44.7056 156.581 44.0273C155.774 43.3761 154.773 42.6978 153.326 42.1552ZM167.012 35.5893C164.481 35.5893 162.45 36.3218 161.032 37.7598C159.613 39.1978 158.89 41.1784 158.89 43.6745C158.89 46.0079 159.613 47.9071 161.004 49.2908C162.395 50.6474 164.286 51.3528 166.651 51.3528C169.126 51.3528 171.102 50.6203 172.52 49.1552C173.967 47.69 174.662 45.7366 174.662 43.3218C174.662 40.9342 173.995 39.035 172.631 37.6513C171.324 36.2676 169.405 35.5893 167.012 35.5893ZM169.878 47.1474C169.21 47.9885 168.153 48.3955 166.845 48.3955C165.51 48.3955 164.481 47.9885 163.73 47.0931C162.979 46.2521 162.617 45.0311 162.617 43.4846C162.617 41.8838 163.007 40.6629 163.73 39.7947C164.481 38.9265 165.51 38.4924 166.818 38.4924C168.069 38.4924 169.099 38.8994 169.822 39.7404C170.545 40.5815 170.935 41.8025 170.935 43.4032C170.935 45.0311 170.573 46.3063 169.878 47.1474ZM193.995 38.818V35.9149H190.351V31.4652L190.24 31.4924L186.791 32.4962L186.707 32.5234V35.9149H181.255V34.0156C181.255 33.1474 181.478 32.4691 181.867 32.035C182.256 31.6009 182.841 31.3838 183.564 31.3838C184.065 31.3838 184.593 31.4924 185.177 31.7366L185.316 31.818V28.7521L185.233 28.7249C184.732 28.5621 184.065 28.4536 183.202 28.4536C182.117 28.4536 181.172 28.6978 180.309 29.1048C179.447 29.566 178.807 30.19 178.334 31.0311C177.861 31.8451 177.611 32.7676 177.611 33.8257V35.9149H175.079V38.7908H177.611V50.9459H181.255V38.818H186.707V46.5505C186.707 49.7249 188.237 51.3257 191.297 51.3257C191.798 51.3257 192.326 51.2443 192.827 51.1629C193.356 51.0544 193.745 50.9187 193.968 50.8102L193.995 50.7831V47.88L193.856 47.9885C193.634 48.1242 193.439 48.2327 193.105 48.3141C192.827 48.3955 192.577 48.4226 192.382 48.4226C191.659 48.4226 191.158 48.2598 190.796 47.8528C190.463 47.473 190.296 46.849 190.296 45.9265V38.818H193.995Z" fill="#737373"/>
<path d="M26.0045 23H43.0568V39.6318H26.0045V23Z" fill="#F25022"/>
<path d="M44.8372 23H61.8894V39.6318H44.8372V23Z" fill="#7FBA00"/>
<path d="M26.0045 41.3682H43.0568V57.9999H26.0045V41.3682Z" fill="#00A4EF"/>
<path d="M44.8372 41.3682H61.8894V57.9999H44.8372V41.3682Z" fill="#FFB900"/>
</g>
<defs>
<clipPath id="clip0_3125_4181">
<rect width="168" height="35" fill="white" transform="translate(26 23)"/>
</clipPath>
</defs>
</svg>
