<svg width="456" height="388" viewBox="0 0 456 388" fill="none" xmlns="http://www.w3.org/2000/svg">
<path d="M454.338 182.337C454.362 181.523 454.374 180.706 454.374 179.888C454.374 142.242 423.831 102.537 382.888 77.8137C382.438 77.5416 382.115 77.4257 381.623 77.6103L379.338 79.6729L382.383 144.033C438.581 169.619 454.37 214.441 454.37 252.306C454.37 252.564 454.338 182.337 454.338 182.337Z" fill="white"/>
<path d="M454.338 182.337C454.362 181.523 454.374 180.706 454.374 179.888C454.374 142.242 423.831 102.537 382.888 77.8137C382.438 77.5416 382.115 77.4257 381.623 77.6103L379.338 79.6729L382.383 144.033C438.581 169.619 454.37 214.441 454.37 252.306C454.37 252.564 454.338 182.337 454.338 182.337Z" stroke="black" stroke-width="1.27872" stroke-linecap="round" stroke-linejoin="round"/>
<path d="M451.01 183.585C451.034 182.77 451.047 181.954 451.047 181.136C451.047 166.395 449.024 151.282 441.842 137.469C430.777 116.188 409.088 94.7939 380.378 79.5809C379.775 79.2499 379.033 79.65 379.033 80.3392L379.055 144.252C379.055 144.96 379.418 145.632 380.033 145.981C435.233 177.042 454.32 214.927 454.32 252.493C454.32 252.751 451.01 183.585 451.01 183.585Z" fill="#16808B"/>
<path d="M451.01 183.585C451.034 182.77 451.047 181.954 451.047 181.136C451.047 166.395 449.024 151.282 441.842 137.469C430.777 116.188 409.088 94.7939 380.378 79.5809C379.775 79.2499 379.033 79.65 379.033 80.3392L379.055 144.252C379.055 144.96 379.418 145.632 380.033 145.981C435.233 177.042 454.32 214.927 454.32 252.493C454.32 252.751 451.01 183.585 451.01 183.585Z" stroke="black" stroke-width="1.27872" stroke-linecap="round" stroke-linejoin="round"/>
<path d="M451.21 180.235C449.894 231.839 402.039 274.658 337.401 295.819C337.246 295.871 337.089 295.917 336.933 295.965C335.224 296.494 334.42 298.082 334.42 299.871L334.223 365.745C334.223 366.409 334.595 367.017 335.185 367.32L338.32 368.929C338.32 368.929 452.155 301.728 452.624 250.868L454.373 179.888L451.21 180.235Z" fill="white"/>
<path d="M451.21 180.235C449.894 231.839 402.039 274.658 337.401 295.819C337.246 295.871 337.089 295.917 336.933 295.965C335.224 296.494 334.42 298.082 334.42 299.871L334.223 365.745C334.223 366.409 334.595 367.017 335.185 367.32L338.32 368.929C338.32 368.929 452.155 301.728 452.624 250.868L454.373 179.888L451.21 180.235Z" stroke="black" stroke-width="1.27872" stroke-linecap="round" stroke-linejoin="round"/>
<path d="M454.282 181.331C452.79 232.401 404.686 276.384 339.466 298.743C338.394 299.116 337.695 299.854 337.695 300.99L337.715 367.795C337.715 368.561 338.468 369.124 339.191 368.874C406.188 345.946 452.41 301.235 454.37 252.846L454.282 181.331Z" fill="white"/>
<path d="M454.282 181.331C452.79 232.401 404.686 276.384 339.466 298.743C338.394 299.116 337.695 299.854 337.695 300.99L337.715 367.795C337.715 368.561 338.468 369.124 339.191 368.874C406.188 345.946 452.41 301.235 454.37 252.846L454.282 181.331Z" stroke="black" stroke-width="1.27872" stroke-linecap="round" stroke-linejoin="round"/>
<path d="M420.822 282.285C420.822 282.285 442.106 259.818 446.523 240.579" stroke="black" stroke-width="1.27872" stroke-linecap="round" stroke-linejoin="round"/>
<path d="M420.73 295.495C420.73 295.495 434.598 281.479 441.134 266.947" stroke="black" stroke-width="1.27872" stroke-linecap="round" stroke-linejoin="round"/>
<path d="M435.98 123.652C424.655 107.532 406.59 90.8034 383.081 77.7135C383.074 77.7098 383.068 77.7059 383.062 77.702C382.03 77.0694 381.446 77.6479 380.362 78.6807C380.067 78.9607 379.213 79.8028 379.213 79.8028C379.213 79.8028 380.445 80.5733 381.072 80.93C426.435 106.39 450.876 142.293 450.811 178.325C450.767 203.702 439.87 226.668 418.723 247.89C398.582 268.156 369.512 284.763 337.398 295.814C337.244 295.868 336.65 296.065 336.65 296.065L338.981 298.901C338.981 298.901 339.414 298.767 339.626 298.69C373.74 286.428 398.374 272.167 419.233 252.362C441.802 230.923 454.282 204.667 454.282 178.325C454.282 159.332 448.124 140.938 435.98 123.652Z" fill="white"/>
<path d="M435.98 123.652C424.655 107.532 406.59 90.8034 383.081 77.7135C383.074 77.7098 383.068 77.7059 383.062 77.702C382.03 77.0694 381.446 77.6479 380.362 78.6807C380.067 78.9607 379.213 79.8028 379.213 79.8028C379.213 79.8028 380.445 80.5733 381.072 80.93C426.435 106.39 450.876 142.293 450.811 178.325C450.767 203.702 439.87 226.668 418.723 247.89C398.582 268.156 369.512 284.763 337.398 295.814C337.244 295.868 336.65 296.065 336.65 296.065L338.981 298.901C338.981 298.901 339.414 298.767 339.626 298.69C373.74 286.428 398.374 272.167 419.233 252.362C441.802 230.923 454.282 204.667 454.282 178.325C454.282 159.332 448.124 140.938 435.98 123.652Z" stroke="black" stroke-width="1.27872" stroke-linecap="round" stroke-linejoin="round"/>
<path d="M414.15 275.9C397.376 290.906 376.336 304.094 351.175 314.227V354.483C376.187 344.536 396.992 331.247 414.15 316.156V275.9Z" fill="#ADC4CB"/>
<path d="M414.15 275.9C397.376 290.906 376.336 304.094 351.175 314.227V354.483C376.187 344.536 396.992 331.247 414.15 316.156V275.9Z" stroke="black" stroke-width="1.27872" stroke-linecap="round" stroke-linejoin="round"/>
<path d="M360.322 321.918C363.885 315.614 370.793 310.318 375.768 313.011C380.579 315.616 378.929 324.543 375.423 330.875C371.85 337.343 365.504 342.717 360.135 339.757C354.979 336.92 356.745 328.247 360.322 321.918Z" fill="white"/>
<path d="M360.322 321.918C363.885 315.614 370.793 310.318 375.768 313.011C380.579 315.616 378.929 324.543 375.423 330.875C371.85 337.343 365.504 342.717 360.135 339.757C354.979 336.92 356.745 328.247 360.322 321.918Z" stroke="black" stroke-width="1.27872" stroke-linecap="round" stroke-linejoin="round"/>
<path d="M385.632 323.87C393.785 318.868 401.674 313.099 408.019 307.54" stroke="black" stroke-width="1.27872" stroke-linecap="round" stroke-linejoin="round"/>
<path d="M385.571 310.539C393.67 305.581 401.584 299.712 407.959 294.208" stroke="black" stroke-width="1.27872" stroke-linecap="round" stroke-linejoin="round"/>
<path d="M110.478 61.8981C110.478 61.8981 109.37 60.5969 108.598 62.6694C108.55 63.6818 108.695 124.871 108.695 126.655C108.695 128.438 110.671 128.824 110.671 128.824L110.478 61.8981Z" fill="#082326"/>
<path d="M110.478 61.8981C110.478 61.8981 109.37 60.5969 108.598 62.6694C108.55 63.6818 108.695 124.871 108.695 126.655C108.695 128.438 110.671 128.824 110.671 128.824L110.478 61.8981Z" stroke="black" stroke-width="1.27872"/>
<path d="M220.318 69.7117C220.318 69.7117 281.277 41.6672 308.756 49.0439C309.52 49.249 310.049 49.9441 310.049 50.7361L309.957 114.796C309.957 115.601 309.624 116.369 309.036 116.919L307.77 118.359L220.318 69.7117Z" fill="#ADC4CB"/>
<path d="M220.318 69.7117C220.318 69.7117 281.277 41.6672 308.756 49.0439C309.52 49.249 310.049 49.9441 310.049 50.7361L309.957 114.796C309.957 115.601 309.624 116.369 309.036 116.919L307.77 118.359L220.318 69.7117Z" stroke="black" stroke-width="1.27872" stroke-linecap="round" stroke-linejoin="round"/>
<path d="M109.309 65.9911C109.309 64.7036 110.148 63.5918 111.362 63.1634C142.3 52.2636 177.013 44.5881 217.957 43.6421C249.459 42.9546 279.742 45.8786 306.799 52.3989C307.503 52.5683 307.989 53.2127 307.989 53.937L308.026 117.703C308.026 118.336 307.434 118.787 306.819 118.639C279.61 112.114 249.637 109.47 218.135 109.995C178.918 110.661 144.326 117.879 111.647 129.005C110.505 129.393 109.323 128.523 109.323 127.316L109.309 65.9911Z" fill="#082326"/>
<path d="M109.309 65.9911C109.309 64.7036 110.148 63.5918 111.362 63.1634C142.3 52.2636 177.013 44.5881 217.957 43.6421C249.459 42.9546 279.742 45.8786 306.799 52.3989C307.503 52.5683 307.989 53.2127 307.989 53.937L308.026 117.703C308.026 118.336 307.434 118.787 306.819 118.639C279.61 112.114 249.637 109.47 218.135 109.995C178.918 110.661 144.326 117.879 111.647 129.005C110.505 129.393 109.323 128.523 109.323 127.316L109.309 65.9911Z" stroke="black" stroke-width="1.27872" stroke-linecap="round" stroke-linejoin="round"/>
<path d="M308.761 49.0307C308.708 49.0169 308.657 49.0011 308.604 48.9884C279.759 42.1297 250.214 39.3136 217.806 39.8411C180.914 40.4314 143.841 47.9216 111.348 59.3666C111.297 59.3847 111.246 59.4031 111.193 59.4163C108.611 60.0781 108.611 62.1516 108.611 62.1516L109.31 65.6416C109.31 65.6416 109.481 63.8009 111.359 63.1662C111.417 63.1468 111.75 63.0449 111.808 63.0246C142.774 52.1267 177.705 44.6013 217.924 43.641C249.022 42.9452 279.548 45.797 306.862 52.4194C306.96 52.4432 307.154 52.4965 307.154 52.4965L309.445 49.4101C309.445 49.4101 309.118 49.1248 308.761 49.0307Z" fill="white"/>
<path d="M308.761 49.0307C308.708 49.0169 308.657 49.0011 308.604 48.9884C279.759 42.1297 250.214 39.3136 217.806 39.8411C180.914 40.4314 143.841 47.9216 111.348 59.3666C111.297 59.3847 111.246 59.4031 111.193 59.4163C108.611 60.0781 108.611 62.1516 108.611 62.1516L109.31 65.6416C109.31 65.6416 109.481 63.8009 111.359 63.1662C111.417 63.1468 111.75 63.0449 111.808 63.0246C142.774 52.1267 177.705 44.6013 217.924 43.641C249.022 42.9452 279.548 45.797 306.862 52.4194C306.96 52.4432 307.154 52.4965 307.154 52.4965L309.445 49.4101C309.445 49.4101 309.118 49.1248 308.761 49.0307Z" stroke="black" stroke-width="1.27872" stroke-linecap="round" stroke-linejoin="round"/>
<path d="M0.898193 179.889C0.898193 149.141 13.9338 131.202 32.6826 108.356C33.4541 107.381 36.7096 104.148 37.7126 103.379L40.3568 105.416L34.7869 170.886C7.5063 196.255 0.898193 220.273 0.898193 252.073V179.889Z" fill="white"/>
<path d="M0.898193 179.889C0.898193 149.141 13.9338 131.202 32.6826 108.356C33.4541 107.381 36.7096 104.148 37.7126 103.379L40.3568 105.416L34.7869 170.886C7.5063 196.255 0.898193 220.273 0.898193 252.073V179.889Z" stroke="black" stroke-width="1.27872" stroke-linecap="round" stroke-linejoin="round"/>
<path d="M3.15331 178.278C3.17773 147.105 21.4563 123.121 39.2294 106.234C39.6363 105.824 40.3573 105.178 40.3573 105.758L40.0287 169.076C40.0287 170.331 39.3604 171.418 38.4562 172.284C11.4409 197.344 1.09155 220.634 1.09155 251.88L3.15331 178.278Z" fill="#16808B"/>
<path d="M3.15331 178.278C3.17773 147.105 21.4563 123.121 39.2294 106.234C39.6363 105.824 40.3573 105.178 40.3573 105.758L40.0287 169.076C40.0287 170.331 39.3604 171.418 38.4562 172.284C11.4409 197.344 1.09155 220.634 1.09155 251.88L3.15331 178.278Z" stroke="black" stroke-width="1.27872" stroke-linecap="round" stroke-linejoin="round"/>
<path d="M276.935 314.079C275.497 311.366 266.931 314.226 266.931 314.226C266.931 314.226 251.322 313.445 246.233 313.574C188.397 315.033 128.17 305.951 78.7205 278.993C30.6302 252.785 2.90928 216.643 4.05556 176.071H0.985991L0.898193 185.284L0.920053 250.257C1.45034 322.636 99.1643 391.929 243.801 386.778C255.396 386.375 273.8 384.431 273.8 384.431C275.282 384.431 276.486 383.235 276.497 381.753L276.935 314.079Z" fill="white"/>
<path d="M276.935 314.079C275.497 311.366 266.931 314.226 266.931 314.226C266.931 314.226 251.322 313.445 246.233 313.574C188.397 315.033 128.17 305.951 78.7205 278.993C30.6302 252.785 2.90928 216.643 4.05556 176.071H0.985991L0.898193 185.284L0.920053 250.257C1.45034 322.636 99.1643 391.929 243.801 386.778C255.396 386.375 273.8 384.431 273.8 384.431C275.282 384.431 276.486 383.235 276.497 381.753L276.935 314.079Z" stroke="black" stroke-width="1.27872" stroke-linecap="round" stroke-linejoin="round"/>
<path d="M241.676 316.514C210.796 317.642 181.457 315.335 151.556 309.063C118.486 302.188 88.2179 289.198 67.4 276.545C46.5203 263.854 30.1147 249.058 18.6388 232.567C6.69542 215.405 0.603071 197.155 0.639567 178.325C0.668618 163.006 5.19418 145.381 14.3952 130.644C22.5646 117.555 27.8868 112.066 35.8982 104.419C35.9857 104.33 36.112 104.282 36.1973 104.19C38.5647 101.681 40.9352 105.096 40.1655 105.667C39.7469 105.978 39.2856 106.239 38.9172 106.602C20.3851 123.952 4.10997 147.77 4.10997 178.325C4.10997 214.663 28.0618 249.135 72.2189 274.923C121.812 304.206 184.256 314.671 241.748 313.079C251.468 312.787 269.792 310.825 273.842 310.564C274.346 310.532 274.826 310.772 275.104 311.193L276.934 314.079C276.934 314.079 276.329 313.706 275.665 313.737C270.988 313.956 251.928 316.141 241.676 316.514Z" fill="white"/>
<path d="M241.676 316.514C210.796 317.642 181.457 315.335 151.556 309.063C118.486 302.188 88.2179 289.198 67.4 276.545C46.5203 263.854 30.1147 249.058 18.6388 232.567C6.69542 215.405 0.603071 197.155 0.639567 178.325C0.668618 163.006 5.19418 145.381 14.3952 130.644C22.5646 117.555 27.8868 112.066 35.8982 104.419C35.9857 104.33 36.112 104.282 36.1973 104.19C38.5647 101.681 40.9352 105.096 40.1655 105.667C39.7469 105.978 39.2856 106.239 38.9172 106.602C20.3851 123.952 4.10997 147.77 4.10997 178.325C4.10997 214.663 28.0618 249.135 72.2189 274.923C121.812 304.206 184.256 314.671 241.748 313.079C251.468 312.787 269.792 310.825 273.842 310.564C274.346 310.532 274.826 310.772 275.104 311.193L276.934 314.079C276.934 314.079 276.329 313.706 275.665 313.737C270.988 313.956 251.928 316.141 241.676 316.514Z" stroke="black" stroke-width="1.27872" stroke-linecap="round" stroke-linejoin="round"/>
<path d="M251.006 353.238C251.006 357.429 249.012 361.078 246.086 363.635C247.975 365.236 249.589 366.909 251.44 368.296C255.309 364.491 258.032 359.092 258.032 353.238C258.032 348.657 256.755 344.176 254.102 340.544C252.166 341.755 250.191 343.197 248.255 344.476C250.089 346.837 251.006 350.015 251.006 353.238Z" fill="#ADC4CB"/>
<path d="M251.006 353.238C251.006 357.429 249.012 361.078 246.086 363.635C247.975 365.236 249.589 366.909 251.44 368.296C255.309 364.491 258.032 359.092 258.032 353.238C258.032 348.657 256.755 344.176 254.102 340.544C252.166 341.755 250.191 343.197 248.255 344.476C250.089 346.837 251.006 350.015 251.006 353.238Z" stroke="black" stroke-width="1.27872" stroke-linecap="round" stroke-linejoin="round"/>
<path d="M244.15 365.153C242.003 366.505 239.464 367.29 236.74 367.29C229.037 367.29 222.794 361.046 222.794 353.344C222.794 345.642 229.102 338.848 237.168 338.97C240.586 339.021 243.715 340.202 246.139 342.244C247.225 341.468 251.599 338.245 251.917 338.025C248.128 334.271 242.923 331.906 237.168 331.945C225.026 332.028 215.768 341.762 215.768 353.344C215.768 364.926 225.157 374.316 236.74 374.316C241.473 374.316 245.837 372.744 249.347 370.098C248.691 369.459 244.595 365.53 244.15 365.153Z" stroke="black" stroke-width="1.27872" stroke-linecap="round" stroke-linejoin="round"/>
<path d="M193.077 351.067C193.16 355.949 191.541 359.542 188.614 362.098C190.503 363.7 192.296 365.158 194.147 366.545C198.016 362.741 200.317 358.401 200.279 351.102C200.256 346.521 198.56 342.391 196.068 338.941C194.132 340.152 192.225 341.661 190.289 342.94C192.123 345.301 193.025 348.055 193.077 351.067Z" fill="#499A9A"/>
<path d="M193.077 351.067C193.16 355.949 191.541 359.542 188.614 362.098C190.503 363.7 192.296 365.158 194.147 366.545C198.016 362.741 200.317 358.401 200.279 351.102C200.256 346.521 198.56 342.391 196.068 338.941C194.132 340.152 192.225 341.661 190.289 342.94C192.123 345.301 193.025 348.055 193.077 351.067Z" stroke="black" stroke-width="1.27872" stroke-linecap="round" stroke-linejoin="round"/>
<path d="M186.856 363.403C184.709 364.754 180.822 364.739 178.672 364.309C171.213 362.675 165.017 355.2 165.252 347.234C165.402 342.081 167.717 338.629 171.476 336.959C170.788 334.678 170.054 332.44 169.315 330.159C162.462 332.907 158.26 338.898 158.26 347.2C158.26 358.782 165.971 368.813 178.672 371.159C183.815 372.04 188.544 370.994 192.053 368.348C191.397 367.709 187.302 363.779 186.856 363.403Z" stroke="black" stroke-width="1.27872" stroke-linecap="round" stroke-linejoin="round"/>
<path d="M174.823 335.656C180.422 335.271 185.488 337.305 188.138 340.64C189.224 339.864 193.668 336.57 193.986 336.35C190.199 330.624 179.741 326.752 172.669 329.036C173.428 331.213 173.963 333.48 174.823 335.656Z" fill="#16808B"/>
<path d="M174.823 335.656C180.422 335.271 185.488 337.305 188.138 340.64C189.224 339.864 193.668 336.57 193.986 336.35C190.199 330.624 179.741 326.752 172.669 329.036C173.428 331.213 173.963 333.48 174.823 335.656Z" stroke="black" stroke-width="1.27872" stroke-linecap="round" stroke-linejoin="round"/>
<path d="M91.0378 312.639C108.073 320.702 126.418 326.687 147.869 331.933V325.339C126.24 319.911 108.731 314.215 91.117 306.086L91.0378 312.639Z" fill="#ADC4CB"/>
<path d="M91.0378 312.639C108.073 320.702 126.418 326.687 147.869 331.933V325.339C126.24 319.911 108.731 314.215 91.117 306.086L91.0378 312.639Z" stroke="black" stroke-width="1.27872" stroke-linecap="round" stroke-linejoin="round"/>
<path d="M73.1046 296.967C65.8959 292.812 58.8747 288.311 52.78 283.481V290.074C58.2552 294.724 65.8155 299.647 73.1046 303.561V296.967Z" fill="#ADC4CB"/>
<path d="M73.1046 296.967C65.8959 292.812 58.8747 288.311 52.78 283.481V290.074C58.2552 294.724 65.8155 299.647 73.1046 303.561V296.967Z" stroke="black" stroke-width="1.27872" stroke-linecap="round" stroke-linejoin="round"/>
<path d="M86.9991 317.836C65.2219 307.043 44.5964 292.6 30.5369 277.077V283.671C43.2832 298.567 64.225 313.14 86.9991 324.43V317.836Z" fill="#ADC4CB"/>
<path d="M86.9991 317.836C65.2219 307.043 44.5964 292.6 30.5369 277.077V283.671C43.2832 298.567 64.225 313.14 86.9991 324.43V317.836Z" stroke="black" stroke-width="1.27872" stroke-linecap="round" stroke-linejoin="round"/>
<path d="M109.274 333.893C115.949 336.664 121.922 338.547 129.46 340.756V334.162C122.683 332.331 115.558 330.035 109.274 327.299V333.893Z" fill="#ADC4CB"/>
<path d="M109.274 333.893C115.949 336.664 121.922 338.547 129.46 340.756V334.162C122.683 332.331 115.558 330.035 109.274 327.299V333.893Z" stroke="black" stroke-width="1.27872" stroke-linecap="round" stroke-linejoin="round"/>
<path d="M140.617 353.478C127.182 350.095 112.229 345.375 100.419 340.054V346.648C111.729 351.583 126.825 356.231 140.617 360.071V353.478Z" fill="#ADC4CB"/>
<path d="M140.617 353.478C127.182 350.095 112.229 345.375 100.419 340.054V346.648C111.729 351.583 126.825 356.231 140.617 360.071V353.478Z" stroke="black" stroke-width="1.27872" stroke-linecap="round" stroke-linejoin="round"/>
<path d="M93.2298 337C82.8179 332.221 71.3757 326.437 62.658 320.223V326.817C70.5021 332.414 82.8179 338.714 93.2298 343.594V337Z" fill="#ADC4CB"/>
<path d="M93.2298 337C82.8179 332.221 71.3757 326.437 62.658 320.223V326.817C70.5021 332.414 82.8179 338.714 93.2298 343.594V337Z" stroke="black" stroke-width="1.27872" stroke-linecap="round" stroke-linejoin="round"/>
<path d="M316.303 115.972C310.478 114.578 300.372 118.102 296.145 128.545C295.641 129.789 295.52 131.133 296.582 131.953C297.644 132.774 300.304 132.9 300.686 131.615C303.583 121.867 310.323 119.778 314.97 120.644C322.62 122.069 321.874 132.05 321.874 132.05C321.874 132.05 322.7 132.762 324.323 134.721C325.464 136.098 326.817 138.323 326.817 138.323C326.817 138.323 328.86 118.977 316.303 115.972Z" fill="white"/>
<path d="M316.303 115.972C310.478 114.578 300.372 118.102 296.145 128.545C295.641 129.789 295.52 131.133 296.582 131.953C297.644 132.774 300.304 132.9 300.686 131.615C303.583 121.867 310.323 119.778 314.97 120.644C322.62 122.069 321.874 132.05 321.874 132.05C321.874 132.05 322.7 132.762 324.323 134.721C325.464 136.098 326.817 138.323 326.817 138.323C326.817 138.323 328.86 118.977 316.303 115.972Z" stroke="black" stroke-width="1.29024" stroke-linecap="round" stroke-linejoin="round"/>
<path d="M364.163 164.465C364.163 187.293 345.657 205.799 322.828 205.799C299.999 205.799 281.493 187.293 281.493 164.465C281.493 141.636 299.999 123.13 322.828 123.13C345.657 123.13 364.163 141.636 364.163 164.465Z" fill="#ADC4CB"/>
<path d="M364.163 164.465C364.163 187.293 345.657 205.799 322.828 205.799C299.999 205.799 281.493 187.293 281.493 164.465C281.493 141.636 299.999 123.13 322.828 123.13C345.657 123.13 364.163 141.636 364.163 164.465Z" stroke="black" stroke-width="1.29024" stroke-linecap="round" stroke-linejoin="round"/>
<path d="M358.34 126.232C356.041 121.067 351.817 117.283 347.015 115.311C341.994 113.249 334.894 113.177 329.395 115.354C323.695 117.611 313.75 124.338 311.01 131.26C310.022 133.755 313.728 133.767 315.861 135.395C317.994 137.022 321.043 136.613 322.671 134.48C329.46 125.583 337.283 121.543 343.324 124.3C351.166 127.88 350.77 134.006 350.77 134.006C350.77 134.006 353.981 137.258 356.198 140.067C358.418 142.88 359.633 145.632 359.633 145.632L361.216 147.034C361.216 147.034 362.697 136.019 358.34 126.232Z" fill="white"/>
<path d="M358.34 126.232C356.041 121.067 351.817 117.283 347.015 115.311C341.994 113.249 334.894 113.177 329.395 115.354C323.695 117.611 313.75 124.338 311.01 131.26C310.022 133.755 313.728 133.767 315.861 135.395C317.994 137.022 321.043 136.613 322.671 134.48C329.46 125.583 337.283 121.543 343.324 124.3C351.166 127.88 350.77 134.006 350.77 134.006C350.77 134.006 353.981 137.258 356.198 140.067C358.418 142.88 359.633 145.632 359.633 145.632L361.216 147.034C361.216 147.034 362.697 136.019 358.34 126.232Z" stroke="black" stroke-width="1.29024" stroke-linecap="round" stroke-linejoin="round"/>
<path d="M365.165 132.053C358.757 129.259 345.007 131.406 338.562 142.249C337.877 143.403 337.564 144.716 338.493 145.684C339.423 146.652 342.066 147.021 342.843 145.929C348.896 137.426 357.989 135.346 363.142 137.251C369.499 139.601 364.163 150.394 364.163 150.394C364.163 150.394 364.208 150.328 365.525 152.505C366.451 154.034 367.461 156.435 367.461 156.435C367.461 156.435 378.402 137.824 365.165 132.053Z" fill="#16808B"/>
<path d="M365.165 132.053C358.757 129.259 345.007 131.406 338.562 142.249C337.877 143.403 337.564 144.716 338.493 145.684C339.423 146.652 342.066 147.021 342.843 145.929C348.896 137.426 357.989 135.346 363.142 137.251C369.499 139.601 364.163 150.394 364.163 150.394C364.163 150.394 364.208 150.328 365.525 152.505C366.451 154.034 367.461 156.435 367.461 156.435C367.461 156.435 378.402 137.824 365.165 132.053Z" stroke="black" stroke-width="1.29024" stroke-linecap="round" stroke-linejoin="round"/>
<path d="M265.494 145.967C265.063 156.902 255.849 165.418 244.914 164.988C233.978 164.557 225.463 155.343 225.893 144.408C226.324 133.472 235.537 124.956 246.473 125.387C257.408 125.817 265.924 135.031 265.494 145.967Z" fill="black"/>
<path d="M265.494 145.967C265.063 156.902 255.849 165.418 244.914 164.988C233.978 164.557 225.463 155.343 225.893 144.408C226.324 133.472 235.537 124.956 246.473 125.387C257.408 125.817 265.924 135.031 265.494 145.967Z" stroke="black" stroke-width="1.29024" stroke-linecap="round" stroke-linejoin="round"/>
<path d="M265.777 149.137C265.346 160.073 256.132 168.589 245.197 168.158C234.262 167.728 225.746 158.514 226.176 147.578C226.607 136.643 235.821 128.127 246.756 128.558C257.692 128.988 266.207 138.202 265.777 149.137Z" fill="#ADC4CB"/>
<path d="M265.777 149.137C265.346 160.073 256.132 168.589 245.197 168.158C234.262 167.728 225.746 158.514 226.176 147.578C226.607 136.643 235.821 128.127 246.756 128.558C257.692 128.988 266.207 138.202 265.777 149.137Z" stroke="black" stroke-width="1.29024" stroke-linecap="round" stroke-linejoin="round"/>
<path d="M206.346 170.896L230.501 160.612C230.501 160.612 230.28 150.193 233.856 140.898C237.403 131.679 246.88 125.405 246.88 125.405C246.88 125.405 238.172 124.833 230.071 129.2C223.045 132.987 220.807 136.633 214.348 140.465C200.508 148.677 193.269 150.823 193.269 150.823L206.346 170.896Z" fill="white"/>
<path d="M206.346 170.896L230.501 160.612C230.501 160.612 230.28 150.193 233.856 140.898C237.403 131.679 246.88 125.405 246.88 125.405C246.88 125.405 238.172 124.833 230.071 129.2C223.045 132.987 220.807 136.633 214.348 140.465C200.508 148.677 193.269 150.823 193.269 150.823L206.346 170.896Z" stroke="black" stroke-width="1.29024" stroke-linecap="round" stroke-linejoin="round"/>
<path d="M207.725 169.544C203.716 174.291 196.288 174.612 191.134 170.26C185.979 165.909 185.051 158.532 189.059 153.784C193.067 149.037 200.495 148.716 205.65 153.068C210.804 157.42 211.733 164.796 207.725 169.544Z" fill="white"/>
<path d="M207.725 169.544C203.716 174.291 196.288 174.612 191.134 170.26C185.979 165.909 185.051 158.532 189.059 153.784C193.067 149.037 200.495 148.716 205.65 153.068C210.804 157.42 211.733 164.796 207.725 169.544Z" stroke="black" stroke-width="1.29024" stroke-linecap="round" stroke-linejoin="round"/>
<path d="M206.03 162.939C206.37 169.143 201.185 174.471 194.449 174.84C187.714 175.209 181.978 170.479 181.638 164.274C181.299 158.07 186.483 152.742 193.219 152.373C199.955 152.004 205.69 156.735 206.03 162.939Z" fill="#ADC4CB"/>
<path d="M206.03 162.939C206.37 169.143 201.185 174.471 194.449 174.84C187.714 175.209 181.978 170.479 181.638 164.274C181.299 158.07 186.483 152.742 193.219 152.373C199.955 152.004 205.69 156.735 206.03 162.939Z" stroke="black" stroke-width="1.29024" stroke-linecap="round" stroke-linejoin="round"/>
<path d="M183.123 157.556L151.247 173.907C146.312 176.438 144.418 182.507 147.038 187.395C149.314 192.233 154.344 193.265 159.913 191.931C159.913 191.931 189.754 185.076 197.472 176.656C200.915 172.899 201.885 170.445 199.611 165.263C198.589 162.935 196.598 158.473 192.625 156.865C189.258 155.502 185.67 156.25 183.123 157.556Z" fill="white"/>
<path d="M183.123 157.556L151.247 173.907C146.312 176.438 144.418 182.507 147.038 187.395C149.314 192.233 154.344 193.265 159.913 191.931C159.913 191.931 189.754 185.076 197.472 176.656C200.915 172.899 201.885 170.445 199.611 165.263C198.589 162.935 196.598 158.473 192.625 156.865C189.258 155.502 185.67 156.25 183.123 157.556Z" stroke="black" stroke-width="1.29024" stroke-linecap="round" stroke-linejoin="round"/>
<path d="M258.586 123.074C255.227 122.894 251.957 124.213 249.677 126.686C246.715 129.9 242.815 134.788 240.983 139.893C237.661 149.147 237.16 157.864 237.16 157.864C237.16 157.864 215.871 162.758 207.211 166.722C196.304 171.714 177.377 181.486 177.377 181.486L257.766 258.238C257.766 258.238 300.487 239.408 324.625 223.992C346.794 209.834 356.546 198.258 359.21 184.649C361.554 172.673 356.281 160.535 349.811 152.94C326.352 125.407 274.459 123.922 258.586 123.074Z" fill="white"/>
<path d="M258.586 123.074C255.227 122.894 251.957 124.213 249.677 126.686C246.715 129.9 242.815 134.788 240.983 139.893C237.661 149.147 237.16 157.864 237.16 157.864C237.16 157.864 215.871 162.758 207.211 166.722C196.304 171.714 177.377 181.486 177.377 181.486L257.766 258.238C257.766 258.238 300.487 239.408 324.625 223.992C346.794 209.834 356.546 198.258 359.21 184.649C361.554 172.673 356.281 160.535 349.811 152.94C326.352 125.407 274.459 123.922 258.586 123.074Z" stroke="black" stroke-width="1.29024" stroke-linecap="round" stroke-linejoin="round"/>
<path d="M323.097 166.584C327.305 180.879 307.296 196.393 280.658 204.234C254.02 212.076 229.015 206.844 224.807 192.549C220.599 178.254 238.782 160.309 265.42 152.467C292.057 144.626 318.889 152.289 323.097 166.584Z" fill="#ADC4CB"/>
<path d="M323.097 166.584C327.305 180.879 307.296 196.393 280.658 204.234C254.02 212.076 229.015 206.844 224.807 192.549C220.599 178.254 238.782 160.309 265.42 152.467C292.057 144.626 318.889 152.289 323.097 166.584Z" stroke="black" stroke-width="1.29024" stroke-linecap="round" stroke-linejoin="round"/>
<path d="M248.06 216.903C244.217 216.754 240.58 217.592 237.41 219.172C235.066 214.07 229.709 210.391 223.342 210.144C221.887 210.088 220.471 210.217 219.119 210.505C218.122 203.502 211.795 197.951 203.922 197.646C203.141 197.615 202.373 197.64 201.619 197.711C201.734 197.078 201.811 196.433 201.837 195.773C202.152 187.647 191.822 179.315 182.928 179.992C176.706 180.465 171.22 184.923 169.054 189.175C167.899 191.444 169.171 194.111 169.171 194.111C169.171 194.111 221.838 244.337 242.939 256.254C246.31 258.158 246.612 259.185 250.341 259.33C262 259.782 270.004 250.859 270.433 239.811C270.861 228.763 259.719 217.355 248.06 216.903Z" fill="white"/>
<path d="M248.06 216.903C244.217 216.754 240.58 217.592 237.41 219.172C235.066 214.07 229.709 210.391 223.342 210.144C221.887 210.088 220.471 210.217 219.119 210.505C218.122 203.502 211.795 197.951 203.922 197.646C203.141 197.615 202.373 197.64 201.619 197.711C201.734 197.078 201.811 196.433 201.837 195.773C202.152 187.647 191.822 179.315 182.928 179.992C176.706 180.465 171.22 184.923 169.054 189.175C167.899 191.444 169.171 194.111 169.171 194.111C169.171 194.111 221.838 244.337 242.939 256.254C246.31 258.158 246.612 259.185 250.341 259.33C262 259.782 270.004 250.859 270.433 239.811C270.861 228.763 259.719 217.355 248.06 216.903Z" stroke="black" stroke-width="1.29024" stroke-linecap="round" stroke-linejoin="round"/>
<path d="M198.76 197.846C199.234 206.404 193.058 213.705 184.967 214.152C176.875 214.6 169.932 208.025 169.458 199.467C168.985 190.909 175.16 183.608 183.252 183.161C191.344 182.713 198.287 189.288 198.76 197.846Z" fill="#ADC4CB"/>
<path d="M198.76 197.846C199.234 206.404 193.058 213.705 184.967 214.152C176.875 214.6 169.932 208.025 169.458 199.467C168.985 190.909 175.16 183.608 183.252 183.161C191.344 182.713 198.287 189.288 198.76 197.846Z" stroke="black" stroke-width="1.29024" stroke-linecap="round" stroke-linejoin="round"/>
<path d="M173.609 186.772C168.465 187.497 159.706 189.194 151.932 194.174C146.018 197.964 145.46 198.824 145.46 198.824L154.687 223.204L184.016 214.357C188.145 212.942 194.586 207.132 189.87 195.592C186.099 186.364 175.935 186.444 173.609 186.772Z" fill="white"/>
<path d="M173.609 186.772C168.465 187.497 159.706 189.194 151.932 194.174C146.018 197.964 145.46 198.824 145.46 198.824L154.687 223.204L184.016 214.357C188.145 212.942 194.586 207.132 189.87 195.592C186.099 186.364 175.935 186.444 173.609 186.772Z" stroke="black" stroke-width="1.29024" stroke-linecap="round" stroke-linejoin="round"/>
<path d="M167.428 208.787C168.579 217.955 162.081 226.321 152.913 227.472C143.744 228.624 135.379 222.125 134.227 212.957C133.076 203.789 139.574 195.423 148.743 194.271C157.911 193.12 166.276 199.619 167.428 208.787Z" fill="#ADC4CB"/>
<path d="M167.428 208.787C168.579 217.955 162.081 226.321 152.913 227.472C143.744 228.624 135.379 222.125 134.227 212.957C133.076 203.789 139.574 195.423 148.743 194.271C157.911 193.12 166.276 199.619 167.428 208.787Z" stroke="black" stroke-width="1.29024" stroke-linecap="round" stroke-linejoin="round"/>
<path d="M115.276 245.114L151.773 227.559C151.773 227.559 159.013 223.075 154.298 212.281C150.638 203.904 142.294 200.498 136.482 202.907C120.024 209.73 96.9907 225.111 99.8039 240.018C100.487 243.636 103.902 250.111 115.276 245.114Z" fill="white"/>
<path d="M115.276 245.114L151.773 227.559C151.773 227.559 159.013 223.075 154.298 212.281C150.638 203.904 142.294 200.498 136.482 202.907C120.024 209.73 96.9907 225.111 99.8039 240.018C100.487 243.636 103.902 250.111 115.276 245.114Z" stroke="black" stroke-width="1.29024" stroke-linecap="round" stroke-linejoin="round"/>
<path d="M219.169 223.071C218.358 233.849 209.44 241.964 199.249 241.197C189.059 240.431 181.456 231.071 182.267 220.294C183.079 209.516 191.997 201.401 202.187 202.168C212.377 202.934 219.98 212.294 219.169 223.071Z" fill="#ADC4CB"/>
<path d="M219.169 223.071C218.358 233.849 209.44 241.964 199.249 241.197C189.059 240.431 181.456 231.071 182.267 220.294C183.079 209.516 191.997 201.401 202.187 202.168C212.377 202.934 219.98 212.294 219.169 223.071Z" stroke="black" stroke-width="1.29024" stroke-linecap="round" stroke-linejoin="round"/>
<path d="M191.608 204.322C184.639 203.927 172.475 204.626 161.077 208.931C152.404 212.208 151.474 213.151 151.474 213.151L157.793 244.913L198.576 241.219C204.354 240.485 214.175 234.793 210.515 219.027C207.589 206.418 194.758 204.5 191.608 204.322Z" fill="white"/>
<path d="M191.608 204.322C184.639 203.927 172.475 204.626 161.077 208.931C152.404 212.208 151.474 213.151 151.474 213.151L157.793 244.913L198.576 241.219C204.354 240.485 214.175 234.793 210.515 219.027C207.589 206.418 194.758 204.5 191.608 204.322Z" stroke="black" stroke-width="1.29024" stroke-linecap="round" stroke-linejoin="round"/>
<path d="M170.676 227.185C171.346 236.401 164.419 244.415 155.203 245.085C145.987 245.755 137.973 238.827 137.303 229.611C136.633 220.395 143.56 212.381 152.776 211.711C161.992 211.041 170.006 217.969 170.676 227.185Z" fill="#ADC4CB"/>
<path d="M170.676 227.185C171.346 236.401 164.419 244.415 155.203 245.085C145.987 245.755 137.973 238.827 137.303 229.611C136.633 220.395 143.56 212.381 152.776 211.711C161.992 211.041 170.006 217.969 170.676 227.185Z" stroke="black" stroke-width="1.29024" stroke-linecap="round" stroke-linejoin="round"/>
<path d="M107.528 263.561L149.699 243.909C149.699 243.909 157.228 239.929 153.259 228.839C150.179 220.232 142.086 216.265 136.124 218.273C119.239 223.957 90.6484 242.358 92.4389 257.422C92.8736 261.079 95.8394 267.771 107.528 263.561Z" fill="white"/>
<path d="M107.528 263.561L149.699 243.909C149.699 243.909 157.228 239.929 153.259 228.839C150.179 220.232 142.086 216.265 136.124 218.273C119.239 223.957 90.6484 242.358 92.4389 257.422C92.8736 261.079 95.8394 267.771 107.528 263.561Z" stroke="black" stroke-width="1.29024" stroke-linecap="round" stroke-linejoin="round"/>
<path d="M239.808 234.914C239.389 245.714 230.771 254.148 220.56 253.752C210.349 253.356 202.411 244.279 202.83 233.479C203.249 222.679 211.866 214.245 222.078 214.641C232.289 215.038 240.227 224.114 239.808 234.914Z" fill="#ADC4CB"/>
<path d="M239.808 234.914C239.389 245.714 230.771 254.148 220.56 253.752C210.349 253.356 202.411 244.279 202.83 233.479C203.249 222.679 211.866 214.245 222.078 214.641C232.289 215.038 240.227 224.114 239.808 234.914Z" stroke="black" stroke-width="1.29024" stroke-linecap="round" stroke-linejoin="round"/>
<path d="M212.419 218.484C205.464 217.896 193.285 218.256 181.771 222.243C173.011 225.276 172.055 226.194 172.055 226.194L177.489 258.12L218.358 255.561C224.154 254.988 234.13 249.571 230.91 233.71C228.335 221.024 215.563 218.75 212.419 218.484Z" fill="white"/>
<path d="M212.419 218.484C205.464 217.896 193.285 218.256 181.771 222.243C173.011 225.276 172.055 226.194 172.055 226.194L177.489 258.12L218.358 255.561C224.154 254.988 234.13 249.571 230.91 233.71C228.335 221.024 215.563 218.75 212.419 218.484Z" stroke="black" stroke-width="1.29024" stroke-linecap="round" stroke-linejoin="round"/>
<path d="M187.289 244.297C186.497 253.503 178.392 260.324 169.186 259.532C159.98 258.74 153.159 250.635 153.951 241.429C154.743 232.223 162.848 225.402 172.054 226.194C181.26 226.986 188.081 235.091 187.289 244.297Z" fill="#ADC4CB"/>
<path d="M187.289 244.297C186.497 253.503 178.392 260.324 169.186 259.532C159.98 258.74 153.159 250.635 153.951 241.429C154.743 232.223 162.848 225.402 172.054 226.194C181.26 226.986 188.081 235.091 187.289 244.297Z" stroke="black" stroke-width="1.29024" stroke-linecap="round" stroke-linejoin="round"/>
<path d="M126.871 265.725L166.833 259.142C166.833 259.142 175.041 256.875 173.552 245.191C172.396 236.123 165.346 230.507 159.091 231.185C141.378 233.104 114.95 241.387 113.457 256.484C113.095 260.148 114.551 267.322 126.871 265.725Z" fill="white"/>
<path d="M126.871 265.725L166.833 259.142C166.833 259.142 175.041 256.875 173.552 245.191C172.396 236.123 165.346 230.507 159.091 231.185C141.378 233.104 114.95 241.387 113.457 256.484C113.095 260.148 114.551 267.322 126.871 265.725Z" stroke="black" stroke-width="1.29024" stroke-linecap="round" stroke-linejoin="round"/>
<path d="M266.002 239.639C265.628 249.295 257.497 256.819 247.841 256.444C238.185 256.069 230.662 247.938 231.036 238.283C231.411 228.627 239.542 221.103 249.198 221.478C258.853 221.853 266.377 229.984 266.002 239.639Z" fill="#ADC4CB"/>
<path d="M266.002 239.639C265.628 249.295 257.497 256.819 247.841 256.444C238.185 256.069 230.662 247.938 231.036 238.283C231.411 228.627 239.542 221.103 249.198 221.478C258.853 221.853 266.377 229.984 266.002 239.639Z" stroke="black" stroke-width="1.29024" stroke-linecap="round" stroke-linejoin="round"/>
<path d="M239.467 223.5C234.143 224.56 223.71 227.023 214.269 231.529C207.086 234.957 205.796 236.291 205.796 236.291L214.871 262.163L248.321 256.457C250.89 256.025 260.973 247.942 256.705 234.717C253.291 224.141 242.124 222.972 239.467 223.5Z" fill="white"/>
<path d="M239.467 223.5C234.143 224.56 223.71 227.023 214.269 231.529C207.086 234.957 205.796 236.291 205.796 236.291L214.871 262.163L248.321 256.457C250.89 256.025 260.973 247.942 256.705 234.717C253.291 224.141 242.124 222.972 239.467 223.5Z" stroke="black" stroke-width="1.29024" stroke-linecap="round" stroke-linejoin="round"/>
<path d="M222.283 252.842C220.366 260.541 212.572 265.228 204.873 263.311C197.175 261.395 192.488 253.6 194.404 245.901C196.321 238.203 204.116 233.516 211.814 235.433C219.513 237.349 224.2 245.144 222.283 252.842Z" fill="#ADC4CB"/>
<path d="M222.283 252.842C220.366 260.541 212.572 265.228 204.873 263.311C197.175 261.395 192.488 253.6 194.404 245.901C196.321 238.203 204.116 233.516 211.814 235.433C219.513 237.349 224.2 245.144 222.283 252.842Z" stroke="black" stroke-width="1.29024" stroke-linecap="round" stroke-linejoin="round"/>
<path d="M166.556 260.965L201.867 262.176C201.867 262.176 209.175 261.959 210.316 251.911C211.201 244.112 206.467 237.991 201.113 237.281C185.949 235.268 163.159 236.32 158.835 248.606C157.786 251.588 158.406 254.29 159.443 256.391C160.785 259.11 163.525 260.861 166.556 260.965Z" fill="white"/>
<path d="M166.556 260.965L201.867 262.176C201.867 262.176 209.175 261.959 210.316 251.911C211.201 244.112 206.467 237.991 201.113 237.281C185.949 235.268 163.159 236.32 158.835 248.606C157.786 251.588 158.406 254.29 159.443 256.391C160.785 259.11 163.525 260.861 166.556 260.965Z" stroke="black" stroke-width="1.29024" stroke-linecap="round" stroke-linejoin="round"/>
<path d="M204.537 51.4716L222.105 61.8002Z" fill="#499A9A"/>
</svg>
