<svg width="582" height="482" viewBox="0 0 582 482" fill="none" xmlns="http://www.w3.org/2000/svg">
<g clip-path="url(#clip0_3453_33393)">
<mask id="mask0_3453_33393" style="mask-type:luminance" maskUnits="userSpaceOnUse" x="50" y="0" width="482" height="482">
<path d="M532 0H50V482H532V0Z" fill="white"/>
</mask>
<g mask="url(#mask0_3453_33393)">
<mask id="mask1_3453_33393" style="mask-type:luminance" maskUnits="userSpaceOnUse" x="50" y="0" width="482" height="482">
<path d="M50 0H532V482H50V0Z" fill="white"/>
</mask>
<g mask="url(#mask1_3453_33393)">
<path d="M515.034 245.337C515.058 244.523 515.07 243.706 515.07 242.888C515.07 205.242 484.528 165.537 443.584 140.814C443.134 140.542 442.811 140.426 442.319 140.61L440.034 142.673L443.079 207.033C499.278 232.619 515.067 277.441 515.067 315.306C515.066 315.564 515.034 245.337 515.034 245.337Z" fill="white"/>
<path d="M515.034 245.337C515.058 244.523 515.07 243.706 515.07 242.888C515.07 205.242 484.528 165.537 443.584 140.814C443.134 140.542 442.811 140.426 442.319 140.61L440.034 142.673L443.079 207.033C499.278 232.619 515.067 277.441 515.067 315.306C515.066 315.564 515.034 245.337 515.034 245.337Z" stroke="black" stroke-width="1.27872" stroke-linecap="round" stroke-linejoin="round"/>
<path d="M511.707 246.585C511.731 245.77 511.743 244.954 511.743 244.136C511.743 229.394 509.721 214.282 502.539 200.469C491.474 179.188 469.784 157.794 441.074 142.581C440.472 142.25 439.729 142.65 439.729 143.339L439.751 207.252C439.751 207.96 440.115 208.631 440.73 208.981C495.93 240.042 515.016 277.927 515.016 315.493C515.017 315.751 511.707 246.585 511.707 246.585Z" fill="#16808B"/>
<path d="M511.707 246.585C511.731 245.77 511.743 244.954 511.743 244.136C511.743 229.394 509.721 214.282 502.539 200.469C491.474 179.188 469.784 157.794 441.074 142.581C440.472 142.25 439.729 142.65 439.729 143.339L439.751 207.252C439.751 207.96 440.115 208.631 440.73 208.981C495.93 240.042 515.016 277.927 515.016 315.493C515.017 315.751 511.707 246.585 511.707 246.585Z" stroke="black" stroke-width="1.27872" stroke-linecap="round" stroke-linejoin="round"/>
<path d="M511.907 243.235C510.591 294.839 462.736 337.658 398.097 358.819C397.942 358.87 397.785 358.916 397.629 358.965C395.92 359.494 395.117 361.082 395.117 362.871L394.92 428.745C394.92 429.409 395.291 430.017 395.882 430.32L399.017 431.929C399.017 431.929 512.852 364.728 513.32 313.868L515.07 242.888L511.907 243.235Z" fill="white"/>
<path d="M511.907 243.235C510.591 294.839 462.736 337.658 398.097 358.819C397.942 358.87 397.785 358.916 397.629 358.965C395.92 359.494 395.117 361.082 395.117 362.871L394.92 428.745C394.92 429.409 395.291 430.017 395.882 430.32L399.017 431.929C399.017 431.929 512.852 364.728 513.32 313.868L515.07 242.888L511.907 243.235Z" stroke="black" stroke-width="1.27872" stroke-linecap="round" stroke-linejoin="round"/>
<path d="M514.979 244.331C513.486 295.401 465.383 339.384 400.163 361.743C399.091 362.116 398.392 362.854 398.392 363.99L398.411 430.795C398.411 431.561 399.165 432.124 399.888 431.874C466.884 408.945 513.107 364.235 515.067 315.846L514.979 244.331Z" fill="white"/>
<path d="M514.979 244.331C513.486 295.401 465.383 339.384 400.163 361.743C399.091 362.116 398.392 362.854 398.392 363.99L398.411 430.795C398.411 431.561 399.165 432.124 399.888 431.874C466.884 408.945 513.107 364.235 515.067 315.846L514.979 244.331Z" stroke="black" stroke-width="1.27872" stroke-linecap="round" stroke-linejoin="round"/>
<path d="M481.519 345.285C481.519 345.285 502.803 322.818 507.22 303.579" stroke="black" stroke-width="1.27872" stroke-linecap="round" stroke-linejoin="round"/>
<path d="M481.427 358.495C481.427 358.495 495.294 344.479 501.831 329.947" stroke="black" stroke-width="1.27872" stroke-linecap="round" stroke-linejoin="round"/>
<path d="M496.677 186.652C485.351 170.532 467.287 153.803 443.777 140.713C443.771 140.71 443.765 140.706 443.758 140.702C442.726 140.069 442.143 140.648 441.059 141.681C440.763 141.961 439.91 142.803 439.91 142.803C439.91 142.803 441.142 143.573 441.768 143.93C487.131 169.39 511.572 205.293 511.508 241.325C511.463 266.702 500.567 289.668 479.42 310.89C459.279 331.156 430.209 347.763 398.095 358.814C397.941 358.868 397.347 359.065 397.347 359.065L399.678 361.901C399.678 361.901 400.11 361.767 400.323 361.69C434.437 349.428 459.071 335.167 479.929 315.362C502.498 293.923 514.978 267.667 514.978 241.325C514.978 222.332 508.821 203.938 496.677 186.652Z" fill="white"/>
<path d="M496.677 186.652C485.351 170.532 467.287 153.803 443.777 140.713C443.771 140.71 443.765 140.706 443.758 140.702C442.726 140.069 442.143 140.648 441.059 141.681C440.763 141.961 439.91 142.803 439.91 142.803C439.91 142.803 441.142 143.573 441.768 143.93C487.131 169.39 511.572 205.293 511.508 241.325C511.463 266.702 500.567 289.668 479.42 310.89C459.279 331.156 430.209 347.763 398.095 358.814C397.941 358.868 397.347 359.065 397.347 359.065L399.678 361.901C399.678 361.901 400.11 361.767 400.323 361.69C434.437 349.428 459.071 335.167 479.929 315.362C502.498 293.923 514.978 267.667 514.978 241.325C514.978 222.332 508.821 203.938 496.677 186.652Z" stroke="black" stroke-width="1.27872" stroke-linecap="round" stroke-linejoin="round"/>
<path d="M474.847 338.9C458.073 353.907 437.033 367.094 411.871 377.227V417.483C436.883 407.536 457.689 394.247 474.847 379.156V338.9Z" fill="#ADC4CB"/>
<path d="M474.847 338.9C458.073 353.907 437.033 367.094 411.871 377.227V417.483C436.883 407.536 457.689 394.247 474.847 379.156V338.9Z" stroke="black" stroke-width="1.27872" stroke-linecap="round" stroke-linejoin="round"/>
<path d="M421.019 384.918C424.582 378.614 431.49 373.318 436.464 376.011C441.276 378.616 439.626 387.543 436.12 393.875C432.547 400.343 426.2 405.717 420.832 402.757C415.676 399.92 417.442 391.247 421.019 384.918Z" fill="white"/>
<path d="M421.019 384.918C424.582 378.614 431.49 373.318 436.464 376.011C441.276 378.616 439.626 387.543 436.12 393.875C432.547 400.343 426.2 405.717 420.832 402.757C415.676 399.92 417.442 391.247 421.019 384.918Z" stroke="black" stroke-width="1.27872" stroke-linecap="round" stroke-linejoin="round"/>
<path d="M446.328 386.87C454.481 381.868 462.371 376.099 468.716 370.54" stroke="black" stroke-width="1.27872" stroke-linecap="round" stroke-linejoin="round"/>
<path d="M446.268 373.539C454.366 368.581 462.281 362.712 468.655 357.208" stroke="black" stroke-width="1.27872" stroke-linecap="round" stroke-linejoin="round"/>
<path d="M171.175 124.898C171.175 124.898 170.066 123.597 169.295 125.669C169.247 126.682 169.391 187.871 169.391 189.655C169.391 191.438 171.367 191.824 171.367 191.824L171.175 124.898Z" fill="#082326"/>
<path d="M171.175 124.898C171.175 124.898 170.066 123.597 169.295 125.669C169.247 126.682 169.391 187.871 169.391 189.655C169.391 191.438 171.367 191.824 171.367 191.824L171.175 124.898Z" stroke="black" stroke-width="1.27872"/>
<path d="M281.015 132.712C281.015 132.712 341.973 104.667 369.452 112.044C370.217 112.249 370.746 112.944 370.746 113.736L370.654 177.796C370.654 178.601 370.32 179.369 369.732 179.919L368.467 181.359L281.015 132.712Z" fill="#ADC4CB"/>
<path d="M281.015 132.712C281.015 132.712 341.973 104.667 369.452 112.044C370.217 112.249 370.746 112.944 370.746 113.736L370.654 177.796C370.654 178.601 370.32 179.369 369.732 179.919L368.467 181.359L281.015 132.712Z" stroke="black" stroke-width="1.27872" stroke-linecap="round" stroke-linejoin="round"/>
<path d="M170.006 128.991C170.006 127.704 170.845 126.592 172.059 126.163C202.997 115.264 237.709 107.588 278.653 106.642C310.156 105.955 340.438 108.879 367.495 115.399C368.199 115.568 368.686 116.213 368.686 116.937L368.723 180.703C368.723 181.336 368.13 181.787 367.515 181.639C340.306 175.114 310.334 172.47 278.832 172.995C239.614 173.661 205.023 180.879 172.344 192.005C171.202 192.393 170.019 191.523 170.019 190.316L170.006 128.991Z" fill="#082326"/>
<path d="M170.006 128.991C170.006 127.704 170.845 126.592 172.059 126.163C202.997 115.264 237.709 107.588 278.653 106.642C310.156 105.955 340.438 108.879 367.495 115.399C368.199 115.568 368.686 116.213 368.686 116.937L368.723 180.703C368.723 181.336 368.13 181.787 367.515 181.639C340.306 175.114 310.334 172.47 278.832 172.995C239.614 173.661 205.023 180.879 172.344 192.005C171.202 192.393 170.019 191.523 170.019 190.316L170.006 128.991Z" stroke="black" stroke-width="1.27872" stroke-linecap="round" stroke-linejoin="round"/>
<path d="M369.457 112.031C369.405 112.017 369.353 112.001 369.301 111.988C340.456 105.13 310.91 102.314 278.503 102.841C241.611 103.431 204.538 110.922 172.044 122.367C171.994 122.385 171.942 122.403 171.89 122.416C169.308 123.078 169.308 125.152 169.308 125.152L170.007 128.642C170.007 128.642 170.177 126.801 172.056 126.166C172.113 126.147 172.447 126.045 172.504 126.025C203.47 115.127 238.401 107.601 278.621 106.641C309.719 105.945 340.245 108.797 367.559 115.419C367.657 115.443 367.851 115.496 367.851 115.496L370.142 112.41C370.142 112.41 369.815 112.125 369.457 112.031Z" fill="white"/>
<path d="M369.457 112.031C369.405 112.017 369.353 112.001 369.301 111.988C340.456 105.13 310.91 102.314 278.503 102.841C241.611 103.431 204.538 110.922 172.044 122.367C171.994 122.385 171.942 122.403 171.89 122.416C169.308 123.078 169.308 125.152 169.308 125.152L170.007 128.642C170.007 128.642 170.177 126.801 172.056 126.166C172.113 126.147 172.447 126.045 172.504 126.025C203.47 115.127 238.401 107.601 278.621 106.641C309.719 105.945 340.245 108.797 367.559 115.419C367.657 115.443 367.851 115.496 367.851 115.496L370.142 112.41C370.142 112.41 369.815 112.125 369.457 112.031Z" stroke="black" stroke-width="1.27872" stroke-linecap="round" stroke-linejoin="round"/>
<path d="M61.5947 242.889C61.5947 212.141 74.6303 194.202 93.3791 171.356C94.1507 170.381 97.4062 167.148 98.4091 166.379L101.053 168.416L95.4835 233.886C68.2028 259.255 61.5947 283.273 61.5947 315.073V242.889Z" fill="white"/>
<path d="M61.5947 242.889C61.5947 212.141 74.6303 194.202 93.3791 171.356C94.1507 170.381 97.4062 167.148 98.4091 166.379L101.053 168.416L95.4835 233.886C68.2028 259.255 61.5947 283.273 61.5947 315.073V242.889Z" stroke="black" stroke-width="1.27872" stroke-linecap="round" stroke-linejoin="round"/>
<path d="M63.8498 241.279C63.8743 210.105 82.1529 186.121 99.9259 169.234C100.333 168.824 101.054 168.178 101.054 168.758L100.725 232.076C100.725 233.331 100.057 234.418 99.1528 235.284C72.1375 260.344 61.7881 283.634 61.7881 314.88L63.8498 241.279Z" fill="#16808B"/>
<path d="M63.8498 241.279C63.8743 210.105 82.1529 186.121 99.9259 169.234C100.333 168.824 101.054 168.178 101.054 168.758L100.725 232.076C100.725 233.331 100.057 234.418 99.1528 235.284C72.1375 260.344 61.7881 283.634 61.7881 314.88L63.8498 241.279Z" stroke="black" stroke-width="1.27872" stroke-linecap="round" stroke-linejoin="round"/>
<path d="M337.631 377.079C336.193 374.366 327.628 377.226 327.628 377.226C327.628 377.226 312.018 376.445 306.93 376.574C249.093 378.033 188.866 368.951 139.417 341.993C91.3267 315.785 63.6058 279.643 64.7521 239.071H61.6825L61.5947 248.285L61.6166 313.257C62.1469 385.636 159.861 454.929 304.498 449.778C316.092 449.375 334.496 447.431 334.496 447.431C335.978 447.431 337.183 446.235 337.193 444.753L337.631 377.079Z" fill="white"/>
<path d="M337.631 377.079C336.193 374.366 327.628 377.226 327.628 377.226C327.628 377.226 312.018 376.445 306.93 376.574C249.093 378.033 188.866 368.951 139.417 341.993C91.3267 315.785 63.6058 279.643 64.7521 239.071H61.6825L61.5947 248.285L61.6166 313.257C62.1469 385.636 159.861 454.929 304.498 449.778C316.092 449.375 334.496 447.431 334.496 447.431C335.978 447.431 337.183 446.235 337.193 444.753L337.631 377.079Z" stroke="black" stroke-width="1.27872" stroke-linecap="round" stroke-linejoin="round"/>
<path d="M302.373 379.514C271.493 380.642 242.154 378.336 212.253 372.063C179.183 365.189 148.914 352.198 128.097 339.545C107.217 326.854 90.8113 312.058 79.3353 295.567C67.392 278.405 61.2996 260.155 61.3361 241.325C61.3652 226.006 65.8907 208.381 75.0917 193.644C83.2612 180.555 88.5833 175.066 96.5947 167.42C96.6822 167.33 96.8085 167.282 96.8939 167.19C99.2612 164.681 101.632 168.096 100.862 168.667C100.443 168.978 99.9821 169.239 99.6137 169.602C81.0817 186.953 64.8065 210.77 64.8065 241.325C64.8065 277.663 88.7584 312.135 132.915 337.923C182.508 367.206 244.953 377.671 302.444 376.079C312.164 375.787 330.488 373.825 334.539 373.564C335.042 373.532 335.523 373.772 335.801 374.193L337.631 377.079C337.631 377.079 337.026 376.706 336.361 376.737C331.684 376.957 312.625 379.141 302.373 379.514Z" fill="white"/>
<path d="M302.373 379.514C271.493 380.642 242.154 378.336 212.253 372.063C179.183 365.189 148.914 352.198 128.097 339.545C107.217 326.854 90.8113 312.058 79.3353 295.567C67.392 278.405 61.2996 260.155 61.3361 241.325C61.3652 226.006 65.8907 208.381 75.0917 193.644C83.2612 180.555 88.5833 175.066 96.5947 167.42C96.6822 167.33 96.8085 167.282 96.8939 167.19C99.2612 164.681 101.632 168.096 100.862 168.667C100.443 168.978 99.9821 169.239 99.6137 169.602C81.0817 186.953 64.8065 210.77 64.8065 241.325C64.8065 277.663 88.7584 312.135 132.915 337.923C182.508 367.206 244.953 377.671 302.444 376.079C312.164 375.787 330.488 373.825 334.539 373.564C335.042 373.532 335.523 373.772 335.801 374.193L337.631 377.079C337.631 377.079 337.026 376.706 336.361 376.737C331.684 376.957 312.625 379.141 302.373 379.514Z" stroke="black" stroke-width="1.27872" stroke-linecap="round" stroke-linejoin="round"/>
<path d="M311.703 416.238C311.703 420.429 309.709 424.078 306.782 426.635C308.672 428.236 310.285 429.909 312.137 431.296C316.006 427.491 318.728 422.092 318.728 416.238C318.728 411.657 317.452 407.177 314.799 403.544C312.862 404.755 310.888 406.197 308.951 407.476C310.786 409.837 311.703 413.015 311.703 416.238Z" fill="#ADC4CB"/>
<path d="M311.703 416.238C311.703 420.429 309.709 424.078 306.782 426.635C308.672 428.236 310.285 429.909 312.137 431.296C316.006 427.491 318.728 422.092 318.728 416.238C318.728 411.657 317.452 407.177 314.799 403.544C312.862 404.755 310.888 406.197 308.951 407.476C310.786 409.837 311.703 413.015 311.703 416.238Z" stroke="black" stroke-width="1.27872" stroke-linecap="round" stroke-linejoin="round"/>
<path d="M304.846 428.153C302.699 429.505 300.161 430.29 297.436 430.29C289.734 430.29 283.49 424.047 283.49 416.344C283.49 408.642 289.799 401.848 297.865 401.97C301.282 402.021 304.411 403.202 306.836 405.244C307.922 404.468 312.295 401.245 312.613 401.025C308.825 397.271 303.619 394.906 297.865 394.945C285.723 395.028 276.465 404.762 276.465 416.344C276.465 427.926 285.854 437.316 297.436 437.316C302.17 437.316 306.534 435.744 310.043 433.098C309.387 432.46 305.292 428.53 304.846 428.153Z" stroke="black" stroke-width="1.27872" stroke-linecap="round" stroke-linejoin="round"/>
<path d="M253.773 414.067C253.857 418.949 252.237 422.542 249.311 425.098C251.2 426.7 252.992 428.158 254.844 429.545C258.713 425.741 261.013 421.401 260.975 414.102C260.953 409.521 259.257 405.39 256.764 401.941C254.828 403.152 252.922 404.661 250.985 405.94C252.82 408.301 253.721 411.055 253.773 414.067Z" fill="#499A9A"/>
<path d="M253.773 414.067C253.857 418.949 252.237 422.542 249.311 425.098C251.2 426.7 252.992 428.158 254.844 429.545C258.713 425.741 261.013 421.401 260.975 414.102C260.953 409.521 259.257 405.39 256.764 401.941C254.828 403.152 252.922 404.661 250.985 405.94C252.82 408.301 253.721 411.055 253.773 414.067Z" stroke="black" stroke-width="1.27872" stroke-linecap="round" stroke-linejoin="round"/>
<path d="M247.553 426.403C245.406 427.754 241.519 427.739 239.369 427.309C231.91 425.675 225.713 418.2 225.948 410.234C226.099 405.082 228.414 401.629 232.173 399.959C231.485 397.678 230.751 395.44 230.012 393.159C223.159 395.907 218.957 401.898 218.957 410.2C218.957 421.782 226.668 431.813 239.369 434.159C244.511 435.04 249.24 433.994 252.749 431.348C252.093 430.709 247.998 426.779 247.553 426.403Z" stroke="black" stroke-width="1.27872" stroke-linecap="round" stroke-linejoin="round"/>
<path d="M235.519 398.656C241.119 398.271 246.185 400.305 248.835 403.64C249.921 402.864 254.364 399.57 254.683 399.35C250.896 393.624 240.438 389.752 233.365 392.036C234.125 394.213 234.66 396.48 235.519 398.656Z" fill="#16808B"/>
<path d="M235.519 398.656C241.119 398.271 246.185 400.305 248.835 403.64C249.921 402.864 254.364 399.57 254.683 399.35C250.896 393.624 240.438 389.752 233.365 392.036C234.125 394.213 234.66 396.48 235.519 398.656Z" stroke="black" stroke-width="1.27872" stroke-linecap="round" stroke-linejoin="round"/>
<path d="M151.734 375.639C168.769 383.702 187.115 389.687 208.565 394.933V388.339C186.936 382.911 169.427 377.215 151.813 369.086L151.734 375.639Z" fill="#ADC4CB"/>
<path d="M151.734 375.639C168.769 383.702 187.115 389.687 208.565 394.933V388.339C186.936 382.911 169.427 377.215 151.813 369.086L151.734 375.639Z" stroke="black" stroke-width="1.27872" stroke-linecap="round" stroke-linejoin="round"/>
<path d="M133.801 359.967C126.592 355.812 119.571 351.311 113.477 346.481V353.074C118.952 357.724 126.512 362.647 133.801 366.561V359.967Z" fill="#ADC4CB"/>
<path d="M133.801 359.967C126.592 355.812 119.571 351.311 113.477 346.481V353.074C118.952 357.724 126.512 362.647 133.801 366.561V359.967Z" stroke="black" stroke-width="1.27872" stroke-linecap="round" stroke-linejoin="round"/>
<path d="M147.696 380.836C125.918 370.043 105.293 355.6 91.2334 340.077V346.671C103.98 361.567 124.922 376.14 147.696 387.43V380.836Z" fill="#ADC4CB"/>
<path d="M147.696 380.836C125.918 370.043 105.293 355.6 91.2334 340.077V346.671C103.98 361.567 124.922 376.14 147.696 387.43V380.836Z" stroke="black" stroke-width="1.27872" stroke-linecap="round" stroke-linejoin="round"/>
<path d="M169.971 396.893C176.646 399.664 182.619 401.547 190.156 403.756V397.162C183.379 395.331 176.254 393.035 169.971 390.299V396.893Z" fill="#ADC4CB"/>
<path d="M169.971 396.893C176.646 399.664 182.619 401.547 190.156 403.756V397.162C183.379 395.331 176.254 393.035 169.971 390.299V396.893Z" stroke="black" stroke-width="1.27872" stroke-linecap="round" stroke-linejoin="round"/>
<path d="M201.313 416.478C187.878 413.095 172.926 408.375 161.115 403.054V409.648C172.426 414.583 187.521 419.232 201.313 423.071V416.478Z" fill="#ADC4CB"/>
<path d="M201.313 416.478C187.878 413.095 172.926 408.375 161.115 403.054V409.648C172.426 414.583 187.521 419.232 201.313 423.071V416.478Z" stroke="black" stroke-width="1.27872" stroke-linecap="round" stroke-linejoin="round"/>
<path d="M153.926 400.001C143.514 395.221 132.072 389.438 123.354 383.223V389.817C131.199 395.415 143.514 401.714 153.926 406.594V400.001Z" fill="#ADC4CB"/>
<path d="M153.926 400.001C143.514 395.221 132.072 389.438 123.354 383.223V389.817C131.199 395.415 143.514 401.714 153.926 406.594V400.001Z" stroke="black" stroke-width="1.27872" stroke-linecap="round" stroke-linejoin="round"/>
<path d="M376.999 178.972C371.175 177.578 361.069 181.102 356.841 191.545C356.338 192.789 356.217 194.133 357.278 194.953C358.34 195.774 361.001 195.9 361.383 194.615C364.279 184.867 371.019 182.778 375.667 183.644C383.317 185.069 382.571 195.05 382.571 195.05C382.571 195.05 383.397 195.762 385.02 197.721C386.161 199.098 387.513 201.323 387.513 201.323C387.513 201.323 389.557 181.977 376.999 178.972Z" fill="white"/>
<path d="M376.999 178.972C371.175 177.578 361.069 181.102 356.841 191.545C356.338 192.789 356.217 194.133 357.278 194.953C358.34 195.774 361.001 195.9 361.383 194.615C364.279 184.867 371.019 182.778 375.667 183.644C383.317 185.069 382.571 195.05 382.571 195.05C382.571 195.05 383.397 195.762 385.02 197.721C386.161 199.098 387.513 201.323 387.513 201.323C387.513 201.323 389.557 181.977 376.999 178.972Z" stroke="black" stroke-width="1.29024" stroke-linecap="round" stroke-linejoin="round"/>
<path d="M424.859 227.465C424.859 250.293 406.353 268.799 383.524 268.799C360.696 268.799 342.189 250.293 342.189 227.465C342.189 204.636 360.696 186.13 383.524 186.13C406.353 186.13 424.859 204.636 424.859 227.465Z" fill="#ADC4CB"/>
<path d="M424.859 227.465C424.859 250.293 406.353 268.799 383.524 268.799C360.696 268.799 342.189 250.293 342.189 227.465C342.189 204.636 360.696 186.13 383.524 186.13C406.353 186.13 424.859 204.636 424.859 227.465Z" stroke="black" stroke-width="1.29024" stroke-linecap="round" stroke-linejoin="round"/>
<path d="M419.036 189.232C416.737 184.067 412.514 180.283 407.712 178.311C402.691 176.249 395.591 176.177 390.091 178.354C384.392 180.611 374.446 187.338 371.706 194.26C370.718 196.755 374.424 196.767 376.558 198.395C378.691 200.022 381.74 199.613 383.367 197.48C390.156 188.583 397.979 184.543 404.02 187.3C411.863 190.88 411.467 197.006 411.467 197.006C411.467 197.006 414.677 200.258 416.894 203.067C419.114 205.88 420.33 208.632 420.33 208.632L421.913 210.034C421.913 210.034 423.394 199.019 419.036 189.232Z" fill="white"/>
<path d="M419.036 189.232C416.737 184.067 412.514 180.283 407.712 178.311C402.691 176.249 395.591 176.177 390.091 178.354C384.392 180.611 374.446 187.338 371.706 194.26C370.718 196.755 374.424 196.767 376.558 198.395C378.691 200.022 381.74 199.613 383.367 197.48C390.156 188.583 397.979 184.543 404.02 187.3C411.863 190.88 411.467 197.006 411.467 197.006C411.467 197.006 414.677 200.258 416.894 203.067C419.114 205.88 420.33 208.632 420.33 208.632L421.913 210.034C421.913 210.034 423.394 199.019 419.036 189.232Z" stroke="black" stroke-width="1.29024" stroke-linecap="round" stroke-linejoin="round"/>
<path d="M425.862 195.053C419.453 192.259 405.704 194.406 399.259 205.249C398.573 206.403 398.26 207.716 399.189 208.684C400.119 209.652 402.762 210.021 403.54 208.929C409.592 200.426 418.685 198.346 423.838 200.251C430.196 202.601 424.859 213.394 424.859 213.394C424.859 213.394 424.904 213.328 426.222 215.505C427.148 217.034 428.158 219.435 428.158 219.435C428.158 219.435 439.099 200.824 425.862 195.053Z" fill="#16808B"/>
<path d="M425.862 195.053C419.453 192.259 405.704 194.406 399.259 205.249C398.573 206.403 398.26 207.716 399.189 208.684C400.119 209.652 402.762 210.021 403.54 208.929C409.592 200.426 418.685 198.346 423.838 200.251C430.196 202.601 424.859 213.394 424.859 213.394C424.859 213.394 424.904 213.328 426.222 215.505C427.148 217.034 428.158 219.435 428.158 219.435C428.158 219.435 439.099 200.824 425.862 195.053Z" stroke="black" stroke-width="1.29024" stroke-linecap="round" stroke-linejoin="round"/>
<path d="M326.19 208.967C325.76 219.902 316.546 228.418 305.61 227.988C294.675 227.557 286.159 218.343 286.59 207.408C287.02 196.472 296.234 187.956 307.169 188.387C318.105 188.817 326.621 198.031 326.19 208.967Z" fill="black"/>
<path d="M326.19 208.967C325.76 219.902 316.546 228.418 305.61 227.988C294.675 227.557 286.159 218.343 286.59 207.408C287.02 196.472 296.234 187.956 307.169 188.387C318.105 188.817 326.621 198.031 326.19 208.967Z" stroke="black" stroke-width="1.29024" stroke-linecap="round" stroke-linejoin="round"/>
<path d="M326.473 212.137C326.043 223.073 316.829 231.589 305.894 231.158C294.958 230.728 286.442 221.514 286.873 210.578C287.303 199.643 296.517 191.127 307.453 191.558C318.388 191.988 326.904 201.202 326.473 212.137Z" fill="#ADC4CB"/>
<path d="M326.473 212.137C326.043 223.073 316.829 231.589 305.894 231.158C294.958 230.728 286.442 221.514 286.873 210.578C287.303 199.643 296.517 191.127 307.453 191.558C318.388 191.988 326.904 201.202 326.473 212.137Z" stroke="black" stroke-width="1.29024" stroke-linecap="round" stroke-linejoin="round"/>
<path d="M267.043 233.896L291.198 223.612C291.198 223.612 290.977 213.193 294.553 203.898C298.1 194.68 307.577 188.405 307.577 188.405C307.577 188.405 298.869 187.833 290.768 192.2C283.742 195.987 281.503 199.633 275.044 203.465C261.205 211.677 253.966 213.823 253.966 213.823L267.043 233.896Z" fill="white"/>
<path d="M267.043 233.896L291.198 223.612C291.198 223.612 290.977 213.193 294.553 203.898C298.1 194.68 307.577 188.405 307.577 188.405C307.577 188.405 298.869 187.833 290.768 192.2C283.742 195.987 281.503 199.633 275.044 203.465C261.205 211.677 253.966 213.823 253.966 213.823L267.043 233.896Z" stroke="black" stroke-width="1.29024" stroke-linecap="round" stroke-linejoin="round"/>
<path d="M268.421 232.544C264.413 237.291 256.985 237.612 251.83 233.26C246.676 228.909 245.747 221.532 249.756 216.784C253.764 212.037 261.192 211.716 266.346 216.068C271.501 220.42 272.43 227.796 268.421 232.544Z" fill="white"/>
<path d="M268.421 232.544C264.413 237.291 256.985 237.612 251.83 233.26C246.676 228.909 245.747 221.532 249.756 216.784C253.764 212.037 261.192 211.716 266.346 216.068C271.501 220.42 272.43 227.796 268.421 232.544Z" stroke="black" stroke-width="1.29024" stroke-linecap="round" stroke-linejoin="round"/>
<path d="M266.727 225.939C267.066 232.143 261.881 237.471 255.146 237.84C248.41 238.209 242.674 233.479 242.335 227.274C241.995 221.07 247.18 215.742 253.916 215.373C260.651 215.004 266.387 219.735 266.727 225.939Z" fill="#ADC4CB"/>
<path d="M266.727 225.939C267.066 232.143 261.881 237.471 255.146 237.84C248.41 238.209 242.674 233.479 242.335 227.274C241.995 221.07 247.18 215.742 253.916 215.373C260.651 215.004 266.387 219.735 266.727 225.939Z" stroke="black" stroke-width="1.29024" stroke-linecap="round" stroke-linejoin="round"/>
<path d="M243.82 220.556L211.943 236.907C207.009 239.438 205.115 245.507 207.735 250.395C210.011 255.233 215.041 256.265 220.61 254.931C220.61 254.931 250.451 248.076 258.168 239.656C261.611 235.899 262.582 233.445 260.308 228.263C259.286 225.935 257.295 221.473 253.322 219.865C249.955 218.502 246.367 219.25 243.82 220.556Z" fill="white"/>
<path d="M243.82 220.556L211.943 236.907C207.009 239.438 205.115 245.507 207.735 250.395C210.011 255.233 215.041 256.265 220.61 254.931C220.61 254.931 250.451 248.076 258.168 239.656C261.611 235.899 262.582 233.445 260.308 228.263C259.286 225.935 257.295 221.473 253.322 219.865C249.955 218.502 246.367 219.25 243.82 220.556Z" stroke="black" stroke-width="1.29024" stroke-linecap="round" stroke-linejoin="round"/>
<path d="M319.283 186.074C315.923 185.894 312.653 187.213 310.373 189.686C307.412 192.9 303.512 197.788 301.679 202.893C298.357 212.147 297.856 220.864 297.856 220.864C297.856 220.864 276.567 225.758 267.908 229.722C257 234.714 238.074 244.486 238.074 244.486L318.463 321.238C318.463 321.238 361.183 302.408 385.322 286.992C407.49 272.834 417.242 261.258 419.906 247.649C422.25 235.673 416.978 223.535 410.507 215.94C387.048 188.407 335.156 186.922 319.283 186.074Z" fill="white"/>
<path d="M319.283 186.074C315.923 185.894 312.653 187.213 310.373 189.686C307.412 192.9 303.512 197.788 301.679 202.893C298.357 212.147 297.856 220.864 297.856 220.864C297.856 220.864 276.567 225.758 267.908 229.722C257 234.714 238.074 244.486 238.074 244.486L318.463 321.238C318.463 321.238 361.183 302.408 385.322 286.992C407.49 272.834 417.242 261.258 419.906 247.649C422.25 235.673 416.978 223.535 410.507 215.94C387.048 188.407 335.156 186.922 319.283 186.074Z" stroke="black" stroke-width="1.29024" stroke-linecap="round" stroke-linejoin="round"/>
<path d="M383.794 229.584C388.001 243.879 367.992 259.393 341.354 267.234C314.717 275.076 289.711 269.844 285.503 255.549C281.295 241.254 299.478 223.309 326.116 215.467C352.754 207.626 379.586 215.289 383.794 229.584Z" fill="#ADC4CB"/>
<path d="M383.794 229.584C388.001 243.879 367.992 259.393 341.354 267.234C314.717 275.076 289.711 269.844 285.503 255.549C281.295 241.254 299.478 223.309 326.116 215.467C352.754 207.626 379.586 215.289 383.794 229.584Z" stroke="black" stroke-width="1.29024" stroke-linecap="round" stroke-linejoin="round"/>
<path d="M308.757 279.903C304.914 279.754 301.276 280.592 298.106 282.172C295.762 277.07 290.406 273.391 284.039 273.144C282.583 273.088 281.168 273.218 279.815 273.505C278.818 266.503 272.491 260.951 264.618 260.646C263.838 260.615 263.069 260.64 262.315 260.712C262.431 260.079 262.508 259.433 262.533 258.773C262.848 250.647 252.518 242.315 243.625 242.992C237.402 243.465 231.916 247.923 229.751 252.175C228.595 254.444 229.868 257.111 229.868 257.111C229.868 257.111 282.535 307.337 303.636 319.254C307.007 321.158 307.309 322.185 311.038 322.33C322.697 322.782 330.701 313.859 331.129 302.811C331.558 291.763 320.415 280.355 308.757 279.903Z" fill="white"/>
<path d="M308.757 279.903C304.914 279.754 301.276 280.592 298.106 282.172C295.762 277.07 290.406 273.391 284.039 273.144C282.583 273.088 281.168 273.218 279.815 273.505C278.818 266.503 272.491 260.951 264.618 260.646C263.838 260.615 263.069 260.64 262.315 260.712C262.431 260.079 262.508 259.433 262.533 258.773C262.848 250.647 252.518 242.315 243.625 242.992C237.402 243.465 231.916 247.923 229.751 252.175C228.595 254.444 229.868 257.111 229.868 257.111C229.868 257.111 282.535 307.337 303.636 319.254C307.007 321.158 307.309 322.185 311.038 322.33C322.697 322.782 330.701 313.859 331.129 302.811C331.558 291.763 320.415 280.355 308.757 279.903Z" stroke="black" stroke-width="1.29024" stroke-linecap="round" stroke-linejoin="round"/>
<path d="M259.457 260.846C259.93 269.404 253.755 276.705 245.663 277.152C237.572 277.6 230.629 271.025 230.155 262.467C229.681 253.909 235.857 246.608 243.949 246.161C252.04 245.713 258.983 252.288 259.457 260.846Z" fill="#ADC4CB"/>
<path d="M259.457 260.846C259.93 269.404 253.755 276.705 245.663 277.152C237.572 277.6 230.629 271.025 230.155 262.467C229.681 253.909 235.857 246.608 243.949 246.161C252.04 245.713 258.983 252.288 259.457 260.846Z" stroke="black" stroke-width="1.29024" stroke-linecap="round" stroke-linejoin="round"/>
<path d="M234.305 249.772C229.161 250.497 220.402 252.194 212.629 257.174C206.714 260.964 206.156 261.824 206.156 261.824L215.384 286.204L244.713 277.357C248.841 275.942 255.282 270.132 250.567 258.593C246.795 249.364 236.631 249.444 234.305 249.772Z" fill="white"/>
<path d="M234.305 249.772C229.161 250.497 220.402 252.194 212.629 257.174C206.714 260.964 206.156 261.824 206.156 261.824L215.384 286.204L244.713 277.357C248.841 275.942 255.282 270.132 250.567 258.593C246.795 249.364 236.631 249.444 234.305 249.772Z" stroke="black" stroke-width="1.29024" stroke-linecap="round" stroke-linejoin="round"/>
<path d="M228.124 271.787C229.276 280.955 222.777 289.321 213.609 290.472C204.441 291.624 196.075 285.125 194.924 275.957C193.772 266.789 200.271 258.423 209.439 257.272C218.607 256.12 226.973 262.619 228.124 271.787Z" fill="#ADC4CB"/>
<path d="M228.124 271.787C229.276 280.955 222.777 289.321 213.609 290.472C204.441 291.624 196.075 285.125 194.924 275.957C193.772 266.789 200.271 258.423 209.439 257.272C218.607 256.12 226.973 262.619 228.124 271.787Z" stroke="black" stroke-width="1.29024" stroke-linecap="round" stroke-linejoin="round"/>
<path d="M175.972 308.114L212.47 290.559C212.47 290.559 219.709 286.075 214.994 275.281C211.335 266.904 202.991 263.498 197.179 265.907C180.72 272.73 157.687 288.11 160.5 303.018C161.183 306.636 164.598 313.111 175.972 308.114Z" fill="white"/>
<path d="M175.972 308.114L212.47 290.559C212.47 290.559 219.709 286.075 214.994 275.281C211.335 266.904 202.991 263.498 197.179 265.907C180.72 272.73 157.687 288.11 160.5 303.018C161.183 306.636 164.598 313.111 175.972 308.114Z" stroke="black" stroke-width="1.29024" stroke-linecap="round" stroke-linejoin="round"/>
<path d="M279.865 286.071C279.054 296.849 270.136 304.964 259.946 304.197C249.756 303.431 242.153 294.071 242.964 283.294C243.775 272.516 252.693 264.401 262.883 265.168C273.074 265.934 280.677 275.294 279.865 286.071Z" fill="#ADC4CB"/>
<path d="M279.865 286.071C279.054 296.849 270.136 304.964 259.946 304.197C249.756 303.431 242.153 294.071 242.964 283.294C243.775 272.516 252.693 264.401 262.883 265.168C273.074 265.934 280.677 275.294 279.865 286.071Z" stroke="black" stroke-width="1.29024" stroke-linecap="round" stroke-linejoin="round"/>
<path d="M252.304 267.322C245.336 266.927 233.171 267.626 221.773 271.931C213.101 275.208 212.17 276.151 212.17 276.151L218.49 307.913L259.272 304.219C265.05 303.485 274.871 297.793 271.212 282.027C268.285 269.418 255.455 267.5 252.304 267.322Z" fill="white"/>
<path d="M252.304 267.322C245.336 266.927 233.171 267.626 221.773 271.931C213.101 275.208 212.17 276.151 212.17 276.151L218.49 307.913L259.272 304.219C265.05 303.485 274.871 297.793 271.212 282.027C268.285 269.418 255.455 267.5 252.304 267.322Z" stroke="black" stroke-width="1.29024" stroke-linecap="round" stroke-linejoin="round"/>
<path d="M231.372 290.185C232.042 299.401 225.115 307.415 215.899 308.085C206.683 308.755 198.669 301.827 197.999 292.611C197.329 283.396 204.256 275.381 213.472 274.711C222.688 274.041 230.702 280.969 231.372 290.185Z" fill="#ADC4CB"/>
<path d="M231.372 290.185C232.042 299.401 225.115 307.415 215.899 308.085C206.683 308.755 198.669 301.827 197.999 292.611C197.329 283.396 204.256 275.381 213.472 274.711C222.688 274.041 230.702 280.969 231.372 290.185Z" stroke="black" stroke-width="1.29024" stroke-linecap="round" stroke-linejoin="round"/>
<path d="M168.224 326.561L210.396 306.909C210.396 306.909 217.924 302.929 213.956 291.839C210.875 283.232 202.783 279.265 196.82 281.272C179.935 286.957 151.345 305.358 153.135 320.422C153.57 324.078 156.536 330.771 168.224 326.561Z" fill="white"/>
<path d="M168.224 326.561L210.396 306.909C210.396 306.909 217.924 302.929 213.956 291.839C210.875 283.232 202.783 279.265 196.82 281.272C179.935 286.957 151.345 305.358 153.135 320.422C153.57 324.078 156.536 330.771 168.224 326.561Z" stroke="black" stroke-width="1.29024" stroke-linecap="round" stroke-linejoin="round"/>
<path d="M300.504 297.914C300.085 308.714 291.468 317.148 281.257 316.752C271.045 316.356 263.107 307.279 263.526 296.479C263.945 285.679 272.563 277.245 282.774 277.641C292.985 278.038 300.923 287.114 300.504 297.914Z" fill="#ADC4CB"/>
<path d="M300.504 297.914C300.085 308.714 291.468 317.148 281.257 316.752C271.045 316.356 263.107 307.279 263.526 296.479C263.945 285.679 272.563 277.245 282.774 277.641C292.985 278.038 300.923 287.114 300.504 297.914Z" stroke="black" stroke-width="1.29024" stroke-linecap="round" stroke-linejoin="round"/>
<path d="M273.115 281.484C266.161 280.896 253.982 281.256 242.468 285.243C233.708 288.277 232.751 289.194 232.751 289.194L238.185 321.12L279.054 318.561C284.851 317.988 294.827 312.571 291.607 296.71C289.032 284.024 276.26 281.75 273.115 281.484Z" fill="white"/>
<path d="M273.115 281.484C266.161 280.896 253.982 281.256 242.468 285.243C233.708 288.277 232.751 289.194 232.751 289.194L238.185 321.12L279.054 318.561C284.851 317.988 294.827 312.571 291.607 296.71C289.032 284.024 276.26 281.75 273.115 281.484Z" stroke="black" stroke-width="1.29024" stroke-linecap="round" stroke-linejoin="round"/>
<path d="M247.986 307.297C247.194 316.503 239.089 323.324 229.883 322.532C220.677 321.74 213.856 313.635 214.648 304.429C215.44 295.223 223.545 288.402 232.751 289.194C241.957 289.986 248.778 298.091 247.986 307.297Z" fill="#ADC4CB"/>
<path d="M247.986 307.297C247.194 316.503 239.089 323.324 229.883 322.532C220.677 321.74 213.856 313.635 214.648 304.429C215.44 295.223 223.545 288.402 232.751 289.194C241.957 289.986 248.778 298.091 247.986 307.297Z" stroke="black" stroke-width="1.29024" stroke-linecap="round" stroke-linejoin="round"/>
<path d="M187.568 328.725L227.529 322.142C227.529 322.142 235.738 319.875 234.248 308.191C233.092 299.123 226.043 293.507 219.788 294.185C202.075 296.104 175.646 304.387 174.154 319.484C173.791 323.148 175.247 330.322 187.568 328.725Z" fill="white"/>
<path d="M187.568 328.725L227.529 322.142C227.529 322.142 235.738 319.875 234.248 308.191C233.092 299.123 226.043 293.507 219.788 294.185C202.075 296.104 175.646 304.387 174.154 319.484C173.791 323.148 175.247 330.322 187.568 328.725Z" stroke="black" stroke-width="1.29024" stroke-linecap="round" stroke-linejoin="round"/>
<path d="M326.699 302.639C326.324 312.295 318.193 319.819 308.537 319.444C298.882 319.07 291.358 310.938 291.733 301.283C292.107 291.627 300.238 284.103 309.894 284.478C319.55 284.853 327.073 292.984 326.699 302.639Z" fill="#ADC4CB"/>
<path d="M326.699 302.639C326.324 312.295 318.193 319.819 308.537 319.444C298.882 319.07 291.358 310.938 291.733 301.283C292.107 291.627 300.238 284.103 309.894 284.478C319.55 284.853 327.073 292.984 326.699 302.639Z" stroke="black" stroke-width="1.29024" stroke-linecap="round" stroke-linejoin="round"/>
<path d="M300.164 286.5C294.839 287.56 284.407 290.023 274.966 294.529C267.782 297.957 266.493 299.291 266.493 299.291L275.568 325.163L309.017 319.457C311.586 319.025 321.67 310.942 317.401 297.717C313.987 287.141 302.821 285.972 300.164 286.5Z" fill="white"/>
<path d="M300.164 286.5C294.839 287.56 284.407 290.023 274.966 294.529C267.782 297.957 266.493 299.291 266.493 299.291L275.568 325.163L309.017 319.457C311.586 319.025 321.67 310.942 317.401 297.717C313.987 287.141 302.821 285.972 300.164 286.5Z" stroke="black" stroke-width="1.29024" stroke-linecap="round" stroke-linejoin="round"/>
<path d="M282.98 315.842C281.063 323.541 273.268 328.228 265.57 326.311C257.871 324.395 253.184 316.6 255.101 308.901C257.018 301.203 264.812 296.516 272.511 298.433C280.209 300.349 284.896 308.144 282.98 315.842Z" fill="#ADC4CB"/>
<path d="M282.98 315.842C281.063 323.541 273.268 328.228 265.57 326.311C257.871 324.395 253.184 316.6 255.101 308.901C257.018 301.203 264.812 296.516 272.511 298.433C280.209 300.349 284.896 308.144 282.98 315.842Z" stroke="black" stroke-width="1.29024" stroke-linecap="round" stroke-linejoin="round"/>
<path d="M227.252 323.965L262.563 325.176C262.563 325.176 269.872 324.959 271.012 314.911C271.898 307.112 267.164 300.991 261.809 300.281C246.645 298.268 223.856 299.32 219.532 311.606C218.482 314.588 219.103 317.29 220.14 319.391C221.482 322.11 224.221 323.861 227.252 323.965Z" fill="white"/>
<path d="M227.252 323.965L262.563 325.176C262.563 325.176 269.872 324.959 271.012 314.911C271.898 307.112 267.164 300.991 261.809 300.281C246.645 298.268 223.856 299.32 219.532 311.606C218.482 314.588 219.103 317.29 220.14 319.391C221.482 322.11 224.221 323.861 227.252 323.965Z" stroke="black" stroke-width="1.29024" stroke-linecap="round" stroke-linejoin="round"/>
<path d="M286.905 156.059L287.03 168.055L304.205 178.119L311.858 155.38L286.905 156.059Z" fill="#16808B"/>
<path d="M286.905 156.059L287.03 168.055L304.205 178.119L311.858 155.38L286.905 156.059Z" stroke="black" stroke-width="1.15633" stroke-linejoin="round"/>
<path d="M286.914 156.103C271.741 162.975 259.307 156.057 259.802 141.82L283.331 128.552C284.61 142.655 286.914 156.103 286.914 156.103Z" fill="#499A9A"/>
<path d="M286.914 156.103C271.741 162.975 259.307 156.057 259.802 141.82L283.331 128.552C284.61 142.655 286.914 156.103 286.914 156.103Z" stroke="black" stroke-width="1.15633" stroke-linecap="round" stroke-linejoin="round"/>
<path d="M330.534 103.193C330.531 107.8 330.228 112.753 329.484 117.724C327.408 131.582 321.901 145.588 309.9 152.671L286.914 156.103C271.74 162.975 283.33 128.552 283.33 128.552C284.61 142.655 301.833 131.479 305.23 124.087C309.767 114.21 306.962 107.821 296.535 111.158C289.094 113.539 280.981 81.7918 283.858 88.6298C286.015 93.7561 293.609 91.4679 298.078 89.8883C316.56 83.3563 330.546 84.2583 330.534 103.193Z" fill="black"/>
<path d="M330.534 103.193C330.531 107.8 330.228 112.753 329.484 117.724C327.408 131.582 321.901 145.588 309.9 152.671L286.914 156.103C271.74 162.975 283.33 128.552 283.33 128.552C284.61 142.655 301.833 131.479 305.23 124.087C309.767 114.21 306.962 107.821 296.535 111.158C289.094 113.539 280.981 81.7918 283.858 88.6298C286.015 93.7561 293.609 91.4679 298.078 89.8883C316.56 83.3563 330.546 84.2583 330.534 103.193Z" stroke="black" stroke-width="1.15633" stroke-linecap="round" stroke-linejoin="round"/>
<path d="M276.232 134.906L266.853 156.512L284.011 166.635L289.966 148.156" fill="#499A9A"/>
<path d="M266.853 156.512L284.011 166.636" stroke="black" stroke-width="1.15633" stroke-linecap="round" stroke-linejoin="round"/>
<path d="M271.067 116.364C264.801 115.512 261.124 112.101 259.569 107.218C255.157 93.3577 267.848 67.6409 287.011 54.9408V42.8448L300.761 35.1831L300.744 47.1081C316.977 38.4904 329.508 45.3608 329.397 60.4286L305.658 73.8283C305.366 65.1001 299.366 66.4064 292.825 70.1395C287.294 73.2959 280.981 81.7918 283.858 88.6298C286.015 93.7561 279.997 117.578 271.067 116.364Z" fill="#499A9A"/>
<path d="M271.067 116.364C264.801 115.512 261.124 112.101 259.569 107.218C255.157 93.3577 267.848 67.6409 287.011 54.9408V42.8448L300.761 35.1831L300.744 47.1081C316.977 38.4904 329.508 45.3608 329.397 60.4286L305.658 73.8283C305.366 65.1001 299.366 66.4064 292.825 70.1395C287.294 73.2959 280.981 81.7918 283.858 88.6298C286.015 93.7561 279.997 117.578 271.067 116.364Z" stroke="black" stroke-width="1.15633" stroke-linecap="round" stroke-linejoin="round"/>
<path d="M320.412 93.887L331.056 102.015L340.49 97.9994L324.379 88.4683L320.412 93.887Z" fill="black"/>
<path d="M320.412 93.887L331.056 102.015L340.49 97.9994L324.379 88.4683L320.412 93.887Z" stroke="black" stroke-width="1.15633" stroke-linejoin="round"/>
<path d="M259.791 141.833L277.015 151.896L300.48 138.688L283.304 128.576L259.791 141.833Z" fill="#16808B"/>
<path d="M259.791 141.833L277.015 151.896L300.48 138.688L283.304 128.576L259.791 141.833Z" stroke="black" stroke-width="1.15633" stroke-linejoin="round"/>
<path d="M309.823 51.2165L321.994 45.3169L338.967 55.2921L328.173 65.5461" fill="#499A9A"/>
<path d="M286.635 56.7622L265.233 114.472L282.801 124.8L306.957 65.6206" fill="#499A9A"/>
<path d="M321.994 45.3169L338.966 55.2921L321.994 45.3169Z" fill="#499A9A"/>
<path d="M321.994 45.3169L338.966 55.2921" stroke="black" stroke-width="1.15633" stroke-linejoin="round"/>
<path d="M265.233 114.472L282.801 124.8L265.233 114.472Z" fill="#499A9A"/>
<path d="M265.233 114.472L282.801 124.8" stroke="black" stroke-width="1.15633" stroke-linejoin="round"/>
<path d="M287.029 42.8447L304.156 52.9563L317.993 45.3121L300.818 35.2004L287.029 42.8447Z" fill="#16808B"/>
<path d="M287.029 42.8447L304.156 52.9563L317.993 45.3121L300.818 35.2004L287.029 42.8447Z" stroke="black" stroke-width="1.15633" stroke-linejoin="round"/>
<path d="M347.709 113.305C347.699 130.753 334.152 149.138 317.844 158.763L317.828 170.311L304.143 178.167L304.089 166.215C288.915 173.087 276.482 166.168 276.977 151.932L300.506 138.664C301.785 152.767 319.009 141.591 322.405 134.198C326.942 124.322 324.137 117.932 313.71 121.269C306.269 123.65 297.172 127.689 288.242 126.475C264.193 123.206 278.272 82.227 304.186 65.0524V52.9563L317.936 45.2947L317.919 57.2197C334.152 48.602 346.683 55.4723 346.572 70.5402L322.833 83.9399C322.541 75.2117 316.541 76.518 310 80.2511C304.469 83.4075 298.156 91.9034 301.033 98.7414C303.19 103.868 310.784 101.579 315.253 99.9999C333.735 93.4679 347.721 94.3699 347.709 113.305Z" fill="#499A9A"/>
<path d="M347.709 113.305C347.699 130.753 334.152 149.138 317.844 158.763L317.828 170.311L304.143 178.167L304.089 166.215C288.915 173.087 276.482 166.168 276.977 151.932L300.506 138.664C301.785 152.767 319.009 141.591 322.405 134.198C326.942 124.322 324.137 117.932 313.71 121.269C306.269 123.65 297.172 127.689 288.242 126.475C264.193 123.206 278.272 82.227 304.186 65.0524V52.9563L317.936 45.2947L317.919 57.2197C334.152 48.602 346.683 55.4723 346.572 70.5402L322.833 83.9399C322.541 75.2117 316.541 76.518 310 80.2511C304.469 83.4075 298.156 91.9034 301.033 98.7414C303.19 103.868 310.784 101.579 315.253 99.9999C333.735 93.4679 347.721 94.3699 347.709 113.305Z" stroke="black" stroke-width="1.15633" stroke-linecap="round" stroke-linejoin="round"/>
</g>
</g>
</g>
<defs>
<clipPath id="clip0_3453_33393">
<rect width="482" height="482" fill="white" transform="translate(50)"/>
</clipPath>
</defs>
</svg>
