<svg width="24" height="24" viewBox="0 0 24 24" fill="none" xmlns="http://www.w3.org/2000/svg">
<g clip-path="url(#clip0_4_4)">
<path d="M19.5 19.5C23.6421 15.3579 23.6421 8.64214 19.5 4.5C15.3579 0.35787 8.64213 0.357869 4.5 4.5C0.357862 8.64214 0.357862 15.3579 4.5 19.5C8.64213 23.6421 15.3579 23.6421 19.5 19.5Z" stroke="#499A9A" stroke-width="1.5" stroke-miterlimit="22.9256" stroke-linecap="round" stroke-linejoin="round"/>
<path d="M17.8163 17.8163C21.0286 14.6041 21.0286 9.39594 17.8163 6.18368C14.6041 2.97141 9.39595 2.97141 6.18368 6.18368C2.97141 9.39594 2.97141 14.6041 6.18368 17.8163C9.39595 21.0286 14.6041 21.0286 17.8163 17.8163Z" stroke="#499A9A" stroke-width="1.5" stroke-miterlimit="22.9256" stroke-linecap="round" stroke-linejoin="round"/>
<path fill-rule="evenodd" clip-rule="evenodd" d="M12.9748 14.0564C12.9748 14.5943 12.5387 15.0304 12.0007 15.0304C11.4628 15.0304 11.0266 14.5943 11.0266 14.0564C11.0266 13.3075 11.067 12.8744 11.3874 12.3029C11.651 11.8328 12.0754 11.3768 12.8629 10.5517C12.968 10.4416 13.0522 10.3122 13.1092 10.1701C13.1621 10.0378 13.1913 9.88857 13.1913 9.72709C13.1913 9.39824 13.0581 9.10056 12.8427 8.88518C12.6273 8.6698 12.3296 8.53654 12.0007 8.53654C11.7795 8.53654 11.5748 8.59443 11.4011 8.69547C11.2187 8.80154 11.0673 8.95402 10.9634 9.13641C10.6986 9.60293 10.1058 9.76649 9.63923 9.50171C9.17271 9.23693 9.00915 8.64408 9.27393 8.17756C9.54901 7.69476 9.94791 7.29227 10.427 7.01368C10.8919 6.74328 11.4297 6.58842 12.0007 6.58842C12.8673 6.58842 13.652 6.93978 14.22 7.50778C14.7881 8.07582 15.1394 8.86046 15.1394 9.72709C15.1394 10.1342 15.059 10.5279 14.9127 10.893C14.7627 11.2674 14.5433 11.6054 14.2707 11.8911C13.5974 12.5965 13.2387 12.979 13.0844 13.2541C12.9871 13.4279 12.9748 13.6471 12.9748 14.0564Z" stroke="#499A9A" stroke-width="1.5" stroke-miterlimit="22.9256" stroke-linecap="round" stroke-linejoin="round"/>
<path fill-rule="evenodd" clip-rule="evenodd" d="M12.0002 17.4116C11.4623 17.4116 11.0261 16.9754 11.0261 16.4375C11.0261 15.8995 11.4623 15.4634 12.0002 15.4634H12.0008C12.5387 15.4634 12.9749 15.8995 12.9749 16.4375C12.9749 16.9754 12.5387 17.4116 12.0008 17.4116H12.0002Z" stroke="#499A9A" stroke-width="1.5" stroke-miterlimit="22.9256" stroke-linecap="round" stroke-linejoin="round"/>
</g>
<defs>
<clipPath id="clip0_4_4">
<rect width="24" height="24" fill="white"/>
</clipPath>
</defs>
</svg>
