<svg width="80" height="80" viewBox="0 0 80 80" fill="none" xmlns="http://www.w3.org/2000/svg">
<path d="M18.8823 2V12.1628L14.4425 9.42613L9.99805 12.1628V2" stroke="#499A9A" stroke-width="2" stroke-miterlimit="10" stroke-linecap="round" stroke-linejoin="round"/>
<path d="M66.3 57.705C68.7039 57.705 70.6698 55.7434 70.6698 53.3352C70.6698 50.9269 68.7039 48.9653 66.3 48.9653C63.8917 48.9653 61.9258 50.9269 61.9258 53.3352C61.9256 55.7433 63.8917 57.705 66.3 57.705Z" stroke="#499A9A" stroke-width="2" stroke-miterlimit="10" stroke-linecap="round" stroke-linejoin="round"/>
<path d="M26.8841 14.4442H54.3294C60.0217 14.4442 64.6805 19.0987 64.6805 24.7909C64.6805 30.4832 60.0217 35.142 54.3294 35.142H16.244C12.7674 35.142 9.9256 37.9837 9.9256 41.4603C9.9256 44.937 12.7674 47.7787 16.244 47.7787H35.8253C39.3019 47.7787 42.148 50.6249 42.148 54.1015C42.148 57.5781 39.3019 60.4199 35.8253 60.4199H14.8735C11.3969 60.4199 8.55078 63.266 8.55078 66.7426C8.55078 70.2149 11.3969 73.061 14.8735 73.061H54.5965" stroke="#499A9A" stroke-width="2" stroke-miterlimit="10" stroke-linecap="round" stroke-linejoin="round"/>
<path d="M26.8838 2H2V26.8838H26.8838V2Z" stroke="#499A9A" stroke-width="2" stroke-miterlimit="10" stroke-linecap="round" stroke-linejoin="round"/>
<path d="M70.6716 68.4413C75.0852 69.1507 78.0014 70.9504 78.0014 73.0608C78.0014 75.7886 72.7602 77.9999 66.3018 77.9999C59.839 77.9999 54.5977 75.7886 54.5977 73.0608C54.5977 70.9504 57.5094 69.1507 61.9275 68.4414" stroke="#499A9A" stroke-width="2" stroke-miterlimit="10" stroke-linecap="round" stroke-linejoin="round"/>
<path d="M66.2996 72.0364C65.6252 72.032 64.9553 71.6905 64.3642 71.0074L61.8771 68.1219C58.3655 63.4499 54.8845 59.531 54.9501 53.3353C54.9501 47.0651 60.0294 41.9858 66.2996 41.9858C72.5654 41.9858 77.6446 47.0651 77.6446 53.3353C77.7104 59.5311 74.2293 63.4499 70.722 68.1219L68.2306 71.0074C67.6393 71.6905 66.9694 72.032 66.2996 72.0364Z" stroke="#499A9A" stroke-width="2" stroke-miterlimit="10" stroke-linecap="round" stroke-linejoin="round"/>
</svg>
