<svg width="80" height="80" viewBox="0 0 80 80" fill="none" xmlns="http://www.w3.org/2000/svg">
<path d="M40.6525 58.0406H20.4043" stroke="#499A9A" stroke-width="2" stroke-miterlimit="10" stroke-linecap="round" stroke-linejoin="round"/>
<path d="M47.2089 50.2693H13.4336" stroke="#499A9A" stroke-width="2" stroke-miterlimit="10" stroke-linecap="round" stroke-linejoin="round"/>
<path d="M55.0573 38.2935V6H16.8245L6 16.8245V67.8939H54.4579" stroke="#499A9A" stroke-width="2" stroke-miterlimit="10" stroke-linejoin="round"/>
<path d="M6 16.8245H16.8245V6" stroke="#499A9A" stroke-width="2" stroke-miterlimit="10" stroke-linejoin="round"/>
<path d="M30.5287 33.0531C32.9813 33.0531 34.9695 31.0649 34.9695 28.6123C34.9695 26.1597 32.9813 24.1715 30.5287 24.1715C28.0761 24.1715 26.0879 26.1597 26.0879 28.6123C26.0879 31.0649 28.0761 33.0531 30.5287 33.0531Z" stroke="#499A9A" stroke-width="2" stroke-miterlimit="10" stroke-linecap="round" stroke-linejoin="round"/>
<path d="M38.4556 39.6565C37.7697 35.9008 34.4834 33.0531 30.5295 33.0531C26.5757 33.0531 23.2893 35.9008 22.6035 39.6565" stroke="#499A9A" stroke-width="2" stroke-miterlimit="10" stroke-linejoin="round"/>
<path d="M30.5292 42.4978C37.4187 42.4978 43.0037 36.9127 43.0037 30.0232C43.0037 23.1337 37.4187 17.5487 30.5292 17.5487C23.6397 17.5487 18.0547 23.1337 18.0547 30.0232C18.0547 36.9127 23.6397 42.4978 30.5292 42.4978Z" stroke="#499A9A" stroke-width="2" stroke-miterlimit="10" stroke-linecap="round" stroke-linejoin="round"/>
<path d="M54.459 61.72V73.9999L60.8132 70.8156L67.1676 73.9999V61.72" stroke="#499A9A" stroke-width="2" stroke-miterlimit="10" stroke-linejoin="round"/>
<path d="M60.8109 63.3499C68.0943 63.3499 73.9987 57.4455 73.9987 50.1621C73.9987 42.8786 68.0943 36.9742 60.8109 36.9742C53.5274 36.9742 47.623 42.8786 47.623 50.1621C47.623 57.4455 53.5274 63.3499 60.8109 63.3499Z" stroke="#499A9A" stroke-width="2" stroke-miterlimit="10" stroke-linecap="round" stroke-linejoin="round"/>
<path d="M60.8127 53.5195L56.8775 55.5883L57.6291 51.2063L54.4453 48.1029L58.8452 47.4637L60.8127 43.4767L62.7804 47.4637L67.1803 48.1029L63.9965 51.2063L64.7481 55.5883L60.8127 53.5195Z" stroke="#499A9A" stroke-width="2" stroke-miterlimit="10" stroke-linecap="round" stroke-linejoin="round"/>
</svg>
