<svg width="31" height="31" viewBox="0 0 31 31" fill="none" xmlns="http://www.w3.org/2000/svg">
<path d="M8.79176 26.2458C10.7029 27.3924 12.9962 28.0295 15.2895 28.0295C22.2969 28.0295 28.0302 22.2962 28.0302 15.2888C28.0302 8.2814 22.2969 2.5481 15.2895 2.5481C8.28213 2.5481 2.54883 8.2814 2.54883 15.2888C2.54883 17.5821 3.18586 19.748 4.20512 21.6591L3.10998 25.8712C2.86189 26.8254 3.74508 27.6877 4.69307 27.4168L8.79176 26.2458Z" stroke="#499A9A" stroke-width="1.5" stroke-miterlimit="10" stroke-linecap="round" stroke-linejoin="round"/>
<path d="M21.0224 18.918C21.0224 19.1244 20.9764 19.3365 20.8788 19.5429C20.7812 19.7493 20.6549 19.9443 20.4884 20.1277C20.207 20.4373 19.897 20.6609 19.5467 20.8043C19.2022 20.9476 18.829 21.0221 18.427 21.0221C17.8413 21.0221 17.2155 20.8845 16.5552 20.6036C15.8948 20.3227 15.2345 19.9443 14.5799 19.4684C13.9196 18.9868 13.2937 18.4536 12.6966 17.8631C12.1052 17.2668 11.5712 16.6419 11.0946 15.9883C10.6238 15.3347 10.2448 14.6811 9.96917 14.0332C9.69356 13.3796 9.55576 12.7547 9.55576 12.1584C9.55576 11.7686 9.62466 11.3959 9.76246 11.0519C9.90027 10.7022 10.1185 10.3811 10.4228 10.0944C10.7903 9.73324 11.1922 9.55551 11.6171 9.55551C11.7779 9.55551 11.9387 9.58991 12.0822 9.65871C12.2315 9.72751 12.3636 9.83071 12.4669 9.97978L13.799 11.8546C13.9024 11.9979 13.977 12.1298 14.0287 12.2559C14.0804 12.3763 14.1091 12.4967 14.1091 12.6056C14.1091 12.7432 14.0689 12.8808 13.9885 13.0127C13.9139 13.1446 13.8048 13.2822 13.667 13.4198L13.2306 13.8727C13.1674 13.9358 13.1387 14.0103 13.1387 14.102C13.1387 14.1479 13.1445 14.188 13.1559 14.2339C13.1732 14.2798 13.1904 14.3142 13.2019 14.3486C13.3052 14.5378 13.4832 14.7843 13.7359 15.0824C13.9943 15.3806 14.2699 15.6844 14.5685 15.9883C14.8785 16.2921 15.1771 16.5731 15.4814 16.8311C15.78 17.0833 16.0269 17.2553 16.2221 17.3585C16.2508 17.37 16.2853 17.3872 16.3255 17.4044C16.3714 17.4216 16.4173 17.4273 16.469 17.4273C16.5666 17.4273 16.6413 17.3929 16.7044 17.3299L17.1408 16.8999C17.2844 16.7565 17.4222 16.6476 17.5543 16.5788C17.6863 16.4985 17.8184 16.4584 17.9619 16.4584C18.071 16.4584 18.1859 16.4813 18.3122 16.5329C18.4385 16.5845 18.5706 16.6591 18.7141 16.7565L20.6147 18.1039C20.764 18.2071 20.8673 18.3275 20.9305 18.4708C20.9879 18.6141 21.0224 18.7575 21.0224 18.918Z" stroke="#499A9A" stroke-width="1.5" stroke-miterlimit="10"/>
</svg>
