<svg width="30" height="30" viewBox="0 0 30 30" fill="none" xmlns="http://www.w3.org/2000/svg">
<g clip-path="url(#clip0_4370_7775)">
<path d="M29.5775 14.8786C29.5775 6.66097 22.957 0.00012207 14.7887 0.00012207C6.62043 0.00012207 0 6.66097 0 14.8786C0 22.3064 5.40676 28.4615 12.4777 29.5776V19.1801H8.72339V14.8776H12.4777V11.6004C12.4777 7.87168 14.6852 5.8111 18.064 5.8111C19.6808 5.8111 21.3746 6.10195 21.3746 6.10195V9.76364H19.5083C17.6715 9.76364 17.0998 10.9112 17.0998 12.0884V14.8786H21.2011L20.5455 19.1792H17.0998V29.5776C24.1707 28.4615 29.5775 22.3064 29.5775 14.8786Z" fill="white"/>
</g>
<defs>
<clipPath id="clip0_4370_7775">
<rect width="29.5775" height="29.5775" fill="white"/>
</clipPath>
</defs>
</svg>
