<svg width="80" height="80" viewBox="0 0 80 80" fill="none" xmlns="http://www.w3.org/2000/svg">
<path d="M47.2695 48.1442V25.365H56.5503V48.1442" stroke="#499A9A" stroke-width="2" stroke-miterlimit="10" stroke-linejoin="round"/>
<path d="M56.5488 48.1442V19.115H65.8296V48.1442" stroke="#499A9A" stroke-width="2" stroke-miterlimit="10" stroke-linejoin="round"/>
<path d="M37.9883 48.1442V31.615H47.2691V48.1442" stroke="#499A9A" stroke-width="2" stroke-miterlimit="10" stroke-linejoin="round"/>
<path d="M14.1699 48.1443V45.8658C14.1699 41.3855 17.802 37.7537 22.2821 37.7537C26.7623 37.7537 30.3943 41.3857 30.3943 45.8658V48.1443" stroke="#499A9A" stroke-width="2" stroke-miterlimit="10" stroke-linejoin="round"/>
<path d="M22.283 37.7531C24.7984 37.7531 26.8376 35.714 26.8376 33.1986C26.8376 30.6832 24.7984 28.644 22.283 28.644C19.7676 28.644 17.7285 30.6832 17.7285 33.1986C17.7285 35.714 19.7676 37.7531 22.283 37.7531Z" stroke="#499A9A" stroke-width="2" stroke-miterlimit="10" stroke-linejoin="round"/>
<path d="M22.7101 49.3262C22.7101 58.8752 30.4512 66.6163 40.0002 66.6163C49.5493 66.6163 57.2904 58.8752 57.2904 49.3263V48.1444H68.9555L68.9543 53.659L64.5146 55.4974C63.9073 57.9174 62.9512 60.198 61.7027 62.2846L63.544 66.7315L57.4101 72.8637L52.9682 71.0232C50.8821 72.2727 48.6018 73.2299 46.1819 73.8382L44.3409 78.2813L35.6676 78.2801L33.8291 73.8404C31.4091 73.233 29.1285 72.2769 27.042 71.0285L22.5951 72.8698L16.4629 66.736L18.3034 62.2941C17.0538 60.208 16.0968 57.9277 15.4884 55.5079L11.0449 53.6668L11.0462 48.1443H22.7101V49.3262Z" stroke="#499A9A" stroke-width="2" stroke-miterlimit="10" stroke-linecap="round" stroke-linejoin="round"/>
<path d="M22.709 48.1443H57.2893" stroke="#499A9A" stroke-width="2" stroke-miterlimit="10" stroke-linejoin="round"/>
<path d="M37.9883 19.271L48.0378 9.22145L52.278 13.4614L63.6134 2.12598" stroke="#499A9A" stroke-width="2" stroke-miterlimit="10" stroke-linecap="round" stroke-linejoin="round"/>
<path d="M56.7422 1.71875H64.0206V8.99719" stroke="#499A9A" stroke-width="2" stroke-miterlimit="10" stroke-linecap="round" stroke-linejoin="round"/>
</svg>
