<svg width="100" height="100" viewBox="0 0 100 100" fill="none" xmlns="http://www.w3.org/2000/svg">
<g clip-path="url(#clip0_1042_8492)">
<path d="M91.5402 100C89.8482 100 88.2985 99.2568 86.7805 97.7546L65.5914 76.2492C64.5794 75.3637 64.4054 73.8298 65.1803 72.802L65.5123 72.3593L61.0373 67.8842L59.1714 69.7502C58.2068 70.7147 56.8944 71.2524 55.487 71.2524C53.9216 71.2524 52.3719 70.5882 51.2176 69.4339L49.0196 67.2359L48.6243 67.4099C44.4497 69.26 39.9114 70.1929 35.1202 70.1929C15.7495 70.2087 0 54.4592 0 35.1044C0 15.7495 15.7495 0 35.1044 0C54.4592 0 70.2087 15.6705 70.2087 34.9462C70.2087 39.2948 69.2441 43.9753 67.4099 48.4662L67.2517 48.8615L69.4497 51.0595C71.7268 53.4788 71.8691 56.9102 69.766 59.0133L67.9001 60.8792L72.3435 65.3226L72.7704 65.0538C73.1815 64.8008 73.7034 64.6584 74.241 64.6584C75.0316 64.6584 75.759 64.9431 76.2492 65.4491L97.7546 86.7963C100.664 89.7059 100.648 94.5604 97.7546 97.6123C95.3194 99.2094 93.3112 100 91.556 100H91.5402ZM73.8773 66.6034L66.5718 73.9089V74.747L88.2669 96.4421C89.2947 97.47 90.7021 98.0234 92.2201 98.0234C93.8172 98.0234 95.3194 97.4067 96.4421 96.284C98.5452 93.9911 98.6243 90.5123 96.6319 88.1562L74.9051 66.4295H74.3833L73.8773 66.6192V66.6034ZM62.1917 66.5718L66.7299 71.1101L71.1101 66.7299L66.5718 62.1917L62.1917 66.5718ZM66.1765 51.5655C62.7609 57.7641 57.7641 62.7609 51.7236 66.0183L50.9804 66.4295L52.53 67.9791C53.2891 68.833 54.3327 69.339 55.3763 69.339C56.2777 69.339 57.1157 68.9595 57.7166 68.2637L68.4377 57.5427C69.766 56.1986 69.6237 53.8899 68.1214 52.3719L66.5718 50.8223L66.1607 51.5655H66.1765ZM35.1044 1.89753C16.7932 1.89753 1.89753 16.7932 1.89753 35.1044C1.89753 53.4156 16.7932 68.3112 35.1044 68.3112C53.4156 68.3112 68.3112 53.4156 68.3112 35.1044C68.3112 16.7932 53.4156 1.89753 35.1044 1.89753Z" fill="#008080"/>
<path d="M13.1245 50.9171C12.5237 50.9171 12.1758 50.5692 12.1758 49.9684C12.1758 49.3675 12.5237 49.0196 13.1245 49.0196H14.864V31.1512C14.864 30.5503 15.2118 30.2024 15.8127 30.2024H22.9285C23.5294 30.2024 23.8772 30.5503 23.8772 31.1512V49.0196H30.6767V23.2448C30.6767 22.6439 31.0246 22.296 31.6255 22.296H38.7412C39.3421 22.296 39.69 22.6439 39.69 23.2448V49.0196H46.4895V16.9197C46.4895 16.3188 46.8374 15.9709 47.4383 15.9709H54.554C55.1549 15.9709 55.5028 16.3188 55.5028 16.9197V49.0196H57.0841C57.6849 49.0196 58.0328 49.3675 58.0328 49.9684C58.0328 50.5692 57.5426 50.9171 57.0841 50.9171H13.1245ZM48.2289 49.0196H53.4471V17.8684H48.2289V49.0196ZM32.4161 49.0196H37.6343V24.1935H32.4161V49.0196ZM16.6034 49.0196H21.8216V32.0999H16.6034V49.0196Z" fill="#008080"/>
</g>
<defs>
<clipPath id="clip0_1042_8492">
<rect width="99.9209" height="100" fill="white"/>
</clipPath>
</defs>
</svg>







