<svg width="80" height="80" viewBox="0 0 80 80" fill="none" xmlns="http://www.w3.org/2000/svg">
<g clip-path="url(#clip0_3650_6106)">
<path d="M55.9926 37.0977C55.6121 35.7417 54.803 34.5653 53.7291 33.7043C56.0272 32.3058 57.5656 29.7894 57.5656 26.9083C57.5656 22.8896 54.5768 19.5734 50.6964 19.0318C50.8228 18.578 50.9119 18.1109 50.9119 17.6172C50.9119 14.6843 48.5286 12.3076 45.589 12.3076C45.436 12.3076 45.291 12.3396 45.1419 12.3529C44.0574 9.23766 41.0965 6.99805 37.6047 6.99805C35.5567 6.99805 33.695 7.77386 32.2818 9.03805C30.8686 7.77386 29.0069 6.99805 26.9589 6.99805C23.4671 6.99805 20.5062 9.23766 19.4217 12.3529C19.2726 12.3396 19.1276 12.3076 18.9746 12.3076C16.035 12.3076 13.6517 14.6843 13.6517 17.6172C13.6517 18.1109 13.7408 18.578 13.8672 19.0318C9.98685 19.5734 6.99805 22.8896 6.99805 26.9083C6.99805 29.7894 8.53636 32.3058 10.8345 33.7043C9.31883 34.9206 8.32877 36.7637 8.32877 38.8556C8.32877 41.4305 9.81386 43.6382 11.963 44.7387C11.3588 45.7381 10.9902 46.8958 10.9902 48.1467C10.9902 51.6611 13.7368 54.5076 17.2007 54.7391C18.6871 57.8996 21.8968 60.0939 25.6282 60.0939C28.2364 60.0939 30.5905 59.0214 32.2818 57.2994C33.7177 58.7619 35.6326 59.7559 37.7737 60.0221" stroke="#499A9A" stroke-width="1.99609" stroke-miterlimit="10"/>
<path d="M32.2812 9.03809V57.2991" stroke="#499A9A" stroke-width="1.99609" stroke-miterlimit="10"/>
<path d="M13.8672 19.0313C13.8672 19.0313 18.06 18.3758 20.5884 22.8005" stroke="#499A9A" stroke-width="1.99609" stroke-miterlimit="10"/>
<path d="M50.6978 19.0313C50.6978 19.0313 46.5049 18.3758 43.9766 22.8005" stroke="#499A9A" stroke-width="1.99609" stroke-miterlimit="10"/>
<path d="M17.1992 54.7397C17.1992 54.7397 23.1156 55.0371 22.4835 48.4001" stroke="#499A9A" stroke-width="1.99609" stroke-miterlimit="10"/>
<path d="M10.834 33.7045C10.834 33.7045 16.1634 30.0695 19.956 37.3386" stroke="#499A9A" stroke-width="1.99609" stroke-miterlimit="10"/>
<path d="M53.7304 33.7046C53.7304 33.7046 49.2565 30.653 45.5898 35.7329" stroke="#499A9A" stroke-width="1.99609" stroke-miterlimit="10"/>
<path d="M55.037 73.0018C64.9587 73.0018 73.0018 64.9587 73.0018 55.037C73.0018 45.1154 64.9587 37.0723 55.037 37.0723C45.1154 37.0723 37.0723 45.1154 37.0723 55.037C37.0723 64.9587 45.1154 73.0018 55.037 73.0018Z" stroke="#499A9A" stroke-width="1.99609" stroke-miterlimit="10"/>
<path d="M44.6676 57.8364L41.7305 56.7919C41.7305 55.0395 41.7305 55.035 41.7305 53.2825L44.6676 52.238L45.7257 49.6839L44.3874 46.8684C45.6266 45.6293 45.6298 45.6261 46.8689 44.3869L49.6843 45.7252C50.7039 45.3028 51.2189 45.0895 52.2385 44.6672L53.283 41.73C55.0354 41.73 55.04 41.73 56.7924 41.73L57.8369 44.6672C58.8565 45.0895 59.3715 45.3028 60.3911 45.7252L63.2065 44.3869C64.4457 45.6261 64.4489 45.6293 65.688 46.8684L64.3497 49.6839C64.7721 50.7035 64.9854 51.2184 65.4078 52.238L68.3449 53.2825C68.3449 55.035 68.3449 55.0395 68.3449 56.7919L65.4078 57.8364C64.9854 58.856 64.7721 59.371 64.3497 60.3906L65.688 63.206C64.4489 64.4452 64.4457 64.4484 63.2065 65.6875L60.3911 64.3492C59.3715 64.7716 58.8565 64.9849 57.8369 65.4073L56.7924 68.3445C55.04 68.3445 55.0354 68.3445 53.283 68.3445L52.2385 65.4073L49.6843 64.3492L46.8689 65.6875C45.6298 64.4484 45.6266 64.4452 44.3874 63.206L45.7257 60.3906L44.6676 57.8364Z" stroke="#499A9A" stroke-width="1.99609" stroke-miterlimit="10"/>
<path d="M55.0364 59.6947C57.6087 59.6947 59.694 57.6095 59.694 55.0372C59.694 52.4649 57.6087 50.3796 55.0364 50.3796C52.4642 50.3796 50.3789 52.4649 50.3789 55.0372C50.3789 57.6095 52.4642 59.6947 55.0364 59.6947Z" stroke="#499A9A" stroke-width="1.99609" stroke-miterlimit="10"/>
</g>
<defs>
<clipPath id="clip0_3650_6106">
<rect width="68" height="68" fill="white" transform="translate(6 6)"/>
</clipPath>
</defs>
</svg>
