<svg width="80" height="80" viewBox="0 0 80 80" fill="none" xmlns="http://www.w3.org/2000/svg">
<g clip-path="url(#clip0_3650_6116)">
<g clip-path="url(#clip1_3650_6116)">
<path d="M50.2989 67.5461H1.71875V71.0086C1.71875 75.0252 4.97469 78.2811 8.99125 78.2811H57.5714C53.555 78.2811 50.2989 75.0252 50.2989 71.0086V67.5461Z" stroke="#499A9A" stroke-width="2" stroke-miterlimit="10" stroke-linecap="round" stroke-linejoin="round"/>
<path d="M57.5703 78.2812C61.5869 78.2812 64.8428 75.0252 64.8428 71.0087V62.8831" stroke="#499A9A" stroke-width="2" stroke-miterlimit="10" stroke-linejoin="round"/>
<path d="M64.8447 27.5145V1.71875H8.99219V67.5462" stroke="#499A9A" stroke-width="2" stroke-miterlimit="10" stroke-linejoin="round"/>
<path d="M47.7007 27.0464C47.7007 21.1205 42.7593 16.3486 36.7721 16.6265C31.4062 16.8758 27.0633 21.2469 26.8466 26.6144C26.7224 29.6898 27.9305 32.485 29.9407 34.4697C31.0396 35.5547 31.6398 37.047 31.6398 38.5914C31.6398 39.3681 32.2693 39.9976 33.046 39.9976H41.4491C42.2499 39.9976 42.899 39.3484 42.899 38.5478C42.899 36.9934 43.5454 35.5223 44.6446 34.4234C46.5327 32.5355 47.7007 29.9273 47.7007 27.0464Z" stroke="#499A9A" stroke-width="2" stroke-miterlimit="10" stroke-linecap="round" stroke-linejoin="round"/>
<path d="M41.5816 39.9976H32.9551V44.018C32.9551 45.608 34.244 46.8969 35.834 46.8969H38.7027C40.2927 46.8969 41.5816 45.608 41.5816 44.018V39.9976Z" stroke="#499A9A" stroke-width="2" stroke-miterlimit="10" stroke-linecap="round" stroke-linejoin="round"/>
<path d="M37.2695 9.74156V8.59375" stroke="#499A9A" stroke-width="2" stroke-miterlimit="10" stroke-linecap="round" stroke-linejoin="round"/>
<path d="M49.5059 14.8099L50.3174 13.9983" stroke="#499A9A" stroke-width="2" stroke-miterlimit="10" stroke-linecap="round" stroke-linejoin="round"/>
<path d="M25.0323 14.8099L24.2207 13.9983" stroke="#499A9A" stroke-width="2" stroke-miterlimit="10" stroke-linecap="round" stroke-linejoin="round"/>
<path d="M25.5703 53.772H48.9673" stroke="#499A9A" stroke-width="2" stroke-miterlimit="10" stroke-linecap="round" stroke-linejoin="round"/>
<path d="M28.9355 60.647H45.6032" stroke="#499A9A" stroke-width="2" stroke-miterlimit="10" stroke-linecap="round" stroke-linejoin="round"/>
<path d="M59.2188 52.1694V66.2791L64.8438 62.883L70.4688 66.2791V52.1694" stroke="#499A9A" stroke-width="2" stroke-miterlimit="10" stroke-linejoin="round"/>
<path d="M61.5039 28.7448C63.4284 27.1046 66.2592 27.1046 68.1837 28.7448C69.0084 29.4476 70.0339 29.8724 71.114 29.9585C73.6346 30.1596 75.6362 32.1613 75.8375 34.682C75.9237 35.7621 76.3484 36.7876 77.0512 37.6123C78.6914 39.5368 78.6914 42.3676 77.0512 44.2921C76.3484 45.1168 75.9236 46.1423 75.8375 47.2224C75.6364 49.743 73.6346 51.7446 71.114 51.9459C70.0339 52.0321 69.0084 52.4568 68.1837 53.1596C66.2592 54.7998 63.4284 54.7998 61.5039 53.1596C60.6792 52.4568 59.6537 52.0321 58.5736 51.9459C56.0529 51.7448 54.0514 49.743 53.8501 47.2224C53.7639 46.1423 53.3392 45.1168 52.6364 44.2921C50.9962 42.3676 50.9962 39.5368 52.6364 37.6123C53.3392 36.7876 53.764 35.7621 53.8501 34.682C54.0512 32.1613 56.0529 30.1598 58.5736 29.9585C59.6537 29.8723 60.6792 29.4476 61.5039 28.7448Z" stroke="#499A9A" stroke-width="2" stroke-miterlimit="10" stroke-linecap="round" stroke-linejoin="round"/>
<path d="M64.8434 46.2838C67.7881 46.2838 70.1752 43.8967 70.1752 40.9521C70.1752 38.0075 67.7881 35.6204 64.8434 35.6204C61.8988 35.6204 59.5117 38.0075 59.5117 40.9521C59.5117 43.8967 61.8988 46.2838 64.8434 46.2838Z" stroke="#499A9A" stroke-width="2" stroke-miterlimit="10" stroke-linecap="round" stroke-linejoin="round"/>
</g>
</g>
<defs>
<clipPath id="clip0_3650_6116">
<rect width="80" height="80" fill="white"/>
</clipPath>
<clipPath id="clip1_3650_6116">
<rect width="80" height="80" fill="white"/>
</clipPath>
</defs>
</svg>

