<svg width="80" height="80" viewBox="0 0 80 80" fill="none" xmlns="http://www.w3.org/2000/svg">
<path d="M40.0005 35.713C46.7113 35.713 52.1515 30.2728 52.1515 23.5621C52.1515 16.8513 46.7113 11.4111 40.0005 11.4111C33.2898 11.4111 27.8496 16.8513 27.8496 23.5621C27.8496 30.2728 33.2898 35.713 40.0005 35.713Z" stroke="#499A9A" stroke-width="2" stroke-miterlimit="10" stroke-linecap="round" stroke-linejoin="round"/>
<path d="M61.9987 26.1556V20.9684L59.5272 20.2092C59.0205 17.2367 57.8516 14.49 56.1777 12.1263L57.3894 9.84016L53.7214 6.17219L51.4353 7.38391C49.0716 5.71 46.3248 4.54109 43.3523 4.03437L42.5928 1.5625H37.4056L36.6464 4.03406C33.6739 4.54078 30.9272 5.70969 28.5634 7.38359L26.2773 6.17188L22.6094 9.83984L23.8211 12.1259C22.1472 14.4897 20.9783 17.2364 20.4716 20.2089L18 20.9681V26.1553L20.4716 26.9145C20.9783 29.887 22.1472 32.6337 23.8211 34.9975L22.6094 37.2836L26.2773 40.9516L28.5634 39.7398C30.9272 41.4138 33.6739 42.5827 36.6464 43.0894L37.4056 45.5609H42.5928L43.352 43.0894C46.3245 42.5827 49.0712 41.4138 51.435 39.7398L53.7211 40.9516L57.3891 37.2836L56.1773 34.9975C57.8513 32.6337 59.0202 29.887 59.5269 26.9145L61.9987 26.1556Z" stroke="#499A9A" stroke-width="2" stroke-miterlimit="10" stroke-linecap="round" stroke-linejoin="round"/>
<path d="M23.644 69.8345C18.8927 69.8345 15.041 73.6862 15.041 78.4374H32.2468C32.247 73.6862 28.3952 69.8345 23.644 69.8345Z" stroke="#499A9A" stroke-width="2" stroke-miterlimit="10" stroke-linecap="round" stroke-linejoin="round"/>
<path d="M23.6427 69.8348C27.1119 69.8348 29.9241 67.0225 29.9241 63.5534C29.9241 60.0843 27.1119 57.272 23.6427 57.272C20.1736 57.272 17.3613 60.0843 17.3613 63.5534C17.3613 67.0225 20.1736 69.8348 23.6427 69.8348Z" stroke="#499A9A" stroke-width="2" stroke-miterlimit="10" stroke-linecap="round" stroke-linejoin="round"/>
<path d="M56.3569 69.8345C51.6056 69.8345 47.7539 73.6862 47.7539 78.4374H64.9597C64.9597 73.6862 61.1081 69.8345 56.3569 69.8345Z" stroke="#499A9A" stroke-width="2" stroke-miterlimit="10" stroke-linecap="round" stroke-linejoin="round"/>
<path d="M56.3556 69.8348C59.8247 69.8348 62.637 67.0225 62.637 63.5534C62.637 60.0843 59.8247 57.272 56.3556 57.272C52.8865 57.272 50.0742 60.0843 50.0742 63.5534C50.0742 67.0225 52.8865 69.8348 56.3556 69.8348Z" stroke="#499A9A" stroke-width="2" stroke-miterlimit="10" stroke-linecap="round" stroke-linejoin="round"/>
<path d="M9.67773 78.4375H70.3205" stroke="#499A9A" stroke-width="2" stroke-miterlimit="10" stroke-linecap="round" stroke-linejoin="round"/>
<path d="M35.4609 59.0373L40.0005 56.0603L44.5398 59.0373" stroke="#499A9A" stroke-width="2" stroke-miterlimit="10" stroke-linecap="round" stroke-linejoin="round"/>
<path d="M40 55.7479V51.8701" stroke="#499A9A" stroke-width="2" stroke-miterlimit="10" stroke-linecap="round" stroke-linejoin="round"/>
</svg>



