<svg width="80" height="80" viewBox="0 0 80 80" fill="none" xmlns="http://www.w3.org/2000/svg">
<g clip-path="url(#clip0_3650_6143)">
<g clip-path="url(#clip1_3650_6143)">
<path d="M73.8411 39.3272C79.9679 33.2004 79.9679 23.2669 73.8411 17.1401C67.7143 11.0133 57.7808 11.0133 51.6541 17.1401C45.5273 23.2669 45.5273 33.2004 51.6541 39.3272C57.7808 45.4539 67.7143 45.4539 73.8411 39.3272Z" stroke="#499A9A" stroke-width="3.125" stroke-miterlimit="10" stroke-linecap="round" stroke-linejoin="round"/>
<path d="M62.7481 43.9222C66.214 43.9222 69.0236 36.8981 69.0236 28.2334C69.0236 19.5688 66.214 12.5447 62.7481 12.5447C59.2823 12.5447 56.4727 19.5688 56.4727 28.2334C56.4727 36.8981 59.2823 43.9222 62.7481 43.9222Z" stroke="#499A9A" stroke-width="3.125" stroke-miterlimit="10" stroke-linecap="round" stroke-linejoin="round"/>
<path d="M15.2285 36.0916L28.8952 36.0791C31.152 36.0752 33.3205 36.8841 34.9335 38.3319L51.1668 52.9016C52.8255 54.4294 52.8227 56.9001 51.1602 58.4246C49.4927 59.9536 46.7884 59.951 45.1246 58.4182L38.7418 52.5391" stroke="#499A9A" stroke-width="3.125" stroke-miterlimit="10" stroke-linecap="round" stroke-linejoin="round"/>
<path d="M15.2285 53.2844L31.931 65.6529C34.0621 66.8321 36.5037 67.4554 38.9924 67.4554C40.6805 67.4554 75.614 67.4554 74.1612 67.4554C76.5263 67.4554 78.442 65.6946 78.4368 63.5257C78.4316 61.3672 76.5248 59.6185 74.1707 59.6136L47.8576 59.5694" stroke="#499A9A" stroke-width="3.125" stroke-miterlimit="10" stroke-linecap="round" stroke-linejoin="round"/>
<path d="M1.5625 61.1362H10.5227C13.122 61.1362 15.2292 59.029 15.2292 56.4295V36.0779C15.2292 33.4785 13.122 31.3713 10.5227 31.3713H1.5625V61.1362Z" stroke="#499A9A" stroke-width="3.125" stroke-miterlimit="10" stroke-linecap="round" stroke-linejoin="round"/>
<circle cx="7.83789" cy="37.6467" r="1.5625" fill="#499A9A"/>
<path d="M77.7178 32.9399C74.0986 32.9399 51.4303 32.9399 47.7773 32.9399" stroke="#499A9A" stroke-width="3.125" stroke-miterlimit="10" stroke-linecap="round" stroke-linejoin="round"/>
<path d="M47.7773 23.5266C51.3966 23.5266 74.0648 23.5266 77.7178 23.5266" stroke="#499A9A" stroke-width="3.125" stroke-miterlimit="10" stroke-linecap="round" stroke-linejoin="round"/>
</g>
</g>
<defs>
<clipPath id="clip0_3650_6143">
<rect width="80" height="80" fill="white"/>
</clipPath>
<clipPath id="clip1_3650_6143">
<rect width="80" height="80" fill="white"/>
</clipPath>
</defs>
</svg>


