<svg width="80" height="80" viewBox="0 0 80 80" fill="none" xmlns="http://www.w3.org/2000/svg">
<path d="M62.0104 72.9429H17.9883" stroke="#499A9A" stroke-width="2" stroke-miterlimit="10" stroke-linecap="round" stroke-linejoin="round"/>
<path d="M56.5438 23.7124H72.9492V63.3873H7.05078V23.7124H23.4567" stroke="#499A9A" stroke-width="2" stroke-miterlimit="10" stroke-linecap="round" stroke-linejoin="round"/>
<path d="M24.168 72.9429C26.8633 73.0782 29.0482 70.8933 29.0482 68.198C29.0482 65.5027 26.8633 63.3178 24.168 63.3871" stroke="#499A9A" stroke-width="2" stroke-miterlimit="10" stroke-linecap="round" stroke-linejoin="round"/>
<path d="M55.8314 63.3871C53.1361 63.3178 50.9512 65.5027 50.9512 68.198C50.9512 70.8933 53.1361 73.0782 55.8314 72.9429" stroke="#499A9A" stroke-width="2" stroke-miterlimit="10" stroke-linecap="round" stroke-linejoin="round"/>
<path d="M46.7167 38.7184C52.5071 36.1433 56.5446 30.3408 56.5446 23.5951C56.5446 14.4582 49.1378 7.05141 40.0009 7.05127C30.9248 7.05127 23.5781 14.2963 23.4585 23.3718C23.3683 30.2126 27.4308 36.115 33.2847 38.7186H33.2848" stroke="#499A9A" stroke-width="2" stroke-miterlimit="10" stroke-linecap="round" stroke-linejoin="round"/>
<path d="M33.2832 46.8818V50.7561C33.2832 53.2274 35.2867 55.2309 37.758 55.2309H42.2403C44.7116 55.2309 46.7151 53.2274 46.7151 50.7561V46.8818" stroke="#499A9A" stroke-width="2" stroke-miterlimit="10" stroke-linecap="round" stroke-linejoin="round"/>
<path d="M46.8005 46.8818H33.198C31.0456 46.8818 29.3008 45.1369 29.3008 42.9846V42.7331C29.3008 40.5808 31.0456 38.8359 33.198 38.8359H46.8005C48.9529 38.8359 50.6977 40.5808 50.6977 42.7331V42.9846C50.6978 45.1369 48.9529 46.8818 46.8005 46.8818Z" stroke="#499A9A" stroke-width="2" stroke-miterlimit="10" stroke-linecap="round" stroke-linejoin="round"/>
<path d="M33.1445 24.6321H46.857" stroke="#499A9A" stroke-width="2" stroke-miterlimit="10" stroke-linecap="round" stroke-linejoin="round"/>
<path d="M35.8789 38.836V24.6321" stroke="#499A9A" stroke-width="2" stroke-miterlimit="10" stroke-linecap="round" stroke-linejoin="round"/>
<path d="M44.1211 24.6321V38.836" stroke="#499A9A" stroke-width="2" stroke-miterlimit="10" stroke-linecap="round" stroke-linejoin="round"/>
</svg>


