<svg width="80" height="80" viewBox="0 0 80 80" fill="none" xmlns="http://www.w3.org/2000/svg">
<g clip-path="url(#clip0_3650_6125)">
<path d="M60.4463 62.931C55.5056 67.34 49.1316 70.1767 42.1094 70.653V74.9453H37.8906V70.653C22.6029 69.616 10.384 57.3969 9.34698 42.1094H5.05469V37.8906H9.34698C10.384 22.6029 22.6031 10.384 37.8906 9.34698V5.05469H42.1094V9.34698C57.3969 10.384 69.616 22.6029 70.653 37.8906H74.9453V42.1094H70.653C70.2445 48.1319 68.0995 53.6775 64.7163 58.2516M61.9835 61.4826L63.4101 59.9288M20.5022 22.043C16.5969 26.2813 14.0555 31.7958 13.5757 37.8906H19.8203V42.1094H13.5757C14.596 55.0673 24.9326 65.4042 37.8906 66.4243V60.1797H42.1094V66.4243C55.0674 65.4042 65.404 55.0673 66.4243 42.1094H60.1797V37.8906H66.4243C65.4042 24.9326 55.0674 14.5958 42.1094 13.5757V19.8203H37.8906V13.5757C31.7959 14.0555 26.2813 16.5968 22.043 20.5022" stroke="#499A9A" stroke-width="1.8" stroke-miterlimit="22.9256"/>
<path d="M35.7812 48.4374V35.7812L44.2188 38.9453V48.4375M35.7812 38.9453L27.3438 35.7812V48.4374H52.6562V38.9452L50.5469 31.5625H46.328L44.2186 38.9452" stroke="#499A9A" stroke-width="1.8" stroke-miterlimit="22.9256"/>
<path d="M48.4375 48.4375V44.2188M31.5625 44.2188V42.1094M39.9999 44.2188V42.1094M48.4375 42.1094V40" stroke="#499A9A" stroke-width="1.8" stroke-miterlimit="22.9256"/>
<path d="M48.4375 20.875V18.7656M52.6562 22.9844V20.875" stroke="#499A9A" stroke-width="1.8" stroke-miterlimit="22.9256"/>
</g>
<defs>
<clipPath id="clip0_3650_6125">
<rect width="72" height="72" fill="white" transform="translate(4 4)"/>
</clipPath>
</defs>
</svg>

