<svg width="410" height="355" viewBox="0 0 410 355" fill="none" xmlns="http://www.w3.org/2000/svg">
<g clip-path="url(#clip0_3792_50748)">
<g opacity="0.2">
<path d="M38.2382 363V318.173L20.3516 323.572V363H38.2382Z" fill="#00C5DB"/>
<path d="M66.9003 363V288.472L49.0137 293.872V363H66.9003Z" fill="#00C5DB"/>
<path d="M95.1723 363V290.802L77.2832 296.201V363H95.1723Z" fill="#00C5DB"/>
<path d="M123.834 363V277.397L105.945 282.796V363H123.834Z" fill="#00C5DB"/>
<path d="M152.783 363V229.959L134.896 235.359V363H152.783Z" fill="#00C5DB"/>
<path d="M181.443 363V194.149L163.557 199.548V363H181.443Z" fill="#00C5DB"/>
<path d="M209.184 363V196.639L191.295 202.039V363H209.184Z" fill="#00C5DB"/>
<path d="M237.846 363V194.171L219.957 199.571V363H237.846Z" fill="#00C5DB"/>
<path d="M266.793 363V145.303L248.906 150.702V363H266.793Z" fill="#00C5DB"/>
<path d="M295.455 363V74.6206L277.568 80.0226V363H295.455Z" fill="#00C5DB"/>
<path d="M323.727 363V94.8481L305.838 100.248V363H323.727Z" fill="#00C5DB"/>
<path d="M352.389 363V38.7021L334.5 44.1016V363H352.389Z" fill="#00C5DB"/>
<path d="M381.338 363V48.6978L363.451 54.0972V363H381.338Z" fill="#00C5DB"/>
<path d="M410 363V0L392.113 5.39944V363H410Z" fill="#00C5DB"/>
</g>
<g opacity="0.5">
<path d="M38.3615 363V338.076L24.5332 341.018V363H38.3615Z" fill="#00FFFF"/>
<path d="M60.5178 363V321.896L46.6895 324.837V363H60.5178Z" fill="#00FFFF"/>
<path d="M82.3752 363V323.166L68.5469 326.107V363H82.3752Z" fill="#00FFFF"/>
<path d="M104.529 363V315.863L90.7012 318.805V363H104.529Z" fill="#00FFFF"/>
<path d="M126.91 363V290.018L113.082 292.96V363H126.91Z" fill="#00FFFF"/>
<path d="M149.067 363V270.509L135.238 273.451V363H149.067Z" fill="#00FFFF"/>
<path d="M170.508 363V271.867L156.68 274.809V363H170.508Z" fill="#00FFFF"/>
<path d="M192.664 363V270.521L178.836 273.463V363H192.664Z" fill="#00FFFF"/>
<path d="M215.043 363V243.898L201.215 246.84V363H215.043Z" fill="#00FFFF"/>
<path d="M237.199 363V205.392L223.371 208.334V363H237.199Z" fill="#00FFFF"/>
<path d="M259.057 363V216.412L245.229 219.351V363H259.057Z" fill="#00FFFF"/>
<path d="M281.213 363V185.822L267.385 188.764V363H281.213Z" fill="#00FFFF"/>
<path d="M303.592 363V191.27L289.764 194.209V363H303.592Z" fill="#00FFFF"/>
<path d="M325.748 363V164.739L311.92 167.681V363H325.748Z" fill="#00FFFF"/>
</g>
<path d="M303.839 136.605C303.517 136.289 302.999 136.294 302.683 136.615L259.416 180.514L230.795 156.476L181.628 245.244L134.021 245.799L74.0116 298.47L24.89 292.245L0 341.347V344.959L25.8273 294.007L74.5368 300.182L134.645 247.423L182.595 246.866L231.262 159.001L259.519 182.733L303.846 137.76C304.163 137.439 304.158 136.921 303.836 136.605H303.839Z" fill="#499A9A"/>
</g>
<defs>
<clipPath id="clip0_3792_50748">
<rect width="410" height="363" fill="white"/>
</clipPath>
</defs>
</svg>
