 <svg width="227" height="317" viewBox="0 0 227 317" fill="none" xmlns="http://www.w3.org/2000/svg">
<g clip-path="url(#clip0_3795_53829)">
<g style="mix-blend-mode:overlay">
<path d="M1.39323 120.339H0.0175781V119.28L0.667081 119.259V119.041H0.695659V119.259L1.31529 119.238C1.32048 119.324 1.32698 119.41 1.33347 119.495L1.39323 120.341V120.339Z" fill="#489999"/>
<path d="M187.714 122.847C183.92 122.847 180.231 121.664 177.09 119.403C173.133 116.553 170.522 112.334 169.739 107.52C169.2 104.213 169.576 100.833 170.827 97.7443C170.86 97.6638 170.894 97.5819 170.929 97.5L170.951 97.4481L170.982 97.4013C171.187 97.0829 171.346 96.7437 171.453 96.3903C171.794 95.2727 171.59 94.1187 170.922 93.3767C170.412 92.8102 169.722 92.5918 169.202 92.5113L138.009 97.5949L132.915 66.3094L132.926 66.2146C133.024 65.4674 133.328 64.4083 134.225 63.6013C134.811 63.0737 135.564 62.7332 136.404 62.6189L136.419 62.6163C137.064 62.5435 137.746 62.6085 138.389 62.8047C138.838 62.9411 139.272 63.14 139.678 63.3973C139.736 63.422 139.793 63.4454 139.851 63.4687C142.548 64.5616 145.503 64.9372 148.401 64.5564C148.622 64.5291 148.825 64.4993 149.023 64.4668C153.493 63.739 157.411 61.3129 160.056 57.6366C162.702 53.9603 163.758 49.4731 163.029 45.0016C161.569 36.0337 153.362 29.8325 144.347 30.8838C144.055 30.9163 143.763 30.9566 143.477 31.0033C139.812 31.6011 136.522 33.332 133.962 36.009L133.91 36.0636L133.847 36.1052C133.247 36.4963 132.57 36.7536 131.89 36.8485L131.873 36.8511C131.156 36.933 130.446 36.8329 129.822 36.5613C128.715 36.0805 128.09 35.1721 127.761 34.4951L127.72 34.4106L122.109 0.613235L122.797 0.543062C126.623 0.150613 130.511 -0.0313168 134.35 0.00376966C136.293 0.0219627 138.264 0.0947347 140.205 0.222086C147.265 0.734089 154.26 2.07387 160.999 4.20375C176.877 9.22762 191.092 18.4944 202.109 31.0059C213.444 43.8697 220.899 59.6573 223.667 76.6587C224 78.7015 224.268 80.7989 224.465 82.8911L224.522 83.4953L201.464 87.2535C200.998 87.4952 200.412 87.9201 200.108 88.6206C199.735 89.4782 199.859 90.5334 200.434 91.4548C203.284 94.2045 205.128 97.7288 205.765 101.649C207.384 111.587 200.619 120.987 190.685 122.606C189.693 122.769 188.698 122.848 187.712 122.848L187.714 122.847ZM172.104 98.0575C172.08 98.1147 172.056 98.1719 172.033 98.2304C170.87 101.1 170.521 104.239 171.021 107.311C171.748 111.783 174.174 115.702 177.848 118.348C181.523 120.995 186.009 122.051 190.479 121.322C199.704 119.819 205.987 111.086 204.486 101.857C203.888 98.1914 202.158 94.8997 199.482 92.3384L199.428 92.2864L199.386 92.2241C198.538 90.922 198.362 89.3808 198.918 88.1021C199.398 86.9975 200.303 86.3724 200.979 86.0437L201.064 86.0021L223.114 82.409C222.927 80.5468 222.681 78.6859 222.386 76.8679C219.657 60.1069 212.308 44.5454 201.134 31.8649C190.275 19.5314 176.261 10.3959 160.608 5.44348C153.965 3.34478 147.07 2.02449 140.115 1.52029C138.203 1.39423 136.258 1.32276 134.338 1.30457C130.776 1.27208 127.173 1.42802 123.616 1.76849L128.969 34.0065C129.211 34.4756 129.637 35.063 130.339 35.3684C130.752 35.5477 131.228 35.614 131.717 35.5594C132.184 35.4931 132.653 35.319 133.077 35.0539C135.826 32.2028 139.348 30.3601 143.268 29.7207C143.575 29.6701 143.89 29.6272 144.2 29.5934C148.866 29.0489 153.512 30.3107 157.276 33.1449C161.054 35.9882 163.552 40.1258 164.311 44.7936C165.095 49.607 163.958 54.4385 161.109 58.3968C158.261 62.3551 154.043 64.9671 149.231 65.7507C149.017 65.7858 148.799 65.8169 148.565 65.8468C145.449 66.2562 142.266 65.8507 139.364 64.6747C139.284 64.6422 139.202 64.6084 139.12 64.5733L139.068 64.5512L139.021 64.52C138.703 64.3147 138.364 64.1562 138.011 64.0483C137.536 63.9041 137.039 63.8547 136.571 63.9067C135.994 63.9872 135.484 64.216 135.093 64.5668C134.524 65.0775 134.307 65.7702 134.227 66.2913L139.081 96.1031L169.184 91.1975L169.279 91.2105C170.023 91.3079 171.081 91.6133 171.886 92.5087C172.856 93.5872 173.166 95.2194 172.694 96.7684C172.558 97.218 172.359 97.6521 172.102 98.0588L172.104 98.0575Z" fill="#489999"/>
<path d="M107.263 308.045H73.8382L65.8337 299.585H65.7467C62.1459 299.585 59.2153 296.653 59.2153 293.051C59.2153 290.946 60.235 289.023 61.8419 287.817H57.6955C54.0946 287.817 51.1641 284.885 51.1641 281.283C51.1641 278.696 52.6735 276.455 54.8571 275.396C52.6735 274.338 51.1641 272.098 51.1641 269.512C51.1641 266.926 52.6709 264.69 54.8532 263.63C54.2024 263.315 53.6023 262.89 53.0762 262.363C51.8434 261.126 51.1641 259.486 51.1641 257.742C51.1641 254.14 54.0946 251.208 57.6955 251.208H124.573C126.319 251.208 127.96 251.888 129.193 253.121C130.427 254.356 131.107 255.997 131.107 257.742C131.107 260.33 129.597 262.57 127.413 263.629C129.598 264.687 131.107 266.927 131.107 269.513C131.107 272.099 129.597 274.34 127.413 275.397C129.598 276.456 131.107 278.697 131.107 281.284C131.107 284.886 128.177 287.818 124.573 287.818H120.241C121.831 289.008 122.851 290.91 122.851 293.052C122.851 296.655 119.92 299.586 116.32 299.586H115.271L107.263 308.046V308.045ZM74.3981 306.745H106.704L114.714 298.285H116.321C119.206 298.285 121.553 295.937 121.553 293.051C121.553 290.165 119.346 287.931 116.529 287.822C116.461 287.819 116.391 287.817 116.321 287.817V286.517H124.575C127.461 286.517 129.81 284.169 129.81 281.283C129.81 278.397 127.461 276.046 124.575 276.046V274.746C127.461 274.746 129.81 272.398 129.81 269.512C129.81 266.626 127.461 264.278 124.575 264.278V262.978C127.461 262.978 129.81 260.629 129.81 257.741C129.81 256.343 129.266 255.028 128.276 254.039C127.288 253.051 125.974 252.507 124.575 252.507H57.6968C54.8117 252.507 52.4644 254.855 52.4644 257.741C52.4644 259.138 53.0087 260.453 53.9959 261.445C54.9844 262.434 56.299 262.979 57.6968 262.979V264.279C54.8117 264.279 52.4644 266.627 52.4644 269.513C52.4644 272.399 54.8117 274.748 57.6968 274.748V276.047C54.8117 276.047 52.4644 278.397 52.4644 281.284C52.4644 284.172 54.8117 286.519 57.6968 286.519H65.748V287.818C65.3869 287.818 65.0284 287.854 64.6815 287.927C62.2667 288.427 60.5156 290.583 60.5156 293.052C60.5156 295.939 62.8629 298.287 65.748 298.287H66.3936L74.3981 306.747V306.745Z" fill="#489999"/>
<path d="M72.4295 317L70.1406 314.605H72.4295V317Z" fill="#489999"/>
<path d="M95.9596 128.96L64.0638 128.905L63.9729 128.878C63.2519 128.662 62.2556 128.192 61.6022 127.175C60.8176 125.955 60.7747 124.294 61.4892 122.84C61.6957 122.418 61.962 122.023 62.2802 121.663C62.314 121.61 62.3465 121.555 62.379 121.502C63.9858 118.857 64.8354 115.815 64.8354 112.703C64.8354 103.352 57.2297 95.743 47.8821 95.743C38.5344 95.743 30.9287 103.35 30.9287 112.703C30.9287 116.418 32.1082 119.945 34.3373 122.903L34.3828 122.962L34.4127 123.031C35.0401 124.453 34.9647 126.002 34.2113 127.174C33.5592 128.19 32.5629 128.661 31.8419 128.876L31.751 128.904H0.0929297L0.0396705 128.153C0.0331754 128.064 0.0266804 127.976 0.0214844 127.887V127.845V115.836C0.685277 105.65 3.03518 95.7313 7.00364 86.3541C11.6021 75.4773 18.1855 65.7089 26.5693 57.322C34.9544 48.9337 44.719 42.3478 55.5917 37.7476C60.0602 35.8568 64.7172 34.3117 69.4339 33.1552C74.1519 31.9817 78.9985 31.1838 83.8386 30.7862C87.5745 30.4782 91.3702 30.4041 95.1191 30.5653L95.7401 30.5926L95.753 37.1368H95.7413V37.3746L95.7517 38.0244V64.5888C95.9154 65.0891 96.2415 65.7349 96.8819 66.1469C97.2833 66.4055 97.7743 66.5484 98.2991 66.5601H98.316C98.8148 66.5848 99.3357 66.4886 99.8267 66.2833C102.999 63.9117 106.771 62.6577 110.742 62.6577C110.998 62.6577 111.266 62.6642 111.584 62.6785C121.294 63.1723 128.898 71.1824 128.898 80.9131C128.898 90.6438 120.711 99.1724 110.646 99.1724C110.473 99.1724 110.292 99.1698 110.072 99.162C106.961 99.0489 103.919 98.138 101.271 96.5279C101.197 96.4824 101.122 96.4369 101.048 96.3901L100.998 96.359L100.956 96.32C100.675 96.0653 100.366 95.8548 100.035 95.6923C99.5617 95.4597 99.0486 95.331 98.5485 95.3181C98.164 95.3077 97.5223 95.2921 96.8936 95.7196C96.3298 96.1043 96.07 96.6526 95.9583 96.9918V128.957L95.9596 128.96ZM64.2586 127.607L94.6606 127.659V96.8034L94.6865 96.7137C94.832 96.2199 95.2165 95.2934 96.1648 94.6475C97.1378 93.9848 98.1133 94.0095 98.5823 94.0212C99.2682 94.038 99.9683 94.2135 100.607 94.528C101.03 94.7346 101.424 95.001 101.784 95.3194C101.838 95.3531 101.891 95.3856 101.945 95.4181C104.404 96.9138 107.228 97.7598 110.116 97.8638C110.29 97.869 110.468 97.8729 110.646 97.8729C119.994 97.8729 127.599 90.2656 127.599 80.9131C127.599 71.5606 120.537 64.4341 111.522 63.9754C111.227 63.9624 110.979 63.9559 110.742 63.9559C107.028 63.9559 103.503 65.1359 100.546 67.3658L100.487 67.4113L100.418 67.4412C99.7267 67.7466 98.9811 67.8908 98.2627 67.857C97.5015 67.8388 96.7818 67.6244 96.1804 67.2385C95.1672 66.5874 94.6969 65.5933 94.48 64.8734L94.4527 64.7824V38.6728L94.4423 38.0231V35.836H94.4514L94.4436 31.8388C90.9506 31.714 87.4225 31.7946 83.9464 32.0818C79.1764 32.4742 74.3987 33.2604 69.7469 34.4183C65.0952 35.5592 60.5032 37.0823 56.0983 38.9457C45.3802 43.481 35.7545 49.972 27.489 58.242C19.2234 66.5107 12.7336 76.14 8.20003 86.8622C4.29002 96.0991 1.97519 105.869 1.31919 115.902V127.608H31.5614C32.0628 127.444 32.711 127.119 33.1241 126.475C33.6294 125.687 33.6787 124.627 33.2579 123.625C30.8872 120.453 29.6336 116.678 29.6336 112.705C29.6336 102.637 37.8213 94.4461 47.886 94.4461C57.9507 94.4461 66.1383 102.637 66.1383 112.705C66.1383 116.057 65.2238 119.333 63.4922 122.179C63.4468 122.253 63.4013 122.328 63.3545 122.402L63.3233 122.452L63.2844 122.494C63.0298 122.775 62.8193 123.084 62.657 123.416C62.1413 124.465 62.1568 125.637 62.6959 126.476C63.109 127.119 63.7572 127.446 64.2586 127.609V127.607Z" fill="#489999"/>
<path d="M95.9485 252.506H64.6684C62.529 252.506 60.4739 252.02 58.5592 251.062C54.3816 248.985 51.5588 244.958 51.0107 240.289C49.1648 224.618 42.4333 210.71 37.1113 201.802C31.3203 192.109 25.8905 186.04 25.6632 185.787L20.8516 180.528C14.8087 173.152 9.96078 164.956 6.44437 156.17C2.876 147.257 0.724845 137.879 0.0493622 128.302L0 127.607H31.5607C32.0621 127.443 32.7103 127.118 33.1234 126.474C33.6287 125.686 33.678 124.626 33.2572 123.624C30.8865 120.452 29.6329 116.677 29.6329 112.704C29.6329 102.636 37.8206 94.4448 47.8853 94.4448C57.95 94.4448 66.1376 102.636 66.1376 112.704C66.1376 116.056 65.2231 119.332 63.4915 122.177C63.4461 122.252 63.4006 122.327 63.3538 122.401L63.3226 122.45L63.2837 122.493C63.0291 122.774 62.8186 123.083 62.6563 123.415C62.1406 124.463 62.1561 125.635 62.6952 126.475C63.1083 127.118 63.7565 127.444 64.2579 127.608H94.8106L94.9041 127.503H95.9485V159.189L95.9212 159.279C95.7056 159.999 95.234 160.994 94.2208 161.645C93.001 162.429 91.3409 162.472 89.8873 161.758C89.4651 161.551 89.0689 161.285 88.7091 160.965C88.6559 160.932 88.6039 160.899 88.5506 160.867C85.9059 159.259 82.8649 158.409 79.7538 158.409C70.4061 158.409 62.8004 166.016 62.8004 175.369C62.8004 184.721 70.4061 192.328 79.7538 192.328C83.4663 192.328 86.9931 191.15 89.9497 188.918L90.0094 188.873L90.0783 188.843C91.4994 188.215 93.0478 188.291 94.2195 189.043C95.2327 189.694 95.703 190.688 95.9199 191.408L95.9472 191.499V252.507L95.9485 252.506ZM21.8441 179.689L26.6218 184.911C27.5272 185.917 48.7231 209.766 52.2993 240.137C52.7968 244.368 55.3532 248.018 59.1372 249.899C60.8714 250.767 62.7316 251.206 64.6671 251.206H94.6482V191.693C94.4845 191.193 94.1584 190.547 93.518 190.135C92.7308 189.629 91.6709 189.58 90.6693 190.001C87.4985 192.373 83.7248 193.625 79.7538 193.625C69.6891 193.625 61.5014 185.435 61.5014 175.366C61.5014 165.297 69.6891 157.107 79.7538 157.107C83.1026 157.107 86.3774 158.022 89.2235 159.754C89.2976 159.799 89.3729 159.846 89.4483 159.893L89.4963 159.923L89.5379 159.96C89.8185 160.215 90.1289 160.426 90.4589 160.588C91.5059 161.104 92.6776 161.088 93.5167 160.549C94.1584 160.137 94.4845 159.49 94.6469 158.991V128.905H64.0618L63.9709 128.878C63.2499 128.662 62.2536 128.192 61.6002 127.175C60.8156 125.955 60.7727 124.294 61.4872 122.84C61.6937 122.418 61.96 122.023 62.2782 121.663C62.312 121.61 62.3445 121.555 62.377 121.502C63.9838 118.857 64.8334 115.815 64.8334 112.703C64.8334 103.352 57.2277 95.743 47.8801 95.743C38.5324 95.743 30.9267 103.35 30.9267 112.703C30.9267 116.418 32.1062 119.945 34.3353 122.903L34.3808 122.962L34.4107 123.031C35.0381 124.453 34.9627 126.002 34.2093 127.174C33.5572 128.19 32.5609 128.661 31.8399 128.876L31.749 128.904H1.39643C2.11608 138.107 4.21787 147.112 7.64855 155.685C11.1143 164.342 15.8894 172.419 21.8441 179.688V179.689Z" fill="#489999"/>
<path d="M142.518 161.96C132.453 161.96 124.266 153.77 124.266 143.701V143.676L125.565 143.683C125.622 152.976 133.225 160.536 142.515 160.536C151.806 160.536 159.036 153.43 159.448 144.36C159.46 144.123 159.466 143.877 159.467 143.578H160.766V143.618C160.766 143.645 160.768 143.674 160.768 143.701C160.768 153.77 152.58 161.96 142.515 161.96H142.518Z" fill="#489999"/>
<path d="M95.2982 252.505H94.6487V191.693C94.485 191.192 94.159 190.547 93.5186 190.135C92.7314 189.628 91.6714 189.58 90.6698 190.001C87.499 192.372 83.7253 193.625 79.7543 193.625C69.6896 193.625 61.502 185.434 61.502 175.366C61.502 165.297 69.6896 157.107 79.7543 157.107C83.1031 157.107 86.3779 158.021 89.224 159.754C89.2981 159.799 89.3734 159.846 89.4488 159.893L89.4968 159.923L89.5384 159.96C89.819 160.215 90.1294 160.425 90.4594 160.588C91.5064 161.104 92.6794 161.088 93.5173 160.549C94.159 160.137 94.485 159.49 94.6487 158.991V127.5H126.343L126.434 127.527C127.154 127.743 128.147 128.215 128.798 129.228C129.163 129.796 129.375 130.475 129.413 131.192V131.243C129.415 131.298 129.417 131.356 129.415 131.411V131.428C129.383 132.077 129.209 132.738 128.911 133.343C128.705 133.765 128.438 134.161 128.119 134.521C128.085 134.574 128.053 134.628 128.02 134.681C126.508 137.167 125.662 140.026 125.573 142.947C125.565 143.165 125.561 143.376 125.561 143.576V143.609C125.562 143.633 125.564 143.658 125.564 143.683V143.693V143.71C125.564 153.051 133.169 160.659 142.517 160.659C151.865 160.659 159.47 153.052 159.47 143.7C159.47 143.685 159.47 143.67 159.47 143.655C159.47 143.632 159.469 143.607 159.469 143.583C159.469 143.551 159.469 143.529 159.47 143.507V143.48C159.47 139.766 158.292 136.238 156.062 133.28L156.016 133.22L155.986 133.152C155.719 132.547 155.579 131.914 155.569 131.274V131.256V131.237C155.599 130.506 155.814 129.811 156.188 129.23C156.839 128.216 157.832 127.746 158.552 127.529L158.643 127.501H182.286L182.239 128.195C180.927 147.567 173.643 165.665 161.169 180.534C160.416 181.405 159.667 182.267 158.917 183.13C158.151 184.013 157.385 184.894 156.622 185.776L156.603 185.797C156.025 186.443 150.797 192.372 145.235 201.646C139.885 210.568 133.117 224.515 131.256 240.289C130.901 243.362 129.511 246.26 127.342 248.446C125.956 249.84 124.47 250.689 123.707 251.069H123.705C121.838 251.995 119.727 252.491 117.602 252.505H95.2995H95.2982ZM95.9477 251.206H117.597C119.522 251.193 121.435 250.745 123.125 249.908C123.817 249.562 125.165 248.793 126.42 247.53C128.384 245.549 129.643 242.924 129.965 240.138C131.852 224.133 138.703 210.008 144.119 200.976C149.743 191.599 155.049 185.584 155.634 184.929C156.403 184.041 157.169 183.159 157.935 182.277C158.684 181.414 159.433 180.552 160.18 179.689C172.318 165.219 179.474 147.632 180.892 128.799H158.836C158.336 128.963 157.691 129.289 157.279 129.93C157.033 130.313 156.891 130.776 156.867 131.271C156.876 131.709 156.97 132.142 157.145 132.56C159.516 135.732 160.768 139.507 160.768 143.48C160.768 143.506 160.768 143.531 160.767 143.555V143.583V143.616C160.767 143.644 160.768 143.672 160.768 143.7C160.768 153.768 152.58 161.959 142.516 161.959C132.451 161.959 124.263 153.768 124.263 143.7V143.657C124.262 143.629 124.261 143.603 124.261 143.576C124.261 143.36 124.265 143.133 124.274 142.903C124.371 139.761 125.282 136.684 126.91 134.007C126.955 133.931 127.002 133.857 127.049 133.782L127.078 133.734L127.116 133.692C127.371 133.411 127.581 133.101 127.743 132.771C127.962 132.326 128.09 131.843 128.115 131.373C128.115 131.339 128.115 131.304 128.115 131.27V131.249C128.088 130.76 127.946 130.304 127.704 129.93C127.293 129.288 126.646 128.962 126.147 128.798H95.9464V159.184L95.9191 159.275C95.7035 159.995 95.2319 160.989 94.2187 161.64C92.999 162.424 91.3388 162.468 89.8852 161.754C89.4631 161.547 89.0669 161.28 88.707 160.961C88.6538 160.928 88.6018 160.895 88.5486 160.863C85.9038 159.255 82.8628 158.405 79.7517 158.405C70.404 158.405 62.7984 166.012 62.7984 175.364C62.7984 184.717 70.404 192.324 79.7517 192.324C83.4643 192.324 86.9911 191.146 89.9476 188.914L90.0073 188.869L90.0762 188.839C91.4973 188.211 93.0457 188.287 94.2174 189.039C95.2306 189.69 95.7009 190.684 95.9178 191.404L95.9451 191.495V251.203L95.9477 251.206Z" fill="#489999"/>
</g>
<g style="mix-blend-mode:overlay">
<path d="M84.8738 252.143L84.1685 251.569L94.6671 238.713L59.7264 208.402L59.6848 208.294L39.5515 154.759L17.0566 130.138L17.7282 129.525L40.34 154.275L60.4954 207.865L95.9297 238.604L84.8738 252.143Z" fill="#489999"/>
</g>
<g style="mix-blend-mode:overlay">
<path d="M115.307 300.494L65.085 288.815L54.5254 262.772L83.7245 251.725L101.269 281.651L126.44 251.991L127.133 252.58L101.786 282.447C102.082 282.833 102.431 283.292 102.833 283.821C103.997 285.356 105.611 287.501 107.63 290.198C111.067 294.789 114.533 299.449 114.567 299.496L115.307 300.491V300.494ZM65.7501 288.037L113.096 299.046C108.98 293.514 103.598 286.315 101.183 283.16L101.132 283.219L100.821 282.687C100.475 282.238 100.219 281.911 100.069 281.727C99.9179 281.704 99.7451 281.648 99.5424 281.583C99.2034 281.474 98.7111 281.3 98.0798 281.065C96.912 280.631 95.2168 279.971 93.0422 279.102C89.3829 277.643 84.3103 275.576 77.9673 272.958C67.1686 268.502 56.2803 263.935 56.1712 263.889L56.5233 263.05C72.2062 269.63 95.4558 279.257 99.6347 280.659L83.3309 252.849L55.7205 263.294L65.7527 288.037H65.7501Z" fill="#489999"/>
</g>
<g style="mix-blend-mode:overlay">
<path d="M112.937 300.565L75.6777 308.087L75.8576 308.979L113.117 301.457L112.937 300.565Z" fill="#489999"/>
</g>
<g style="mix-blend-mode:overlay">
<path d="M77.3624 311.148L64.918 289.514L65.5155 289.376L102.107 280.945L102.245 281.006C102.903 281.295 118.505 286.291 124.459 288.193L124.183 289.059C123.336 288.789 104.08 282.642 102.029 281.898L66.317 290.126L78.1496 310.696L77.3611 311.15L77.3624 311.148Z" fill="#489999"/>
</g>
<g style="mix-blend-mode:overlay">
<path d="M123.794 250.624L94.0547 239.031L135.185 219.48L124.414 182.824L142.269 159.548L142.99 160.102L125.417 183.011L136.276 219.967L96.3474 238.948L124.124 249.777L123.794 250.624Z" fill="#489999"/>
</g>
<g style="mix-blend-mode:overlay">
<path d="M127.298 185.236L95.014 159.447L95.5817 158.735L126.275 183.254L123.883 141.02L95.4778 128.724L78.1334 156.663L39.549 154.955L32.2227 103.307L61.8101 100.933L63.9717 123.95L63.0663 124.034L60.9878 101.912L33.2593 104.136L40.3427 154.079L77.6424 155.732L95.1192 127.578L124.759 140.408L127.298 185.236Z" fill="#489999"/>
</g>
<g style="mix-blend-mode:overlay">
<path d="M58.3611 250.941L61.3527 209.752L31.3184 180.124L40.34 152.213L40.4049 152.14L63.7597 126.21L31.5938 105.84L32.0796 105.072L65.1562 126.019L41.1453 152.677L32.3563 179.87L61.4397 208.561L61.7164 204.743L83.2162 191.991L95.6412 238.873L94.7618 239.105L82.6447 193.386L62.588 205.282L62.2893 209.399L62.5231 209.629L62.5569 209.694L83.6722 250.645L58.3611 250.94V250.941ZM62.1775 210.944L59.3392 250.02L82.1887 249.753L62.1775 210.944Z" fill="#489999"/>
</g>
<g style="mix-blend-mode:overlay">
<path d="M61.9448 210.308L31.3831 194.609V180.06L16.9849 128.529C15.847 127.225 3.71688 113.303 2.92578 111.72L3.73896 111.313C4.37028 112.578 14.0583 123.794 17.737 128.009L17.8046 128.087L17.8319 128.186L32.2924 179.936V194.054L62.3605 209.5L61.9448 210.309V210.308Z" fill="#489999"/>
</g>
<g style="mix-blend-mode:overlay">
<path d="M200.22 87.1756L188.434 59.0908L198.029 37.1331C193.664 34.7823 168.75 21.365 168.225 20.9713C167.686 20.5671 157.642 7.46685 154.578 3.46179L155.3 2.9082C160.4 9.57204 168.168 19.6484 168.78 20.2487C169.557 20.7503 188.75 31.1047 198.829 36.5302L199.198 36.729L189.424 59.0973L201.058 86.8221L200.22 87.1743V87.1756Z" fill="#489999"/>
</g>
<g style="mix-blend-mode:overlay">
<path d="M171.832 93.096L170.975 92.7933C171.25 91.9993 186.601 62.4227 188.877 58.0407L168.274 21.1414L126.906 32.4614L126.666 31.5842L168.72 20.0771L189.908 58.0264L189.795 58.2435C183.718 69.9455 172.144 92.2904 171.831 93.0973L171.832 93.096Z" fill="#489999"/>
</g>
<g style="mix-blend-mode:overlay">
<path d="M128.186 82.2621L102.852 80.1621L102.744 80.075L74.0879 57.1298L74.6556 56.4189L103.204 79.2785L128.262 81.355L128.186 82.2621Z" fill="#489999"/>
</g>
<g style="mix-blend-mode:overlay">
<path d="M95.0187 130.191L63.1502 105.427L101.771 80.0034L37.5403 70.9563L32.2339 105.853L31.9091 105.908C31.8338 105.921 24.3307 107.173 16.8524 108.317C12.4578 108.989 8.93103 109.492 6.36809 109.813C1.29157 110.448 1.13959 110.249 0.930451 109.976C0.818737 109.831 0.796654 109.635 0.873295 109.466L0.903172 109.401L36.7298 70.239L36.7479 70.1155L36.8934 70.0584L36.9831 69.9596L37.1026 69.9765L74.662 55.3428L90.102 30.894L90.871 31.3801L75.2713 56.0822L75.1323 56.1368L38.9433 70.2364L104.281 79.4408L64.7077 105.491L95.5734 129.475L95.0162 130.194L95.0187 130.191ZM36.4855 71.853L2.20607 109.323C5.84589 109.164 21.3703 106.742 31.435 105.063L36.4842 71.853H36.4855Z" fill="#489999"/>
</g>
<g style="mix-blend-mode:overlay">
<path d="M36.711 70.5081C36.7032 70.4561 35.9394 65.2529 35.2184 60.0198C33.744 49.3301 33.874 48.9416 33.9441 48.7323L34.0675 48.3633L75.0459 55.2623L95.1883 59.2128L95.013 60.1056L74.8823 56.1577L34.8209 49.4133C34.9677 51.8511 36.5148 62.9242 37.6099 70.3768L36.7097 70.5094L36.711 70.5081Z" fill="#489999"/>
</g>
<g style="mix-blend-mode:overlay">
<path d="M135.992 216.777L135.501 216.489L91.5352 190.659L126.685 182.474L126.892 183.361L93.9604 191.029L135.47 215.415L155.497 152.201L155.576 152.123L178.395 129.509L179.034 130.155L156.296 152.69L135.992 216.777Z" fill="#489999"/>
</g>
<g style="mix-blend-mode:overlay">
<path d="M94.6679 157.855L82.502 192.531L83.3599 192.833L95.5259 158.156L94.6679 157.855Z" fill="#489999"/>
</g>
<g style="mix-blend-mode:overlay">
<path d="M226.212 87.226L197.904 37.8476L197.898 37.8333L188.398 18.3135L167.497 21.058L167.379 20.1562L188.929 17.3271L198.708 37.4213L227.001 86.7724L226.212 87.226Z" fill="#489999"/>
</g>
<g style="mix-blend-mode:overlay">
<path d="M172.722 92.5696L146.009 66.1989L138.344 88.5606L137.484 88.2657L145.618 64.5355L171.618 90.2032L165.807 18.142L122.701 1.61371L123.027 0.765137L166.667 17.4988L172.722 92.5696Z" fill="#489999"/>
</g>
<g style="mix-blend-mode:overlay">
<path d="M155.349 154.225L154.533 154.626L164.485 174.876L165.301 174.474L155.349 154.225Z" fill="#489999"/>
</g>
<g style="mix-blend-mode:overlay">
<path d="M196.4 121.166L169.73 91.5754L170.406 90.9659L195.725 119.059L199.356 87.1792L200.258 87.2819L196.4 121.166Z" fill="#489999"/>
</g>
<g style="mix-blend-mode:overlay">
<path d="M36.0005 69.0131L35.2871 69.5771L63.1026 104.786L63.816 104.222L36.0005 69.0131Z" fill="#489999"/>
</g>
<g style="mix-blend-mode:overlay">
<path d="M98.3418 96.5785L101.44 79.3627L114.946 62.5342L115.655 63.1034L102.295 79.7513L99.5577 94.9606L127.049 81.3198L127.454 82.1358L98.3418 96.5785Z" fill="#489999"/>
</g>
</g>
<defs>
<clipPath id="clip0_3795_53829">
<rect width="227" height="317" fill="#489999"/>
</clipPath>
</defs>
</svg>