<svg width="336" height="296" viewBox="0 0 336 296" fill="none" xmlns="http://www.w3.org/2000/svg">
<path d="M249.887 66.875C346.262 66.875 424.387 144.779 424.387 240.875C424.387 336.971 346.262 414.875 249.887 414.875C153.512 414.875 75.3867 336.971 75.3867 240.875C75.3867 144.779 153.512 66.875 249.887 66.875Z" fill="url(#paint0_radial_1699_17987)" fill-opacity="0.6" stroke="#499A9A"/>
<circle opacity="0.8" cx="86.1309" cy="180.375" r="4" fill="#28B67E"/>
<circle opacity="0.8" cx="121.131" cy="266.375" r="4" fill="#28B67E"/>
<circle opacity="0.8" cx="222.131" cy="68.375" r="4" fill="#28B67E"/>
<g filter="url(#filter0_d_1699_17987)">
<circle cx="296.187" cy="74.9546" r="20.5796" fill="white"/>
<circle cx="296.187" cy="74.9546" r="20.0796" stroke="#499A9A"/>
</g>
<path d="M307.271 81.7287C307.271 81.5235 307.251 81.3234 307.223 81.126L308.189 80.1921L306.944 78.0351L305.654 78.4043C305.338 78.1554 304.986 77.9507 304.607 77.7991L304.282 76.4985H301.792L301.467 77.7991C301.087 77.9507 300.736 78.1554 300.42 78.4043L299.13 78.0351L297.885 80.1921L298.851 81.126C298.822 81.3234 298.803 81.5236 298.803 81.7288C298.803 81.9339 298.822 82.1341 298.851 82.3315L297.885 83.2654L299.13 85.4224L300.42 85.0533C300.736 85.3021 301.087 85.5068 301.467 85.6585L301.792 86.959H304.282L304.607 85.6585C304.986 85.5069 305.338 85.3021 305.654 85.0533L306.944 85.4224L308.189 83.2654L307.223 82.3314C307.251 82.1341 307.271 81.9339 307.271 81.7287Z" stroke="#499A9A" stroke-width="1.5" stroke-miterlimit="10" stroke-linecap="round" stroke-linejoin="round"/>
<path d="M290.158 68.977V65.9384C290.158 64.2878 291.496 62.9497 293.147 62.9497H300.049C301.7 62.9497 303.038 64.2878 303.038 65.9384V73.4103" stroke="#499A9A" stroke-width="1.5" stroke-miterlimit="10" stroke-linecap="round" stroke-linejoin="round"/>
<path d="M305.03 71.418L303.037 73.4105L301.045 71.418" stroke="#499A9A" stroke-width="1.5" stroke-miterlimit="10" stroke-linecap="round" stroke-linejoin="round"/>
<path d="M304.49 82.0743C304.68 81.2711 304.183 80.4662 303.379 80.2766C302.576 80.0869 301.771 80.5843 301.582 81.3875C301.392 82.1907 301.889 82.9955 302.693 83.1852C303.496 83.3749 304.301 82.8775 304.49 82.0743Z" stroke="#499A9A" stroke-width="1.5" stroke-miterlimit="10" stroke-linecap="round" stroke-linejoin="round"/>
<path d="M290.158 82.9745V76.9971" stroke="#499A9A" stroke-width="1.5" stroke-miterlimit="10" stroke-linecap="round" stroke-linejoin="round"/>
<path d="M288.414 75.2539L290.157 76.9973L291.901 75.2539" stroke="#499A9A" stroke-width="1.5" stroke-miterlimit="10" stroke-linecap="round" stroke-linejoin="round"/>
<path d="M287.418 82.9746H292.897V85.4652C292.897 86.2906 292.228 86.9596 291.403 86.9596H288.912C288.087 86.9596 287.418 86.2906 287.418 85.4652V82.9746Z" stroke="#499A9A" stroke-width="1.5" stroke-miterlimit="10" stroke-linecap="round" stroke-linejoin="round"/>
<path d="M292.896 82.9371C292.896 81.4968 293.508 80.1501 294.499 79.1048C295.512 78.036 296.134 76.5941 296.134 75.0044" stroke="#499A9A" stroke-width="1.5" stroke-miterlimit="10" stroke-linecap="round" stroke-linejoin="round"/>
<path d="M284.18 75.0044C284.18 76.5941 284.802 78.036 285.815 79.1048C286.806 80.1501 287.417 81.4968 287.417 82.9371" stroke="#499A9A" stroke-width="1.5" stroke-miterlimit="10" stroke-linecap="round" stroke-linejoin="round"/>
<path d="M296.135 75.0043C296.135 71.703 293.458 69.0269 290.157 69.0269C286.856 69.0269 284.18 71.703 284.18 75.0043" stroke="#499A9A" stroke-width="1.5" stroke-miterlimit="10" stroke-linecap="round" stroke-linejoin="round"/>
<circle cx="249.387" cy="240.875" r="131" fill="url(#paint1_radial_1699_17987)" fill-opacity="0.6" stroke="#499A9A"/>
<ellipse cx="249.387" cy="241.375" rx="93.5" ry="93" fill="url(#paint2_linear_1699_17987)"/>
<g clip-path="url(#clip0_1699_17987)">
<path d="M277.009 244.192C277.015 244.292 276.999 244.391 276.963 244.484C276.927 244.576 276.873 244.661 276.803 244.731C276.733 244.801 276.65 244.856 276.558 244.892C276.465 244.928 276.367 244.944 276.268 244.939H267.568C267.377 244.931 267.197 244.848 267.065 244.709C266.933 244.57 266.859 244.385 266.86 244.192V238.248C266.86 238.154 266.878 238.061 266.914 237.975C266.949 237.888 267.001 237.81 267.067 237.743C267.133 237.677 267.211 237.625 267.297 237.589C267.383 237.553 267.475 237.535 267.568 237.535H276.268C276.364 237.53 276.46 237.545 276.549 237.579C276.639 237.613 276.721 237.664 276.791 237.731C276.86 237.798 276.915 237.878 276.953 237.967C276.99 238.056 277.009 238.151 277.009 238.248V244.192ZM297.982 243.954C299.769 243.682 300.645 242.459 300.645 240.591V237.772C300.645 235.598 299.397 234.375 297.274 234.375H283.99V248.065H287.328V237.535H296.569C296.664 237.53 296.758 237.545 296.846 237.579C296.934 237.613 297.013 237.665 297.081 237.733C297.147 237.8 297.199 237.881 297.233 237.969C297.267 238.058 297.282 238.153 297.277 238.248V240.116C297.282 240.211 297.267 240.306 297.233 240.395C297.199 240.484 297.147 240.564 297.081 240.631C297.013 240.699 296.934 240.751 296.846 240.785C296.758 240.819 296.664 240.834 296.569 240.83H288.711V243.989H294.106L296.938 248.066H301.018L297.982 243.954ZM266.894 234.375C264.736 234.375 263.522 235.632 263.522 237.772V244.634C263.522 246.808 264.769 248.031 266.894 248.031H276.976C279.1 248.031 280.348 246.774 280.348 244.634V237.772C280.348 235.598 279.1 234.375 276.976 234.375H266.894ZM244.941 244.634C244.941 246.808 246.189 248.031 248.313 248.031H260.048V244.906H249.022C248.926 244.906 248.831 244.886 248.743 244.848C248.654 244.81 248.575 244.755 248.509 244.685C248.442 244.615 248.391 244.532 248.357 244.442C248.324 244.351 248.309 244.255 248.313 244.158V238.248C248.313 238.059 248.388 237.877 248.521 237.743C248.654 237.61 248.834 237.535 249.022 237.535H260.082V234.375H248.313C246.156 234.375 244.941 235.632 244.941 237.772V244.634ZM241.297 234.375H237.927V248.065H241.297V234.375ZM217.759 234.375V248.065H221.131V237.535H230.305C230.402 237.525 230.5 237.536 230.592 237.568C230.685 237.6 230.769 237.651 230.839 237.719C230.91 237.787 230.965 237.869 231.001 237.961C231.036 238.052 231.052 238.15 231.047 238.248V240.116C231.052 240.214 231.036 240.312 231.001 240.404C230.965 240.495 230.91 240.577 230.839 240.645C230.769 240.713 230.685 240.764 230.592 240.796C230.5 240.828 230.402 240.84 230.305 240.83H222.719V243.989H231.015C233.173 243.989 234.387 242.732 234.387 240.592V237.772C234.387 235.598 233.139 234.375 231.015 234.375H217.759ZM200.259 234.375C198.101 234.375 196.887 235.632 196.887 237.772V244.634C196.887 246.808 198.134 248.031 200.259 248.031H213.345V245.144H200.936C200.843 245.144 200.751 245.125 200.665 245.089C200.579 245.053 200.501 245.001 200.435 244.934C200.369 244.868 200.317 244.789 200.281 244.703C200.246 244.616 200.228 244.523 200.228 244.43V237.976C200.223 237.88 200.238 237.783 200.272 237.693C200.305 237.602 200.357 237.52 200.423 237.45C200.489 237.38 200.569 237.324 200.657 237.286C200.745 237.248 200.84 237.229 200.936 237.229H209.635C209.734 237.224 209.833 237.24 209.925 237.276C210.017 237.312 210.101 237.367 210.17 237.437C210.24 237.508 210.295 237.592 210.33 237.685C210.366 237.777 210.382 237.877 210.377 237.976V239.233C210.377 239.328 210.358 239.422 210.32 239.509C210.282 239.596 210.226 239.674 210.156 239.738C210.086 239.802 210.004 239.851 209.914 239.88C209.824 239.91 209.729 239.921 209.635 239.911H201.613V242.799H210.344C212.502 242.799 213.716 241.507 213.716 239.402V237.772C213.716 235.598 212.468 234.375 210.344 234.375H200.259Z" fill="white"/>
</g>
<g filter="url(#filter1_d_1699_17987)">
<circle cx="125.546" cy="195.86" r="20.5796" fill="white"/>
<circle cx="125.546" cy="195.86" r="20.0796" stroke="#499A9A"/>
</g>
<g clip-path="url(#clip1_1699_17987)">
<path d="M122.668 186.889C119.761 186.889 117.404 189.245 117.404 192.153" stroke="#499A9A" stroke-width="1.5" stroke-miterlimit="10" stroke-linecap="round" stroke-linejoin="round"/>
<path d="M115.797 191.453L117.405 193.061L119.013 191.453" stroke="#499A9A" stroke-width="1.5" stroke-miterlimit="10" stroke-linecap="round" stroke-linejoin="round"/>
<path d="M128.424 205.688C131.331 205.688 133.688 203.332 133.688 200.424" stroke="#499A9A" stroke-width="1.5" stroke-miterlimit="10" stroke-linecap="round" stroke-linejoin="round"/>
<path d="M135.296 201.124L133.688 199.516L132.08 201.124" stroke="#499A9A" stroke-width="1.5" stroke-miterlimit="10" stroke-linecap="round" stroke-linejoin="round"/>
<path d="M123.672 201.72V204.741" stroke="#499A9A" stroke-width="1.5" stroke-miterlimit="10" stroke-linecap="round" stroke-linejoin="round"/>
<path d="M113.875 204.741V201.667" stroke="#499A9A" stroke-width="1.5" stroke-miterlimit="10" stroke-linecap="round" stroke-linejoin="round"/>
<path d="M124.137 201.584H113.41C112.861 201.584 112.416 201.138 112.416 200.589V198.016C112.416 197.467 112.861 197.021 113.41 197.021H124.137C124.686 197.021 125.131 197.467 125.131 198.016V200.589C125.131 201.138 124.686 201.584 124.137 201.584Z" stroke="#499A9A" stroke-width="1.5" stroke-miterlimit="10" stroke-linecap="round" stroke-linejoin="round"/>
<path d="M124.137 209.419H113.41C112.861 209.419 112.416 208.973 112.416 208.424V205.851C112.416 205.302 112.861 204.856 113.41 204.856H124.137C124.686 204.856 125.131 205.302 125.131 205.851V208.424C125.131 208.973 124.686 209.419 124.137 209.419Z" stroke="#499A9A" stroke-width="1.5" stroke-miterlimit="10" stroke-linecap="round" stroke-linejoin="round"/>
<circle cx="117.949" cy="199.302" r="0.589519" fill="#499A9A"/>
<circle cx="115.183" cy="199.302" r="0.589519" fill="#499A9A"/>
<circle cx="122.365" cy="207.137" r="0.589519" fill="#499A9A"/>
<circle cx="119.599" cy="207.137" r="0.589519" fill="#499A9A"/>
<path d="M137.217 187.825V190.834" stroke="#499A9A" stroke-width="1.5" stroke-miterlimit="10" stroke-linecap="round" stroke-linejoin="round"/>
<path d="M127.42 190.834V187.825" stroke="#499A9A" stroke-width="1.5" stroke-miterlimit="10" stroke-linecap="round" stroke-linejoin="round"/>
<path d="M137.682 187.72H126.955C126.406 187.72 125.961 187.275 125.961 186.726V184.152C125.961 183.603 126.406 183.158 126.955 183.158H137.682C138.231 183.158 138.676 183.603 138.676 184.152V186.726C138.676 187.275 138.231 187.72 137.682 187.72Z" stroke="#499A9A" stroke-width="1.5" stroke-miterlimit="10" stroke-linecap="round" stroke-linejoin="round"/>
<path d="M137.682 195.555H126.955C126.406 195.555 125.961 195.11 125.961 194.561V191.987C125.961 191.438 126.406 190.993 126.955 190.993H137.682C138.231 190.993 138.676 191.438 138.676 191.987V194.561C138.676 195.11 138.231 195.555 137.682 195.555Z" stroke="#499A9A" stroke-width="1.5" stroke-miterlimit="10" stroke-linecap="round" stroke-linejoin="round"/>
<circle cx="131.494" cy="185.439" r="0.589519" fill="#499A9A"/>
<circle cx="128.726" cy="185.439" r="0.589519" fill="#499A9A"/>
<circle cx="135.91" cy="193.275" r="0.589519" fill="#499A9A"/>
<circle cx="133.142" cy="193.275" r="0.589519" fill="#499A9A"/>
</g>
<g filter="url(#filter2_d_1699_17987)">
<circle cx="135.835" cy="105.824" r="20.5796" fill="white"/>
<circle cx="135.835" cy="105.824" r="20.0796" stroke="#499A9A"/>
</g>
<g clip-path="url(#clip2_1699_17987)">
<mask id="mask0_1699_17987" style="mask-type:luminance" maskUnits="userSpaceOnUse" x="122" y="92" width="28" height="28">
<path d="M149.127 92.9614H122.545V119.543H149.127V92.9614Z" fill="white"/>
</mask>
<g mask="url(#mask0_1699_17987)">
<mask id="mask1_1699_17987" style="mask-type:luminance" maskUnits="userSpaceOnUse" x="122" y="92" width="28" height="28">
<path d="M122.545 92.9615H149.127V119.543H122.545V92.9615Z" fill="white"/>
</mask>
<g mask="url(#mask1_1699_17987)">
<path d="M142.116 102.653C140.117 99.1914 135.69 98.0052 132.228 100.004C128.766 102.003 127.58 106.43 129.578 109.892C131.577 113.354 136.004 114.54 139.466 112.541C142.928 110.542 144.114 106.116 142.116 102.653Z" stroke="#499A9A" stroke-width="1.5" stroke-miterlimit="10" stroke-linecap="round" stroke-linejoin="round"/>
<path d="M142.115 102.653L141.5 103.009" stroke="#499A9A" stroke-width="1.5" stroke-miterlimit="10" stroke-linecap="round" stroke-linejoin="round"/>
<path d="M130.194 109.537L129.578 109.892" stroke="#499A9A" stroke-width="1.5" stroke-miterlimit="10" stroke-linecap="round" stroke-linejoin="round"/>
<path d="M139.465 100.004L139.109 100.62" stroke="#499A9A" stroke-width="1.5" stroke-miterlimit="10" stroke-linecap="round" stroke-linejoin="round"/>
<path d="M135.848 99.0344V99.7451" stroke="#499A9A" stroke-width="1.5" stroke-miterlimit="10" stroke-linecap="round" stroke-linejoin="round"/>
<path d="M132.229 100.004L132.584 100.62" stroke="#499A9A" stroke-width="1.5" stroke-miterlimit="10" stroke-linecap="round" stroke-linejoin="round"/>
<path d="M129.578 102.653L130.194 103.009" stroke="#499A9A" stroke-width="1.5" stroke-miterlimit="10" stroke-linecap="round" stroke-linejoin="round"/>
<path d="M141.5 109.537L142.115 109.892" stroke="#499A9A" stroke-width="1.5" stroke-miterlimit="10" stroke-linecap="round" stroke-linejoin="round"/>
<path d="M128.607 106.273H129.318" stroke="#499A9A" stroke-width="1.5" stroke-miterlimit="10" stroke-linecap="round" stroke-linejoin="round"/>
<path d="M142.373 106.273H143.084" stroke="#499A9A" stroke-width="1.5" stroke-miterlimit="10" stroke-linecap="round" stroke-linejoin="round"/>
<path d="M136.561 106.824C136.162 107.055 135.651 106.918 135.421 106.518C135.19 106.119 135.327 105.609 135.726 105.378C136.125 105.147 136.636 105.284 136.867 105.684C137.097 106.083 136.96 106.593 136.561 106.824Z" stroke="#499A9A" stroke-width="1.5" stroke-miterlimit="10" stroke-linecap="round" stroke-linejoin="round"/>
<path d="M136.562 106.824H136.561" stroke="#499A9A" stroke-width="1.5" stroke-miterlimit="10" stroke-linecap="round" stroke-linejoin="round"/>
<path d="M140.493 103.773C140.64 103.659 140.507 103.428 140.335 103.498L135.977 105.284C136.319 105.214 136.682 105.365 136.866 105.684C137.05 106.003 136.999 106.393 136.768 106.654L140.493 103.773Z" stroke="#499A9A" stroke-width="1.5" stroke-miterlimit="10" stroke-linecap="round" stroke-linejoin="round"/>
<path d="M135.727 105.378H135.728" stroke="#499A9A" stroke-width="1.5" stroke-miterlimit="10" stroke-linecap="round" stroke-linejoin="round"/>
<path d="M138.659 105.194L136.771 106.654V106.654C136.713 106.72 136.644 106.778 136.563 106.824C136.164 107.055 135.654 106.918 135.423 106.519C135.192 106.119 135.329 105.609 135.729 105.378C135.809 105.332 135.894 105.301 135.98 105.284H135.98L138.188 104.379C137.291 103.276 135.703 102.956 134.432 103.689C133.023 104.503 132.541 106.304 133.354 107.713C134.168 109.122 135.969 109.605 137.378 108.791C138.648 108.058 139.165 106.522 138.659 105.194Z" stroke="#499A9A" stroke-width="1.5" stroke-miterlimit="10" stroke-linecap="round" stroke-linejoin="round"/>
<path d="M136.746 119.153H137.194C137.609 119.153 137.946 118.817 137.946 118.402V116.346C137.946 116.249 138.014 116.165 138.109 116.143C139.23 115.887 140.279 115.445 141.224 114.852C141.307 114.8 141.415 114.811 141.484 114.88L143.085 116.481C143.297 116.693 143.641 116.693 143.853 116.481L145.919 114.416C146.212 114.122 146.212 113.646 145.919 113.353L144.465 111.899C144.396 111.83 144.385 111.722 144.437 111.639C145.03 110.694 145.472 109.645 145.728 108.524C145.75 108.429 145.834 108.361 145.932 108.361H147.987C148.402 108.361 148.738 108.024 148.738 107.609V107.109" stroke="#499A9A" stroke-width="1.5" stroke-miterlimit="10" stroke-linecap="round" stroke-linejoin="round"/>
<path d="M148.735 105.292V104.896C148.735 104.481 148.399 104.144 147.983 104.144H145.928C145.831 104.144 145.747 104.076 145.725 103.981C145.469 102.861 145.027 101.811 144.434 100.866C144.382 100.783 144.393 100.675 144.462 100.606L145.916 99.1526C146.209 98.859 146.209 98.383 145.916 98.0894L143.998 96.1713C143.704 95.8777 143.228 95.8777 142.934 96.1713L141.481 97.625C141.411 97.6942 141.304 97.7052 141.221 97.6532C140.276 97.06 139.226 96.6183 138.106 96.362C138.011 96.3402 137.943 96.2564 137.943 96.1586V94.1036C137.943 93.6884 137.606 93.3518 137.191 93.3518H134.478C134.063 93.3518 133.726 93.6884 133.726 94.1036V96.1586C133.726 96.2564 133.658 96.3402 133.563 96.362C132.442 96.6183 131.393 97.06 130.448 97.6532C130.365 97.7052 130.257 97.6942 130.188 97.625L128.734 96.1713C128.441 95.8777 127.965 95.8777 127.671 96.1713L125.753 98.0894C125.46 98.383 125.46 98.859 125.753 99.1526L127.207 100.606C127.276 100.675 127.287 100.783 127.235 100.866C126.642 101.811 126.2 102.861 125.944 103.981C125.922 104.076 125.838 104.144 125.74 104.144H123.685C123.27 104.144 122.934 104.481 122.934 104.896V107.609C122.934 108.024 123.27 108.361 123.685 108.361H125.74C125.838 108.361 125.922 108.429 125.944 108.524C126.2 109.645 126.642 110.694 127.235 111.639C127.287 111.722 127.276 111.83 127.207 111.899L125.753 113.353C125.46 113.646 125.46 114.122 125.753 114.416L127.819 116.481C128.031 116.693 128.375 116.693 128.587 116.481L130.188 114.88C130.257 114.811 130.365 114.8 130.448 114.852C131.393 115.445 132.442 115.887 133.563 116.143C133.658 116.165 133.726 116.249 133.726 116.347V118.402C133.726 118.817 134.063 119.153 134.478 119.153H134.926" stroke="#499A9A" stroke-width="1.5" stroke-miterlimit="10" stroke-linecap="round" stroke-linejoin="round"/>
</g>
</g>
</g>
<g filter="url(#filter3_d_1699_17987)">
<circle cx="74.9546" cy="248.166" r="20.5796" fill="white"/>
<circle cx="74.9546" cy="248.166" r="20.0796" stroke="#499A9A"/>
</g>
<g clip-path="url(#clip3_1699_17987)">
<path d="M76.3691 248.501H77.3863C77.9017 248.501 78.3194 248.919 78.3194 249.434V251.045C78.3194 251.56 77.9016 251.978 77.3863 251.978H76.3691" stroke="#499A9A" stroke-width="1.375" stroke-miterlimit="10" stroke-linecap="round" stroke-linejoin="round"/>
<path d="M69.4209 251.979H68.4038C67.8884 251.979 67.4707 251.561 67.4707 251.046V249.434C67.4707 248.919 67.8885 248.501 68.4038 248.501H69.4209" stroke="#499A9A" stroke-width="1.375" stroke-miterlimit="10" stroke-linecap="round" stroke-linejoin="round"/>
<path d="M79.3378 245.707C80.1507 246.931 80.6244 248.399 80.6244 249.978C80.6244 254.246 77.1639 257.706 72.8952 257.706C68.6265 257.706 65.166 254.246 65.166 249.978C65.166 245.71 68.6265 242.25 72.8952 242.25C74.7767 242.25 76.5012 242.923 77.8415 244.04" stroke="#499A9A" stroke-width="1.375" stroke-miterlimit="10" stroke-linecap="round" stroke-linejoin="round"/>
<path d="M77.2853 240.752C76.6161 240.43 75.9063 240.179 75.1658 240.01L74.9108 238.852H70.8805L70.6256 240.01C69.4965 240.268 68.4391 240.716 67.4875 241.317L66.4918 240.679L63.642 243.543L64.2769 244.544C63.6786 245.5 63.2335 246.563 62.9762 247.697L61.8242 247.953V252.004L62.9762 252.26C63.2335 253.395 63.6786 254.457 64.2769 255.414L63.642 256.414L66.4918 259.278L67.4876 258.64C68.4391 259.241 69.4966 259.689 70.6256 259.947L70.8806 261.105H74.9109L75.1658 259.947C76.2948 259.689 77.3523 259.241 78.3038 258.64L79.2995 259.278L82.1494 256.414L81.5145 255.414C82.1128 254.457 82.5579 253.395 82.8152 252.26L83.9672 252.004V247.953L82.8152 247.697C82.723 247.291 82.6066 246.893 82.4678 246.507" stroke="#499A9A" stroke-width="1.375" stroke-miterlimit="10" stroke-linecap="round" stroke-linejoin="round"/>
<path d="M69.7676 252.149V248.209C69.7676 246.481 71.168 245.08 72.8954 245.08C74.6229 245.08 76.0232 246.481 76.0232 248.209V252.146C76.0232 252.819 75.4777 253.365 74.8047 253.365H72.8954" stroke="#499A9A" stroke-width="1.375" stroke-miterlimit="10" stroke-linecap="round" stroke-linejoin="round"/>
<path d="M78.0753 243.686C77.6442 242.949 77.3984 242.099 77.3984 241.195C77.3984 238.372 79.7908 236.084 82.7418 236.084C85.6928 236.084 88.0851 238.372 88.0851 241.195C88.0851 244.017 85.6928 246.305 82.7418 246.305C81.7407 246.305 80.804 246.042 80.0031 245.584L77.8152 245.369L78.0753 243.686Z" stroke="#499A9A" stroke-width="1.375" stroke-miterlimit="10" stroke-linecap="round" stroke-linejoin="round"/>
<circle cx="80.6676" cy="241.3" r="0.589519" fill="#499A9A"/>
<circle cx="82.7419" cy="241.3" r="0.589519" fill="#499A9A"/>
<circle cx="84.8161" cy="241.3" r="0.589519" fill="#499A9A"/>
</g>
<g filter="url(#filter4_d_1699_17987)">
<circle cx="228.443" cy="116.114" r="20.5796" fill="white"/>
<circle cx="228.443" cy="116.114" r="20.0796" stroke="#499A9A"/>
</g>
<g clip-path="url(#clip4_1699_17987)">
<path d="M233.802 116.167V103.198H216.652V126.243H228.538M228.443 110.701L230.586 108.557M230.586 108.557L228.443 106.413M230.586 108.557H222.012M222.012 111.773L219.868 113.916M219.868 113.916L222.012 116.06M219.868 113.916H228.443M239.487 121.206C238.415 121.825 238.415 123.372 239.487 123.991L240.233 124.421L238.625 127.206L237.879 126.775C236.807 126.157 235.467 126.93 235.467 128.168V129.029H232.252V128.168C232.252 126.93 230.912 126.157 229.84 126.775L229.094 127.206L227.486 124.421L228.232 123.991C229.304 123.372 229.304 121.825 228.232 121.206L227.486 120.775L229.094 117.99L229.84 118.421C230.912 119.04 232.252 118.266 232.252 117.029V116.167H235.467V117.029C235.467 118.266 236.807 119.04 237.879 118.421L238.625 117.99L240.233 120.775L239.487 121.206ZM233.86 120.991C232.972 120.991 232.252 121.71 232.252 122.598C232.252 123.486 232.972 124.206 233.86 124.206C234.748 124.206 235.467 123.486 235.467 122.598C235.467 121.71 234.748 120.991 233.86 120.991Z" stroke="#499A9A" stroke-width="1.5" stroke-miterlimit="10" stroke-linecap="round" stroke-linejoin="round"/>
</g>
<circle opacity="0.8" cx="286.131" cy="115.375" r="4" fill="#28B67E"/>
<defs>
<filter id="filter0_d_1699_17987" x="221.232" y="0" width="149.908" height="149.909" filterUnits="userSpaceOnUse" color-interpolation-filters="sRGB">
<feFlood flood-opacity="0" result="BackgroundImageFix"/>
<feColorMatrix in="SourceAlpha" type="matrix" values="0 0 0 0 0 0 0 0 0 0 0 0 0 0 0 0 0 0 127 0" result="hardAlpha"/>
<feMorphology radius="9.375" operator="dilate" in="SourceAlpha" result="effect1_dropShadow_1699_17987"/>
<feOffset/>
<feGaussianBlur stdDeviation="22.5"/>
<feComposite in2="hardAlpha" operator="out"/>
<feColorMatrix type="matrix" values="0 0 0 0 0.286275 0 0 0 0 0.603922 0 0 0 0 0.603922 0 0 0 0.48 0"/>
<feBlend mode="normal" in2="BackgroundImageFix" result="effect1_dropShadow_1699_17987"/>
<feBlend mode="normal" in="SourceGraphic" in2="effect1_dropShadow_1699_17987" result="shape"/>
</filter>
<filter id="filter1_d_1699_17987" x="50.5918" y="120.905" width="149.908" height="149.909" filterUnits="userSpaceOnUse" color-interpolation-filters="sRGB">
<feFlood flood-opacity="0" result="BackgroundImageFix"/>
<feColorMatrix in="SourceAlpha" type="matrix" values="0 0 0 0 0 0 0 0 0 0 0 0 0 0 0 0 0 0 127 0" result="hardAlpha"/>
<feMorphology radius="9.375" operator="dilate" in="SourceAlpha" result="effect1_dropShadow_1699_17987"/>
<feOffset/>
<feGaussianBlur stdDeviation="22.5"/>
<feComposite in2="hardAlpha" operator="out"/>
<feColorMatrix type="matrix" values="0 0 0 0 0.286275 0 0 0 0 0.603922 0 0 0 0 0.603922 0 0 0 0.48 0"/>
<feBlend mode="normal" in2="BackgroundImageFix" result="effect1_dropShadow_1699_17987"/>
<feBlend mode="normal" in="SourceGraphic" in2="effect1_dropShadow_1699_17987" result="shape"/>
</filter>
<filter id="filter2_d_1699_17987" x="60.8809" y="30.8691" width="149.908" height="149.909" filterUnits="userSpaceOnUse" color-interpolation-filters="sRGB">
<feFlood flood-opacity="0" result="BackgroundImageFix"/>
<feColorMatrix in="SourceAlpha" type="matrix" values="0 0 0 0 0 0 0 0 0 0 0 0 0 0 0 0 0 0 127 0" result="hardAlpha"/>
<feMorphology radius="9.375" operator="dilate" in="SourceAlpha" result="effect1_dropShadow_1699_17987"/>
<feOffset/>
<feGaussianBlur stdDeviation="22.5"/>
<feComposite in2="hardAlpha" operator="out"/>
<feColorMatrix type="matrix" values="0 0 0 0 0.286275 0 0 0 0 0.603922 0 0 0 0 0.603922 0 0 0 0.48 0"/>
<feBlend mode="normal" in2="BackgroundImageFix" result="effect1_dropShadow_1699_17987"/>
<feBlend mode="normal" in="SourceGraphic" in2="effect1_dropShadow_1699_17987" result="shape"/>
</filter>
<filter id="filter3_d_1699_17987" x="0" y="173.211" width="149.908" height="149.909" filterUnits="userSpaceOnUse" color-interpolation-filters="sRGB">
<feFlood flood-opacity="0" result="BackgroundImageFix"/>
<feColorMatrix in="SourceAlpha" type="matrix" values="0 0 0 0 0 0 0 0 0 0 0 0 0 0 0 0 0 0 127 0" result="hardAlpha"/>
<feMorphology radius="9.375" operator="dilate" in="SourceAlpha" result="effect1_dropShadow_1699_17987"/>
<feOffset/>
<feGaussianBlur stdDeviation="22.5"/>
<feComposite in2="hardAlpha" operator="out"/>
<feColorMatrix type="matrix" values="0 0 0 0 0.286275 0 0 0 0 0.603922 0 0 0 0 0.603922 0 0 0 0.48 0"/>
<feBlend mode="normal" in2="BackgroundImageFix" result="effect1_dropShadow_1699_17987"/>
<feBlend mode="normal" in="SourceGraphic" in2="effect1_dropShadow_1699_17987" result="shape"/>
</filter>
<filter id="filter4_d_1699_17987" x="153.488" y="41.1592" width="149.908" height="149.909" filterUnits="userSpaceOnUse" color-interpolation-filters="sRGB">
<feFlood flood-opacity="0" result="BackgroundImageFix"/>
<feColorMatrix in="SourceAlpha" type="matrix" values="0 0 0 0 0 0 0 0 0 0 0 0 0 0 0 0 0 0 127 0" result="hardAlpha"/>
<feMorphology radius="9.375" operator="dilate" in="SourceAlpha" result="effect1_dropShadow_1699_17987"/>
<feOffset/>
<feGaussianBlur stdDeviation="22.5"/>
<feComposite in2="hardAlpha" operator="out"/>
<feColorMatrix type="matrix" values="0 0 0 0 0.286275 0 0 0 0 0.603922 0 0 0 0 0.603922 0 0 0 0.48 0"/>
<feBlend mode="normal" in2="BackgroundImageFix" result="effect1_dropShadow_1699_17987"/>
<feBlend mode="normal" in="SourceGraphic" in2="effect1_dropShadow_1699_17987" result="shape"/>
</filter>
<radialGradient id="paint0_radial_1699_17987" cx="0" cy="0" r="1" gradientUnits="userSpaceOnUse" gradientTransform="translate(249.887 240.875) rotate(90) scale(174.5 175)">
<stop offset="0.6875" stop-color="#193434" stop-opacity="0"/>
<stop offset="1" stop-color="#499A9A" stop-opacity="0.2"/>
</radialGradient>
<radialGradient id="paint1_radial_1699_17987" cx="0" cy="0" r="1" gradientUnits="userSpaceOnUse" gradientTransform="translate(249.387 240.875) rotate(90) scale(131.5)">
<stop offset="0.6875" stop-color="#193434" stop-opacity="0"/>
<stop offset="1" stop-color="#499A9A" stop-opacity="0.2"/>
</radialGradient>
<linearGradient id="paint2_linear_1699_17987" x1="249.387" y1="148.375" x2="249.387" y2="334.375" gradientUnits="userSpaceOnUse">
<stop stop-color="#008080"/>
<stop offset="0.67478" stop-color="#082326" stop-opacity="0"/>
</linearGradient>
<clipPath id="clip0_1699_17987">
<rect width="105" height="14" fill="white" transform="translate(196.887 234.375)"/>
</clipPath>
<clipPath id="clip1_1699_17987">
<rect width="27.4394" height="27.4394" fill="white" transform="translate(111.826 182.569)"/>
</clipPath>
<clipPath id="clip2_1699_17987">
<rect width="27.4394" height="27.4394" fill="white" transform="translate(122.115 92.5327)"/>
</clipPath>
<clipPath id="clip3_1699_17987">
<rect width="27.4394" height="27.4394" fill="white" transform="translate(61.2344 234.875)"/>
</clipPath>
<clipPath id="clip4_1699_17987">
<rect width="27.4394" height="27.4394" fill="white" transform="translate(214.723 102.394)"/>
</clipPath>
</defs>
</svg>
