<svg width="404" height="205" viewBox="0 0 404 205" fill="none" xmlns="http://www.w3.org/2000/svg">
<g filter="url(#filter0_d_3735_20445)">
<path d="M110.892 86.5573H109.202C100.018 86.5573 92.5649 79.0904 92.5649 69.8899C92.5649 60.6893 85.1116 53.2224 75.9279 53.2224H52.3145" stroke="white" stroke-width="0.78" stroke-miterlimit="10"/>
<path d="M110.892 84.9878H109.202C100.018 84.9878 92.5649 92.4547 92.5649 101.655C92.5649 110.856 85.1116 118.323 75.9279 118.323H52.3145" stroke="white" stroke-width="0.78" stroke-miterlimit="10"/>
<path d="M288.164 80.3328H308.48V63.2831C308.48 49.2912 319.803 37.9612 333.756 37.9612H356.988" stroke="white" stroke-width="0.78" stroke-miterlimit="10"/>
<path d="M357 80.3328H308.492V90.7619C308.492 104.754 319.815 116.084 333.768 116.084H359.425" stroke="white" stroke-width="0.78" stroke-miterlimit="10"/>
<path d="M224.926 145.706H264.291" stroke="white" stroke-width="0.78" stroke-miterlimit="10"/>
<path d="M220.854 144.381H224.165C232.435 144.381 239.139 137.665 239.139 129.379V98.7745C239.139 90.4886 245.843 83.7725 254.114 83.7725H280.657" stroke="white" stroke-width="0.78" stroke-miterlimit="10"/>
<path d="M177.524 144.381H174.213C165.942 144.381 159.238 137.665 159.238 129.379V98.7745C159.238 90.4886 152.534 83.7725 144.264 83.7725H117.721" stroke="white" stroke-width="0.78" stroke-miterlimit="10"/>
<g filter="url(#filter1_d_3735_20445)">
<path d="M219.001 120.793H181.298C176.768 120.793 173.096 124.472 173.096 129.011V166.782C173.096 171.321 176.768 175 181.298 175H219.001C223.531 175 227.204 171.321 227.204 166.782V129.011C227.204 124.472 223.531 120.793 219.001 120.793Z" fill="#499A9A"/>
</g>
<g filter="url(#filter2_d_3735_20445)">
<path d="M288.779 72.115H272.564C270.615 72.115 269.035 73.6979 269.035 75.6505V91.8948C269.035 93.8474 270.615 95.4303 272.564 95.4303H288.779C290.728 95.4303 292.308 93.8474 292.308 91.8948V75.6505C292.308 73.6979 290.728 72.115 288.779 72.115Z" fill="#499A9A"/>
</g>
<path d="M368.72 23H352.506C350.557 23 348.977 24.5829 348.977 26.5355V42.7798C348.977 44.7324 350.557 46.3153 352.506 46.3153H368.72C370.669 46.3153 372.249 44.7324 372.249 42.7798V26.5355C372.249 24.5829 370.669 23 368.72 23Z" fill="#506E86"/>
<path d="M368.72 63.72H352.506C350.557 63.72 348.977 65.3029 348.977 67.2555V83.4998C348.977 85.4524 350.557 87.0353 352.506 87.0353H368.72C370.669 87.0353 372.249 85.4524 372.249 83.4998V67.2555C372.249 65.3029 370.669 63.72 368.72 63.72Z" fill="#506E86"/>
<path d="M368.72 104.426H352.506C350.557 104.426 348.977 106.009 348.977 107.962V124.206C348.977 126.158 350.557 127.741 352.506 127.741H368.72C370.669 127.741 372.249 126.158 372.249 124.206V107.962C372.249 106.009 370.669 104.426 368.72 104.426Z" fill="#E5E3E3"/>
<g filter="url(#filter3_d_3735_20445)">
<path d="M277.14 134.034H260.926C258.976 134.034 257.396 135.617 257.396 137.57V153.814C257.396 155.767 258.976 157.35 260.926 157.35H277.14C279.089 157.35 280.669 155.767 280.669 153.814V137.57C280.669 135.617 279.089 134.034 277.14 134.034Z" fill="#16808B"/>
</g>
<g filter="url(#filter4_d_3735_20445)">
<path d="M342.326 145.951H326.111C324.162 145.951 322.582 147.534 322.582 149.487V165.731C322.582 167.684 324.162 169.267 326.111 169.267H342.326C344.275 169.267 345.855 167.684 345.855 165.731V149.487C345.855 147.534 344.275 145.951 342.326 145.951Z" fill="#16808B"/>
</g>
<g filter="url(#filter5_d_3735_20445)">
<path d="M121.318 74.8862H105.103C103.154 74.8862 101.574 76.4691 101.574 78.4217V94.666C101.574 96.6186 103.154 98.2015 105.103 98.2015H121.318C123.267 98.2015 124.847 96.6186 124.847 94.666V78.4217C124.847 76.4691 123.267 74.8862 121.318 74.8862Z" fill="#16808B"/>
</g>
<g filter="url(#filter6_d_3735_20445)">
<path d="M59.605 106.651H43.3904C41.4413 106.651 39.8613 108.234 39.8613 110.187V126.431C39.8613 128.384 41.4413 129.966 43.3904 129.966H59.605C61.5541 129.966 63.1341 128.384 63.1341 126.431V110.187C63.1341 108.234 61.5541 106.651 59.605 106.651Z" fill="#16808B"/>
</g>
<path d="M206.466 140.559H186.531V142.075H206.466V140.559Z" fill="url(#paint0_linear_3735_20445)"/>
<path d="M213.783 144.941H186.531V146.457H213.783V144.941Z" fill="white"/>
<path d="M213.783 149.337H186.531V150.852H213.783V149.337Z" fill="white"/>
<path d="M213.783 153.719H186.531V155.234H213.783V153.719Z" fill="white"/>
<g filter="url(#filter7_d_3735_20445)">
<path d="M56.7437 42.2886H40.5291C38.58 42.2886 37 43.8715 37 45.8241V62.0684C37 64.021 38.58 65.6039 40.5291 65.6039H56.7437C58.6928 65.6039 60.2728 64.021 60.2728 62.0684V45.8241C60.2728 43.8715 58.6928 42.2886 56.7437 42.2886Z" fill="#499A9A"/>
</g>
</g>
<defs>
<filter id="filter0_d_3735_20445" x="0" y="0" width="403.25" height="220" filterUnits="userSpaceOnUse" color-interpolation-filters="sRGB">
<feFlood flood-opacity="0" result="BackgroundImageFix"/>
<feColorMatrix in="SourceAlpha" type="matrix" values="0 0 0 0 0 0 0 0 0 0 0 0 0 0 0 0 0 0 127 0" result="hardAlpha"/>
<feOffset dx="-3" dy="11"/>
<feGaussianBlur stdDeviation="17"/>
<feComposite in2="hardAlpha" operator="out"/>
<feColorMatrix type="matrix" values="0 0 0 0 0.286275 0 0 0 0 0.603922 0 0 0 0 0.603922 0 0 0 0.2 0"/>
<feBlend mode="normal" in2="BackgroundImageFix" result="effect1_dropShadow_3735_20445"/>
<feBlend mode="normal" in="SourceGraphic" in2="effect1_dropShadow_3735_20445" result="shape"/>
</filter>
<filter id="filter1_d_3735_20445" x="166.096" y="114.793" width="82.1074" height="82.2068" filterUnits="userSpaceOnUse" color-interpolation-filters="sRGB">
<feFlood flood-opacity="0" result="BackgroundImageFix"/>
<feColorMatrix in="SourceAlpha" type="matrix" values="0 0 0 0 0 0 0 0 0 0 0 0 0 0 0 0 0 0 127 0" result="hardAlpha"/>
<feOffset dx="7" dy="8"/>
<feGaussianBlur stdDeviation="7"/>
<feComposite in2="hardAlpha" operator="out"/>
<feColorMatrix type="matrix" values="0 0 0 0 0.286275 0 0 0 0 0.603922 0 0 0 0 0.603922 0 0 0 0.3 0"/>
<feBlend mode="normal" in2="BackgroundImageFix" result="effect1_dropShadow_3735_20445"/>
<feBlend mode="normal" in="SourceGraphic" in2="effect1_dropShadow_3735_20445" result="shape"/>
</filter>
<filter id="filter2_d_3735_20445" x="262.035" y="66.115" width="51.2734" height="51.3154" filterUnits="userSpaceOnUse" color-interpolation-filters="sRGB">
<feFlood flood-opacity="0" result="BackgroundImageFix"/>
<feColorMatrix in="SourceAlpha" type="matrix" values="0 0 0 0 0 0 0 0 0 0 0 0 0 0 0 0 0 0 127 0" result="hardAlpha"/>
<feOffset dx="7" dy="8"/>
<feGaussianBlur stdDeviation="7"/>
<feComposite in2="hardAlpha" operator="out"/>
<feColorMatrix type="matrix" values="0 0 0 0 0.286275 0 0 0 0 0.603922 0 0 0 0 0.603922 0 0 0 0.3 0"/>
<feBlend mode="normal" in2="BackgroundImageFix" result="effect1_dropShadow_3735_20445"/>
<feBlend mode="normal" in="SourceGraphic" in2="effect1_dropShadow_3735_20445" result="shape"/>
</filter>
<filter id="filter3_d_3735_20445" x="250.396" y="128.034" width="51.2734" height="51.3154" filterUnits="userSpaceOnUse" color-interpolation-filters="sRGB">
<feFlood flood-opacity="0" result="BackgroundImageFix"/>
<feColorMatrix in="SourceAlpha" type="matrix" values="0 0 0 0 0 0 0 0 0 0 0 0 0 0 0 0 0 0 127 0" result="hardAlpha"/>
<feOffset dx="7" dy="8"/>
<feGaussianBlur stdDeviation="7"/>
<feComposite in2="hardAlpha" operator="out"/>
<feColorMatrix type="matrix" values="0 0 0 0 0.286275 0 0 0 0 0.603922 0 0 0 0 0.603922 0 0 0 0.3 0"/>
<feBlend mode="normal" in2="BackgroundImageFix" result="effect1_dropShadow_3735_20445"/>
<feBlend mode="normal" in="SourceGraphic" in2="effect1_dropShadow_3735_20445" result="shape"/>
</filter>
<filter id="filter4_d_3735_20445" x="315.582" y="139.951" width="51.2734" height="51.3154" filterUnits="userSpaceOnUse" color-interpolation-filters="sRGB">
<feFlood flood-opacity="0" result="BackgroundImageFix"/>
<feColorMatrix in="SourceAlpha" type="matrix" values="0 0 0 0 0 0 0 0 0 0 0 0 0 0 0 0 0 0 127 0" result="hardAlpha"/>
<feOffset dx="7" dy="8"/>
<feGaussianBlur stdDeviation="7"/>
<feComposite in2="hardAlpha" operator="out"/>
<feColorMatrix type="matrix" values="0 0 0 0 0.286275 0 0 0 0 0.603922 0 0 0 0 0.603922 0 0 0 0.3 0"/>
<feBlend mode="normal" in2="BackgroundImageFix" result="effect1_dropShadow_3735_20445"/>
<feBlend mode="normal" in="SourceGraphic" in2="effect1_dropShadow_3735_20445" result="shape"/>
</filter>
<filter id="filter5_d_3735_20445" x="94.5742" y="68.8862" width="51.2734" height="51.3154" filterUnits="userSpaceOnUse" color-interpolation-filters="sRGB">
<feFlood flood-opacity="0" result="BackgroundImageFix"/>
<feColorMatrix in="SourceAlpha" type="matrix" values="0 0 0 0 0 0 0 0 0 0 0 0 0 0 0 0 0 0 127 0" result="hardAlpha"/>
<feOffset dx="7" dy="8"/>
<feGaussianBlur stdDeviation="7"/>
<feComposite in2="hardAlpha" operator="out"/>
<feColorMatrix type="matrix" values="0 0 0 0 0.286275 0 0 0 0 0.603922 0 0 0 0 0.603922 0 0 0 0.3 0"/>
<feBlend mode="normal" in2="BackgroundImageFix" result="effect1_dropShadow_3735_20445"/>
<feBlend mode="normal" in="SourceGraphic" in2="effect1_dropShadow_3735_20445" result="shape"/>
</filter>
<filter id="filter6_d_3735_20445" x="32.8613" y="100.651" width="51.2734" height="51.3154" filterUnits="userSpaceOnUse" color-interpolation-filters="sRGB">
<feFlood flood-opacity="0" result="BackgroundImageFix"/>
<feColorMatrix in="SourceAlpha" type="matrix" values="0 0 0 0 0 0 0 0 0 0 0 0 0 0 0 0 0 0 127 0" result="hardAlpha"/>
<feOffset dx="7" dy="8"/>
<feGaussianBlur stdDeviation="7"/>
<feComposite in2="hardAlpha" operator="out"/>
<feColorMatrix type="matrix" values="0 0 0 0 0.286275 0 0 0 0 0.603922 0 0 0 0 0.603922 0 0 0 0.3 0"/>
<feBlend mode="normal" in2="BackgroundImageFix" result="effect1_dropShadow_3735_20445"/>
<feBlend mode="normal" in="SourceGraphic" in2="effect1_dropShadow_3735_20445" result="shape"/>
</filter>
<filter id="filter7_d_3735_20445" x="30" y="36.2886" width="51.2734" height="51.3152" filterUnits="userSpaceOnUse" color-interpolation-filters="sRGB">
<feFlood flood-opacity="0" result="BackgroundImageFix"/>
<feColorMatrix in="SourceAlpha" type="matrix" values="0 0 0 0 0 0 0 0 0 0 0 0 0 0 0 0 0 0 127 0" result="hardAlpha"/>
<feOffset dx="7" dy="8"/>
<feGaussianBlur stdDeviation="7"/>
<feComposite in2="hardAlpha" operator="out"/>
<feColorMatrix type="matrix" values="0 0 0 0 0.286275 0 0 0 0 0.603922 0 0 0 0 0.603922 0 0 0 0.3 0"/>
<feBlend mode="normal" in2="BackgroundImageFix" result="effect1_dropShadow_3735_20445"/>
<feBlend mode="normal" in="SourceGraphic" in2="effect1_dropShadow_3735_20445" result="shape"/>
</filter>
<linearGradient id="paint0_linear_3735_20445" x1="186.981" y1="129.898" x2="207.723" y2="154.678" gradientUnits="userSpaceOnUse">
<stop stop-color="#FF5B45"/>
<stop offset="1" stop-color="#FFA1A6"/>
</linearGradient>
</defs>
</svg>
