<svg width="292" height="169" viewBox="0 0 292 169" fill="none" xmlns="http://www.w3.org/2000/svg">
<g clip-path="url(#clip0_3736_20893)">
<path d="M146.004 169C127.045 169 108.563 166.917 91.0815 162.814C72.9746 158.562 56.7276 152.322 42.786 144.264C28.8444 136.199 18.0522 126.795 10.7063 116.31C3.60262 106.186 0 95.4819 0 84.4961C0 73.5103 3.60262 62.8063 10.6985 52.6818C18.0444 42.1971 28.8366 32.8009 42.7782 24.7357C56.712 16.6706 72.959 10.4299 91.0737 6.18589C108.563 2.08284 127.037 0 145.996 0C164.955 0 183.437 2.08284 200.919 6.18589C219.025 10.4377 235.272 16.6784 249.214 24.7357C263.156 32.8009 273.948 42.205 281.294 52.6897C288.397 62.822 291.992 73.5259 291.992 84.5039C291.992 95.4819 288.39 106.194 281.294 116.318C273.948 126.803 263.156 136.207 249.214 144.264C235.28 152.329 219.033 158.57 200.919 162.814C183.429 166.917 164.947 169 145.996 169H146.004ZM145.996 0.227077C108.649 0.227077 71.3022 8.44882 42.872 24.9002C15.3483 40.819 0.187555 61.992 0.187555 84.4961C0.187555 107 15.3483 128.173 42.872 144.1C99.7325 176.995 192.26 176.995 249.12 144.1C276.644 128.173 291.805 107.008 291.805 84.5039C291.805 61.9998 276.644 40.8269 249.12 24.9002C220.69 8.45665 183.343 0.227077 145.996 0.227077Z" fill="url(#paint0_linear_3736_20893)"/>
<path d="M146.004 135.048C122.693 135.048 100.772 129.794 84.2829 120.257C67.7781 110.712 58.6895 98.0111 58.6895 84.4961C58.6895 70.9811 67.7781 58.2883 84.2829 48.7354C100.772 39.1982 122.693 33.9441 145.996 33.9441C169.308 33.9441 191.228 39.1982 207.718 48.7354C224.223 58.2805 233.311 70.9811 233.311 84.4961C233.311 98.0111 224.223 110.704 207.718 120.257C191.228 129.794 169.308 135.048 146.004 135.048ZM145.996 34.1633C123.677 34.1633 101.366 39.0807 84.3767 48.9077C67.9344 58.4214 58.877 71.0594 58.877 84.5039C58.877 97.9484 67.9344 110.586 84.3767 120.1C118.355 139.754 173.645 139.754 207.624 120.1C224.066 110.586 233.124 97.9484 233.124 84.5039C233.124 71.0594 224.066 58.4214 207.624 48.9077C190.635 39.0807 168.315 34.1633 145.996 34.1633Z" fill="url(#paint1_linear_3736_20893)"/>
<path opacity="0.3" d="M106.983 150.153L41.4088 112.215C38.955 110.798 39.2676 108.324 42.0965 106.687L167.782 33.9755C170.611 32.339 174.893 32.1589 177.347 33.5762L242.921 71.5137C245.375 72.9309 245.063 75.4053 242.234 77.0418L116.548 149.753C113.719 151.39 109.437 151.57 106.983 150.153Z" fill="#499A9A"/>
<path d="M248.98 52.8621L240.258 54.3968L178.857 18.8789C176.302 17.399 171.84 17.5869 168.886 19.2939L50.6791 87.6675L35.3464 90.3611V95.3646C35.323 96.3278 35.8778 97.2439 37.0657 97.9251L105.461 137.491C108.016 138.971 112.479 138.783 115.432 137.076L246.526 61.2405C248.136 60.3087 248.956 59.1185 248.964 57.9909V52.8621H248.98Z" fill="#6AACAC"/>
<path style="mix-blend-mode:lighten" opacity="0.5" d="M248.98 52.8621L240.258 54.3968L178.857 18.8789C176.302 17.399 171.84 17.5869 168.886 19.2939L50.6791 87.6675L35.3464 90.3611V95.3646C35.323 96.3278 35.8778 97.2439 37.0657 97.9251L105.461 137.491C108.016 138.971 112.479 138.783 115.432 137.076L246.526 61.2405C248.136 60.3087 248.956 59.1185 248.964 57.9909V52.8621H248.98Z" fill="url(#paint2_radial_3736_20893)"/>
<path d="M246.534 58.1553L115.44 133.991C112.486 135.698 108.024 135.886 105.469 134.406L37.0735 94.84C35.8934 94.1588 35.3308 93.2348 35.3542 92.2717V93.5793C35.3308 94.5424 35.8856 95.4586 37.0735 96.1398L105.469 135.706C108.024 137.186 112.486 136.998 115.44 135.291L246.534 59.4551C248.143 58.5233 248.964 57.3332 248.972 56.2056V54.8979C248.972 56.0255 248.143 57.2157 246.534 58.1475V58.1553Z" fill="url(#paint3_radial_3736_20893)"/>
<path d="M105.47 132.386L37.0745 92.8198C34.5191 91.3399 34.8395 88.7559 37.7935 87.0489L168.879 11.2131C171.833 9.50608 176.295 9.31816 178.851 10.7981L247.246 50.3643C249.801 51.8442 249.481 54.4282 246.527 56.1351L115.434 131.971C112.48 133.678 108.017 133.866 105.462 132.386H105.47Z" fill="#6AACAC"/>
<path style="mix-blend-mode:lighten" opacity="0.7" d="M105.47 132.386L37.0745 92.8198C34.5191 91.3399 34.8395 88.7559 37.7935 87.0489L168.879 11.2131C171.833 9.50608 176.295 9.31816 178.851 10.7981L247.246 50.3643C249.801 51.8442 249.481 54.4282 246.527 56.1351L115.434 131.971C112.48 133.678 108.017 133.866 105.462 132.386H105.47Z" fill="url(#paint4_linear_3736_20893)"/>
<g opacity="0.4">
<path opacity="0.5" d="M248.98 51.8206L240.258 53.3553L178.857 17.8374C176.302 16.3575 171.84 16.5454 168.886 18.2524L50.6791 86.626L35.3464 89.3196V90.2592C35.323 91.2224 35.8778 92.1385 37.0657 92.8197L105.461 132.386C108.016 133.866 112.479 133.678 115.432 131.971L246.526 56.1351C248.136 55.2033 248.956 54.0131 248.964 52.8855V51.8206H248.98Z" fill="url(#paint5_radial_3736_20893)"/>
<path style="mix-blend-mode:lighten" opacity="0.7" d="M105.468 131.344L37.0726 91.7783C34.5171 90.2984 34.8375 87.7144 37.7915 86.0074L168.877 10.1716C171.831 8.46458 176.293 8.27665 178.849 9.75657L247.244 49.3228C249.799 50.8027 249.479 53.3866 246.525 55.0936L115.432 130.929C112.478 132.636 108.015 132.824 105.46 131.344H105.468Z" fill="url(#paint6_radial_3736_20893)"/>
<path d="M105.468 131.344L37.0726 91.7783C34.5171 90.2984 34.8375 87.7144 37.7915 86.0074L168.877 10.1716C171.831 8.46458 176.293 8.27665 178.849 9.75657L247.244 49.3228C249.799 50.8027 249.479 53.3866 246.525 55.0936L115.432 130.929C112.478 132.636 108.015 132.824 105.46 131.344H105.468Z" fill="#6AACAC"/>
</g>
<path d="M88.7583 125.362C88.7583 125.856 88.4144 126.051 87.9924 125.809C87.5704 125.566 87.2266 124.971 87.2266 124.478C87.2266 123.984 87.5704 123.788 87.9924 124.031C88.4144 124.274 88.7583 124.869 88.7583 125.362Z" fill="#529F9F"/>
<path d="M91.7817 127.108C91.7817 127.602 91.4379 127.798 91.0159 127.555C90.5939 127.312 90.25 126.717 90.25 126.224C90.25 125.73 90.5939 125.535 91.0159 125.777C91.4379 126.02 91.7817 126.615 91.7817 127.108Z" fill="#529F9F"/>
<path d="M94.8149 128.862C94.8149 129.356 94.471 129.551 94.0491 129.309C93.6271 129.066 93.2832 128.471 93.2832 127.978C93.2832 127.484 93.6271 127.288 94.0491 127.531C94.471 127.774 94.8149 128.369 94.8149 128.862Z" fill="#529F9F"/>
<path d="M47.1215 101.269C47.1215 101.762 46.7777 101.958 46.3557 101.715C45.9337 101.472 45.5898 100.877 45.5898 100.384C45.5898 99.8905 45.9337 99.6947 46.3557 99.9375C46.7777 100.18 47.1215 100.775 47.1215 101.269Z" fill="#529F9F"/>
<path d="M50.145 103.023C50.145 103.516 49.8011 103.712 49.3791 103.469C48.9571 103.226 48.6133 102.631 48.6133 102.138C48.6133 101.644 48.9571 101.449 49.3791 101.691C49.8011 101.934 50.145 102.529 50.145 103.023Z" fill="#529F9F"/>
<path d="M53.1704 104.769C53.1704 105.262 52.8265 105.458 52.4045 105.215C51.9825 104.972 51.6387 104.377 51.6387 103.884C51.6387 103.39 51.9825 103.195 52.4045 103.437C52.8265 103.68 53.1704 104.275 53.1704 104.769Z" fill="#529F9F"/>
<path opacity="0.5" d="M105.468 131.344L37.0726 91.7783C34.5171 90.2984 34.8375 87.7144 37.7915 86.0074L168.877 10.1716C171.831 8.46458 176.293 8.27665 178.849 9.75657L247.244 49.3228C249.799 50.8027 249.479 53.3866 246.525 55.0936L115.432 130.929C112.478 132.636 108.015 132.824 105.46 131.344H105.468Z" fill="url(#paint7_radial_3736_20893)"/>
<path opacity="0.5" d="M105.468 131.344L37.0726 91.7783C34.5171 90.2984 34.8375 87.7144 37.7915 86.0074L168.877 10.1716C171.831 8.46458 176.293 8.27665 178.849 9.75657L247.244 49.3228C249.799 50.8027 249.479 53.3866 246.525 55.0936L115.432 130.929C112.478 132.636 108.015 132.824 105.46 131.344H105.468Z" fill="url(#paint8_radial_3736_20893)"/>
<path opacity="0.9" d="M106.656 131.297L38.2604 91.7312C35.4862 90.0477 34.9938 88.2703 38.9794 85.9604L170.065 10.1245C171.393 9.35716 173.027 8.89517 174.66 8.76206C172.659 8.73857 170.534 9.21621 168.885 10.1715L37.7837 86.0073C34.8297 87.7143 34.5093 90.2983 37.0648 91.7782L105.46 131.344C106.867 132.159 108.852 132.464 110.844 132.292C109.274 132.276 107.773 131.947 106.648 131.297H106.656Z" fill="url(#paint9_radial_3736_20893)"/>
<path opacity="0.2" d="M229.028 58.3355C229.802 58.7818 229.802 59.51 229.028 59.9563C228.255 60.4027 226.996 60.4027 226.223 59.9563C225.449 59.51 225.449 58.7818 226.223 58.3355C226.996 57.8892 228.255 57.8892 229.028 58.3355Z" fill="#DCECEC"/>
<path opacity="0.6" d="M233.397 55.8062C234.171 56.2525 234.171 56.9807 233.397 57.427C232.624 57.8734 231.366 57.8734 230.592 57.427C229.818 56.9807 229.818 56.2525 230.592 55.8062C231.366 55.3599 232.624 55.3599 233.397 55.8062Z" fill="#DCECEC"/>
<path d="M237.772 53.2771C238.546 53.7234 238.546 54.4517 237.772 54.898C236.999 55.3443 235.741 55.3443 234.967 54.898C234.193 54.4517 234.193 53.7234 234.967 53.2771C235.741 52.8308 236.999 52.8308 237.772 53.2771Z" fill="#DCECEC"/>
<path opacity="0.6" d="M145.402 73.2598C144.394 72.6803 142.76 72.6803 141.752 73.2598L122.059 84.6528C121.051 85.2322 121.051 86.1797 122.059 86.7591L134.945 94.2135V100.736H146.222L156.928 106.93L180.271 93.4305L145.409 73.2598H145.402Z" fill="#499A9A"/>
<path opacity="0.6" d="M196.173 44.1001C195.165 43.5207 193.532 43.5207 192.524 44.1001L172.83 55.4931C171.822 56.0725 171.822 57.02 172.83 57.5994L185.717 65.0538V71.5764H196.994L207.512 77.6605L230.855 64.1612L196.173 44.1001Z" fill="#499A9A"/>
<path opacity="0.6" d="M114.635 41.5552L124.763 47.4123V53.9348H136.04L148.926 61.3892C149.934 61.9687 151.568 61.9687 152.576 61.3892L172.269 49.9962C173.277 49.4168 173.277 48.4693 172.269 47.8899L137.978 28.0559L114.635 41.5552Z" fill="#499A9A"/>
<path d="M70.4572 114.196H69.9492V110.594C69.9492 110.265 70.129 109.96 70.4103 109.803L75.8181 106.718L76.0682 107.165L70.6604 110.25C70.5353 110.32 70.4572 110.453 70.4572 110.602V114.204V114.196Z" fill="#E4F0F0"/>
<path d="M73.7013 116.647C73.7013 117.25 73.334 117.532 72.8807 117.273L67.512 114.173C67.0587 113.906 66.6914 113.202 66.6914 112.599C66.6914 111.996 67.0587 111.714 67.512 111.972L72.8807 115.073C73.334 115.339 73.7013 116.044 73.7013 116.647Z" fill="#529F9F"/>
<path d="M112.18 114.173C112.141 114.173 112.102 114.165 112.063 114.142L88.0007 100.219L74.3795 108.097C74.2701 108.159 74.1217 108.12 74.0591 108.011C73.9966 107.893 74.0357 107.752 74.1451 107.689L87.8835 99.7418C87.9538 99.7026 88.0476 99.7026 88.118 99.7418L112.18 113.664L134.827 100.54C134.944 100.478 135.085 100.517 135.155 100.627C135.218 100.744 135.179 100.885 135.069 100.955L112.305 114.149C112.305 114.149 112.227 114.181 112.188 114.181L112.18 114.173Z" fill="#E4F0F0"/>
<path d="M87.9947 100.188C87.9166 100.188 87.8306 100.149 87.7916 100.071C87.729 99.9532 87.7681 99.8122 87.8775 99.7496L121.512 80.3228L100.608 67.9745C100.538 67.9353 100.491 67.857 100.491 67.7709C100.491 67.6848 100.538 67.6065 100.608 67.5673L124.646 53.7391C124.763 53.6765 124.904 53.7156 124.967 53.8253C125.029 53.9427 124.99 54.0837 124.881 54.1463L101.202 67.7709L122.106 80.1192C122.177 80.1583 122.224 80.2366 122.224 80.3228C122.224 80.4089 122.177 80.4872 122.106 80.5264L88.1198 100.157C88.1198 100.157 88.0416 100.188 88.0026 100.188H87.9947Z" fill="#E4F0F0"/>
<path d="M122.934 80.1817C122.848 80.1817 122.77 80.1347 122.723 80.0564C122.66 79.939 122.699 79.798 122.817 79.7354L149.645 64.991C149.715 64.9519 149.801 64.9519 149.879 64.991L173.027 78.1615L185.609 71.3648C185.726 71.3022 185.867 71.3414 185.929 71.4588C185.992 71.5763 185.945 71.7172 185.835 71.7798L173.144 78.6313C173.074 78.6705 172.988 78.6705 172.917 78.6313L149.77 65.4608L123.059 80.1347C123.059 80.1347 122.981 80.166 122.942 80.166L122.934 80.1817Z" fill="#E4F0F0"/>
<path d="M155.905 76.5172L118.855 55.0858C118.37 54.8039 117.932 54.7726 117.604 54.9449L117.573 54.9605C117.573 54.9605 117.565 54.9605 117.557 54.9684L115.135 56.37L117.034 57.1843V78.9289C117.034 80.0956 117.846 81.5129 118.855 82.0923L131.741 89.5467L137.384 99.3345L143.018 96.0693L154.857 102.921L154.764 105.051L157.194 103.649C157.522 103.453 157.725 103.046 157.725 102.467V79.6806C157.725 78.5139 156.913 77.0966 155.905 76.5172Z" fill="#6AACAC"/>
<path opacity="0.5" d="M155.905 76.5172L118.855 55.0858C118.37 54.8039 117.932 54.7726 117.604 54.9449L115.135 56.3621L117.034 57.1765V78.9211C117.034 80.0878 117.846 81.505 118.855 82.0845L131.741 89.5389L137.384 99.3267L143.018 96.0614L154.857 102.913L154.764 105.043L157.194 103.641C157.522 103.445 157.725 103.038 157.725 102.459V79.6728C157.725 78.5061 156.913 77.0888 155.905 76.5093V76.5172Z" fill="#D9EAEA"/>
<path opacity="0.8" d="M155.905 76.5172L118.855 55.0858C118.37 54.8039 117.932 54.7726 117.604 54.9449L115.135 56.3621L117.034 57.1765V78.9211C117.034 80.0878 117.846 81.505 118.855 82.0845L131.741 89.5389L137.384 99.3267L143.018 96.0614L154.857 102.913L154.764 105.043L157.194 103.641C157.522 103.445 157.725 103.038 157.725 102.459V79.6728C157.725 78.5061 156.913 77.0888 155.905 76.5093V76.5172Z" fill="url(#paint10_radial_3736_20893)"/>
<path d="M153.467 77.9266L116.417 56.4953C115.408 55.9159 114.596 56.3857 114.596 57.5524V80.3384C114.596 81.5051 115.408 82.9223 116.417 83.5018L129.303 90.9562L134.945 100.744L140.588 97.4787L153.474 104.933C154.482 105.513 155.295 105.043 155.295 103.876V81.0901C155.295 79.9234 154.482 78.5061 153.474 77.9266H153.467Z" fill="#6AACAC"/>
<path opacity="0.8" d="M153.467 77.9266L116.417 56.4953C115.408 55.9159 114.596 56.3857 114.596 57.5524V80.3384C114.596 81.5051 115.408 82.9223 116.417 83.5018L129.303 90.9562L134.945 100.744L140.588 97.4787L153.474 104.933C154.482 105.513 155.295 105.043 155.295 103.876V81.0901C155.295 79.9234 154.482 78.5061 153.474 77.9266H153.467Z" fill="url(#paint11_radial_3736_20893)"/>
<path opacity="0.5" d="M153.467 77.9266L116.417 56.4953C115.408 55.9159 114.596 56.3857 114.596 57.5524V80.3384C114.596 81.5051 115.408 82.9223 116.417 83.5018L129.303 90.9562L134.945 100.744L140.588 97.4787L153.474 104.933C154.482 105.513 155.295 105.043 155.295 103.876V81.0901C155.295 79.9234 154.482 78.5061 153.474 77.9266H153.467Z" fill="#D9EAEA"/>
<path opacity="0.8" d="M153.467 77.9266L116.417 56.4953C115.408 55.9159 114.596 56.3857 114.596 57.5524V80.3384C114.596 81.5051 115.408 82.9223 116.417 83.5018L129.303 90.9562L134.945 100.744L140.588 97.4787L153.474 104.933C154.482 105.513 155.295 105.043 155.295 103.876V81.0901C155.295 79.9234 154.482 78.5061 153.474 77.9266H153.467Z" fill="url(#paint12_radial_3736_20893)"/>
<path opacity="0.9" d="M154.17 77.5194L117.12 56.088C116.635 55.8061 116.198 55.7748 115.869 55.9471L115.127 56.3699L115.15 56.3621C115.479 56.182 115.924 56.2133 116.424 56.503L153.474 77.9344C154.482 78.5138 155.295 79.9311 155.295 81.0978V103.884C155.295 104.448 155.1 104.847 154.787 105.043L155.459 104.651C155.787 104.455 155.991 104.048 155.991 103.469V80.6828C155.991 79.5161 155.178 78.0988 154.17 77.5194Z" fill="url(#paint13_radial_3736_20893)"/>
<path d="M141.456 84.3944C141.456 81.1057 137.994 76.4311 133.727 73.9646C129.46 71.498 125.998 72.1636 125.998 75.4523C125.998 78.741 129.46 83.4156 133.727 85.8822C135.227 86.7513 136.634 87.229 137.822 87.3464C138.486 88.8107 139.705 90.9718 141.456 91.9819C141.456 91.9819 140.307 89.5859 139.76 87.135C140.815 86.7278 141.456 85.8039 141.456 84.3944Z" fill="#DCECEC"/>
<path d="M206.676 47.3575L169.626 25.9261C169.142 25.6443 168.704 25.6129 168.376 25.7852L168.344 25.8009C168.344 25.8009 168.337 25.8009 168.329 25.8087L165.906 27.2103L167.805 28.0246V49.7692C167.805 50.9359 168.626 52.3532 169.626 52.9326L182.513 60.387L188.155 70.1748L193.797 66.9096L205.637 73.7611L205.543 75.8909L207.973 74.4893C208.302 74.2935 208.505 73.8863 208.505 73.3069V50.5209C208.505 49.3542 207.692 47.9369 206.684 47.3575H206.676Z" fill="#6AACAC"/>
<path opacity="0.5" d="M206.676 47.3575L169.626 25.9261C169.142 25.6443 168.704 25.6129 168.376 25.7852L165.906 27.2025L167.805 28.0168V49.7614C167.805 50.9281 168.626 52.3454 169.626 52.9248L182.513 60.3792L188.155 70.167L193.797 66.9018L205.637 73.7532L205.543 75.8831L207.973 74.4814C208.302 74.2857 208.505 73.8785 208.505 73.2991V50.5131C208.505 49.3464 207.692 47.9291 206.684 47.3497L206.676 47.3575Z" fill="#D9EAEA"/>
<path opacity="0.8" d="M206.676 47.3575L169.626 25.9261C169.142 25.6443 168.704 25.6129 168.376 25.7852L165.906 27.2025L167.805 28.0168V49.7614C167.805 50.9281 168.626 52.3454 169.626 52.9248L182.513 60.3792L188.155 70.167L193.797 66.9018L205.637 73.7532L205.543 75.8831L207.973 74.4814C208.302 74.2857 208.505 73.8785 208.505 73.2991V50.5131C208.505 49.3464 207.692 47.9291 206.684 47.3497L206.676 47.3575Z" fill="url(#paint14_radial_3736_20893)"/>
<path d="M204.238 48.767L167.188 27.3356C166.18 26.7562 165.367 27.226 165.367 28.3927V51.1787C165.367 52.3454 166.18 53.7627 167.188 54.3421L180.075 61.7965L185.709 71.5843L191.351 68.3191L204.238 75.7735C205.246 76.3529 206.059 75.8831 206.059 74.7164V51.9304C206.059 50.7637 205.246 49.3464 204.238 48.767Z" fill="#6AACAC"/>
<path opacity="0.8" d="M204.238 48.767L167.188 27.3356C166.18 26.7562 165.367 27.226 165.367 28.3927V51.1787C165.367 52.3454 166.18 53.7627 167.188 54.3421L180.075 61.7965L185.709 71.5843L191.351 68.3191L204.238 75.7735C205.246 76.3529 206.059 75.8831 206.059 74.7164V51.9304C206.059 50.7637 205.246 49.3464 204.238 48.767Z" fill="url(#paint15_radial_3736_20893)"/>
<path opacity="0.5" d="M204.238 48.767L167.188 27.3356C166.18 26.7562 165.367 27.226 165.367 28.3927V51.1787C165.367 52.3454 166.18 53.7627 167.188 54.3421L180.075 61.7965L185.709 71.5843L191.351 68.3191L204.238 75.7735C205.246 76.3529 206.059 75.8831 206.059 74.7164V51.9304C206.059 50.7637 205.246 49.3464 204.238 48.767Z" fill="#D9EAEA"/>
<path opacity="0.8" d="M204.238 48.767L167.188 27.3356C166.18 26.7562 165.367 27.226 165.367 28.3927V51.1787C165.367 52.3454 166.18 53.7627 167.188 54.3421L180.075 61.7965L185.709 71.5843L191.351 68.3191L204.238 75.7735C205.246 76.3529 206.059 75.8831 206.059 74.7164V51.9304C206.059 50.7637 205.246 49.3464 204.238 48.767Z" fill="url(#paint16_radial_3736_20893)"/>
<path opacity="0.9" d="M204.941 48.3597L167.891 26.9283C167.407 26.6465 166.969 26.6151 166.641 26.7874L165.906 27.2102L165.93 27.2024C166.258 27.0223 166.703 27.0536 167.204 27.3433L204.253 48.7747C205.262 49.3541 206.074 50.7714 206.074 51.9381V74.7241C206.074 75.2879 205.879 75.6872 205.566 75.883L206.238 75.4915C206.567 75.2957 206.77 74.8885 206.77 74.3091V51.5231C206.77 50.3564 205.957 48.9391 204.949 48.3597H204.941Z" fill="url(#paint17_radial_3736_20893)"/>
<path d="M182.091 49.4559C182.091 51.0768 180.958 51.7267 179.559 50.9202C178.16 50.1137 177.027 48.1404 177.027 46.5274C177.027 44.9144 178.16 44.2566 179.559 45.0632C180.958 45.8697 182.091 47.8429 182.091 49.4559Z" fill="#DCECEC"/>
<path d="M188.25 53.0187C188.25 54.6395 187.116 55.2894 185.718 54.4829C184.319 53.6764 183.186 51.7032 183.186 50.0902C183.186 48.4771 184.319 47.8194 185.718 48.6259C187.116 49.4324 188.25 51.4056 188.25 53.0187Z" fill="#DCECEC"/>
<path d="M194.408 56.5814C194.408 58.2023 193.275 58.8522 191.876 58.0457C190.477 57.2391 189.344 55.2659 189.344 53.6529C189.344 52.0399 190.477 51.3821 191.876 52.1886C193.275 52.9952 194.408 54.9684 194.408 56.5814Z" fill="#DCECEC"/>
<path d="M145.737 29.7315L108.687 8.30017C108.202 8.01828 107.764 7.98696 107.436 8.15922L107.405 8.17488C107.405 8.17488 107.397 8.17488 107.389 8.18272L104.967 9.58433L106.866 10.3987V32.1432C106.866 33.3099 107.686 34.7272 108.687 35.3067L121.573 42.761L127.216 52.5488L132.85 49.2836L144.689 56.1351L144.596 58.2649L147.026 56.8633C147.354 56.6675 147.557 56.2604 147.557 55.6809V32.8949C147.557 31.7282 146.745 30.311 145.737 29.7315Z" fill="#6AACAC"/>
<path opacity="0.5" d="M145.737 29.7315L108.687 8.30017C108.202 8.01828 107.764 7.98696 107.436 8.15922L104.967 9.5765L106.866 10.3908V32.1354C106.866 33.3021 107.686 34.7194 108.687 35.2988L121.573 42.7532L127.216 52.541L132.85 49.2758L144.689 56.1273L144.596 58.2571L147.026 56.8555C147.354 56.6597 147.557 56.2525 147.557 55.6731V32.8871C147.557 31.7204 146.745 30.3031 145.737 29.7237V29.7315Z" fill="#D9EAEA"/>
<path opacity="0.8" d="M145.737 29.7315L108.687 8.30017C108.202 8.01828 107.764 7.98696 107.436 8.15922L104.967 9.5765L106.866 10.3908V32.1354C106.866 33.3021 107.686 34.7194 108.687 35.2988L121.573 42.7532L127.216 52.541L132.85 49.2758L144.689 56.1273L144.596 58.2571L147.026 56.8555C147.354 56.6597 147.557 56.2525 147.557 55.6731V32.8871C147.557 31.7204 146.745 30.3031 145.737 29.7237V29.7315Z" fill="url(#paint18_radial_3736_20893)"/>
<path d="M143.299 31.141L106.249 9.70965C105.24 9.13021 104.428 9.60003 104.428 10.7667V33.5527C104.428 34.7194 105.24 36.1367 106.249 36.7161L119.135 44.1705L124.777 53.9583L130.42 50.6931L143.306 58.1475C144.314 58.7269 145.127 58.2571 145.127 57.0904V34.3044C145.127 33.1377 144.314 31.7204 143.306 31.141H143.299Z" fill="#6AACAC"/>
<path opacity="0.8" d="M143.299 31.141L106.249 9.70965C105.24 9.13021 104.428 9.60003 104.428 10.7667V33.5527C104.428 34.7194 105.24 36.1367 106.249 36.7161L119.135 44.1705L124.777 53.9583L130.42 50.6931L143.306 58.1475C144.314 58.7269 145.127 58.2571 145.127 57.0904V34.3044C145.127 33.1377 144.314 31.7204 143.306 31.141H143.299Z" fill="url(#paint19_radial_3736_20893)"/>
<path opacity="0.5" d="M143.299 31.141L106.249 9.70965C105.24 9.13021 104.428 9.60003 104.428 10.7667V33.5527C104.428 34.7194 105.24 36.1367 106.249 36.7161L119.135 44.1705L124.777 53.9583L130.42 50.6931L143.306 58.1475C144.314 58.7269 145.127 58.2571 145.127 57.0904V34.3044C145.127 33.1377 144.314 31.7204 143.306 31.141H143.299Z" fill="#D9EAEA"/>
<path opacity="0.8" d="M143.299 31.141L106.249 9.70965C105.24 9.13021 104.428 9.60003 104.428 10.7667V33.5527C104.428 34.7194 105.24 36.1367 106.249 36.7161L119.135 44.1705L124.777 53.9583L130.42 50.6931L143.306 58.1475C144.314 58.7269 145.127 58.2571 145.127 57.0904V34.3044C145.127 33.1377 144.314 31.7204 143.306 31.141H143.299Z" fill="url(#paint20_radial_3736_20893)"/>
<path opacity="0.9" d="M144.002 30.7259L106.952 9.29455C106.467 9.01267 106.03 8.98134 105.701 9.15361L104.959 9.57644L104.982 9.56861C105.311 9.38852 105.756 9.41984 106.256 9.70956L143.306 31.1409C144.314 31.7204 145.127 33.1376 145.127 34.3043V57.0903C145.127 57.6541 144.932 58.0534 144.619 58.2492L145.291 57.8577C145.619 57.6619 145.823 57.2548 145.823 56.6753V33.8893C145.823 32.7226 145.01 31.3053 144.002 30.7259Z" fill="url(#paint21_radial_3736_20893)"/>
<path d="M121.878 25.9573C120.409 24.9315 119.135 25.2526 118.737 26.5367C118.698 26.662 118.518 26.5602 118.479 26.388C118.08 24.6497 116.799 22.8409 115.337 22.1753C113.751 21.4549 112.649 22.4885 112.712 24.3678C112.915 30.2796 118.612 36.7944 118.612 36.7944C118.612 36.7944 124.309 36.8727 124.512 31.1957C124.574 29.3869 123.472 27.077 121.886 25.9651L121.878 25.9573Z" fill="white"/>
<path d="M128.809 40.1692C127.731 39.5428 127.191 38.4857 127.191 36.9902C127.191 36.7239 127.215 36.4969 127.254 36.3089C127.293 36.121 127.348 35.9722 127.402 35.8704C127.457 35.7687 127.535 35.6903 127.637 35.6355C127.731 35.5807 127.817 35.5416 127.895 35.5337C127.973 35.5181 128.067 35.5103 128.176 35.5181C127.567 34.876 127.254 34.0695 127.254 33.1142C127.254 32.4956 127.379 32.0806 127.629 31.8692C127.879 31.6578 128.27 31.7048 128.809 32.018C129.34 32.3233 129.739 32.7383 129.981 33.2395C130.231 33.7484 130.356 34.3122 130.356 34.9308C130.356 35.8704 130.052 36.3089 129.434 36.2463C129.544 36.3794 129.645 36.4969 129.716 36.5987C129.794 36.7004 129.88 36.8336 129.973 37.0058C130.075 37.1781 130.153 37.3425 130.208 37.5148C130.263 37.6792 130.317 37.8828 130.356 38.1177C130.395 38.3526 130.419 38.6032 130.419 38.8694C130.419 40.365 129.88 40.7957 128.801 40.1692H128.809ZM128.043 38.7441C128.215 39.1122 128.465 39.3941 128.809 39.5898C129.153 39.7856 129.403 39.8012 129.567 39.6211C129.731 39.4489 129.817 39.0808 129.817 38.5171C129.817 37.4443 129.481 36.677 128.809 36.2306C128.137 35.9018 127.793 36.2776 127.793 37.3504C127.793 37.922 127.879 38.3839 128.043 38.752V38.7441ZM128.809 35.5651C129.434 35.8939 129.747 35.5572 129.747 34.555C129.747 33.6153 129.434 32.9654 128.809 32.6052C128.184 32.245 127.871 32.5348 127.871 33.4744C127.871 34.4767 128.184 35.1735 128.809 35.5651Z" fill="white"/>
<path d="M133.366 42.714V40.3963L131.295 39.1983V38.4466L133.241 34.6646L133.999 35.103V40.0831L134.78 40.5372V41.2185L133.999 40.7643V43.0821L133.374 42.7219L133.366 42.714ZM131.936 38.885L133.366 39.7151V35.7138L131.936 38.885Z" fill="white"/>
</g>
<defs>
<linearGradient id="paint0_linear_3736_20893" x1="0" y1="84.5039" x2="292" y2="84.5039" gradientUnits="userSpaceOnUse">
<stop stop-color="#C8E1E1"/>
<stop offset="0.1" stop-color="#A7CECE"/>
<stop offset="0.21" stop-color="#8BBEBE"/>
<stop offset="0.33" stop-color="#74B2B2"/>
<stop offset="0.46" stop-color="#65A9A9"/>
<stop offset="0.61" stop-color="#5BA4A4"/>
<stop offset="0.82" stop-color="#59A3A3"/>
</linearGradient>
<linearGradient id="paint1_linear_3736_20893" x1="58.6895" y1="84.4961" x2="233.311" y2="84.4961" gradientUnits="userSpaceOnUse">
<stop stop-color="#C8E1E1"/>
<stop offset="0.1" stop-color="#A7CECE"/>
<stop offset="0.21" stop-color="#8BBEBE"/>
<stop offset="0.33" stop-color="#74B2B2"/>
<stop offset="0.46" stop-color="#65A9A9"/>
<stop offset="0.61" stop-color="#5BA4A4"/>
<stop offset="0.82" stop-color="#59A3A3"/>
</linearGradient>
<radialGradient id="paint2_radial_3736_20893" cx="0" cy="0" r="1" gradientUnits="userSpaceOnUse" gradientTransform="translate(3.21196 95.0279) scale(168.104 168.436)">
<stop stop-color="#C8E1E1"/>
<stop offset="0.05" stop-color="#AED3D3"/>
<stop offset="0.12" stop-color="#94C4C4"/>
<stop offset="0.2" stop-color="#7EB7B7"/>
<stop offset="0.29" stop-color="#6DAEAE"/>
<stop offset="0.4" stop-color="#61A7A7"/>
<stop offset="0.56" stop-color="#5AA4A4"/>
<stop offset="1" stop-color="#59A3A3"/>
</radialGradient>
<radialGradient id="paint3_radial_3736_20893" cx="0" cy="0" r="1" gradientUnits="userSpaceOnUse" gradientTransform="translate(110.478 144.045) scale(297.892 298.481)">
<stop stop-color="#C8E1E1"/>
<stop offset="0.32" stop-color="#97C5C5"/>
<stop offset="0.61" stop-color="#71B0B0"/>
<stop offset="0.85" stop-color="#5AA3A3"/>
<stop offset="1" stop-color="#529F9F"/>
</radialGradient>
<linearGradient id="paint4_linear_3736_20893" x1="35.3475" y1="71.592" x2="248.981" y2="71.592" gradientUnits="userSpaceOnUse">
<stop stop-color="#529F9F"/>
<stop offset="0.15" stop-color="#5AA3A3"/>
<stop offset="0.39" stop-color="#71B0B0"/>
<stop offset="0.68" stop-color="#97C5C5"/>
<stop offset="1" stop-color="#C8E1E1"/>
</linearGradient>
<radialGradient id="paint5_radial_3736_20893" cx="0" cy="0" r="1" gradientUnits="userSpaceOnUse" gradientTransform="translate(33.2286 92.9294) scale(86.0019 86.1718)">
<stop stop-color="#C8E1E1"/>
<stop offset="0.32" stop-color="#97C5C5"/>
<stop offset="0.61" stop-color="#71B0B0"/>
<stop offset="0.85" stop-color="#5AA3A3"/>
<stop offset="1" stop-color="#529F9F"/>
</radialGradient>
<radialGradient id="paint6_radial_3736_20893" cx="0" cy="0" r="1" gradientUnits="userSpaceOnUse" gradientTransform="translate(38.0416 71.6624) scale(177.482 177.833)">
<stop stop-color="#C8E1E1"/>
<stop offset="0.32" stop-color="#97C5C5"/>
<stop offset="0.61" stop-color="#71B0B0"/>
<stop offset="0.85" stop-color="#5AA3A3"/>
<stop offset="1" stop-color="#529F9F"/>
</radialGradient>
<radialGradient id="paint7_radial_3736_20893" cx="0" cy="0" r="1" gradientUnits="userSpaceOnUse" gradientTransform="translate(52.1239 80.2052) scale(145.246 145.533)">
<stop stop-color="#C8E1E1"/>
<stop offset="0.32" stop-color="#97C5C5"/>
<stop offset="0.61" stop-color="#71B0B0"/>
<stop offset="0.85" stop-color="#5AA3A3"/>
<stop offset="1" stop-color="#529F9F"/>
</radialGradient>
<radialGradient id="paint8_radial_3736_20893" cx="0" cy="0" r="1" gradientUnits="userSpaceOnUse" gradientTransform="translate(33.2277 80.9491) scale(205.31 205.716)">
<stop stop-color="#C8E1E1"/>
<stop offset="0.32" stop-color="#97C5C5"/>
<stop offset="0.61" stop-color="#71B0B0"/>
<stop offset="0.85" stop-color="#5AA3A3"/>
<stop offset="1" stop-color="#529F9F"/>
</radialGradient>
<radialGradient id="paint9_radial_3736_20893" cx="0" cy="0" r="1" gradientUnits="userSpaceOnUse" gradientTransform="translate(33.2277 80.2051) scale(274.307 274.849)">
<stop stop-color="#C8E1E1"/>
<stop offset="0.32" stop-color="#97C5C5"/>
<stop offset="0.61" stop-color="#71B0B0"/>
<stop offset="0.85" stop-color="#5AA3A3"/>
<stop offset="1" stop-color="#529F9F"/>
</radialGradient>
<radialGradient id="paint10_radial_3736_20893" cx="0" cy="0" r="1" gradientUnits="userSpaceOnUse" gradientTransform="translate(113.048 59.69) scale(57.9936 58.1082)">
<stop stop-color="#C8E1E1"/>
<stop offset="0.32" stop-color="#97C5C5"/>
<stop offset="0.61" stop-color="#71B0B0"/>
<stop offset="0.85" stop-color="#5AA3A3"/>
<stop offset="1" stop-color="#529F9F"/>
</radialGradient>
<radialGradient id="paint11_radial_3736_20893" cx="0" cy="0" r="1" gradientUnits="userSpaceOnUse" gradientTransform="translate(103.46 75.9926) scale(85.5486 85.7176)">
<stop stop-color="#C8E1E1"/>
<stop offset="0.32" stop-color="#97C5C5"/>
<stop offset="0.61" stop-color="#71B0B0"/>
<stop offset="0.85" stop-color="#5AA3A3"/>
<stop offset="1" stop-color="#529F9F"/>
</radialGradient>
<radialGradient id="paint12_radial_3736_20893" cx="0" cy="0" r="1" gradientUnits="userSpaceOnUse" gradientTransform="translate(83.6725 77.9032) scale(85.5486 85.7176)">
<stop stop-color="#C8E1E1"/>
<stop offset="0.32" stop-color="#97C5C5"/>
<stop offset="0.61" stop-color="#71B0B0"/>
<stop offset="0.85" stop-color="#5AA3A3"/>
<stop offset="1" stop-color="#529F9F"/>
</radialGradient>
<radialGradient id="paint13_radial_3736_20893" cx="0" cy="0" r="1" gradientUnits="userSpaceOnUse" gradientTransform="translate(135.109 68.3893) scale(99.6231 99.8199)">
<stop stop-color="#C8E1E1"/>
<stop offset="0.32" stop-color="#97C5C5"/>
<stop offset="0.61" stop-color="#71B0B0"/>
<stop offset="0.85" stop-color="#5AA3A3"/>
<stop offset="1" stop-color="#529F9F"/>
</radialGradient>
<radialGradient id="paint14_radial_3736_20893" cx="0" cy="0" r="1" gradientUnits="userSpaceOnUse" gradientTransform="translate(163.82 30.5303) scale(57.9936 58.1082)">
<stop stop-color="#C8E1E1"/>
<stop offset="0.32" stop-color="#97C5C5"/>
<stop offset="0.61" stop-color="#71B0B0"/>
<stop offset="0.85" stop-color="#5AA3A3"/>
<stop offset="1" stop-color="#529F9F"/>
</radialGradient>
<radialGradient id="paint15_radial_3736_20893" cx="0" cy="0" r="1" gradientUnits="userSpaceOnUse" gradientTransform="translate(154.231 46.8329) scale(85.5486 85.7176)">
<stop stop-color="#C8E1E1"/>
<stop offset="0.32" stop-color="#97C5C5"/>
<stop offset="0.61" stop-color="#71B0B0"/>
<stop offset="0.85" stop-color="#5AA3A3"/>
<stop offset="1" stop-color="#529F9F"/>
</radialGradient>
<radialGradient id="paint16_radial_3736_20893" cx="0" cy="0" r="1" gradientUnits="userSpaceOnUse" gradientTransform="translate(134.436 48.7435) scale(85.5486 85.7176)">
<stop stop-color="#C8E1E1"/>
<stop offset="0.32" stop-color="#97C5C5"/>
<stop offset="0.61" stop-color="#71B0B0"/>
<stop offset="0.85" stop-color="#5AA3A3"/>
<stop offset="1" stop-color="#529F9F"/>
</radialGradient>
<radialGradient id="paint17_radial_3736_20893" cx="0" cy="0" r="1" gradientUnits="userSpaceOnUse" gradientTransform="translate(185.881 39.2296) scale(99.6231 99.8199)">
<stop stop-color="#C8E1E1"/>
<stop offset="0.32" stop-color="#97C5C5"/>
<stop offset="0.61" stop-color="#71B0B0"/>
<stop offset="0.85" stop-color="#5AA3A3"/>
<stop offset="1" stop-color="#529F9F"/>
</radialGradient>
<radialGradient id="paint18_radial_3736_20893" cx="0" cy="0" r="1" gradientUnits="userSpaceOnUse" gradientTransform="translate(102.88 12.9043) scale(57.9936 58.1082)">
<stop stop-color="#C8E1E1"/>
<stop offset="0.32" stop-color="#97C5C5"/>
<stop offset="0.61" stop-color="#71B0B0"/>
<stop offset="0.85" stop-color="#5AA3A3"/>
<stop offset="1" stop-color="#529F9F"/>
</radialGradient>
<radialGradient id="paint19_radial_3736_20893" cx="0" cy="0" r="1" gradientUnits="userSpaceOnUse" gradientTransform="translate(93.2916 29.2069) scale(85.5486 85.7176)">
<stop stop-color="#C8E1E1"/>
<stop offset="0.32" stop-color="#97C5C5"/>
<stop offset="0.61" stop-color="#71B0B0"/>
<stop offset="0.85" stop-color="#5AA3A3"/>
<stop offset="1" stop-color="#529F9F"/>
</radialGradient>
<radialGradient id="paint20_radial_3736_20893" cx="0" cy="0" r="1" gradientUnits="userSpaceOnUse" gradientTransform="translate(73.5046 31.1175) scale(85.5486 85.7176)">
<stop stop-color="#C8E1E1"/>
<stop offset="0.32" stop-color="#97C5C5"/>
<stop offset="0.61" stop-color="#71B0B0"/>
<stop offset="0.85" stop-color="#5AA3A3"/>
<stop offset="1" stop-color="#529F9F"/>
</radialGradient>
<radialGradient id="paint21_radial_3736_20893" cx="0" cy="0" r="1" gradientUnits="userSpaceOnUse" gradientTransform="translate(124.941 21.5959) scale(99.6231 99.8199)">
<stop stop-color="#C8E1E1"/>
<stop offset="0.32" stop-color="#97C5C5"/>
<stop offset="0.61" stop-color="#71B0B0"/>
<stop offset="0.85" stop-color="#5AA3A3"/>
<stop offset="1" stop-color="#529F9F"/>
</radialGradient>
<clipPath id="clip0_3736_20893">
<rect width="292" height="169" fill="white"/>
</clipPath>
</defs>
</svg>
