<svg width="80" height="80" viewBox="0 0 80 80" fill="none" xmlns="http://www.w3.org/2000/svg">
<mask id="mask0_4483_23540" style="mask-type:luminance" maskUnits="userSpaceOnUse" x="0" y="0" width="80" height="80">
<path d="M0 7.62939e-06H80V80H0V7.62939e-06Z" fill="white"/>
</mask>
<g mask="url(#mask0_4483_23540)">
<path d="M54.8434 21.0938C54.8434 20.0716 54.7398 19.0738 54.543 18.1097L58.5814 15.7781L53.8939 7.65937L49.8389 10.0005C48.3553 8.68359 46.6117 7.65828 44.6872 7.01735V2.34375H35.3122V7.01735C33.3877 7.65828 31.6442 8.68359 30.1605 10.0005L26.1055 7.65937L21.418 15.7781L25.4564 18.1097C25.2597 19.0738 25.1559 20.0716 25.1559 21.0938C25.1559 22.1159 25.2597 23.1137 25.4564 24.0778L21.418 26.4094L26.1055 34.5281L30.1605 32.187C31.6442 33.5039 33.3877 34.5292 35.3122 35.1702V39.8438H44.6872V35.1702C46.6117 34.5292 48.3553 33.5039 49.8389 32.187L53.8939 34.5281L58.5814 26.4094L54.543 24.0778C54.7398 23.1137 54.8434 22.1159 54.8434 21.0938Z" stroke="#499A9A" stroke-width="2" stroke-miterlimit="10" stroke-linecap="round" stroke-linejoin="round"/>
<path d="M46.25 21.0938C46.25 24.5456 43.4519 27.3438 40 27.3438C36.5483 27.3438 33.75 24.5456 33.75 21.0938C33.75 17.6419 36.5483 14.8438 40 14.8438C43.4519 14.8438 46.25 17.6419 46.25 21.0938Z" stroke="#499A9A" stroke-width="2" stroke-miterlimit="10" stroke-linecap="round" stroke-linejoin="round"/>
<path d="M61.1719 52.6562C61.1719 55.245 59.0731 57.3438 56.4844 57.3438C53.8956 57.3438 51.7969 55.245 51.7969 52.6562C51.7969 50.0675 53.8956 47.9688 56.4844 47.9688C59.0731 47.9688 61.1719 50.0675 61.1719 52.6562Z" stroke="#499A9A" stroke-width="2" stroke-miterlimit="10" stroke-linecap="round" stroke-linejoin="round"/>
<path d="M44.6875 72.9688C44.6875 75.5575 42.5888 77.6562 40 77.6562C37.4112 77.6562 35.3125 75.5575 35.3125 72.9688C35.3125 70.38 37.4112 68.2812 40 68.2812C42.5888 68.2812 44.6875 70.38 44.6875 72.9688Z" stroke="#499A9A" stroke-width="2" stroke-miterlimit="10" stroke-linecap="round" stroke-linejoin="round"/>
<path d="M77.6562 72.9688C77.6562 75.5575 75.5575 77.6562 72.9688 77.6562C70.38 77.6562 68.2812 75.5575 68.2812 72.9688C68.2812 70.38 70.38 68.2812 72.9688 68.2812C75.5575 68.2812 77.6562 70.38 77.6562 72.9688Z" stroke="#499A9A" stroke-width="2" stroke-miterlimit="10" stroke-linecap="round" stroke-linejoin="round"/>
<path d="M18.8281 52.6562C18.8281 55.245 20.9269 57.3438 23.5156 57.3438C26.1044 57.3438 28.2031 55.245 28.2031 52.6562C28.2031 50.0675 26.1044 47.9688 23.5156 47.9688C20.9269 47.9688 18.8281 50.0675 18.8281 52.6562Z" stroke="#499A9A" stroke-width="2" stroke-miterlimit="10" stroke-linecap="round" stroke-linejoin="round"/>
<path d="M2.34375 72.9688C2.34375 75.5575 4.4425 77.6562 7.03125 77.6562C9.62 77.6562 11.7188 75.5575 11.7188 72.9688C11.7188 70.38 9.62 68.2812 7.03125 68.2812C4.4425 68.2812 2.34375 70.38 2.34375 72.9688Z" stroke="#499A9A" stroke-width="2" stroke-miterlimit="10" stroke-linecap="round" stroke-linejoin="round"/>
<path d="M51.7969 52.6563H40V68.2812" stroke="#499A9A" stroke-width="2" stroke-miterlimit="10" stroke-linecap="round" stroke-linejoin="round"/>
<path d="M72.9687 68.2812V52.6563H61.1719" stroke="#499A9A" stroke-width="2" stroke-miterlimit="10" stroke-linecap="round" stroke-linejoin="round"/>
<path d="M28.2031 52.6563H40V68.2812" stroke="#499A9A" stroke-width="2" stroke-miterlimit="10" stroke-linecap="round" stroke-linejoin="round"/>
<path d="M7.03125 68.2812V52.6563H18.75" stroke="#499A9A" stroke-width="2" stroke-miterlimit="10" stroke-linecap="round" stroke-linejoin="round"/>
<path d="M40 52.6562V39.8438" stroke="#499A9A" stroke-width="2" stroke-miterlimit="10" stroke-linecap="round" stroke-linejoin="round"/>
</g>
</svg>
