<svg width="80" height="80" viewBox="0 0 80 80" fill="none" xmlns="http://www.w3.org/2000/svg">
<g clip-path="url(#clip0_4483_23585)">
<path d="M7.02344 45.3057V52.3407H11.1814C11.9094 55.3327 13.0892 58.1479 14.6478 60.7077L11.7072 63.6483L21.6564 73.5975L24.597 70.6569C27.1569 72.2155 29.972 73.3954 32.9641 74.1233V78.2813H47.0342V74.1233C50.0263 73.3954 52.8414 72.2155 55.4013 70.6569L58.3419 73.5975L68.2911 63.6483L65.3505 60.7077C66.9091 58.1479 68.0889 55.3327 68.8169 52.3407H72.9748V45.3057" stroke="#499A9A" stroke-width="2" stroke-miterlimit="10" stroke-linecap="round" stroke-linejoin="round"/>
<path d="M78.2812 45.3057H1.71875" stroke="#499A9A" stroke-width="2" stroke-miterlimit="10" stroke-linecap="round" stroke-linejoin="round"/>
<path d="M59.4909 45.3057C59.4909 56.0705 50.7642 64.7972 39.9994 64.7972C29.2345 64.7972 20.5078 56.0705 20.5078 45.3057" stroke="#499A9A" stroke-width="2" stroke-miterlimit="10" stroke-linejoin="round"/>
<path d="M34.3984 45.3058V18.3525H45.6V45.3058" stroke="#499A9A" stroke-width="2" stroke-miterlimit="10" stroke-linecap="round" stroke-linejoin="round"/>
<path d="M52.4766 45.3058V13.3525H63.678V45.3058" stroke="#499A9A" stroke-width="2" stroke-miterlimit="10" stroke-linecap="round" stroke-linejoin="round"/>
<path d="M16.418 45.3058V23.3525H27.6194V45.3058" stroke="#499A9A" stroke-width="2" stroke-miterlimit="10" stroke-linecap="round" stroke-linejoin="round"/>
<path d="M34.3999 8.49953V1.71875H27.6191" stroke="#499A9A" stroke-width="2" stroke-miterlimit="10" stroke-linecap="round" stroke-linejoin="round"/>
<path d="M34.3992 1.71875L33.5675 2.55047C26.1416 9.97641 16.0698 14.1483 5.56797 14.1483H1.71875" stroke="#499A9A" stroke-width="2" stroke-miterlimit="10" stroke-linecap="round" stroke-linejoin="round"/>
</g>
<defs>
<clipPath id="clip0_4483_23585">
<rect width="80" height="80" fill="white"/>
</clipPath>
</defs>
</svg>
