<!-- sample rectangle -->
<svg width="252" height="121" viewBox="0 0 252 121" fill="none" xmlns="http://www.w3.org/2000/svg">
<line opacity="0.3" x1="84.4375" y1="60.6538" x2="0.999367" y2="60.6538" stroke="#082326"/>
<path opacity="0.3" d="M1.4209 2L34.7821 2C46.3801 2 55.7821 11.402 55.7821 23V39.5752C55.7821 51.1732 65.1841 60.5752 76.7821 60.5752H84.859" stroke="#082326"/>
<path opacity="0.3" d="M1.4209 119.15L34.7821 119.15C46.3801 119.15 55.7821 109.748 55.7821 98.1504V81.5752C55.7821 69.9772 65.1841 60.5751 76.7821 60.5751H84.859" stroke="#082326"/>
<line opacity="0.3" y1="-0.5" x2="83.4381" y2="-0.5" transform="matrix(1 -8.74227e-08 -8.74227e-08 -1 166.562 60.1538)" stroke="#082326"/>
<path opacity="0.3" d="M249.578 2L216.217 2C204.619 2 195.217 11.402 195.217 23V39.5752C195.217 51.1732 185.815 60.5752 174.217 60.5752H166.14" stroke="#082326"/>
<path opacity="0.3" d="M249.578 119.15L216.217 119.15C204.619 119.15 195.217 109.748 195.217 98.1504V81.5752C195.217 69.9772 185.815 60.5751 174.217 60.5751H166.14" stroke="#082326"/>
<ellipse cx="125.304" cy="60.7679" rx="41.768" ry="41.7679" fill="#082326"/>
<path fill-rule="evenodd" clip-rule="evenodd" d="M129.083 64.9397L133.27 62.5092L133.269 62.5075L137.459 60.0756C137.118 58.2645 138.508 56.591 140.327 56.591C142.146 56.591 143.536 58.264 143.196 60.0749L151.575 64.9409C153.46 63.3014 156.4 64.657 156.4 67.1617C156.4 68.4253 155.598 69.5261 154.445 69.9324V79.6586C156.456 80.3672 157.075 82.9626 155.545 84.5014C154.458 85.594 152.73 85.6571 151.572 84.6523L147.384 87.0827L147.385 87.0844L143.196 89.5164C143.536 91.3287 142.146 93 140.327 93C138.507 93 137.117 91.3259 137.459 89.5136L129.08 84.6507C127.184 86.2964 124.256 84.9206 124.256 82.4294C124.256 81.1656 125.057 80.0647 126.211 79.6585V69.9325C124.195 69.2229 123.584 66.6209 125.111 65.086C126.192 63.9992 127.925 63.9347 129.083 64.9397ZM108.753 65.3942C108.753 64.8586 109.185 64.4244 109.717 64.4244C110.25 64.4244 110.682 64.8586 110.682 65.3942V81.4596H117.466L116.349 80.6175C115.924 80.2974 115.838 79.6918 116.156 79.2651C116.475 78.8383 117.077 78.7518 117.502 79.0718L120.861 81.6046C121.474 82.0255 121.474 82.8325 120.861 83.2539L117.501 85.7884C117.077 86.1085 116.475 86.0221 116.156 85.5952C115.838 85.1684 115.924 84.5628 116.349 84.2428L117.467 83.3991H109.717C109.185 83.3991 108.753 82.9649 108.753 82.4293L108.753 65.3942ZM142.131 48.6431C142.449 48.2164 143.051 48.1298 143.476 48.4499C143.9 48.7699 143.986 49.3755 143.668 49.8022L141.147 53.18C140.728 53.7964 139.926 53.7962 139.507 53.1797L136.987 49.8022C136.669 49.3755 136.755 48.77 137.18 48.4499C137.604 48.1298 138.206 48.2162 138.525 48.6431L139.362 49.7661V38.5693H127.736C127.204 38.5693 126.772 38.1351 126.772 37.5995C126.772 37.0639 127.204 36.6297 127.736 36.6297H140.327C140.86 36.6297 141.292 37.0639 141.292 37.5995V49.7675L142.131 48.6431ZM130.043 82.9797L138.42 87.8417C138.694 87.6036 139.013 87.416 139.362 87.2931V77.5665C138.013 77.092 137.187 75.6907 137.458 74.2476L129.081 69.3842C128.807 69.6222 128.489 69.8096 128.14 69.9324V79.6585C129.489 80.1337 130.316 81.5376 130.043 82.9797ZM127.875 81.7257C127.253 81.0998 126.185 81.5458 126.185 82.4294C126.185 83.3369 127.27 83.7474 127.876 83.1378C128.26 82.7513 128.264 82.1166 127.875 81.7257ZM152.515 79.6594V69.9318C152.168 69.8087 151.85 69.6211 151.576 69.3832L143.195 74.2484C143.466 75.6908 142.641 77.0921 141.291 77.5665V87.2929C141.64 87.4156 141.959 87.603 142.233 87.8406L146.42 85.4099L146.421 85.4116L150.611 82.9802C150.339 81.5368 151.171 80.1351 152.515 79.6594ZM154.18 81.7258C153.563 81.1058 152.489 81.533 152.489 82.4294C152.489 83.3242 153.569 83.7528 154.18 83.1377C154.565 82.7508 154.569 82.1169 154.18 81.7258ZM141.027 89.36C140.406 88.7351 139.337 89.1794 139.337 90.0641C139.337 90.9695 140.42 91.383 141.027 90.7726C141.412 90.3858 141.416 89.7505 141.027 89.36ZM130.044 67.7088L138.421 72.5725C139.516 71.6228 141.138 71.6231 142.233 72.5729L150.611 67.7091C150.543 67.3477 150.543 66.9734 150.612 66.6121L142.233 61.7508C141.139 62.7006 139.517 62.701 138.422 61.7512L134.234 64.1822L134.233 64.1805L130.043 66.6122C130.111 66.9732 130.112 67.3473 130.044 67.7088ZM127.876 66.4578C127.255 65.8338 126.185 66.2749 126.185 67.1617C126.185 68.0453 127.253 68.4915 127.875 67.8655C128.262 67.4762 128.262 66.8462 127.876 66.4578ZM141.027 74.0915C140.404 73.4657 139.337 73.9125 139.337 74.7956C139.337 75.6818 140.407 76.1238 141.027 75.4998C141.414 75.1115 141.414 74.4806 141.027 74.0915ZM154.18 66.4579C153.565 65.8396 152.489 66.2625 152.489 67.1617C152.489 68.058 153.563 68.4855 154.18 67.8654C154.567 67.4759 154.567 66.8465 154.18 66.4579ZM141.027 58.8189C140.419 58.2076 139.337 58.6227 139.337 59.5279C139.337 60.4109 140.404 60.8578 141.027 60.232C141.416 59.8409 141.412 59.2059 141.027 58.8189ZM98.4852 37.5995L109.717 44.1184L120.947 37.6006L115.812 34.6198L115.812 34.6182L109.718 31.0806L98.4852 37.5995ZM110.682 45.7884L121.904 39.2743V52.3101L110.682 58.8255V45.7884ZM108.753 58.8255L97.5287 52.3122V39.2743L108.753 45.7885V58.8255ZM110.209 29.1362C109.921 28.9637 109.551 28.9484 109.239 29.1285L96.1635 36.7171C95.8308 36.87 95.5996 37.2076 95.5996 37.5995V52.8672H95.6037C95.604 53.2013 95.7769 53.526 96.0858 53.7045L102.658 57.5214L109.225 61.3339C109.515 61.5073 109.887 61.522 110.2 61.34L116.776 57.5214L123.29 53.74C123.612 53.5828 123.834 53.251 123.834 52.8672V37.5995H123.832C123.831 37.2659 123.659 36.9414 123.352 36.7624L116.776 32.9455L116.775 32.9471L110.209 29.1362Z" fill="white"/>
</svg>
