<svg width="252" height="121" viewBox="0 0 252 121" fill="none" xmlns="http://www.w3.org/2000/svg">
<line opacity="0.3" x1="84.4375" y1="60.6538" x2="0.999367" y2="60.6538" stroke="#082326"/>
<path opacity="0.3" d="M1.4209 2L34.7821 2C46.3801 2 55.7821 11.402 55.7821 23V39.5752C55.7821 51.1732 65.1841 60.5752 76.7821 60.5752H84.859" stroke="#082326"/>
<path opacity="0.3" d="M1.4209 119.15L34.7821 119.15C46.3801 119.15 55.7821 109.748 55.7821 98.1504V81.5752C55.7821 69.9772 65.1841 60.5751 76.7821 60.5751H84.859" stroke="#082326"/>
<line opacity="0.3" y1="-0.5" x2="83.4381" y2="-0.5" transform="matrix(1 -8.74227e-08 -8.74227e-08 -1 166.562 60.1538)" stroke="#082326"/>
<path opacity="0.3" d="M249.578 2L216.217 2C204.619 2 195.217 11.402 195.217 23V39.5752C195.217 51.1732 185.815 60.5752 174.217 60.5752H166.14" stroke="#082326"/>
<path opacity="0.3" d="M249.578 119.15L216.217 119.15C204.619 119.15 195.217 109.748 195.217 98.1504V81.5752C195.217 69.9772 185.815 60.5751 174.217 60.5751H166.14" stroke="#082326"/>
<ellipse cx="125.304" cy="60.7679" rx="41.768" ry="41.7679" fill="#082326"/>
<path d="M124.602 83.1395C112.779 83.1395 103.162 73.5221 103.162 61.6997C103.162 49.8773 112.779 40.2612 124.602 40.2612C136.424 40.2612 146.042 49.8786 146.042 61.701C146.042 62.403 146.007 63.1115 145.94 63.807L144.661 63.6823C144.725 63.0279 144.757 62.3619 144.757 61.701C144.757 50.5883 135.716 41.547 124.603 41.547C113.49 41.547 104.448 50.587 104.448 61.701C104.448 72.8137 113.489 81.855 124.602 81.855C125.101 81.855 125.605 81.837 126.101 81.7997L126.195 83.0816C125.668 83.1202 125.132 83.1395 124.602 83.1395Z" fill="#499A9A"/>
<path d="M125.244 82.4982H123.959V78.7336H125.244V82.4982ZM109.231 76.4L108.691 75.2338C113.239 73.1278 118.493 71.9834 123.959 71.9012V62.3442H103.805V61.0585H123.959V51.5016C118.497 51.418 113.23 50.2698 108.691 48.1689L109.231 47.0028C113.602 49.0265 118.682 50.1335 123.959 50.2171V40.9058H125.244V50.2171C130.521 50.1335 135.6 49.0265 139.973 47.0028L140.513 48.1689C135.973 50.2698 130.708 51.418 125.244 51.5016V61.0585H134.405V62.3442H125.244V72.6019H125.224L125.215 73.1869C119.484 73.1008 113.958 74.2116 109.231 76.4ZM145.398 62.3442H139.962V61.0585H145.398V62.3442Z" fill="#499A9A"/>
<path d="M124.603 82.9673C121.434 82.9673 118.487 80.7006 116.305 76.5849C114.191 72.5978 113.027 67.3121 113.027 61.6998C113.027 56.0876 114.191 50.8019 116.305 46.8148C118.487 42.6991 121.434 40.4324 124.603 40.4324C130.881 40.4324 135.962 49.4531 136.172 60.9683L134.886 60.9914C134.693 50.3635 130.08 41.7181 124.603 41.7181C121.932 41.7181 119.388 43.7419 117.44 47.4165C115.424 51.221 114.313 56.2933 114.313 61.6986C114.313 67.1038 115.424 72.1774 117.44 75.9806C119.388 79.6552 121.932 81.679 124.603 81.679C125.113 81.679 125.628 81.6031 126.129 81.4553L126.494 82.6883C125.873 82.8747 125.237 82.9673 124.603 82.9673Z" fill="#499A9A"/>
<path d="M123.145 90.1737C123.133 90.1737 123.123 90.1737 123.111 90.1725C107.978 89.3933 96.1208 76.9164 96.0912 61.7575L94.1986 63.6502C93.9479 63.9009 93.5403 63.9009 93.2896 63.6502C93.0389 63.3994 93.0389 62.9919 93.2896 62.7411L96.2802 59.7505C96.4011 59.6296 96.5644 59.5628 96.7354 59.5628C96.9064 59.5628 97.0697 59.6309 97.1905 59.7505L100.181 62.7411C100.432 62.9919 100.432 63.3994 100.181 63.6502C99.9305 63.9009 99.5229 63.9009 99.2722 63.6502L97.377 61.7575C97.4066 76.2324 108.729 88.1436 123.177 88.8893C123.532 88.9073 123.804 89.2094 123.786 89.5643C123.768 89.9076 123.484 90.1737 123.145 90.1737ZM152.468 63.8392C152.297 63.8392 152.134 63.771 152.013 63.6514L149.023 60.6608C148.772 60.4101 148.772 60.0025 149.023 59.7518C149.273 59.5011 149.681 59.5011 149.932 59.7518L151.824 61.6444C151.799 49.021 143.228 38.1616 130.963 35.2237C130.617 35.1414 130.405 34.7942 130.487 34.4484C130.57 34.1038 130.917 33.8904 131.263 33.9726C137.385 35.4384 142.933 38.9703 146.886 43.9166C150.946 48.9991 153.097 55.127 153.11 61.6431L155.003 59.7505C155.253 59.4998 155.661 59.4998 155.912 59.7505C156.162 60.0012 156.162 60.4088 155.912 60.6595L152.921 63.6502C152.803 63.771 152.639 63.8392 152.468 63.8392ZM97.4991 55.8303C97.449 55.8303 97.3988 55.8251 97.3487 55.8123C97.0028 55.73 96.7907 55.3828 96.873 55.037C98.3387 48.9143 101.871 43.3663 106.817 39.4139C111.899 35.3535 118.027 33.2025 124.543 33.1896L122.651 31.297C122.4 31.0463 122.4 30.6387 122.651 30.388C122.902 30.1373 123.309 30.1373 123.56 30.388L126.55 33.3786C126.671 33.4995 126.738 33.6628 126.738 33.8338C126.738 34.0048 126.67 34.1681 126.55 34.2889L123.56 37.2796C123.309 37.5303 122.902 37.5303 122.651 37.2796C122.4 37.0289 122.4 36.6213 122.651 36.3706L124.543 34.4779C111.92 34.5037 101.061 43.0744 98.1227 55.3391C98.0533 55.631 97.7897 55.8303 97.4991 55.8303Z" fill="#499A9A"/>
<path d="M137.233 91.0008C136.698 91.0008 136.163 90.9738 135.632 90.9185C134.553 90.8066 133.731 89.9735 133.629 88.8934L133.431 86.763C133.403 86.4595 133.219 86.2114 132.94 86.0969C132.661 85.9825 132.355 86.0314 132.122 86.2268L130.487 87.6064C129.657 88.3059 128.487 88.3213 127.64 87.645C126.773 86.9533 125.98 86.1664 125.282 85.3062C124.598 84.4641 124.604 83.2927 125.297 82.4583L126.663 80.8125C126.857 80.5785 126.903 80.2725 126.786 79.9935C126.669 79.7145 126.419 79.5332 126.116 79.5075L123.983 79.3262C122.902 79.2349 122.063 78.4172 121.943 77.3385C121.821 76.2366 121.816 75.1206 121.93 74.0187C122.042 72.9399 122.875 72.1171 123.955 72.0155L126.086 71.8175C126.389 71.7892 126.637 71.6053 126.752 71.3263C126.866 71.0473 126.817 70.7413 126.622 70.5086L125.243 68.8731C124.544 68.0438 124.529 66.8738 125.205 66.0265C125.897 65.1599 126.683 64.3666 127.544 63.6685C128.386 62.9844 129.557 62.9909 130.392 63.6839L132.037 65.0493C132.271 65.2435 132.577 65.2898 132.856 65.1728C133.135 65.0558 133.317 64.8051 133.342 64.5029L133.524 62.3699C133.615 61.2885 134.433 60.449 135.511 60.3294C136.612 60.2059 137.729 60.2021 138.831 60.3165C139.91 60.4284 140.733 61.2615 140.834 62.3416L141.032 64.472C141.061 64.7755 141.244 65.0236 141.524 65.1381C141.804 65.2525 142.109 65.2036 142.341 65.0082L143.975 63.6286C144.805 62.9292 145.975 62.9137 146.822 63.59C147.689 64.2818 148.482 65.0686 149.18 65.9288C149.864 66.771 149.858 67.9423 149.165 68.7767L147.799 70.4225C147.605 70.6565 147.559 70.9625 147.676 71.2415C147.793 71.5205 148.044 71.7018 148.346 71.7275L150.479 71.9088C151.56 72.0001 152.4 72.8178 152.519 73.8965C152.641 74.9984 152.646 76.1157 152.532 77.2163C152.42 78.2951 151.587 79.1192 150.508 79.2195L148.378 79.4175C148.074 79.4458 147.826 79.6297 147.71 79.9087C147.596 80.1877 147.645 80.4937 147.84 80.7264L149.22 82.3606C149.919 83.1899 149.935 84.3599 149.259 85.2072C148.567 86.0738 147.78 86.8671 146.92 87.5653C146.078 88.2493 144.906 88.2429 144.072 87.5498L142.426 86.1844C142.192 85.9902 141.886 85.9439 141.607 86.0609C141.328 86.1779 141.147 86.4287 141.121 86.7308L140.94 88.8639C140.848 89.9452 140.031 90.7848 138.952 90.9043C138.381 90.9699 137.808 91.0008 137.233 91.0008ZM132.638 84.7508C132.904 84.7508 133.171 84.8022 133.427 84.9064C134.147 85.2008 134.64 85.8668 134.712 86.6434L134.91 88.7739C134.952 89.2354 135.304 89.5903 135.765 89.6379C136.774 89.7433 137.799 89.7395 138.809 89.6263C139.27 89.5749 139.619 89.2162 139.658 88.7546L139.839 86.6215C139.905 85.8437 140.392 85.1751 141.109 84.8742C141.827 84.5733 142.646 84.6968 143.246 85.1944L144.892 86.5598C145.248 86.8555 145.748 86.8581 146.108 86.5662C146.898 85.9259 147.619 85.1982 148.253 84.4036C148.542 84.0423 148.535 83.5422 148.236 83.1873L146.857 81.5531C146.354 80.9565 146.224 80.1388 146.52 79.4188C146.816 78.6988 147.48 78.2063 148.257 78.1343L150.387 77.9363C150.849 77.8939 151.204 77.5416 151.251 77.0813C151.357 76.0707 151.353 75.0473 151.24 74.0367C151.188 73.5764 150.83 73.2267 150.368 73.1881L148.235 73.0068C147.457 72.9412 146.789 72.4539 146.488 71.7365C146.187 71.019 146.31 70.2 146.808 69.5996L148.173 67.9538C148.469 67.5977 148.472 67.0975 148.18 66.7375C147.539 65.9481 146.812 65.2268 146.017 64.5929C145.656 64.3036 145.156 64.3113 144.801 64.6096L143.167 65.9892C142.57 66.4919 141.752 66.6218 141.032 66.3261C140.312 66.0316 139.82 65.3656 139.748 64.589L139.55 62.4586C139.507 61.997 139.155 61.6421 138.695 61.5946C137.684 61.4891 136.661 61.493 135.65 61.6061C135.19 61.6576 134.84 62.0163 134.802 62.4779L134.62 64.6109C134.555 65.3875 134.067 66.0574 133.35 66.3582C132.633 66.6591 131.814 66.5357 131.213 66.0381L129.567 64.6726C129.211 64.3769 128.711 64.3743 128.351 64.6662C127.562 65.3065 126.84 66.0342 126.206 66.8288C125.917 67.1914 125.925 67.6903 126.223 68.0451L127.603 69.6793C128.105 70.2759 128.235 71.0936 127.94 71.8136C127.645 72.5336 126.979 73.0261 126.203 73.0981L124.072 73.2961C123.611 73.3385 123.256 73.6908 123.208 74.1511C123.103 75.1617 123.107 76.1852 123.22 77.1958C123.271 77.656 123.63 78.0058 124.091 78.0443L126.224 78.2256C127.002 78.2912 127.671 78.7785 127.972 79.4959C128.273 80.2134 128.149 81.0324 127.652 81.6328L126.286 83.2786C125.99 83.6348 125.988 84.1349 126.28 84.4949C126.92 85.2844 127.648 86.0057 128.442 86.6395C128.804 86.9288 129.304 86.9211 129.659 86.6228L131.294 85.2445C131.677 84.9205 132.154 84.7508 132.638 84.7508Z" fill="#499A9A"/>
<path d="M137.232 82.8773C133.229 82.8773 129.973 79.6205 129.973 75.618C129.973 71.6142 133.229 68.3574 137.232 68.3574C141.236 68.3574 144.493 71.6142 144.493 75.618C144.491 79.6205 141.234 82.8773 137.232 82.8773ZM137.232 69.6432C133.938 69.6432 131.258 72.3227 131.258 75.618C131.258 78.9134 133.938 81.5916 137.232 81.5916C140.526 81.5916 143.207 78.9121 143.207 75.618C143.207 72.3239 140.526 69.6432 137.232 69.6432Z" fill="#499A9A"/>
</svg>

