<svg width="252" height="121" viewBox="0 0 252 121" fill="none" xmlns="http://www.w3.org/2000/svg">
<line opacity="0.3" x1="84.4375" y1="60.6538" x2="0.999367" y2="60.6538" stroke="#082326"/>
<path opacity="0.3" d="M1.4209 2L34.7821 2C46.3801 2 55.7821 11.402 55.7821 23V39.5752C55.7821 51.1732 65.1841 60.5752 76.7821 60.5752H84.859" stroke="#082326"/>
<path opacity="0.3" d="M1.4209 119.15L34.7821 119.15C46.3801 119.15 55.7821 109.748 55.7821 98.1504V81.5752C55.7821 69.9772 65.1841 60.5751 76.7821 60.5751H84.859" stroke="#082326"/>
<line opacity="0.3" y1="-0.5" x2="83.4381" y2="-0.5" transform="matrix(1 -8.74227e-08 -8.74227e-08 -1 166.562 60.1538)" stroke="#082326"/>
<path opacity="0.3" d="M249.578 2L216.217 2C204.619 2 195.217 11.402 195.217 23V39.5752C195.217 51.1732 185.815 60.5752 174.217 60.5752H166.14" stroke="#082326"/>
<path opacity="0.3" d="M249.578 119.15L216.217 119.15C204.619 119.15 195.217 109.748 195.217 98.1504V81.5752C195.217 69.9772 185.815 60.5751 174.217 60.5751H166.14" stroke="#082326"/>
<ellipse cx="125.304" cy="60.7679" rx="41.768" ry="41.7679" fill="#082326"/>
<path d="M127.098 61.2757H124.908C124.269 61.2757 123.75 60.7563 123.75 60.118V55.0896H125.229V59.7972H126.773V55.0896H128.252V60.118C128.252 60.7563 127.734 61.2757 127.098 61.2757Z" fill="#499A9A"/>
<path d="M100.527 60.2607H107.638V61.7394H100.527V60.2607Z" fill="#499A9A"/>
<path d="M112.491 48.5371L108.042 44.0879H100.523V42.6094H108.348C108.544 42.6094 108.732 42.6872 108.871 42.8259L113.537 47.4916L112.491 48.5371Z" fill="#499A9A"/>
<path d="M98.1315 46.48C96.4048 46.48 95 45.0753 95 43.3487C95 41.622 96.4048 40.2173 98.1315 40.2173C99.8581 40.2173 101.263 41.622 101.263 43.3487C101.263 45.0753 99.8581 46.48 98.1315 46.48ZM98.1315 41.6957C97.2201 41.6957 96.4785 42.4372 96.4785 43.3487C96.4785 44.2601 97.2199 45.0016 98.1315 45.0016C99.043 45.0016 99.7843 44.2601 99.7843 43.3487C99.7843 42.4372 99.0429 41.6957 98.1315 41.6957Z" fill="#499A9A"/>
<path d="M128.086 80.1057H123.919C122.916 80.1057 122.073 79.4566 121.819 78.4904L121.226 76.2809C120.311 75.9939 119.423 75.6254 118.577 75.1814L116.589 76.3278C115.726 76.8305 114.67 76.692 113.965 75.9817L111.021 73.037C110.316 72.3326 110.176 71.2783 110.672 70.4135L111.822 68.4261C111.379 67.5807 111.01 66.6929 110.723 65.7779L108.506 65.1838C107.544 64.9248 106.898 64.0817 106.898 63.0854V58.9149C106.898 57.9186 107.544 57.0754 108.506 56.8166L110.723 56.2223C111.009 55.3103 111.378 54.4236 111.822 53.5772L110.673 51.5888C110.176 50.7217 110.316 49.6674 111.02 48.963L113.967 46.0165C114.67 45.3077 115.726 45.1695 116.591 45.6738L118.577 46.8186C119.423 46.3746 120.311 46.0062 121.226 45.7191L121.82 43.5057C122.073 42.5436 122.916 41.8945 123.919 41.8945H128.086C129.085 41.8945 129.93 42.5422 130.188 43.5062L130.782 45.7196C131.696 46.007 132.583 46.3755 133.427 46.8187L135.416 45.6722C136.279 45.1695 137.334 45.308 138.039 46.0185L140.987 48.9625C141.689 49.6704 141.827 50.7239 141.333 51.5867L140.185 53.5743C140.632 54.4263 141 55.3141 141.283 56.2228L143.498 56.8165C144.462 57.076 145.11 57.9193 145.11 58.915V63.0855C145.11 64.0812 144.462 64.9243 143.499 65.1836L141.283 65.7777C141 66.6864 140.632 67.5741 140.185 68.4262L141.332 70.4118C141.827 71.2764 141.69 72.33 140.99 73.0351L138.038 75.9838C137.334 76.6925 136.279 76.8313 135.413 76.3263L133.427 75.1816C132.58 75.6262 131.694 75.9939 130.782 76.2783L130.188 78.4945C129.93 79.4583 129.085 80.106 128.086 80.106V80.1057ZM118.566 73.5952C118.69 73.5952 118.815 73.6266 118.927 73.6895C119.905 74.2368 120.951 74.671 122.036 74.98C122.286 75.0511 122.48 75.2484 122.547 75.4994L123.248 78.1113C123.331 78.4263 123.594 78.6271 123.919 78.6271H128.086C128.411 78.6271 128.676 78.4247 128.759 78.1116L129.46 75.4961C129.528 75.2445 129.723 75.0469 129.973 74.976C131.052 74.671 132.097 74.2381 133.077 73.6893C133.305 73.5621 133.582 73.564 133.808 73.694L136.154 75.0469C136.436 75.211 136.763 75.1686 136.99 74.9399L139.943 71.9907C140.169 71.7628 140.212 71.4313 140.05 71.1488L138.698 68.8075C138.568 68.5821 138.566 68.3049 138.693 68.0776C139.244 67.0887 139.677 66.0432 139.98 64.9698C140.05 64.7189 140.248 64.5238 140.5 64.4563L143.115 63.7553C143.428 63.671 143.631 63.4079 143.631 63.0851V58.9146C143.631 58.5917 143.428 58.3285 143.115 58.2441L140.5 57.5435C140.248 57.476 140.051 57.2809 139.98 57.0299C139.677 55.9564 139.244 54.9108 138.693 53.9222C138.566 53.6948 138.568 53.4177 138.698 53.1923L140.051 50.849C140.212 50.5684 140.169 50.2367 139.94 50.0061L136.992 47.0616C136.763 46.831 136.436 46.7883 136.158 46.9509L133.808 48.3056C133.582 48.4359 133.305 48.4375 133.077 48.3103C132.101 47.7637 131.056 47.3294 129.971 47.0196C129.722 46.9483 129.528 46.7512 129.461 46.5004L128.76 43.8886C128.676 43.5751 128.411 43.3727 128.086 43.3727H123.919C123.594 43.3727 123.331 43.5736 123.249 43.8846L122.547 46.5005C122.48 46.7514 122.286 46.9486 122.036 47.0199C120.951 47.329 119.905 47.7631 118.927 48.3104C118.7 48.4376 118.422 48.436 118.197 48.3057L115.85 46.9527C115.568 46.7885 115.241 46.831 115.014 47.0598L112.066 50.0083C111.836 50.238 111.792 50.5687 111.954 50.8512L113.31 53.1958C113.44 53.4215 113.442 53.6993 113.315 53.9267C112.766 54.9069 112.332 55.9517 112.024 57.0319C111.953 57.282 111.755 57.4762 111.504 57.5435L108.889 58.2443C108.578 58.328 108.377 58.5911 108.377 58.9146V63.0851C108.377 63.4085 108.578 63.6718 108.89 63.7556L111.504 64.4563C111.755 64.5235 111.953 64.7178 112.024 64.9679C112.333 66.0525 112.767 67.0985 113.315 68.0766C113.442 68.3043 113.44 68.5821 113.309 68.8079L111.953 71.1513C111.793 71.4308 111.836 71.7616 112.066 71.9912L115.012 74.9378C115.241 75.1682 115.568 75.211 115.847 75.0484L118.197 73.6936C118.311 73.6278 118.439 73.5947 118.566 73.5947L118.566 73.5952Z" fill="#499A9A"/>
<path d="M98.1315 64.1313C96.4048 64.1313 95 62.7265 95 60.9999C95 59.2732 96.4048 57.8684 98.1315 57.8684C99.8581 57.8684 101.263 59.2732 101.263 60.9999C101.263 62.7265 99.8581 64.1313 98.1315 64.1313ZM98.1315 59.3469C97.2201 59.3469 96.4785 60.0884 96.4785 60.9999C96.4785 61.9114 97.2199 62.6527 98.1315 62.6527C99.043 62.6527 99.7843 61.9113 99.7843 60.9999C99.7843 60.0885 99.0429 59.3469 98.1315 59.3469Z" fill="#499A9A"/>
<path d="M108.348 79.3909H100.523V77.9122H108.042L112.491 73.4631L113.537 74.5085L108.871 79.1743C108.732 79.3129 108.544 79.3909 108.348 79.3909Z" fill="#499A9A"/>
<path d="M98.1315 81.7831C96.4048 81.7831 95 80.3783 95 78.6516C95 76.925 96.4048 75.5203 98.1315 75.5203C99.8581 75.5203 101.263 76.925 101.263 78.6516C101.263 80.3783 99.8581 81.7831 98.1315 81.7831ZM98.1315 76.9988C97.2201 76.9988 96.4785 77.7402 96.4785 78.6516C96.4785 79.5631 97.2199 80.3046 98.1315 80.3046C99.043 80.3046 99.7843 79.5632 99.7843 78.6516C99.7843 77.7401 99.0429 76.9988 98.1315 76.9988Z" fill="#499A9A"/>
<path d="M144.371 60.2607H151.478V61.7394H144.371V60.2607Z" fill="#499A9A"/>
<path d="M125.264 35.5237H126.742V42.6338H125.264V35.5237Z" fill="#499A9A"/>
<path d="M139.512 48.5371L138.467 47.4916L143.133 42.8259C143.271 42.6872 143.459 42.6094 143.655 42.6094H151.48V44.0879H143.961L139.512 48.5371Z" fill="#499A9A"/>
<path d="M153.87 46.48C152.143 46.48 150.738 45.0753 150.738 43.3487C150.738 41.622 152.143 40.2173 153.87 40.2173C155.596 40.2173 157.001 41.622 157.001 43.3487C157.001 45.0753 155.596 46.48 153.87 46.48ZM153.87 41.6957C152.958 41.6957 152.217 42.4372 152.217 43.3487C152.217 44.2601 152.958 45.0016 153.87 45.0016C154.781 45.0016 155.523 44.2601 155.523 43.3487C155.523 42.4372 154.781 41.6957 153.87 41.6957Z" fill="#499A9A"/>
<path d="M153.87 64.1313C152.143 64.1313 150.738 62.7265 150.738 60.9999C150.738 59.2732 152.143 57.8684 153.87 57.8684C155.596 57.8684 157.001 59.2732 157.001 60.9999C157.001 62.7265 155.596 64.1313 153.87 64.1313ZM153.87 59.3469C152.958 59.3469 152.217 60.0884 152.217 60.9999C152.217 61.9114 152.958 62.6527 153.87 62.6527C154.781 62.6527 155.523 61.9113 155.523 60.9999C155.523 60.0885 154.781 59.3469 153.87 59.3469Z" fill="#499A9A"/>
<path d="M126.003 36.2627C124.276 36.2627 122.871 34.858 122.871 33.1314C122.871 31.4047 124.276 30 126.003 30C127.729 30 129.134 31.4047 129.134 33.1314C129.134 34.858 127.729 36.2627 126.003 36.2627ZM126.003 31.4784C125.091 31.4784 124.35 32.2199 124.35 33.1314C124.35 34.0428 125.091 34.7843 126.003 34.7843C126.914 34.7843 127.655 34.0428 127.655 33.1314C127.655 32.2199 126.914 31.4784 126.003 31.4784Z" fill="#499A9A"/>
<path d="M151.48 79.3909H143.655C143.459 79.3909 143.271 79.3129 143.133 79.1743L138.467 74.5085L139.512 73.4631L143.961 77.9122H151.48V79.3909Z" fill="#499A9A"/>
<path d="M153.87 81.7831C152.143 81.7831 150.738 80.3783 150.738 78.6516C150.738 76.925 152.143 75.5203 153.87 75.5203C155.596 75.5203 157.001 76.925 157.001 78.6516C157.001 80.3783 155.596 81.7831 153.87 81.7831ZM153.87 76.9988C152.958 76.9988 152.217 77.7402 152.217 78.6516C152.217 79.5631 152.958 80.3046 153.87 80.3046C154.781 80.3046 155.523 79.5632 155.523 78.6516C155.523 77.7401 154.781 76.9988 153.87 76.9988Z" fill="#499A9A"/>
<path d="M126.002 72.4519C119.686 72.4519 114.547 67.3148 114.547 61.0004C114.547 54.686 119.686 49.5488 126.002 49.5488C132.318 49.5488 137.454 54.686 137.454 61.0004C137.454 67.3148 132.316 72.4519 126.002 72.4519ZM126.002 51.0274C120.501 51.0274 116.025 55.5012 116.025 61.0004C116.025 66.4996 120.501 70.9733 126.002 70.9733C131.503 70.9733 135.975 66.4994 135.975 61.0004C135.975 55.5013 131.501 51.0274 126.002 51.0274Z" fill="#499A9A"/>
<path d="M125.264 79.3665H126.742V86.4765H125.264V79.3665Z" fill="#499A9A"/>
<path d="M126.003 91.9999C124.276 91.9999 122.871 90.5952 122.871 88.8686C122.871 87.1419 124.276 85.7371 126.003 85.7371C127.729 85.7371 129.134 87.1419 129.134 88.8686C129.134 90.5952 127.729 91.9999 126.003 91.9999ZM126.003 87.2156C125.091 87.2156 124.35 87.957 124.35 88.8686C124.35 89.7801 125.091 90.5214 126.003 90.5214C126.914 90.5214 127.655 89.78 127.655 88.8686C127.655 87.9571 126.914 87.2156 126.003 87.2156Z" fill="#499A9A"/>
<path d="M130.726 67.6496H121.273C120.214 67.6496 119.352 66.7876 119.352 65.7282V56.2712C119.352 55.2118 120.214 54.3499 121.273 54.3499H130.726C131.786 54.3499 132.648 55.2118 132.648 56.2712V65.7282C132.648 66.7876 131.786 67.6496 130.726 67.6496ZM121.273 55.8284C121.033 55.8284 120.83 56.0311 120.83 56.2712V65.7282C120.83 65.9682 121.033 66.1711 121.273 66.1711H130.726C130.966 66.1711 131.169 65.9683 131.169 65.7282V56.2712C131.169 56.0312 130.967 55.8284 130.726 55.8284H121.273Z" fill="#499A9A"/>
</svg>

