<svg width="252" height="121" viewBox="0 0 252 121" fill="none" xmlns="http://www.w3.org/2000/svg">
<line opacity="0.3" x1="84.4375" y1="60.6538" x2="0.999367" y2="60.6538" stroke="#082326"/>
<path opacity="0.3" d="M1.4209 2L34.7821 2C46.3801 2 55.7821 11.402 55.7821 23V39.5752C55.7821 51.1732 65.1841 60.5752 76.7821 60.5752H84.859" stroke="#082326"/>
<path opacity="0.3" d="M1.4209 119.15L34.7821 119.15C46.3801 119.15 55.7821 109.748 55.7821 98.1504V81.5752C55.7821 69.9772 65.1841 60.5751 76.7821 60.5751H84.859" stroke="#082326"/>
<line opacity="0.3" y1="-0.5" x2="83.4381" y2="-0.5" transform="matrix(1 -8.74227e-08 -8.74227e-08 -1 166.562 60.1538)" stroke="#082326"/>
<path opacity="0.3" d="M249.578 2L216.217 2C204.619 2 195.217 11.402 195.217 23V39.5752C195.217 51.1732 185.815 60.5752 174.217 60.5752H166.14" stroke="#082326"/>
<path opacity="0.3" d="M249.578 119.15L216.217 119.15C204.619 119.15 195.217 109.748 195.217 98.1504V81.5752C195.217 69.9772 185.815 60.5751 174.217 60.5751H166.14" stroke="#082326"/>
<ellipse cx="125.304" cy="60.7679" rx="41.768" ry="41.7679" fill="#082326"/>
<path fill-rule="evenodd" clip-rule="evenodd" d="M132.436 42.3324V44.8241C132.436 45.285 132.811 45.66 133.273 45.66C133.735 45.66 134.109 45.285 134.109 44.8241V40.3127C134.109 40.3005 134.104 40.2882 134.104 40.2746C134.104 40.2328 134.099 40.1923 134.088 40.1493C134.084 40.1222 134.073 40.0952 134.068 40.0681C134.059 40.0435 134.054 40.019 134.044 39.9944C134.028 39.9636 134.014 39.9366 133.998 39.9083C133.99 39.8887 133.979 39.8678 133.969 39.8493C133.905 39.7584 133.825 39.6797 133.735 39.6182C133.716 39.6035 133.69 39.5949 133.67 39.5813C133.646 39.5666 133.621 39.5518 133.59 39.5396C133.561 39.5297 133.536 39.5223 133.507 39.5137C133.482 39.5064 133.462 39.4965 133.437 39.4916C133.383 39.4806 133.327 39.4756 133.273 39.4756H128.759C128.301 39.4756 127.922 39.8506 127.922 40.3115C127.922 40.7737 128.301 41.1474 128.759 41.1474H131.252L125.385 47.0146L121.27 42.8978C120.94 42.5709 120.413 42.5709 120.085 42.8978L117.138 45.8443C116.816 46.1713 116.816 46.6999 117.138 47.0256C117.468 47.3526 117.995 47.3526 118.322 47.0256L120.677 44.6716L124.793 48.7884C124.957 48.9519 125.171 49.033 125.385 49.033C125.599 49.033 125.813 48.9519 125.978 48.7884L132.436 42.3324ZM150.53 77.887C150.69 78.0813 150.754 78.3369 150.705 78.5828C149.838 82.8151 146.071 85.887 141.741 85.887C136.7 85.887 132.599 81.785 132.599 76.7426C132.599 72.4157 135.67 68.6493 139.905 67.7827C140.148 67.7323 140.408 67.7962 140.601 67.9547C140.795 68.1133 140.905 68.3506 140.905 68.6013V77.5773H149.883C150.138 77.5797 150.371 77.6928 150.53 77.887ZM142.578 75.0721C142.578 75.533 142.957 75.908 143.414 75.908H149.884C150.138 75.908 150.371 75.7949 150.53 75.6006C150.69 75.4052 150.754 75.1495 150.705 74.9049C149.967 71.313 147.175 68.519 143.583 67.7839C143.339 67.7335 143.08 67.7974 142.886 67.956C142.692 68.1146 142.577 68.3518 142.577 68.6026V75.0721H142.578ZM153.327 76.7438C153.327 70.3555 148.132 65.1595 141.743 65.1595C135.358 65.1595 130.162 70.3555 130.162 76.7438C130.162 83.131 135.358 88.3282 141.743 88.3282C148.132 88.3282 153.327 83.131 153.327 76.7438ZM120.842 76.7438C120.842 70.3555 115.646 65.1595 109.257 65.1595C102.871 65.1595 97.6718 70.3555 97.6718 76.7438C97.6718 83.131 102.871 88.3282 109.257 88.3282C115.646 88.3282 120.842 83.131 120.842 76.7438ZM125.498 55.8418C119.113 55.8418 113.914 50.6458 113.914 44.2574C113.914 37.869 119.113 32.673 125.498 32.673C131.888 32.673 137.084 37.869 137.084 44.2574C137.085 50.6458 131.889 55.8418 125.498 55.8418ZM155 76.7438C155 84.0541 149.053 90 141.743 90C134.437 90 128.49 84.0529 128.49 76.7438C128.49 73.4974 129.664 70.5214 131.605 68.2141L125.499 65.1349L119.394 68.2141C121.34 70.5202 122.514 73.4974 122.514 76.7438C122.514 84.0541 116.566 90 109.257 90C101.946 90 96 84.0529 96 76.7438C96 69.4335 101.947 63.4877 109.257 63.4877C112.696 63.4877 115.826 64.8017 118.184 66.9529L124.663 63.6856V57.4853C117.742 57.0514 112.242 51.2862 112.242 44.2574C112.242 36.9471 118.19 31 125.499 31C132.811 31 138.757 36.9483 138.757 44.2574C138.757 51.2862 133.257 57.0514 126.335 57.4853V63.6856L132.82 66.9529C135.174 64.8017 138.308 63.4877 141.743 63.4877C149.053 63.4865 155 69.4335 155 76.7438ZM114.576 69.8392C115.039 69.8392 115.412 70.2141 115.412 70.6763V82.8102C115.412 83.2711 115.039 83.6473 114.576 83.6473C114.119 83.6473 113.739 83.2711 113.739 82.8102V70.6763C113.739 70.2141 114.119 69.8392 114.576 69.8392ZM111.032 72.6849C111.491 72.6849 111.87 73.0598 111.87 73.5208V82.8102C111.87 83.2711 111.491 83.6473 111.032 83.6473C110.57 83.6473 110.197 83.2711 110.197 82.8102V73.5208C110.197 73.0598 110.569 72.6849 111.032 72.6849ZM107.484 75.5306C107.946 75.5306 108.319 75.9055 108.319 76.3677V82.8102C108.319 83.2711 107.946 83.6473 107.484 83.6473C107.021 83.6473 106.648 83.2711 106.648 82.8102V76.3677C106.648 75.9055 107.021 75.5306 107.484 75.5306ZM104.772 79.2122V82.8102C104.772 83.2711 104.398 83.6473 103.936 83.6473C103.474 83.6473 103.1 83.2711 103.1 82.8102V79.2122C103.1 78.7512 103.474 78.3763 103.936 78.3763C104.398 78.3763 104.772 78.7512 104.772 79.2122Z" fill="#499A9A"/>
</svg>


