<svg width="252" height="121" viewBox="0 0 252 121" fill="none" xmlns="http://www.w3.org/2000/svg">
<line opacity="0.3" x1="84.4375" y1="60.6538" x2="0.999367" y2="60.6538" stroke="#082326"/>
<path opacity="0.3" d="M1.4209 2L34.7821 2C46.3801 2 55.7821 11.402 55.7821 23V39.5752C55.7821 51.1732 65.1841 60.5752 76.7821 60.5752H84.859" stroke="#082326"/>
<path opacity="0.3" d="M1.4209 119.15L34.7821 119.15C46.3801 119.15 55.7821 109.748 55.7821 98.1504V81.5752C55.7821 69.9772 65.1841 60.5751 76.7821 60.5751H84.859" stroke="#082326"/>
<line opacity="0.3" y1="-0.5" x2="83.4381" y2="-0.5" transform="matrix(1 -8.74227e-08 -8.74227e-08 -1 166.562 60.1538)" stroke="#082326"/>
<path opacity="0.3" d="M249.578 2L216.217 2C204.619 2 195.217 11.402 195.217 23V39.5752C195.217 51.1732 185.815 60.5752 174.217 60.5752H166.14" stroke="#082326"/>
<path opacity="0.3" d="M249.578 119.15L216.217 119.15C204.619 119.15 195.217 109.748 195.217 98.1504V81.5752C195.217 69.9772 185.815 60.5751 174.217 60.5751H166.14" stroke="#082326"/>
<ellipse cx="125.304" cy="60.7679" rx="41.768" ry="41.7679" fill="#082326"/>
<path fill-rule="evenodd" clip-rule="evenodd" d="M141.278 80.8295C141.394 80.4882 141.766 80.3068 142.107 80.4234C142.447 80.5408 142.629 80.912 142.512 81.2526C141.166 85.1717 138.741 88.12 135.778 90.0849C132.905 91.9907 129.526 92.9657 126.14 92.9991C122.756 93.0325 119.361 92.1244 116.456 90.2641C113.484 88.3604 111.025 85.4639 109.613 81.5634C109.49 81.2256 109.664 80.8515 110.003 80.7292C110.34 80.6069 110.714 80.7811 110.837 81.1196C112.145 84.7315 114.416 87.4103 117.16 89.1675C119.848 90.8892 122.992 91.7297 126.13 91.6984C129.267 91.6672 132.397 90.764 135.059 88.9983C137.792 87.1863 140.032 84.4605 141.278 80.8295ZM148.41 66.2065C147.755 66.1546 147.142 66.3729 146.68 66.7668C146.218 67.1615 145.906 67.7333 145.855 68.3889C145.803 69.0446 146.021 69.6576 146.415 70.1191C146.809 70.5814 147.381 70.8935 148.036 70.9447C148.692 70.9967 149.304 70.7783 149.766 70.3844C150.228 69.9897 150.54 69.4179 150.592 68.763C150.643 68.1073 150.425 67.4943 150.031 67.0321C149.636 66.5699 149.065 66.2584 148.41 66.2065ZM145.833 65.7769C146.551 65.1647 147.5 64.8255 148.512 64.9051C149.524 64.9847 150.408 65.4683 151.02 66.1851C151.632 66.9027 151.971 67.8527 151.892 68.8647C151.812 69.8773 151.329 70.7627 150.612 71.3743C149.895 71.9866 148.945 72.3258 147.934 72.2461C146.922 72.1665 146.037 71.6829 145.425 70.9661C144.813 70.2486 144.474 69.2985 144.554 68.2865C144.634 67.2739 145.117 66.3892 145.833 65.7769ZM148.625 62.84V62.8385C148.843 62.8535 149.063 62.7596 149.199 62.5697L150.164 61.2257L151.354 61.6488L151.256 63.2794C151.235 63.5042 151.332 63.7339 151.53 63.8725C151.727 64.0112 151.909 64.1556 152.074 64.3049C152.239 64.4535 152.398 64.6157 152.549 64.7899C152.691 64.9634 152.92 65.0587 153.158 65.0203L154.791 64.7515L155.333 65.8936L154.134 66.9553C153.945 67.0982 153.84 67.3393 153.883 67.5896C153.925 67.8257 153.952 68.0568 153.963 68.2816C153.974 68.5091 153.972 68.7424 153.956 68.9778H153.957C153.942 69.1954 154.036 69.4151 154.226 69.5516L155.569 70.5166L155.146 71.7078L153.517 71.6089C153.292 71.5883 153.063 71.685 152.924 71.8827C152.785 72.0804 152.64 72.2625 152.491 72.4275C152.342 72.5924 152.18 72.751 152.007 72.9032C151.833 73.0454 151.738 73.2737 151.777 73.5119L152.045 75.1461L150.904 75.6887L149.843 74.4897C149.7 74.2999 149.459 74.1953 149.209 74.2387C148.973 74.28 148.742 74.3063 148.517 74.3184C148.289 74.3304 148.055 74.3276 147.819 74.3113V74.3127C147.603 74.2985 147.384 74.393 147.247 74.5815L146.283 75.9255L145.092 75.5024L145.19 73.8718C145.211 73.6471 145.114 73.4181 144.916 73.2787C144.719 73.14 144.537 72.9949 144.372 72.8456C144.207 72.697 144.049 72.5348 143.897 72.3613C143.755 72.1878 143.526 72.0925 143.289 72.1309L141.655 72.3997L141.113 71.2576L142.311 70.1959C142.501 70.053 142.606 69.8112 142.562 69.5616C142.521 69.3255 142.495 69.0944 142.483 68.8697C142.471 68.6421 142.473 68.4088 142.49 68.1735H142.488C142.503 67.9559 142.409 67.7361 142.22 67.5996L140.876 66.6346L141.3 65.4434L142.93 65.5423C143.154 65.5629 143.383 65.4662 143.523 65.2678C143.661 65.0701 143.805 64.888 143.955 64.723C144.103 64.5581 144.265 64.3995 144.44 64.2473C144.613 64.1051 144.708 63.8761 144.67 63.6386L144.402 62.0051L145.543 61.4625L146.605 62.6615C146.748 62.8513 146.988 62.9559 147.239 62.9125C147.475 62.8713 147.706 62.8442 147.93 62.8329C148.157 62.8208 148.39 62.8236 148.625 62.84ZM147.864 61.5315C148.026 61.5229 148.188 61.5201 148.349 61.5229L149.368 60.1021C149.526 59.8482 149.845 59.7288 150.138 59.8326L152.251 60.5835C152.518 60.6774 152.701 60.9398 152.684 61.2364L152.576 63.027C152.701 63.1251 152.824 63.2297 152.947 63.3406C153.067 63.4501 153.184 63.5625 153.295 63.6777L155.041 63.3904C155.328 63.3328 155.628 63.475 155.758 63.7516L156.721 65.7777C156.841 66.033 156.784 66.3466 156.563 66.5428L155.223 67.7297C155.242 67.889 155.256 68.0511 155.264 68.2154C155.273 68.3783 155.276 68.5404 155.273 68.7011L156.693 69.7216C156.947 69.8795 157.066 70.1981 156.963 70.4918L156.211 72.6052C156.117 72.8726 155.855 73.0561 155.559 73.039L153.769 72.9309C153.67 73.0554 153.566 73.1791 153.455 73.3014C153.347 73.4223 153.234 73.539 153.119 73.6499L153.406 75.3972C153.464 75.6837 153.322 75.9838 153.045 76.114L151.02 77.0776C150.765 77.1985 150.452 77.1416 150.255 76.9197L149.069 75.5792C148.91 75.5984 148.748 75.6119 148.584 75.6204C148.421 75.629 148.259 75.6318 148.098 75.629L147.078 77.0498C146.92 77.3037 146.602 77.4232 146.308 77.3193L144.196 76.5684C143.929 76.4738 143.745 76.2121 143.762 75.9156L143.87 74.1249C143.746 74.0261 143.622 73.9216 143.5 73.8113C143.379 73.7018 143.262 73.5895 143.152 73.475L141.405 73.7623C141.119 73.8199 140.819 73.6776 140.689 73.401L139.725 71.375L139.726 71.3743C139.606 71.119 139.662 70.8054 139.883 70.6091L141.223 69.4215C141.204 69.2622 141.19 69.1001 141.182 68.9358C141.173 68.7729 141.171 68.6108 141.173 68.4501L139.753 67.4303C139.499 67.2725 139.38 66.9539 139.484 66.6602L140.234 64.5467C140.328 64.2793 140.59 64.0958 140.887 64.1129L142.677 64.221C142.776 64.0965 142.88 63.9728 142.99 63.8505C143.1 63.7296 143.212 63.6137 143.327 63.502L143.04 61.7548C142.982 61.4682 143.125 61.1681 143.401 61.038L145.426 60.0751L145.427 60.0758C145.681 59.9549 145.995 60.0111 146.192 60.233L147.379 61.5734C147.537 61.5542 147.699 61.54 147.864 61.5315ZM131.216 50.8261C131.216 52.2668 130.633 53.5718 129.689 54.5162C128.746 55.4591 127.443 56.0422 126 56.0422C124.559 56.0422 123.254 55.4591 122.311 54.5162C121.367 53.5718 120.784 52.2668 120.784 50.8261C120.784 50.4655 121.076 50.1726 121.436 50.1726H130.563C130.923 50.1726 131.216 50.4648 131.216 50.8261ZM128.765 53.5924C129.328 53.0299 129.719 52.2974 129.857 51.4789H122.143C122.281 52.2974 122.672 53.0306 123.235 53.5924C123.943 54.3021 124.921 54.7409 126 54.7409C127.078 54.7409 128.056 54.3021 128.765 53.5924ZM121.719 67.372L119.506 66.1503C119.253 65.9903 118.915 66.0202 118.695 66.2406L116.535 68.4017L116.536 68.4024C116.336 68.6023 116.283 68.9173 116.426 69.1776L117.667 71.4276C117.549 71.6573 117.441 71.8898 117.344 72.1238C117.246 72.3606 117.158 72.6017 117.08 72.8456L114.676 73.5397C114.373 73.5959 114.143 73.8618 114.143 74.1818V77.2383H114.145C114.145 77.5213 114.332 77.7816 114.617 77.8634L117.08 78.5745C117.158 78.8184 117.246 79.0595 117.344 79.2963C117.441 79.531 117.549 79.7635 117.667 79.9925L116.445 82.207C116.285 82.4594 116.315 82.7979 116.535 83.0176L118.695 85.1788L118.696 85.1781C118.896 85.3779 119.211 85.4312 119.471 85.2883L121.719 84.0467C121.949 84.1647 122.181 84.2728 122.416 84.3695C122.652 84.4676 122.893 84.5558 123.137 84.6341L123.841 87.0725C123.91 87.3577 124.166 87.5696 124.473 87.5696L127.528 87.5689C127.811 87.5689 128.071 87.3826 128.153 87.0974L128.864 84.6333C129.107 84.5551 129.348 84.4669 129.585 84.3688C129.82 84.2714 130.052 84.164 130.282 84.0459L132.494 85.2677C132.747 85.4277 133.085 85.3978 133.305 85.1774L135.465 83.0162L135.464 83.0155C135.664 82.8157 135.717 82.5007 135.574 82.2404L134.333 79.9904C134.451 79.7607 134.559 79.5281 134.657 79.2934C134.755 79.0566 134.843 78.8156 134.921 78.5716L137.358 77.8676C137.643 77.7986 137.855 77.5419 137.855 77.2354L137.855 74.179C137.855 73.8959 137.668 73.6357 137.383 73.5539L134.92 72.8428C134.842 72.5988 134.754 72.3578 134.656 72.121C134.559 71.8863 134.451 71.6537 134.333 71.4248L135.554 69.2103C135.714 68.9578 135.684 68.6193 135.464 68.3996L133.304 66.2385L133.303 66.2392C133.104 66.0394 132.789 65.986 132.528 66.129L130.28 67.3706C130.051 67.2525 129.818 67.1445 129.584 67.0477C129.347 66.9496 129.106 66.8614 128.862 66.7832L128.168 64.3789C128.112 64.0745 127.846 63.8441 127.526 63.8441H124.471V63.8469C124.188 63.8469 123.928 64.0325 123.847 64.3184L123.136 66.7825C122.892 66.8607 122.651 66.9489 122.414 67.047C122.181 67.1459 121.949 67.254 121.719 67.372ZM122.91 68.2531C122.62 68.3726 122.343 68.507 122.076 68.6549C121.88 68.7857 121.62 68.8064 121.399 68.6848L119.271 67.51L117.804 68.9778L118.978 71.1069L118.977 71.1076C119.081 71.2982 119.088 71.5364 118.973 71.7391C118.815 72.0193 118.673 72.3123 118.547 72.6173C118.422 72.9188 118.316 73.2282 118.228 73.5432C118.17 73.7544 118.006 73.9308 117.78 73.9948L115.448 74.6682V76.7483L117.744 77.4111C117.971 77.4623 118.163 77.6337 118.228 77.8733C118.316 78.1883 118.422 78.4977 118.547 78.7992C118.666 79.0886 118.801 79.3667 118.949 79.6334C119.08 79.8289 119.1 80.0892 118.979 80.3104L117.805 82.4395L119.272 83.9073L121.4 82.7325L121.401 82.7339C121.591 82.6294 121.829 82.623 122.032 82.7375C122.311 82.8953 122.605 83.0383 122.91 83.1641C123.211 83.2886 123.52 83.3953 123.835 83.4827C124.046 83.541 124.223 83.7053 124.287 83.9315L124.96 86.2675H127.038L127.701 83.9677C127.753 83.7409 127.923 83.5489 128.163 83.4827C128.478 83.3953 128.787 83.2886 129.088 83.1641C129.377 83.0447 129.655 82.9103 129.922 82.7624C130.117 82.6315 130.378 82.6109 130.599 82.7325L132.727 83.9073L134.194 82.4395L133.02 80.3104L133.021 80.3097C132.917 80.1191 132.91 79.8808 133.025 79.6782C133.182 79.3987 133.325 79.105 133.451 78.7999C133.576 78.4984 133.682 78.1891 133.77 77.874C133.828 77.6628 133.992 77.4865 134.218 77.4225L136.552 76.7483V74.6697L134.254 74.0062C134.027 73.955 133.835 73.7836 133.77 73.5439C133.682 73.2289 133.575 72.9188 133.451 72.618C133.332 72.3286 133.197 72.0506 133.049 71.7846C132.919 71.5883 132.898 71.3288 133.02 71.1076L134.194 68.9785L132.727 67.5107L130.599 68.6855L130.598 68.6833C130.407 68.7879 130.169 68.7943 129.967 68.6798C129.687 68.5219 129.394 68.379 129.089 68.2531C128.787 68.1287 128.478 68.022 128.163 67.9345C127.952 67.8762 127.776 67.7119 127.712 67.4858L127.039 65.1533H124.96L124.297 67.451C124.246 67.6778 124.075 67.8698 123.835 67.9359C123.52 68.022 123.211 68.1287 122.91 68.2531ZM122.05 71.7576C120.96 72.8484 120.414 74.2792 120.414 75.7093C120.414 77.1394 120.959 78.5695 122.05 79.6604C123.141 80.7513 124.571 81.2974 126 81.2974C127.429 81.2974 128.859 80.752 129.949 79.6604C131.039 78.5688 131.585 77.1387 131.585 75.7093H131.582C131.582 74.2778 131.038 72.8477 129.949 71.7576C128.858 70.6667 127.428 70.1205 126 70.1205C124.57 70.1213 123.141 70.6667 122.05 71.7576ZM122.973 72.6813C123.809 71.8458 124.904 71.4276 126 71.4276C127.095 71.4276 128.19 71.8458 129.026 72.6813C129.864 73.5191 130.282 74.6149 130.282 75.7093H130.279C130.279 76.8052 129.861 77.9011 129.026 78.7373C128.19 79.5736 127.095 79.9918 126 79.9918C124.904 79.9918 123.809 79.5736 122.973 78.7373C122.137 77.9011 121.719 76.8052 121.719 75.7093C121.719 74.6135 122.137 73.5176 122.973 72.6813ZM103.963 66.2065C103.308 66.1546 102.695 66.3729 102.233 66.7668C101.771 67.1615 101.459 67.7333 101.408 68.3889C101.356 69.0446 101.574 69.6576 101.969 70.1191C102.363 70.5814 102.935 70.8935 103.59 70.9447C104.245 70.9967 104.858 70.7783 105.32 70.3844C105.782 69.9897 106.094 69.4179 106.145 68.763C106.197 68.1073 105.979 67.4943 105.585 67.0321C105.19 66.5699 104.618 66.2584 103.963 66.2065ZM101.386 65.7769C102.104 65.1647 103.053 64.8255 104.065 64.9051C105.077 64.9847 105.961 65.4683 106.573 66.1851C107.185 66.9027 107.524 67.8527 107.445 68.8647C107.365 69.8773 106.882 70.7627 106.165 71.3743C105.448 71.9866 104.499 72.3258 103.487 72.2461C102.475 72.1665 101.59 71.6829 100.978 70.9661C100.366 70.2486 100.027 69.2985 100.107 68.2865C100.187 67.2739 100.671 66.3892 101.386 65.7769ZM104.178 62.84V62.8385C104.396 62.8535 104.616 62.7596 104.752 62.5697L105.717 61.2257L106.907 61.6488L106.808 63.2794C106.788 63.5042 106.884 63.7339 107.083 63.8725C107.28 64.0112 107.462 64.1556 107.627 64.3049C107.792 64.4535 107.951 64.6157 108.103 64.7899C108.245 64.9634 108.474 65.0587 108.711 65.0203L110.344 64.7515L110.887 65.8936L109.688 66.9553C109.498 67.0982 109.394 67.3393 109.437 67.5896C109.478 67.8257 109.505 68.0568 109.517 68.2816C109.529 68.5091 109.526 68.7424 109.51 68.9778H109.511C109.496 69.1954 109.59 69.4151 109.78 69.5516L111.123 70.5166L110.7 71.7078L109.07 71.6089C108.846 71.5883 108.617 71.685 108.477 71.8827C108.339 72.0804 108.194 72.2625 108.045 72.4275C107.896 72.5924 107.734 72.751 107.56 72.9025C107.387 73.0447 107.292 73.2737 107.33 73.5112L107.599 75.1454L106.457 75.688L105.396 74.489C105.253 74.2992 105.012 74.1939 104.762 74.238C104.526 74.2792 104.295 74.3056 104.07 74.3176C103.842 74.3297 103.608 74.3269 103.372 74.3105V74.312C103.155 74.2977 102.937 74.3923 102.801 74.5808L101.836 75.9248L100.646 75.5017L100.745 73.8711C100.765 73.6463 100.668 73.4174 100.471 73.278C100.273 73.1393 100.091 72.9942 99.9264 72.8449C99.7614 72.6963 99.6029 72.5341 99.4515 72.3606C99.3094 72.1871 99.0805 72.0918 98.8431 72.1302L97.2082 72.3997L96.6659 71.2576L97.8643 70.1959C98.0541 70.053 98.1586 69.8112 98.1152 69.5616C98.074 69.3255 98.0477 69.0944 98.0356 68.8697C98.0242 68.6421 98.0264 68.4088 98.0427 68.1735H98.0413C98.0562 67.9559 97.9624 67.7361 97.7726 67.5996L96.4292 66.6346L96.8521 65.4434L98.482 65.5423C98.7066 65.5629 98.9355 65.4662 99.0748 65.2678C99.2134 65.0701 99.3584 64.888 99.5077 64.723C99.657 64.5581 99.8183 64.3995 99.9925 64.2473C100.166 64.1051 100.261 63.8761 100.223 63.6386L99.9541 62.0051L101.096 61.4625L102.158 62.6615C102.3 62.8513 102.541 62.9559 102.792 62.9125C103.028 62.8713 103.259 62.8442 103.483 62.8329C103.711 62.8208 103.943 62.8236 104.178 62.84ZM103.416 61.5315C103.579 61.5229 103.741 61.5201 103.902 61.5229L104.921 60.1021C105.079 59.8482 105.397 59.7288 105.691 59.8326L107.804 60.5835C108.071 60.6774 108.254 60.9398 108.237 61.2364L108.129 63.027C108.254 63.1251 108.377 63.2297 108.499 63.3406C108.62 63.4501 108.737 63.5625 108.848 63.6777L110.594 63.3904C110.881 63.3328 111.181 63.475 111.311 63.7516L112.274 65.7777H112.273C112.394 66.033 112.338 66.3466 112.116 66.5428L110.776 67.7297C110.795 67.889 110.809 68.0511 110.817 68.2154C110.826 68.3783 110.829 68.5404 110.826 68.7011L112.246 69.7216C112.5 69.8795 112.619 70.1981 112.516 70.4918L111.765 72.6052C111.67 72.8726 111.409 73.0561 111.112 73.039L109.322 72.9309C109.224 73.0554 109.119 73.1791 109.008 73.3014C108.899 73.4223 108.787 73.539 108.672 73.6499L108.959 75.3972C109.017 75.6837 108.875 75.9838 108.598 76.114L106.573 77.0776L106.572 77.0768C106.318 77.1977 106.004 77.1416 105.808 76.9197L104.622 75.5792C104.463 75.5984 104.301 75.6119 104.136 75.6204C103.974 75.629 103.812 75.6318 103.651 75.629L102.631 77.0498C102.473 77.3037 102.155 77.4232 101.861 77.3193L99.7487 76.5684C99.4814 76.4738 99.298 76.2121 99.3151 75.9156L99.4231 74.1249C99.2987 74.0261 99.175 73.9216 99.0528 73.8113C98.9319 73.7018 98.8154 73.5895 98.7045 73.475L96.958 73.7623C96.6715 73.8199 96.3716 73.6776 96.2415 73.401L95.2784 71.3743L95.2791 71.3736C95.1589 71.1183 95.2144 70.8047 95.4362 70.6084L96.776 69.4208C96.7568 69.2615 96.7433 69.0994 96.7348 68.9351C96.7263 68.7722 96.7234 68.6101 96.7263 68.4494L95.3068 67.4296C95.053 67.2717 94.9336 66.9532 95.0374 66.6595L95.788 64.546C95.8825 64.2786 96.1441 64.0951 96.4405 64.1122L98.2304 64.2203C98.3292 64.0958 98.4329 63.9721 98.5438 63.8498C98.6533 63.7289 98.7656 63.613 98.88 63.5013L98.5936 61.7541C98.5367 61.4675 98.6782 61.1674 98.9547 61.0372L100.98 60.0744C101.235 59.9535 101.548 60.0104 101.745 60.2322L102.932 61.5727C103.09 61.5542 103.252 61.54 103.416 61.5315ZM138.219 29C137.304 29 136.476 29.3712 135.876 29.9714C135.276 30.5716 134.905 31.4001 134.905 32.316C134.905 33.2312 135.276 34.0604 135.876 34.6606C136.476 35.2608 137.304 35.632 138.219 35.632C138.935 35.632 139.597 35.4052 140.139 35.019C141.4 36.4513 142.25 37.9596 142.688 39.5418C143.128 41.1312 143.156 42.8081 142.772 44.5724C142.485 44.5667 142.199 44.5852 141.918 44.6279V43.8371C141.918 41.9803 141.158 40.2921 139.936 39.0689C138.713 37.8458 137.026 37.0863 135.17 37.0863H116.829C114.973 37.0863 113.285 37.8451 112.063 39.0689C110.84 40.2921 110.081 41.9803 110.081 43.8371V44.6279C109.799 44.5859 109.513 44.5674 109.227 44.5724C108.842 42.8081 108.871 41.1312 109.31 39.5418C109.748 37.9596 110.598 36.452 111.86 35.019C112.402 35.4052 113.064 35.632 113.78 35.632C114.695 35.632 115.524 35.2608 116.124 34.6606C116.724 34.0604 117.095 33.232 117.095 32.316C117.095 31.4008 116.724 30.5716 116.124 29.9714C115.524 29.3712 114.696 29 113.78 29C112.865 29 112.036 29.3712 111.437 29.9714C110.837 30.5716 110.466 31.4001 110.466 32.316C110.466 32.9582 110.648 33.5577 110.965 34.0654C109.527 35.6733 108.558 37.3835 108.056 39.1948C107.565 40.9655 107.526 42.8216 107.936 44.763C107.551 44.8711 107.173 45.0268 106.811 45.2309C105.577 45.9264 104.741 47.0578 104.388 48.3243C104.035 49.5887 104.164 50.9875 104.858 52.2206C105.472 53.3115 106.413 54.0973 107.487 54.5133C108.303 54.8291 109.196 54.9307 110.082 54.7899V58.6898C110.082 59.0503 110.374 59.3426 110.734 59.3426H141.266C141.626 59.3426 141.918 59.0503 141.918 58.6898V54.7899C142.804 54.9307 143.697 54.8291 144.513 54.5133C145.587 54.0973 146.528 53.3115 147.142 52.2206C147.836 50.9875 147.965 49.5887 147.612 48.3243C147.259 47.0578 146.423 45.9264 145.188 45.2309C144.826 45.0268 144.448 44.8718 144.063 44.763C144.474 42.8216 144.434 40.9655 143.943 39.1948C143.442 37.3835 142.473 35.674 141.035 34.0654C141.35 33.5577 141.533 32.9582 141.533 32.316C141.533 31.4008 141.162 30.5716 140.562 29.9714C139.963 29.3712 139.135 29 138.219 29ZM139.64 30.8945C140.003 31.2578 140.229 31.7606 140.229 32.3153C140.229 32.87 140.004 33.3728 139.64 33.7361C139.277 34.0995 138.774 34.3243 138.22 34.3243C137.665 34.3243 137.163 34.0995 136.8 33.7361C136.436 33.3728 136.212 32.87 136.212 32.3153C136.212 31.7606 136.436 31.2578 136.8 30.8945C137.163 30.5311 137.665 30.3056 138.22 30.3056C138.774 30.3056 139.276 30.5311 139.64 30.8945ZM115.2 30.8945C115.564 31.2578 115.789 31.7606 115.789 32.3153C115.789 32.87 115.564 33.3728 115.201 33.7361C114.838 34.0995 114.335 34.3243 113.781 34.3243C113.226 34.3243 112.724 34.0995 112.361 33.7361C111.997 33.3728 111.772 32.87 111.772 32.3153C111.772 31.7606 111.997 31.2578 112.361 30.8945C112.724 30.5311 113.226 30.3056 113.781 30.3056C114.335 30.3056 114.837 30.5311 115.2 30.8945ZM133.605 42.9012C134.448 42.9012 135.212 43.2433 135.764 43.7958C136.316 44.3484 136.658 45.1121 136.658 45.9555C136.658 46.7989 136.316 47.5627 135.764 48.1153C135.211 48.6678 134.448 49.0099 133.605 49.0099C132.762 49.0099 131.999 48.6678 131.447 48.1153C130.894 47.5627 130.552 46.7989 130.552 45.9555C130.552 45.1121 130.894 44.3484 131.447 43.7958C131.999 43.2433 132.762 42.9012 133.605 42.9012ZM134.841 44.7196C135.157 45.036 135.353 45.4727 135.353 45.9555C135.353 46.4384 135.157 46.875 134.841 47.1915C134.524 47.5079 134.088 47.7035 133.605 47.7035C133.123 47.7035 132.686 47.5079 132.37 47.1915C132.054 46.875 131.858 46.4384 131.858 45.9555C131.858 45.4727 132.054 45.0353 132.37 44.7196C132.686 44.4031 133.123 44.2076 133.605 44.2076C134.088 44.2076 134.524 44.4031 134.841 44.7196ZM118.642 42.9012C119.485 42.9012 120.248 43.2433 120.801 43.7958C121.353 44.3484 121.695 45.1121 121.695 45.9555C121.695 46.7989 121.353 47.5627 120.801 48.1153C120.248 48.6678 119.485 49.0099 118.642 49.0099C117.799 49.0099 117.036 48.6678 116.483 48.1153C115.931 47.5627 115.589 46.7989 115.589 45.9555C115.589 45.1121 115.931 44.3484 116.483 43.7958C117.036 43.2433 117.799 42.9012 118.642 42.9012ZM119.877 44.7196C120.194 45.036 120.389 45.4727 120.389 45.9555C120.389 46.4384 120.194 46.875 119.877 47.1915C119.561 47.5079 119.125 47.7035 118.642 47.7035C118.159 47.7035 117.723 47.5079 117.407 47.1915C117.09 46.875 116.895 46.4384 116.895 45.9555C116.895 45.4727 117.09 45.0353 117.407 44.7196C117.723 44.4031 118.159 44.2076 118.642 44.2076C119.125 44.2076 119.561 44.4031 119.877 44.7196ZM110.082 45.9491V53.4644C109.36 53.6208 108.623 53.5561 107.956 53.298C107.157 52.9886 106.456 52.4012 105.995 51.582C105.476 50.6597 105.379 49.6143 105.643 48.6706C105.906 47.7291 106.528 46.8871 107.449 46.368C107.885 46.1219 108.347 45.9712 108.809 45.9079C109.235 45.8503 109.665 45.8652 110.082 45.9491ZM141.918 53.4651V45.9491C142.334 45.8652 142.765 45.8496 143.191 45.9079C143.654 45.9712 144.115 46.1219 144.551 46.368C145.472 46.8871 146.095 47.7284 146.358 48.6706C146.622 49.6143 146.525 50.6597 146.005 51.582C145.544 52.4012 144.843 52.9894 144.045 53.298C143.377 53.5568 142.64 53.6216 141.918 53.4651ZM135.17 38.3912H116.829C115.333 38.3912 113.973 39.0042 112.986 39.9913C111.999 40.9783 111.387 42.3394 111.387 43.8357V58.0356H140.613V43.8357C140.613 42.3394 140 40.9783 139.013 39.9913C138.027 39.0042 136.666 38.3912 135.17 38.3912Z" fill="#499A9A"/>
</svg>



