<svg width="80" height="80" viewBox="0 0 80 80" fill="none" xmlns="http://www.w3.org/2000/svg">
<path d="M36.3133 39.0822C34.989 37.9422 32.9902 38.0903 31.8491 39.4133L27.2462 44.7486L25.1907 43.1235C23.8202 42.0397 21.8293 42.271 20.7441 43.6402C19.6591 45.0094 19.8907 46.9978 21.2615 48.0818L25.6974 51.5893C26.2779 52.0482 26.971 52.2721 27.6605 52.2721C28.1537 52.2721 28.6448 52.1574 29.0908 51.9322C29.4505 51.7507 29.7812 51.4972 30.0598 51.1743L36.6446 43.5418C37.7862 42.2188 37.6376 40.2222 36.3133 39.0822Z" stroke="#499A9A" stroke-width="2" stroke-miterlimit="10" stroke-linecap="round" stroke-linejoin="round"/>
<path d="M55.7558 48.0282V42.5597L51.7773 40.4844C51.1691 37.5619 50.0175 34.8383 48.433 32.4238L49.7778 28.1438L45.9067 24.2769L41.6219 25.6204C39.2045 24.0375 36.478 22.8874 33.5522 22.2797L31.4745 18.3057H26L23.9223 22.2797C20.9966 22.8874 18.27 24.0375 15.8527 25.6204L11.5678 24.2769L7.69672 28.1438L9.04156 32.4238C7.45703 34.8383 6.30547 37.5619 5.69719 40.4844L1.71875 42.5597V48.0282L5.69719 50.1035C6.30547 53.026 7.45703 55.7496 9.04156 58.1641L7.69672 62.4441L11.5678 66.311L15.8527 64.9675C18.27 66.5503 20.9966 67.7005 23.9223 68.3082L26 72.2822H31.4747L33.5523 68.3082C36.4781 67.7005 39.2047 66.5503 41.622 64.9675L45.9069 66.311L49.778 62.4441L48.4331 58.1641C50.0177 55.7496 51.1692 53.026 51.7775 50.1035L55.7558 48.0282Z" stroke="#499A9A" stroke-width="2" stroke-miterlimit="10" stroke-linecap="round" stroke-linejoin="round"/>
<path d="M28.738 61.4987C37.6899 61.4987 44.9468 54.2434 44.9468 45.2935C44.9468 36.3437 37.6899 29.0884 28.738 29.0884C19.7862 29.0884 12.5293 36.3437 12.5293 45.2935C12.5293 54.2434 19.7862 61.4987 28.738 61.4987Z" stroke="#499A9A" stroke-width="2" stroke-miterlimit="10" stroke-linecap="round" stroke-linejoin="round"/>
<path d="M12.0547 14.7725C21.0958 5.7334 35.7542 5.7334 44.7953 14.7725" stroke="#499A9A" stroke-width="2" stroke-miterlimit="10" stroke-linecap="round" stroke-linejoin="round"/>
<path d="M46.0991 12.1328V16.0748H42.1562" stroke="#499A9A" stroke-width="2" stroke-miterlimit="10" stroke-linecap="round" stroke-linejoin="round"/>
<path d="M76.3954 17.8571C76.1248 16.7767 75.698 15.7482 75.123 14.7909L75.7604 12.7629L73.2298 10.2353L71.1996 10.8718C70.2412 10.2975 69.2116 9.87105 68.1298 9.6009L67.1452 7.71777H63.5668L62.5823 9.6009C61.5004 9.87121 60.4707 10.2975 59.5126 10.8718L57.4823 10.2353L54.9518 12.7629L55.589 14.7909C55.014 15.7481 54.5874 16.7765 54.3168 17.8573L52.4316 18.8407V22.4153L54.3168 23.3986C54.5874 24.4793 55.0143 25.5076 55.589 26.4648L54.9518 28.4929L57.4823 31.0206L59.5126 30.384C60.4709 30.9584 61.5002 31.3846 62.5823 31.655L63.5668 33.5381H67.1452L68.1298 31.655C69.2115 31.3846 70.2413 30.9584 71.1996 30.384L73.2298 31.0206L75.7604 28.4929L75.123 26.4648C75.698 25.5073 76.1248 24.479 76.3954 23.3986L78.2805 22.4153V18.8406L76.3954 17.8571Z" stroke="#499A9A" stroke-width="2" stroke-miterlimit="10" stroke-linecap="round" stroke-linejoin="round"/>
<path d="M65.3558 25.4242C68.0052 25.4242 70.153 23.2769 70.153 20.6281C70.153 17.9793 68.0052 15.832 65.3558 15.832C62.7064 15.832 60.5586 17.9793 60.5586 20.6281C60.5586 23.2769 62.7064 25.4242 65.3558 25.4242Z" stroke="#499A9A" stroke-width="2" stroke-miterlimit="10" stroke-linecap="round" stroke-linejoin="round"/>
</svg>
