<svg width="80" height="80" viewBox="0 0 80 80" fill="none" xmlns="http://www.w3.org/2000/svg">
<path d="M48.3241 46.2088L47.5741 43.4236L47.5725 43.4211C48.6769 41.5674 49.5258 39.5439 50.0697 37.3985L54.2833 34.9725V28.601L50.0697 26.175C49.5258 24.0295 48.6769 22.0061 47.5725 20.1524L47.5741 20.1499L48.8381 15.455L44.3328 10.9496L39.638 12.2136L39.6355 12.2152C37.7817 11.1108 35.7583 10.2619 33.6128 9.71799L31.1869 5.50439H24.8153L22.3894 9.71799C20.2439 10.2619 18.2205 11.1108 16.3667 12.2152L16.3642 12.2136L11.6694 10.9496L7.16391 15.455L8.42797 20.1499L8.42953 20.1524C7.32516 22.0061 6.47625 24.0295 5.93234 26.175L1.71875 28.601V34.9725L5.93234 37.3985C6.47625 39.5439 7.32516 41.5674 8.42953 43.4211L8.42797 43.4236L7.16391 48.1185L11.6694 52.6239L16.3642 51.3599L16.3667 51.3583C18.2205 52.4627 20.2439 53.3116 22.3894 53.8555L24.8153 58.0691H31.1869L33.6128 53.8555C35.7583 53.3116 37.7817 52.4627 39.6355 51.3583L39.638 51.3599L43.4237 52.3792" stroke="#499A9A" stroke-width="2" stroke-miterlimit="10" stroke-linejoin="round"/>
<path d="M28.0008 43.2247C34.318 43.2247 39.4391 38.1036 39.4391 31.7864C39.4391 25.4692 34.318 20.3481 28.0008 20.3481C21.6836 20.3481 16.5625 25.4692 16.5625 31.7864C16.5625 38.1036 21.6836 43.2247 28.0008 43.2247Z" stroke="#499A9A" stroke-width="2" stroke-miterlimit="10" stroke-linecap="round" stroke-linejoin="round"/>
<path d="M73.5938 74.4957H48.1113C45.5224 74.4957 43.4238 72.3971 43.4238 69.8082V50.896C43.4238 48.3071 45.5224 46.2085 48.1113 46.2085H73.5938C76.1827 46.2085 78.2813 48.3071 78.2813 50.896V69.8082C78.2813 72.3971 76.1827 74.4957 73.5938 74.4957Z" stroke="#499A9A" stroke-width="2" stroke-miterlimit="10" stroke-linecap="round" stroke-linejoin="round"/>
<path d="M60.8535 64.5158L68.2004 57.1663V53.0835" stroke="#499A9A" stroke-width="2" stroke-miterlimit="10" stroke-linecap="round" stroke-linejoin="round"/>
<path d="M53.5059 53.0835V57.1663L60.8527 64.5158V67.6207" stroke="#499A9A" stroke-width="2" stroke-miterlimit="10" stroke-linecap="round" stroke-linejoin="round"/>
<path d="M71.4063 53.0835H50.2988" stroke="#499A9A" stroke-width="2" stroke-miterlimit="10" stroke-linecap="round" stroke-linejoin="round"/>
</svg>
