<svg width="80" height="80" viewBox="0 0 80 80" fill="none" xmlns="http://www.w3.org/2000/svg">
<path d="M29.6641 13.8438C24.7258 13.8438 20.7227 17.8469 20.7227 22.7852C20.7227 27.7234 24.726 31.7266 29.6641 31.7266C34.6023 31.7266 38.6055 27.7234 38.6055 22.7852" stroke="#499A9A" stroke-width="2" stroke-miterlimit="10" stroke-linejoin="round"/>
<path d="M29.6641 11.2119V22.7851H41.2372C41.2372 16.3934 36.0558 11.2119 29.6641 11.2119Z" stroke="#499A9A" stroke-width="2" stroke-miterlimit="10" stroke-linejoin="round"/>
<path d="M39.4492 58.4731H66.6435" stroke="#499A9A" stroke-width="2" stroke-miterlimit="10" stroke-linecap="round" stroke-linejoin="round"/>
<path d="M41.793 58.473V49.7705H49.2948V58.473" stroke="#499A9A" stroke-width="2" stroke-miterlimit="10" stroke-linejoin="round"/>
<path d="M49.2949 58.4734V42.3804H56.7968V58.4734" stroke="#499A9A" stroke-width="2" stroke-miterlimit="10" stroke-linejoin="round"/>
<path d="M56.7969 58.4732V47.3945H64.2987V58.4732" stroke="#499A9A" stroke-width="2" stroke-miterlimit="10" stroke-linejoin="round"/>
<path d="M12.0251 78.2809C8.22717 78.2809 5.14844 75.2021 5.14844 71.4042V67.9658H61.0998V71.4042C61.0998 75.2021 64.1786 78.2809 67.9765 78.2809H12.0251Z" stroke="#499A9A" stroke-width="2" stroke-miterlimit="10" stroke-linecap="round" stroke-linejoin="round"/>
<path d="M12.5059 67.9658V1.71924H74.8523V71.4042C74.8523 75.2022 71.7735 78.2809 67.9756 78.2809" stroke="#499A9A" stroke-width="2" stroke-miterlimit="10" stroke-linejoin="round"/>
<path d="M48.9355 31.7261H66.6432" stroke="#499A9A" stroke-width="2" stroke-miterlimit="10" stroke-linecap="round" stroke-linejoin="round"/>
<path d="M48.9355 24.2241H66.6432" stroke="#499A9A" stroke-width="2" stroke-miterlimit="10" stroke-linecap="round" stroke-linejoin="round"/>
<path d="M48.9336 16.7227H66.6413" stroke="#499A9A" stroke-width="2" stroke-miterlimit="10" stroke-linecap="round" stroke-linejoin="round"/>
<path d="M20.7207 58.4731H31.7488" stroke="#499A9A" stroke-width="2" stroke-miterlimit="10" stroke-linecap="round" stroke-linejoin="round"/>
<path d="M20.7207 50.9712H31.7488" stroke="#499A9A" stroke-width="2" stroke-miterlimit="10" stroke-linecap="round" stroke-linejoin="round"/>
<path d="M20.7188 43.4692H31.7468" stroke="#499A9A" stroke-width="2" stroke-miterlimit="10" stroke-linecap="round" stroke-linejoin="round"/>
</svg>
