<svg width="80" height="80" viewBox="0 0 80 80" fill="none" xmlns="http://www.w3.org/2000/svg">
<g clip-path="url(#clip0_3753_28812)">
<path d="M33.9398 68.1721C20.8086 65.485 11.1836 53.9258 11.1836 40.0002C11.1836 38.3796 11.2064 38.2786 11.3998 36.7002" stroke="#499A9A" stroke-width="2" stroke-miterlimit="10" stroke-linejoin="round"/>
<path d="M68.6529 36.3472C68.711 37.0945 68.817 39.2376 68.817 40C68.817 53.5273 58.5091 65.0647 45.9395 68.1658" stroke="#499A9A" stroke-width="2" stroke-miterlimit="10" stroke-linejoin="round"/>
<path d="M29.7461 13.0695C33.088 11.7142 36.1709 11.1836 39.9991 11.1836C43.7175 11.1836 46.9769 11.7723 50.2402 13.0548" stroke="#499A9A" stroke-width="2" stroke-miterlimit="10" stroke-linejoin="round"/>
<path d="M15.7608 21.1529C18.5195 21.1529 20.7559 18.9165 20.7559 16.1578C20.7559 13.399 18.5195 11.1626 15.7608 11.1626C13.002 11.1626 10.7656 13.399 10.7656 16.1578C10.7656 18.9165 13.002 21.1529 15.7608 21.1529Z" stroke="#499A9A" stroke-width="2" stroke-miterlimit="22.9256" stroke-linecap="round" stroke-linejoin="round"/>
<path d="M3.90844 23.9661L15.7617 44.0973L27.7817 24.0013C29.2511 21.5445 30.027 18.7356 30.027 15.873C30.027 8.05578 23.69 1.71875 15.8728 1.71875C8.05578 1.71891 1.71875 8.05594 1.71875 15.8731V15.9319C1.71875 18.7573 2.47469 21.5313 3.90844 23.9661Z" stroke="#499A9A" stroke-width="2" stroke-miterlimit="22.9256" stroke-linecap="round" stroke-linejoin="round"/>
<path d="M64.0166 21.1529C66.7754 21.1529 69.0118 18.9165 69.0118 16.1578C69.0118 13.399 66.7754 11.1626 64.0166 11.1626C61.2579 11.1626 59.0215 13.399 59.0215 16.1578C59.0215 18.9165 61.2579 21.1529 64.0166 21.1529Z" stroke="#499A9A" stroke-width="2" stroke-miterlimit="10" stroke-linecap="round" stroke-linejoin="round"/>
<path d="M52.1623 23.9659L64.0156 44.0972L76.0356 24.0011C77.505 21.5444 78.2809 18.7355 78.2809 15.8728C78.2811 8.05578 71.9441 1.71875 64.1269 1.71875C56.3097 1.71875 49.9727 8.05578 49.9727 15.873V15.9317C49.9728 18.7572 50.7288 21.5311 52.1623 23.9659Z" stroke="#499A9A" stroke-width="2" stroke-miterlimit="10" stroke-linecap="round" stroke-linejoin="round"/>
<path d="M39.8877 55.337C42.6465 55.337 44.8829 53.1006 44.8829 50.3418C44.8829 47.5831 42.6465 45.3467 39.8877 45.3467C37.129 45.3467 34.8926 47.5831 34.8926 50.3418C34.8926 53.1006 37.129 55.337 39.8877 55.337Z" stroke="#499A9A" stroke-width="2" stroke-miterlimit="10" stroke-linecap="round" stroke-linejoin="round"/>
<path d="M28.0355 58.1502L39.8888 78.2814L51.9088 58.1853C53.3782 55.7286 54.1541 52.9197 54.1541 50.0571C54.1541 42.2399 47.8171 35.9028 39.9999 35.9028C32.1827 35.9028 25.8457 42.2399 25.8457 50.0571V50.1158C25.8459 52.9414 26.602 55.7153 28.0355 58.1502Z" stroke="#499A9A" stroke-width="2" stroke-miterlimit="10" stroke-linecap="round" stroke-linejoin="round"/>
</g>
<defs>
<clipPath id="clip0_3753_28812">
<rect width="80" height="80" fill="white"/>
</clipPath>
</defs>
</svg>
