<?xml version="1.0" encoding="UTF-8"?>
<svg id="Layer_2" xmlns="http://www.w3.org/2000/svg" viewBox="0 0 8.77 8.08">
  <defs>
    <style>
      .cls-1 {
        fill: #bac1c2;
      }
    </style>
  </defs>
  <g id="Layer_1-2" data-name="Layer_1">
    <g>
      <g>
        <path class="cls-1" d="M.5,4.54c-.13,0-.26-.05-.35-.15-.05-.04-.08-.1-.11-.16-.02-.06-.04-.12-.04-.19,0-.13.06-.26.15-.35.04-.05.1-.09.16-.11.18-.08.41-.03.55.11.09.09.14.22.14.35,0,.07,0,.13-.03.19-.03.06-.07.12-.11.16-.05.05-.11.09-.17.11-.06.03-.12.04-.19.04Z"/>
        <path class="cls-1" d="M3.57,4.04c0-.28.23-.5.5-.5h0c.28,0,.5.22.5.5h0c0,.28-.22.5-.5.5h0c-.27,0-.5-.22-.5-.5ZM1.79,4.04c0-.28.22-.5.5-.5h0c.27,0,.5.22.5.5h0c0,.28-.23.5-.5.5h0c-.28,0-.5-.22-.5-.5Z"/>
        <path class="cls-1" d="M5.86,4.54c-.13,0-.26-.05-.35-.15-.05-.04-.09-.1-.11-.16-.03-.06-.04-.12-.04-.19,0-.13.05-.26.15-.35.04-.05.1-.09.16-.11.12-.05.26-.05.38,0,.06.02.12.06.16.11.1.09.15.22.15.35,0,.07-.01.13-.04.19-.02.06-.06.12-.11.16-.09.1-.22.15-.35.15Z"/>
      </g>
      <g>
        <path class="cls-1" d="M4.72,1c-.13,0-.26-.06-.35-.15-.05-.05-.09-.1-.11-.16-.03-.06-.04-.13-.04-.19,0-.07,0-.13.04-.2.02-.06.06-.11.11-.16.18-.18.52-.18.71,0,.09.09.14.22.14.36,0,.06-.01.13-.04.19-.02.06-.06.11-.1.16-.1.09-.23.15-.36.15Z"/>
        <path class="cls-1" d="M6.73,3.21c-.19-.19-.19-.51,0-.7h0c.2-.2.52-.2.71,0h0c.2.19.2.51,0,.71h0c-.1.09-.22.14-.35.14h0c-.13,0-.26-.05-.36-.15ZM5.55,2.03c-.2-.19-.2-.51,0-.7h0c.2-.2.51-.2.71,0h0c.19.19.19.51,0,.7h0c-.1.1-.23.15-.35.15h0c-.13,0-.26-.05-.36-.15Z"/>
        <path class="cls-1" d="M8.27,4.54c-.13,0-.26-.06-.35-.15-.1-.09-.15-.22-.15-.35,0-.14.05-.27.15-.36.04-.04.1-.08.16-.11.12-.05.26-.05.38,0,.06.03.12.07.16.11.1.09.15.22.15.36,0,.13-.05.26-.15.35-.09.09-.22.15-.35.15Z"/>
        <path class="cls-1" d="M5.56,6.75c-.2-.2-.2-.51,0-.71h0c.19-.19.51-.19.7,0h0c.2.2.2.51,0,.71h0c-.09.1-.22.15-.35.15h0c-.13,0-.26-.05-.35-.15ZM6.74,5.58c-.2-.2-.2-.51,0-.71h0c.19-.19.51-.19.71,0h0c.19.2.19.51,0,.71h0c-.1.1-.23.14-.36.14h0c-.13,0-.25-.04-.35-.14Z"/>
        <path class="cls-1" d="M4.73,8.08c-.07,0-.13-.02-.19-.04-.06-.03-.12-.06-.16-.11-.1-.09-.15-.22-.15-.35,0-.14.05-.27.15-.36.14-.14.36-.18.54-.11.06.03.12.07.16.11.1.1.15.22.15.36,0,.13-.05.26-.15.35-.09.09-.22.15-.35.15Z"/>
      </g>
    </g>
  </g>
</svg>