<svg width="427" height="877" viewBox="0 0 427 877" fill="none" xmlns="http://www.w3.org/2000/svg">
<g clip-path="url(#clip0_2627_10356)">
<path d="M0.0251465 540.975L48.9999 562.524V906H0.0251465V540.975Z" fill="url(#paint0_linear_2627_10356)"/>
<path d="M97.9749 540.975L49.0001 562.524V906H97.9749V540.975Z" fill="url(#paint1_linear_2627_10356)"/>
<path d="M49 523.67L97.9748 540.975L49 562.61L0.0252388 540.975L49 523.67Z" fill="url(#paint2_linear_2627_10356)"/>
<path d="M121 347L196 380V906H121V347Z" fill="url(#paint3_linear_2627_10356)"/>
<path d="M271 347L196 380V906H271V347Z" fill="url(#paint4_linear_2627_10356)"/>
<path d="M196 320.5L271 347L196 380.132L121 347L196 320.5Z" fill="url(#paint5_linear_2627_10356)"/>
<path d="M292.926 406.074L360 435.587V906H292.926V406.074Z" fill="url(#paint6_linear_2627_10356)"/>
<path d="M427.074 406.074L360 435.587V906H427.074V406.074Z" fill="url(#paint7_linear_2627_10356)"/>
<path d="M360 382.375L427.074 406.074L360 435.705L292.926 406.074L360 382.375Z" fill="url(#paint8_linear_2627_10356)"/>
<path opacity="0.5" d="M121 1H271V348L196 381.5L121 348V1Z" fill="url(#paint9_linear_2627_10356)"/>
<path d="M207 258.44L184.28 258.44L184.28 254.856L207 254.856L207 258.44ZM207 235.161L207 238.681L197.624 238.681C196.045 238.681 194.904 238.937 194.2 239.449C193.475 239.94 193.112 240.676 193.112 241.657C193.112 242.169 193.208 242.681 193.4 243.193C193.592 243.705 193.869 244.185 194.232 244.633C194.573 245.081 194.989 245.487 195.48 245.849C195.949 246.191 196.472 246.457 197.048 246.649L207 246.649L207 250.169L190.264 250.169L190.264 246.969L193.624 246.969C192.493 246.329 191.608 245.401 190.968 244.185C190.307 242.969 189.976 241.625 189.976 240.153C189.976 239.151 190.157 238.329 190.52 237.689C190.883 237.049 191.384 236.548 192.024 236.185C192.643 235.801 193.368 235.535 194.2 235.385C195.011 235.236 195.875 235.161 196.792 235.161L207 235.161ZM206.136 221.92C206.349 222.368 206.595 222.986 206.872 223.776C207.128 224.565 207.256 225.408 207.256 226.304C207.256 226.858 207.181 227.381 207.032 227.872C206.883 228.362 206.659 228.8 206.36 229.184C206.061 229.546 205.677 229.834 205.208 230.048C204.717 230.261 204.131 230.368 203.448 230.368L192.984 230.368L192.984 232.576L190.264 232.576L190.264 230.368L184.76 230.368L184.76 226.848L190.264 226.848L190.264 223.2L192.984 223.2L192.984 226.848L202.328 226.848C202.925 226.805 203.363 226.624 203.64 226.304C203.896 225.962 204.024 225.546 204.024 225.056C204.024 224.565 203.939 224.096 203.768 223.648C203.597 223.2 203.459 222.869 203.352 222.656L206.136 221.92ZM207.32 212.304C207.32 213.605 207.096 214.789 206.648 215.856C206.179 216.923 205.549 217.84 204.76 218.608C203.971 219.355 203.053 219.941 202.008 220.368C200.963 220.773 199.853 220.976 198.68 220.976C197.507 220.976 196.397 220.773 195.352 220.368C194.285 219.941 193.357 219.355 192.568 218.608C191.757 217.84 191.128 216.923 190.68 215.856C190.211 214.789 189.976 213.595 189.976 212.272C189.976 210.971 190.211 209.797 190.68 208.752C191.149 207.685 191.779 206.779 192.568 206.032C193.336 205.285 194.243 204.72 195.288 204.336C196.312 203.931 197.389 203.728 198.52 203.728C198.776 203.728 199.021 203.739 199.256 203.76C199.469 203.781 199.651 203.803 199.8 203.824L199.8 217.232C200.547 217.168 201.219 216.997 201.816 216.72C202.413 216.421 202.936 216.048 203.384 215.6C203.811 215.131 204.141 214.608 204.376 214.032C204.611 213.435 204.728 212.816 204.728 212.176C204.728 211.707 204.675 211.248 204.568 210.8C204.44 210.331 204.269 209.904 204.056 209.52C203.821 209.136 203.544 208.795 203.224 208.496C202.904 208.197 202.552 207.963 202.168 207.792L203.032 204.784C204.291 205.36 205.325 206.32 206.136 207.664C206.925 208.987 207.32 210.533 207.32 212.304ZM197.368 207.216C196.664 207.28 196.013 207.461 195.416 207.76C194.819 208.037 194.317 208.4 193.912 208.848C193.485 209.296 193.155 209.819 192.92 210.416C192.685 211.013 192.568 211.643 192.568 212.304C192.568 212.965 192.685 213.595 192.92 214.192C193.155 214.768 193.485 215.28 193.912 215.728C194.317 216.176 194.819 216.539 195.416 216.816C196.013 217.093 196.664 217.264 197.368 217.328L197.368 207.216ZM207.16 194.233C207.16 195.363 206.936 196.398 206.488 197.337C206.019 198.275 205.389 199.086 204.6 199.769C203.811 200.43 202.904 200.953 201.88 201.337C200.856 201.699 199.779 201.881 198.648 201.881C197.453 201.881 196.333 201.689 195.288 201.305C194.221 200.921 193.304 200.387 192.536 199.705C191.747 199.022 191.128 198.211 190.68 197.273C190.211 196.313 189.976 195.257 189.976 194.105C189.976 192.761 190.296 191.587 190.936 190.585C191.576 189.561 192.408 188.718 193.432 188.057L190.264 188.057L190.264 184.953L206.52 184.953C207.736 184.953 208.813 185.177 209.752 185.625C210.691 186.073 211.48 186.702 212.12 187.513C212.781 188.302 213.283 189.241 213.624 190.329C213.965 191.417 214.136 192.59 214.136 193.849C214.136 195.705 213.816 197.251 213.176 198.489C212.557 199.705 211.683 200.729 210.552 201.561L208.696 199.577C209.592 198.937 210.275 198.115 210.744 197.113C211.213 196.089 211.448 195.001 211.448 193.849C211.448 193.123 211.352 192.441 211.16 191.801C210.968 191.139 210.669 190.563 210.264 190.073C209.859 189.582 209.347 189.198 208.728 188.921C208.109 188.622 207.373 188.473 206.52 188.473L203.96 188.473C204.984 189.07 205.773 189.891 206.328 190.937C206.883 191.982 207.16 193.081 207.16 194.233ZM204.312 193.081C204.312 192.547 204.227 192.035 204.056 191.545C203.864 191.054 203.619 190.606 203.32 190.201C203 189.774 202.648 189.411 202.264 189.113C201.859 188.814 201.432 188.601 200.984 188.473L196.6 188.473C196.067 188.686 195.587 188.963 195.16 189.305C194.712 189.646 194.328 190.041 194.008 190.489C193.688 190.915 193.443 191.374 193.272 191.865C193.08 192.355 192.984 192.846 192.984 193.337C192.984 194.105 193.155 194.798 193.496 195.417C193.816 196.014 194.253 196.526 194.808 196.953C195.341 197.379 195.949 197.71 196.632 197.945C197.315 198.179 198.019 198.297 198.744 198.297C199.512 198.297 200.237 198.169 200.92 197.913C201.581 197.635 202.168 197.262 202.68 196.793C203.171 196.323 203.565 195.779 203.864 195.161C204.163 194.521 204.312 193.827 204.312 193.081ZM193.304 171.324C193.347 172.689 193.667 173.905 194.264 174.972C194.84 176.017 195.672 176.764 196.76 177.212L207 177.212L207 180.732L190.264 180.732L190.264 177.468L194.008 177.468C192.856 176.892 191.939 176.145 191.256 175.228C190.552 174.289 190.168 173.286 190.104 172.22C190.104 172.006 190.104 171.836 190.104 171.708C190.104 171.558 190.115 171.43 190.136 171.324L193.304 171.324ZM207.32 164.534C207.32 165.344 207.192 166.102 206.936 166.806C206.659 167.488 206.285 168.086 205.816 168.598C205.347 169.088 204.792 169.483 204.152 169.782C203.512 170.059 202.819 170.198 202.072 170.198C201.283 170.198 200.568 170.027 199.928 169.686C199.288 169.344 198.733 168.864 198.264 168.246C197.795 167.606 197.432 166.859 197.176 166.006C196.92 165.131 196.792 164.171 196.792 163.126C196.792 162.336 196.867 161.558 197.016 160.79C197.144 160.022 197.325 159.328 197.56 158.71L196.408 158.71C195.171 158.71 194.211 159.062 193.528 159.766C192.824 160.47 192.472 161.483 192.472 162.806C192.472 163.702 192.643 164.587 192.984 165.462C193.304 166.315 193.773 167.2 194.392 168.118L192.152 169.206C190.701 167.051 189.976 164.811 189.976 162.486C189.976 160.182 190.563 158.39 191.736 157.11C192.909 155.83 194.595 155.19 196.792 155.19L202.84 155.19C203.587 155.19 203.971 154.88 203.992 154.262L207 154.262C207.064 154.603 207.107 154.902 207.128 155.158C207.149 155.392 207.16 155.627 207.16 155.862C207.16 156.544 206.989 157.078 206.648 157.462C206.307 157.824 205.869 158.048 205.336 158.134L204.28 158.23C205.261 158.976 206.019 159.904 206.552 161.014C207.064 162.102 207.32 163.275 207.32 164.534ZM204.728 163.574C204.728 162.72 204.579 161.92 204.28 161.174C203.96 160.406 203.523 159.808 202.968 159.382C202.584 158.934 202.179 158.71 201.752 158.71L199.544 158.71C199.309 159.307 199.128 159.947 199 160.63C198.872 161.291 198.808 161.942 198.808 162.582C198.808 163.84 199.085 164.875 199.64 165.686C200.173 166.475 200.888 166.87 201.784 166.87C202.616 166.87 203.32 166.56 203.896 165.942C204.451 165.323 204.728 164.534 204.728 163.574ZM206.136 141.732C206.349 142.18 206.595 142.799 206.872 143.588C207.128 144.378 207.256 145.22 207.256 146.116C207.256 146.671 207.181 147.194 207.032 147.684C206.883 148.175 206.659 148.612 206.36 148.996C206.061 149.359 205.677 149.647 205.208 149.86C204.717 150.074 204.131 150.18 203.448 150.18L192.984 150.18L192.984 152.388L190.264 152.388L190.264 150.18L184.76 150.18L184.76 146.66L190.264 146.66L190.264 143.012L192.984 143.012L192.984 146.66L202.328 146.66C202.925 146.618 203.363 146.436 203.64 146.116C203.896 145.775 204.024 145.359 204.024 144.868C204.024 144.378 203.939 143.908 203.768 143.46C203.597 143.012 203.459 142.682 203.352 142.468L206.136 141.732ZM207.32 132.116C207.32 133.418 207.096 134.602 206.648 135.668C206.179 136.735 205.549 137.652 204.76 138.42C203.971 139.167 203.053 139.754 202.008 140.18C200.963 140.586 199.853 140.788 198.68 140.788C197.507 140.788 196.397 140.586 195.352 140.18C194.285 139.754 193.357 139.167 192.568 138.42C191.757 137.652 191.128 136.735 190.68 135.668C190.211 134.602 189.976 133.407 189.976 132.084C189.976 130.783 190.211 129.61 190.68 128.564C191.149 127.498 191.779 126.591 192.568 125.844C193.336 125.098 194.243 124.532 195.288 124.148C196.312 123.743 197.389 123.54 198.52 123.54C198.776 123.54 199.021 123.551 199.256 123.572C199.469 123.594 199.651 123.615 199.8 123.636L199.8 137.044C200.547 136.98 201.219 136.81 201.816 136.532C202.413 136.234 202.936 135.86 203.384 135.412C203.811 134.943 204.141 134.42 204.376 133.844C204.611 133.247 204.728 132.628 204.728 131.988C204.728 131.519 204.675 131.06 204.568 130.612C204.44 130.143 204.269 129.716 204.056 129.332C203.821 128.948 203.544 128.607 203.224 128.308C202.904 128.01 202.552 127.775 202.168 127.604L203.032 124.596C204.291 125.172 205.325 126.132 206.136 127.476C206.925 128.799 207.32 130.346 207.32 132.116ZM197.368 127.028C196.664 127.092 196.013 127.274 195.416 127.572C194.819 127.85 194.317 128.212 193.912 128.66C193.485 129.108 193.155 129.631 192.92 130.228C192.685 130.826 192.568 131.455 192.568 132.116C192.568 132.778 192.685 133.407 192.92 134.004C193.155 134.58 193.485 135.092 193.912 135.54C194.317 135.988 194.819 136.351 195.416 136.628C196.013 136.906 196.664 137.076 197.368 137.14L197.368 127.028Z" fill="url(#paint10_linear_2627_10356)"/>
<path opacity="0.5" d="M0 314H98V540.707L49 562.593L0 540.707V314Z" fill="url(#paint11_linear_2627_10356)"/>
<path d="M37.28 489.752L37.28 486.616L60 477.656L60 481.432L53.824 483.832L53.824 492.6L60 494.968L60 498.776L37.28 489.752ZM51.168 484.536L41.408 488.184L51.168 491.96L51.168 484.536ZM60 460.286L60 463.806L50.624 463.806C49.0453 463.806 47.904 464.062 47.2 464.574C46.4747 465.065 46.112 465.801 46.112 466.782C46.112 467.294 46.208 467.806 46.4 468.318C46.592 468.83 46.8693 469.31 47.232 469.758C47.5733 470.206 47.9893 470.612 48.48 470.974C48.9493 471.316 49.472 471.582 50.048 471.774L60 471.774L60 475.294L43.264 475.294L43.264 472.094L46.624 472.094C45.4933 471.454 44.608 470.526 43.968 469.31C43.3067 468.094 42.976 466.75 42.976 465.278C42.976 464.276 43.1573 463.454 43.52 462.814C43.8827 462.174 44.384 461.673 45.024 461.31C45.6427 460.926 46.368 460.66 47.2 460.51C48.0107 460.361 48.8747 460.286 49.792 460.286L60 460.286ZM60.32 451.752C60.32 452.563 60.192 453.32 59.936 454.024C59.6587 454.707 59.2853 455.304 58.816 455.816C58.3467 456.307 57.792 456.702 57.152 457C56.512 457.278 55.8187 457.416 55.072 457.416C54.2827 457.416 53.568 457.246 52.928 456.904C52.288 456.563 51.7333 456.083 51.264 455.464C50.7947 454.824 50.432 454.078 50.176 453.224C49.92 452.35 49.792 451.39 49.792 450.344C49.792 449.555 49.8667 448.776 50.016 448.008C50.144 447.24 50.3253 446.547 50.56 445.928L49.408 445.928C48.1707 445.928 47.2107 446.28 46.528 446.984C45.824 447.688 45.472 448.702 45.472 450.024C45.472 450.92 45.6427 451.806 45.984 452.68C46.304 453.534 46.7733 454.419 47.392 455.336L45.152 456.424C43.7013 454.27 42.976 452.03 42.976 449.704C42.976 447.4 43.5627 445.608 44.736 444.328C45.9093 443.048 47.5947 442.408 49.792 442.408L55.84 442.408C56.5867 442.408 56.9707 442.099 56.992 441.48L60 441.48C60.064 441.822 60.1067 442.12 60.128 442.376C60.1493 442.611 60.16 442.846 60.16 443.08C60.16 443.763 59.9893 444.296 59.648 444.68C59.3067 445.043 58.8693 445.267 58.336 445.352L57.28 445.448C58.2613 446.195 59.0187 447.123 59.552 448.232C60.064 449.32 60.32 450.494 60.32 451.752ZM57.728 450.792C57.728 449.939 57.5787 449.139 57.28 448.392C56.96 447.624 56.5227 447.027 55.968 446.6C55.584 446.152 55.1787 445.928 54.752 445.928L52.544 445.928C52.3093 446.526 52.128 447.166 52 447.848C51.872 448.51 51.808 449.16 51.808 449.8C51.808 451.059 52.0853 452.094 52.64 452.904C53.1733 453.694 53.888 454.088 54.784 454.088C55.616 454.088 56.32 453.779 56.896 453.16C57.4507 452.542 57.728 451.752 57.728 450.792ZM36.64 438.106L36.64 434.586L55.168 434.586C55.7867 434.586 56.2773 434.426 56.64 434.106C56.9813 433.786 57.152 433.338 57.152 432.762C57.152 432.527 57.1093 432.261 57.024 431.962C56.9387 431.642 56.8427 431.343 56.736 431.066L59.488 430.554C59.7227 431.066 59.904 431.674 60.032 432.378C60.1813 433.082 60.256 433.711 60.256 434.266C60.256 435.482 59.9253 436.431 59.264 437.114C58.6027 437.775 57.664 438.106 56.448 438.106L36.64 438.106ZM63.936 428.281C64 427.961 64.0533 427.651 64.096 427.353C64.1387 427.033 64.16 426.777 64.16 426.585C64.16 426.307 64.096 426.073 63.968 425.881C63.8613 425.667 63.6587 425.454 63.36 425.241C63.0613 425.027 62.6347 424.814 62.08 424.601C61.5467 424.366 60.8533 424.099 60 423.801L43.264 430.681L43.264 427.065L56.896 421.881L43.264 417.273L43.264 413.945L63.872 421.529C64.832 421.87 65.632 422.467 66.272 423.321C66.9333 424.153 67.264 425.23 67.264 426.553C67.264 426.809 67.2427 427.075 67.2 427.353C67.1787 427.63 67.1147 427.939 67.008 428.281L63.936 428.281ZM60.32 405.652C60.32 406.996 60.1067 408.34 59.68 409.684C59.232 411.006 58.6027 412.148 57.792 413.108L55.552 411.7C56.2773 410.697 56.832 409.705 57.216 408.724C57.5787 407.742 57.76 406.74 57.76 405.716C57.76 404.67 57.5573 403.849 57.152 403.252C56.7467 402.633 56.1707 402.324 55.424 402.324C54.72 402.324 54.208 402.665 53.888 403.348C53.568 404.03 53.216 405.097 52.832 406.548C52.5547 407.593 52.288 408.489 52.032 409.236C51.776 409.982 51.4773 410.59 51.136 411.06C50.7947 411.529 50.4 411.87 49.952 412.084C49.504 412.297 48.96 412.404 48.32 412.404C47.4667 412.404 46.7093 412.244 46.048 411.924C45.3867 411.582 44.832 411.124 44.384 410.548C43.9147 409.95 43.5627 409.257 43.328 408.468C43.0933 407.678 42.976 406.825 42.976 405.908C42.976 404.649 43.168 403.476 43.552 402.388C43.936 401.3 44.4907 400.329 45.216 399.476L47.328 400.98C46.0907 402.537 45.472 404.19 45.472 405.94C45.472 406.836 45.664 407.593 46.048 408.212C46.4107 408.809 46.9973 409.108 47.808 409.108C48.1493 409.108 48.4373 409.044 48.672 408.916C48.9067 408.788 49.1093 408.585 49.28 408.308C49.4507 408.009 49.6107 407.636 49.76 407.188C49.888 406.718 50.0373 406.142 50.208 405.46C50.4853 404.329 50.7627 403.358 51.04 402.548C51.3173 401.716 51.648 401.033 52.032 400.5C52.3947 399.966 52.832 399.572 53.344 399.316C53.8347 399.06 54.432 398.932 55.136 398.932C56.736 398.932 58.0053 399.54 58.944 400.756C59.8613 401.95 60.32 403.582 60.32 405.652ZM60.32 388.273C60.32 389.574 60.096 390.758 59.648 391.825C59.1787 392.891 58.5493 393.809 57.76 394.577C56.9707 395.323 56.0533 395.91 55.008 396.337C53.9627 396.742 52.8533 396.945 51.68 396.945C50.5067 396.945 49.3973 396.742 48.352 396.337C47.2853 395.91 46.3573 395.323 45.568 394.577C44.7573 393.809 44.128 392.891 43.68 391.825C43.2107 390.758 42.976 389.563 42.976 388.241C42.976 386.939 43.2107 385.766 43.68 384.721C44.1493 383.654 44.7787 382.747 45.568 382.001C46.336 381.254 47.2427 380.689 48.288 380.305C49.312 379.899 50.3893 379.697 51.52 379.697C51.776 379.697 52.0213 379.707 52.256 379.729C52.4693 379.75 52.6507 379.771 52.8 379.793L52.8 393.201C53.5467 393.137 54.2187 392.966 54.816 392.689C55.4133 392.39 55.936 392.017 56.384 391.569C56.8107 391.099 57.1413 390.577 57.376 390.001C57.6107 389.403 57.728 388.785 57.728 388.145C57.728 387.675 57.6747 387.217 57.568 386.769C57.44 386.299 57.2693 385.873 57.056 385.489C56.8213 385.105 56.544 384.763 56.224 384.465C55.904 384.166 55.552 383.931 55.168 383.761L56.032 380.753C57.2907 381.329 58.3253 382.289 59.136 383.633C59.9253 384.955 60.32 386.502 60.32 388.273ZM50.368 383.185C49.664 383.249 49.0133 383.43 48.416 383.729C47.8187 384.006 47.3173 384.369 46.912 384.817C46.4853 385.265 46.1547 385.787 45.92 386.385C45.6853 386.982 45.568 387.611 45.568 388.273C45.568 388.934 45.6853 389.563 45.92 390.161C46.1547 390.737 46.4853 391.249 46.912 391.697C47.3173 392.145 47.8187 392.507 48.416 392.785C49.0133 393.062 49.664 393.233 50.368 393.297L50.368 383.185Z" fill="url(#paint12_linear_2627_10356)"/>
<path opacity="0.5" d="M293 96H427V406.066L360 436L293 406.066V96Z" fill="url(#paint13_linear_2627_10356)"/>
<path d="M351.448 322.768L351.448 330.32L371 330.32L371 333.936L351.448 333.936L351.448 341.52L348.28 341.52L348.28 322.768L351.448 322.768ZM357.304 314.292C357.347 315.658 357.667 316.874 358.264 317.94C358.84 318.986 359.672 319.732 360.76 320.18L371 320.18L371 323.7L354.264 323.7L354.264 320.436L358.008 320.436C356.856 319.86 355.939 319.114 355.256 318.196C354.552 317.258 354.168 316.255 354.104 315.188C354.104 314.975 354.104 314.804 354.104 314.676C354.104 314.527 354.115 314.399 354.136 314.292L357.304 314.292ZM371.32 307.502C371.32 308.313 371.192 309.07 370.936 309.774C370.659 310.457 370.285 311.054 369.816 311.566C369.347 312.057 368.792 312.452 368.152 312.75C367.512 313.028 366.819 313.166 366.072 313.166C365.283 313.166 364.568 312.996 363.928 312.654C363.288 312.313 362.733 311.833 362.264 311.214C361.795 310.574 361.432 309.828 361.176 308.974C360.92 308.1 360.792 307.14 360.792 306.094C360.792 305.305 360.867 304.526 361.016 303.758C361.144 302.99 361.325 302.297 361.56 301.678L360.408 301.678C359.171 301.678 358.211 302.03 357.528 302.734C356.824 303.438 356.472 304.452 356.472 305.774C356.472 306.67 356.643 307.556 356.984 308.43C357.304 309.284 357.773 310.169 358.392 311.086L356.152 312.174C354.701 310.02 353.976 307.78 353.976 305.454C353.976 303.15 354.563 301.358 355.736 300.078C356.909 298.798 358.595 298.158 360.792 298.158L366.84 298.158C367.587 298.158 367.971 297.849 367.992 297.23L371 297.23C371.064 297.572 371.107 297.87 371.128 298.126C371.149 298.361 371.16 298.596 371.16 298.83C371.16 299.513 370.989 300.046 370.648 300.43C370.307 300.793 369.869 301.017 369.336 301.102L368.28 301.198C369.261 301.945 370.019 302.873 370.552 303.982C371.064 305.07 371.32 306.244 371.32 307.502ZM368.728 306.542C368.728 305.689 368.579 304.889 368.28 304.142C367.96 303.374 367.523 302.777 366.968 302.35C366.584 301.902 366.179 301.678 365.752 301.678L363.544 301.678C363.309 302.276 363.128 302.916 363 303.598C362.872 304.26 362.808 304.91 362.808 305.55C362.808 306.809 363.085 307.844 363.64 308.654C364.173 309.444 364.888 309.838 365.784 309.838C366.616 309.838 367.32 309.529 367.896 308.91C368.451 308.292 368.728 307.502 368.728 306.542ZM371 278.88L371 282.4L361.624 282.4C360.045 282.4 358.904 282.656 358.2 283.168C357.475 283.659 357.112 284.395 357.112 285.376C357.112 285.888 357.208 286.4 357.4 286.912C357.592 287.424 357.869 287.904 358.232 288.352C358.573 288.8 358.989 289.205 359.48 289.568C359.949 289.909 360.472 290.176 361.048 290.368L371 290.368L371 293.888L354.264 293.888L354.264 290.688L357.624 290.688C356.493 290.048 355.608 289.12 354.968 287.904C354.307 286.688 353.976 285.344 353.976 283.872C353.976 282.869 354.157 282.048 354.52 281.408C354.883 280.768 355.384 280.267 356.024 279.904C356.643 279.52 357.368 279.253 358.2 279.104C359.011 278.955 359.875 278.88 360.792 278.88L371 278.88ZM371.32 268.714C371.32 270.058 371.107 271.402 370.68 272.746C370.232 274.069 369.603 275.21 368.792 276.17L366.552 274.762C367.277 273.76 367.832 272.768 368.216 271.786C368.579 270.805 368.76 269.802 368.76 268.778C368.76 267.733 368.557 266.912 368.152 266.314C367.747 265.696 367.171 265.386 366.424 265.386C365.72 265.386 365.208 265.728 364.888 266.41C364.568 267.093 364.216 268.16 363.832 269.61C363.555 270.656 363.288 271.552 363.032 272.298C362.776 273.045 362.477 273.653 362.136 274.122C361.795 274.592 361.4 274.933 360.952 275.146C360.504 275.36 359.96 275.466 359.32 275.466C358.467 275.466 357.709 275.306 357.048 274.986C356.387 274.645 355.832 274.186 355.384 273.61C354.915 273.013 354.563 272.32 354.328 271.53C354.093 270.741 353.976 269.888 353.976 268.97C353.976 267.712 354.168 266.538 354.552 265.45C354.936 264.362 355.491 263.392 356.216 262.538L358.328 264.042C357.091 265.6 356.472 267.253 356.472 269.002C356.472 269.898 356.664 270.656 357.048 271.274C357.411 271.872 357.997 272.17 358.808 272.17C359.149 272.17 359.437 272.106 359.672 271.978C359.907 271.85 360.109 271.648 360.28 271.37C360.451 271.072 360.611 270.698 360.76 270.25C360.888 269.781 361.037 269.205 361.208 268.522C361.485 267.392 361.763 266.421 362.04 265.61C362.317 264.778 362.648 264.096 363.032 263.562C363.395 263.029 363.832 262.634 364.344 262.378C364.835 262.122 365.432 261.994 366.136 261.994C367.736 261.994 369.005 262.602 369.944 263.818C370.861 265.013 371.32 266.645 371.32 268.714ZM371 257.959L357.4 257.959L357.4 260.199L354.68 260.199L354.68 257.959L354.008 257.959C351.939 257.959 350.307 257.479 349.112 256.519C347.917 255.559 347.32 254.258 347.32 252.615C347.32 251.933 347.416 251.261 347.608 250.599C347.779 249.938 348.024 249.309 348.344 248.711L350.968 249.479C350.776 249.799 350.616 250.183 350.488 250.631C350.36 251.058 350.296 251.474 350.296 251.879C350.296 252.711 350.605 253.351 351.224 253.799C351.843 254.226 352.739 254.439 353.912 254.439L354.68 254.439L354.68 250.151L357.4 250.151L357.4 254.439L371 254.439L371 257.959ZM371.32 240.837C371.32 242.159 371.085 243.354 370.616 244.421C370.147 245.466 369.517 246.362 368.728 247.109C367.939 247.855 367.021 248.431 365.976 248.837C364.909 249.242 363.8 249.445 362.648 249.445C361.496 249.445 360.397 249.242 359.352 248.837C358.285 248.431 357.357 247.855 356.568 247.109C355.779 246.341 355.149 245.434 354.68 244.389C354.211 243.322 353.976 242.138 353.976 240.837C353.976 239.535 354.211 238.362 354.68 237.317C355.149 236.25 355.779 235.343 356.568 234.597C357.357 233.829 358.285 233.242 359.352 232.837C360.397 232.431 361.496 232.229 362.648 232.229C363.8 232.229 364.909 232.431 365.976 232.837C367.021 233.242 367.939 233.829 368.728 234.597C369.517 235.343 370.147 236.25 370.616 237.317C371.085 238.362 371.32 239.535 371.32 240.837ZM362.68 245.829C363.491 245.829 364.237 245.701 364.92 245.445C365.603 245.189 366.2 244.837 366.712 244.389C367.203 243.941 367.597 243.418 367.896 242.821C368.173 242.202 368.312 241.541 368.312 240.837C368.312 240.133 368.173 239.482 367.896 238.885C367.597 238.266 367.192 237.733 366.68 237.285C366.168 236.837 365.571 236.485 364.888 236.229C364.205 235.973 363.459 235.845 362.648 235.845C361.859 235.845 361.123 235.973 360.44 236.229C359.736 236.485 359.128 236.837 358.616 237.285C358.104 237.733 357.709 238.266 357.432 238.885C357.133 239.482 356.984 240.133 356.984 240.837C356.984 241.519 357.133 242.17 357.432 242.789C357.731 243.386 358.136 243.909 358.648 244.357C359.16 244.805 359.768 245.167 360.472 245.445C361.155 245.701 361.891 245.829 362.68 245.829ZM357.304 219.699C357.347 221.064 357.667 222.28 358.264 223.347C358.84 224.392 359.672 225.139 360.76 225.587L371 225.587L371 229.107L354.264 229.107L354.264 225.843L358.008 225.843C356.856 225.267 355.939 224.52 355.256 223.603C354.552 222.664 354.168 221.661 354.104 220.595C354.104 220.381 354.104 220.211 354.104 220.083C354.104 219.933 354.115 219.805 354.136 219.699L357.304 219.699ZM371 191.538L371 195.058L361.624 195.058C360.067 195.058 358.925 195.314 358.2 195.826C357.475 196.338 357.112 197.085 357.112 198.066C357.112 199.069 357.485 199.986 358.232 200.818C358.957 201.629 359.907 202.215 361.08 202.578L371 202.578L371 206.098L361.624 206.098C360.045 206.098 358.904 206.354 358.2 206.866C357.475 207.378 357.112 208.114 357.112 209.074C357.112 210.077 357.475 210.994 358.2 211.826C358.925 212.658 359.875 213.255 361.048 213.618L371 213.618L371 217.138L354.264 217.138L354.264 213.938L357.624 213.938C356.451 213.277 355.555 212.413 354.936 211.346C354.296 210.258 353.976 209.021 353.976 207.634C353.976 206.247 354.339 205.159 355.064 204.37C355.789 203.559 356.696 203.058 357.784 202.866C356.547 202.162 355.608 201.277 354.968 200.21C354.307 199.143 353.976 197.927 353.976 196.562C353.976 195.581 354.168 194.77 354.552 194.13C354.915 193.469 355.405 192.946 356.024 192.562C356.643 192.178 357.368 191.911 358.2 191.762C359.011 191.613 359.875 191.538 360.792 191.538L371 191.538Z" fill="url(#paint14_linear_2627_10356)"/>
</g>
<defs>
<linearGradient id="paint0_linear_2627_10356" x1="44.7554" y1="901.755" x2="-3.56634" y2="540.975" gradientUnits="userSpaceOnUse">
<stop stop-color="#082326" stop-opacity="0"/>
<stop offset="1" stop-color="#008080"/>
</linearGradient>
<linearGradient id="paint1_linear_2627_10356" x1="53.2446" y1="901.755" x2="101.566" y2="540.975" gradientUnits="userSpaceOnUse">
<stop stop-color="#008080" stop-opacity="0"/>
<stop offset="1" stop-color="#082326"/>
</linearGradient>
<linearGradient id="paint2_linear_2627_10356" x1="45.325" y1="585.136" x2="93.6975" y2="534.993" gradientUnits="userSpaceOnUse">
<stop stop-color="#082326"/>
<stop offset="1" stop-color="#008080"/>
</linearGradient>
<linearGradient id="paint3_linear_2627_10356" x1="189.5" y1="899.5" x2="115.5" y2="347" gradientUnits="userSpaceOnUse">
<stop stop-color="#082326" stop-opacity="0"/>
<stop offset="1" stop-color="#008080"/>
</linearGradient>
<linearGradient id="paint4_linear_2627_10356" x1="202.5" y1="899.5" x2="276.5" y2="347" gradientUnits="userSpaceOnUse">
<stop stop-color="#008080" stop-opacity="0"/>
<stop offset="1" stop-color="#082326"/>
</linearGradient>
<linearGradient id="paint5_linear_2627_10356" x1="190.372" y1="414.628" x2="264.45" y2="337.839" gradientUnits="userSpaceOnUse">
<stop stop-color="#082326"/>
<stop offset="1" stop-color="#008080"/>
</linearGradient>
<linearGradient id="paint6_linear_2627_10356" x1="354.187" y1="900.187" x2="288.007" y2="406.074" gradientUnits="userSpaceOnUse">
<stop stop-color="#082326" stop-opacity="0"/>
<stop offset="1" stop-color="#008080"/>
</linearGradient>
<linearGradient id="paint7_linear_2627_10356" x1="365.813" y1="900.187" x2="431.993" y2="406.074" gradientUnits="userSpaceOnUse">
<stop stop-color="#008080" stop-opacity="0"/>
<stop offset="1" stop-color="#082326"/>
</linearGradient>
<linearGradient id="paint8_linear_2627_10356" x1="354.967" y1="466.555" x2="421.216" y2="397.881" gradientUnits="userSpaceOnUse">
<stop stop-color="#082326"/>
<stop offset="1" stop-color="#008080"/>
</linearGradient>
<linearGradient id="paint9_linear_2627_10356" x1="196" y1="348" x2="196" y2="1" gradientUnits="userSpaceOnUse">
<stop offset="0.496646" stop-color="#499A9A"/>
<stop offset="1" stop-color="#499A9A" stop-opacity="0"/>
</linearGradient>
<linearGradient id="paint10_linear_2627_10356" x1="212.478" y1="191.5" x2="176" y2="191.5" gradientUnits="userSpaceOnUse">
<stop stop-color="#499A9A"/>
<stop offset="0.0001" stop-color="white"/>
</linearGradient>
<linearGradient id="paint11_linear_2627_10356" x1="49" y1="540.707" x2="49" y2="314" gradientUnits="userSpaceOnUse">
<stop offset="0.496646" stop-color="#499A9A"/>
<stop offset="1" stop-color="#499A9A" stop-opacity="0"/>
</linearGradient>
<linearGradient id="paint12_linear_2627_10356" x1="65.4783" y1="438.5" x2="29" y2="438.5" gradientUnits="userSpaceOnUse">
<stop offset="0.496646" stop-color="#499A9A"/>
<stop offset="1" stop-color="#499A9A" stop-opacity="0"/>
</linearGradient>
<linearGradient id="paint13_linear_2627_10356" x1="360" y1="406.066" x2="360" y2="96" gradientUnits="userSpaceOnUse">
<stop offset="0.496646" stop-color="#499A9A"/>
<stop offset="1" stop-color="#499A9A" stop-opacity="0"/>
</linearGradient>
<linearGradient id="paint14_linear_2627_10356" x1="376.478" y1="265.5" x2="340" y2="265.5" gradientUnits="userSpaceOnUse">
<stop offset="0.496646" stop-color="#499A9A"/>
<stop offset="1" stop-color="#499A9A" stop-opacity="0"/>
</linearGradient>
<clipPath id="clip0_2627_10356">
<rect width="427" height="877" fill="white"/>
</clipPath>
</defs>
</svg>
