<svg width="80" height="80" viewBox="0 0 80 80" fill="none" xmlns="http://www.w3.org/2000/svg">
<path d="M60.0647 67.0633V74H10.3086V6H46.2436L60.0647 19.8211V43.5607" stroke="#499A9A" stroke-width="2" stroke-miterlimit="22.9256" stroke-linecap="round" stroke-linejoin="round"/>
<path d="M46.2441 6.69104V19.8211H59.3742" stroke="#499A9A" stroke-width="2" stroke-miterlimit="22.9256" stroke-linecap="round" stroke-linejoin="round"/>
<path fill-rule="evenodd" clip-rule="evenodd" d="M28.2757 29.2382C34.357 29.2382 39.3326 34.2138 39.3326 40.2951V42.5073H17.2188V40.2951C17.2188 34.2138 22.1944 29.2382 28.2757 29.2382Z" stroke="#499A9A" stroke-width="2" stroke-miterlimit="22.9256" stroke-linecap="round" stroke-linejoin="round"/>
<path d="M32.6543 27.4245C35.0724 25.0065 35.0724 21.086 32.6543 18.668C30.2363 16.2499 26.3159 16.2499 23.8978 18.668C21.4798 21.086 21.4798 25.0065 23.8978 27.4245C26.3159 29.8426 30.2363 29.8426 32.6543 27.4245Z" stroke="#499A9A" stroke-width="2" stroke-miterlimit="22.9256" stroke-linecap="round" stroke-linejoin="round"/>
<path d="M43.4805 28.6862H53.1553M53.1554 35.5967H46.2448" stroke="#499A9A" stroke-width="2" stroke-miterlimit="22.9256" stroke-linecap="round" stroke-linejoin="round"/>
<path d="M17.2188 49.418H36.5683M32.4221 56.3284H17.2188" stroke="#499A9A" stroke-width="2" stroke-miterlimit="22.9256" stroke-linecap="round" stroke-linejoin="round"/>
<path d="M56.9865 40.4833L38.418 59.0519L46.2363 66.8702L64.8049 48.3017L56.9865 40.4833Z" stroke="#499A9A" stroke-width="2" stroke-miterlimit="22.9256" stroke-linecap="round" stroke-linejoin="round"/>
<path d="M43.7949 54.6539L50.636 61.495M59.4317 52.6993L52.5907 45.8583" stroke="#499A9A" stroke-width="2" stroke-miterlimit="22.9256" stroke-linecap="round" stroke-linejoin="round"/>
<path d="M53.5664 60.5178L64.8053 71.7567L69.6918 66.8703L58.4529 55.6313" stroke="#499A9A" stroke-width="2" stroke-miterlimit="22.9256" stroke-linecap="round" stroke-linejoin="round"/>
</svg>
