<svg width="80" height="80" viewBox="0 0 80 80" fill="none" xmlns="http://www.w3.org/2000/svg">
<path d="M68.2791 9.15564V46.7933H44.4395" stroke="#499A9A" stroke-width="2" stroke-miterlimit="10" stroke-linecap="round" stroke-linejoin="round"/>
<path d="M35.5977 46.7933H11.7207V9.15564" stroke="#499A9A" stroke-width="2" stroke-miterlimit="10" stroke-linecap="round" stroke-linejoin="round"/>
<path d="M21.8906 16.3344H43.7966" stroke="#499A9A" stroke-width="2" stroke-miterlimit="10" stroke-linecap="round" stroke-linejoin="round"/>
<path d="M21.8906 23.332H29.4819" stroke="#499A9A" stroke-width="2" stroke-miterlimit="10" stroke-linecap="round" stroke-linejoin="round"/>
<path d="M69.1045 8.60516H10.8964C8.99469 8.60516 7.45312 7.06359 7.45312 5.16187C7.45313 3.26031 8.99469 1.71875 10.8964 1.71875H69.1045C71.0062 1.71875 72.5478 3.26031 72.5478 5.16203C72.5478 7.06359 71.0062 8.60516 69.1045 8.60516Z" stroke="#499A9A" stroke-width="2" stroke-miterlimit="10" stroke-linecap="round" stroke-linejoin="round"/>
<path d="M18.7326 66.5066C15.2376 66.5066 12.4043 63.6733 12.4043 60.1783V58.2284C12.4043 54.7334 15.2376 51.9001 18.7326 51.9001C22.2276 51.9001 25.0609 54.7334 25.0609 58.2284V60.1783C25.0609 63.6733 22.2276 66.5066 18.7326 66.5066Z" stroke="#499A9A" stroke-width="2" stroke-miterlimit="10" stroke-linecap="round" stroke-linejoin="round"/>
<path d="M27.1749 78.2811H8.38477V76.8547C8.38477 71.1396 13.0177 66.5066 18.7329 66.5066C22.656 66.5066 26.0691 68.6897 27.824 71.9072" stroke="#499A9A" stroke-width="2" stroke-miterlimit="10" stroke-linecap="round" stroke-linejoin="round"/>
<path d="M61.2677 66.5066C64.7627 66.5066 67.596 63.6733 67.596 60.1783V58.2284C67.596 54.7334 64.7627 51.9001 61.2677 51.9001C57.7727 51.9001 54.9395 54.7334 54.9395 58.2284V60.1783C54.9395 63.6733 57.7727 66.5066 61.2677 66.5066Z" stroke="#499A9A" stroke-width="2" stroke-miterlimit="10" stroke-linecap="round" stroke-linejoin="round"/>
<path d="M52.8254 78.2811H71.6155V76.8547C71.6155 71.1396 66.9826 66.5066 61.2674 66.5066C57.3132 66.5066 53.877 68.7246 52.1348 71.9842" stroke="#499A9A" stroke-width="2" stroke-miterlimit="10" stroke-linecap="round" stroke-linejoin="round"/>
<path d="M40.0013 63.6879C35.6696 63.6879 32.1582 60.1764 32.1582 55.8448V53.4281C32.1582 49.0964 35.6698 45.585 40.0013 45.585C44.333 45.585 47.8445 49.0965 47.8445 53.4281V55.8448C47.8445 60.1765 44.333 63.6879 40.0013 63.6879Z" stroke="#499A9A" stroke-width="2" stroke-miterlimit="10" stroke-linecap="round" stroke-linejoin="round"/>
<path d="M27.1758 78.2813V76.5133C27.1758 69.43 32.9178 63.688 40.0011 63.688C47.0844 63.688 52.8264 69.43 52.8264 76.5133V78.2813H27.1758Z" stroke="#499A9A" stroke-width="2" stroke-miterlimit="10" stroke-linecap="round" stroke-linejoin="round"/>
<path d="M18.1875 39.0638H61.8142" stroke="#499A9A" stroke-width="2" stroke-miterlimit="10" stroke-linecap="round" stroke-linejoin="round"/>
<path d="M21.8906 38.8201V30.3296H29.4819V38.8458" stroke="#499A9A" stroke-width="2" stroke-miterlimit="10" stroke-linecap="round" stroke-linejoin="round"/>
<path d="M36.2051 38.8459V23.3318H43.7963V38.8459" stroke="#499A9A" stroke-width="2" stroke-miterlimit="10" stroke-linecap="round" stroke-linejoin="round"/>
<path d="M50.5195 38.8458V16.3341H58.1106V38.8458" stroke="#499A9A" stroke-width="2" stroke-miterlimit="10" stroke-linecap="round" stroke-linejoin="round"/>
</svg>
