<svg width="213" height="136" viewBox="0 0 213 136" fill="none" xmlns="http://www.w3.org/2000/svg">
<g opacity="0.2">
<path d="M163.243 136C190.115 136 212.025 114.143 212.025 87.2174C212.025 62.2984 192.914 41.4443 168.628 38.7517C167.994 28.1398 171.743 18.0561 179.926 8.71128C181.827 6.54652 181.615 3.2207 179.398 1.26703C178.395 0.422455 177.181 0 175.913 0C174.594 0 173.274 0.475311 172.271 1.47841C171.796 1.74234 170.687 2.11197 170.053 2.37584C169.05 2.74545 168.1 3.06216 167.466 3.43178C146.19 14.2019 129.876 30.1461 121.482 48.3076C116.625 58.8666 113.932 71.2204 113.932 82.8354C113.932 84.4192 113.985 86.0033 114.091 87.5871C115.833 114.301 137.901 136 163.243 136Z" fill="#499A9A"/>
<path d="M49.3112 136C76.1837 136 98.0938 114.143 98.0938 87.2174C98.0938 62.2984 78.9819 41.4443 54.6432 38.7517C54.0625 28.1398 57.8111 18.0561 65.9414 8.71128C67.8948 6.54652 67.6309 3.2207 65.4664 1.26703C64.4633 0.422455 63.196 0 61.9818 0C60.6619 0 59.342 0.475311 58.2861 1.47841C57.8639 1.74234 56.7551 2.11197 56.1216 2.37584C55.0657 2.74545 54.1682 3.06216 53.4819 3.43178C32.2582 14.2019 15.9447 30.1461 7.55018 48.3076C2.69314 58.8666 0.000549316 71.2204 0.000549316 82.8354C0.000549316 84.4192 0.0533905 86.0033 0.159088 87.5871C1.90111 114.301 23.9168 136 49.3112 136Z" fill="#499A9A"/>
</g>
</svg>
