<svg width="80" height="80" viewBox="0 0 80 80" fill="none" xmlns="http://www.w3.org/2000/svg">
<path fill-rule="evenodd" clip-rule="evenodd" d="M34.3175 16.8092C34.3175 17.365 33.8643 17.8183 33.3025 17.8183H22.115C21.5548 17.8183 21.1009 17.365 21.1009 16.8092C21.1009 16.2448 21.555 15.7916 22.115 15.7916H33.3025C33.8643 15.7916 34.3175 16.2448 34.3175 16.8092ZM61.7345 6.53076H45.3903C42.9244 6.80788 41.0081 8.7474 41.0081 11.0972V26.0874C41.0081 26.968 42.0606 27.4373 42.7107 26.8314L46.203 23.6076C47.0342 22.8464 48.0219 22.4703 49.2249 22.4703H61.1263C63.879 22.4703 66.1167 20.4095 66.1167 17.8698V11.097C66.1167 8.74724 64.201 6.80772 61.7345 6.53076ZM34.6103 6.53076H18.266C15.7999 6.80788 13.8828 8.7474 13.8828 11.0972V17.8696C13.8828 20.4093 16.1223 22.4701 18.8742 22.4701H30.7766C31.9788 22.4701 32.9673 22.8463 33.7977 23.6074L37.29 26.8312C37.9406 27.4378 38.9926 26.9672 38.9926 26.0872V11.097C38.9924 8.74724 37.0769 6.80772 34.6103 6.53076ZM18.5595 12.1573C18.5595 11.6015 19.0127 11.1397 19.5737 11.1397H33.3025C33.8643 11.1397 34.3175 11.6015 34.3175 12.1573C34.3175 12.7218 33.8643 13.1749 33.3025 13.1749H19.5737C19.0127 13.1749 18.5595 12.7218 18.5595 12.1573ZM15.9129 11.097V17.8695C15.9129 19.289 17.2417 20.4434 18.8742 20.4434H30.7766C32.4894 20.4434 33.9687 21.0077 35.1735 22.1194L36.9633 23.7698V11.097C36.9633 9.67748 35.6353 8.52308 34.002 8.52308H18.8742C17.2417 8.52308 15.9129 9.67748 15.9129 11.097ZM47.2982 69.3903C47.3868 69.7629 47.2718 70.1063 47.0177 70.3652L44.2231 73.17C43.8294 73.5711 43.1783 73.5656 42.7875 73.1784C42.3899 72.785 42.3881 72.1437 42.7841 71.7418L43.251 71.2716C27.9508 73.2783 14.2103 61.3938 14.2103 45.7976C14.2103 38.9311 16.8843 32.4749 21.7379 27.6264C22.6913 26.6687 23.7251 25.7879 24.8119 24.9927C25.2652 24.6677 25.8996 24.7618 26.2297 25.2149C26.559 25.6682 26.4588 26.3095 26.0057 26.6344C19.863 31.0677 16.2403 38.2112 16.2403 45.7976C16.2403 52.117 18.703 58.06 23.1718 62.5322C28.3966 67.7484 35.7745 70.2026 43.0052 69.2535L42.2638 68.92C41.7524 68.6892 41.5249 68.0906 41.7567 67.5775C41.9868 67.073 42.587 66.8421 43.0985 67.073L46.855 68.7746H46.8559C46.8559 68.7831 46.8577 68.7831 46.8577 68.7831C47.0681 68.9106 47.2337 69.1336 47.2982 69.3903ZM58.0777 27.6264C68.1231 37.6612 68.1188 53.9194 58.0777 63.9602C56.3606 65.6789 54.4187 67.1412 52.3083 68.3042C51.8158 68.5752 51.1979 68.4004 50.9289 67.9108C50.6587 67.4148 50.8374 66.7991 51.3275 66.5255C58.8847 62.3389 63.5753 54.4978 63.5753 45.7975C63.5753 39.4696 61.1126 33.5266 56.6438 29.0543C56.5951 29.0116 56.5463 28.9602 56.4975 28.9175L56.6788 29.5845C56.8233 30.1319 56.5027 30.6876 55.9614 30.833C55.4219 30.9784 54.8643 30.6535 54.718 30.1148C54.5892 29.6381 53.6569 26.2748 53.65 26.0701C53.6355 25.8564 53.6937 25.6255 53.8279 25.4288H53.8287C53.8415 25.4117 53.8535 25.3946 53.8655 25.3775H53.8673C54.1028 25.0847 54.4236 24.96 54.7788 25.0013L58.7243 25.3775C59.2819 25.4288 59.6905 25.9248 59.6375 26.4892C59.5838 27.045 59.0886 27.4554 58.5302 27.3956L57.7759 27.3272C57.8777 27.4212 57.9777 27.5237 58.0777 27.6264ZM58.9004 16.8092C58.9004 17.365 58.4455 17.8183 57.8854 17.8183H46.6979C46.1369 17.8183 45.6836 17.365 45.6836 16.8092C45.6836 16.2448 46.1369 15.7916 46.6979 15.7916H57.8854C58.4454 15.7916 58.9004 16.2448 58.9004 16.8092ZM61.4419 12.1573C61.4419 12.7218 60.9886 13.1749 60.4268 13.1749H46.698C46.1371 13.1749 45.6838 12.7216 45.6838 12.1573C45.6838 11.6015 46.1371 11.1397 46.698 11.1397H60.4268C60.9886 11.1397 61.4419 11.6015 61.4419 12.1573ZM64.0867 17.8695C64.0867 19.289 62.7594 20.4434 61.1262 20.4434H49.2247C47.5119 20.4434 46.0326 21.0077 44.827 22.1194L43.038 23.7698V11.097C43.038 9.67748 44.366 8.52308 45.9983 8.52308H61.1262C62.7594 8.52308 64.0867 9.67748 64.0867 11.097V17.8695ZM49.1255 59.1887C51.2641 59.1887 52.3295 56.5807 50.787 55.084C50.1831 54.4981 50.5107 53.4613 51.3566 53.3482C55.1156 52.8437 57.9503 49.5943 57.9503 45.7975C57.9503 41.9922 55.1156 38.7512 51.3566 38.2383C50.5055 38.1236 50.1868 37.0848 50.787 36.5024C51.2582 36.0492 51.5164 35.4421 51.5164 34.7837C51.5164 32.6359 48.8937 31.6135 47.4289 33.0991C46.7615 33.776 45.6234 33.2408 45.6974 32.3124C45.8063 30.9434 44.7084 29.7384 43.3124 29.7384C41.9947 29.7384 40.9215 30.8159 40.9215 32.1328V38.2469C44.3129 38.7002 47.0031 41.3852 47.4563 44.78H50.5492C50.9161 43.258 52.0867 42.018 53.6422 41.5991C54.1835 41.4536 54.7411 41.7786 54.8855 42.3173C55.03 42.8647 54.7094 43.4204 54.1689 43.5658C53.1615 43.8309 52.4587 44.746 52.4587 45.7976C52.4587 46.8408 53.1615 47.7559 54.1689 48.0295C54.7094 48.1749 55.03 48.7308 54.8855 49.2695C54.7369 49.8239 54.1611 50.1325 53.6422 49.9877C52.0867 49.5687 50.9161 48.3288 50.5492 46.8066H47.4563C47.003 50.2013 44.3129 52.8864 40.9215 53.3397V59.4538C40.9215 60.7792 41.9947 61.848 43.3124 61.848C44.7108 61.848 45.8078 60.6476 45.6974 59.2741C45.6234 58.3543 46.7569 57.8058 47.4289 58.4874C47.8822 58.9407 48.4843 59.1887 49.1255 59.1887ZM39.9075 51.3815C42.9894 51.3815 45.4956 48.876 45.4956 45.7976C45.4956 42.7106 42.9892 40.2052 39.9075 40.2052C36.8257 40.2052 34.3201 42.7106 34.3201 45.7976C34.3201 48.876 36.8255 51.3815 39.9075 51.3815ZM38.8924 59.4538V53.3397C35.5028 52.8864 32.8126 50.2015 32.3593 46.8066H29.2663C28.9012 48.3287 27.7297 49.5687 26.1734 49.9877C26.0852 50.0133 25.9964 50.022 25.9092 50.022C24.7414 50.022 24.5031 48.3384 25.6467 48.0295C26.6532 47.7559 27.3569 46.8408 27.3569 45.7976C27.3569 44.7458 26.6532 43.8309 25.6467 43.5658C25.1054 43.4204 24.7847 42.8647 24.93 42.3173C25.0745 41.7786 25.6321 41.4536 26.1734 41.5991C27.7297 42.0181 28.9012 43.258 29.2663 44.78H32.3593C32.8126 41.3852 35.5027 38.7002 38.8924 38.2469V32.1328C38.8924 30.8159 37.8209 29.7384 36.5023 29.7384C35.1084 29.7384 34.0078 30.9421 34.1183 32.3124C34.1924 33.23 33.0599 33.7818 32.3867 33.0991C31.9334 32.6458 31.3315 32.3978 30.6902 32.3978C28.5479 32.3978 27.4891 35.0103 29.0279 36.5024C29.6284 37.0847 29.3113 38.1234 28.4583 38.2383C24.7001 38.7514 21.8646 41.9922 21.8646 45.7975C21.8646 49.5941 24.7001 52.8436 28.4583 53.3482C29.3068 53.4616 29.6316 54.4988 29.0279 55.084C28.5575 55.5373 28.2995 56.1444 28.2995 56.8028C28.2995 58.9506 30.9222 59.9728 32.3868 58.4874C33.0601 57.8047 34.1924 58.3565 34.1185 59.2741C34.0075 60.6509 35.1071 61.848 36.5025 61.848C37.8209 61.848 38.8924 60.7792 38.8924 59.4538ZM53.5465 56.8029C53.5465 59.9264 50.3836 62.0632 47.4889 60.9074C46.358 64.1474 42.1115 64.9231 39.9075 62.2756C37.706 64.9228 33.4563 64.1477 32.3268 60.9074C31.8129 61.1127 31.2596 61.2237 30.6902 61.2237C27.4788 61.2237 25.3713 57.912 26.6412 55.0156C22.67 53.7927 19.8353 50.0645 19.8353 45.7975C19.8353 41.5218 22.67 37.7936 26.6412 36.5708C26.3975 36.0149 26.2692 35.4079 26.2692 34.7836C26.2692 31.6594 29.4327 29.5232 32.3268 30.6789C33.4561 27.4384 37.706 26.6636 39.9075 29.3108C42.1115 26.6631 46.3582 27.4389 47.4889 30.6789C48.0028 30.4736 48.5561 30.3626 49.1255 30.3626C52.3411 30.3626 54.4451 33.6816 53.1737 36.5708C57.1457 37.7936 59.9804 41.5218 59.9804 45.7975C59.9804 50.0645 57.1457 53.7928 53.1737 55.0156C53.4182 55.5716 53.5465 56.1788 53.5465 56.8029Z" fill="#499A9A"/>
</svg>
