<svg width="80" height="80" viewBox="0 0 80 80" fill="none" xmlns="http://www.w3.org/2000/svg">
<path d="M76.25 33.75H73.17C72.3056 29.1703 70.5028 24.8191 67.875 20.97L70.0575 18.7863C70.2918 18.5518 70.4235 18.234 70.4235 17.9025C70.4235 17.571 70.2918 17.2532 70.0575 17.0187L62.9812 9.9475C62.7468 9.71316 62.429 9.58152 62.0975 9.58152C61.766 9.58152 61.4482 9.71316 61.2138 9.9475L59.03 12.125C55.1809 9.49722 50.8297 7.69442 46.25 6.83V3.75C46.25 3.41848 46.1183 3.10054 45.8839 2.86612C45.6495 2.6317 45.3315 2.5 45 2.5H35C34.6685 2.5 34.3505 2.6317 34.1161 2.86612C33.8817 3.10054 33.75 3.41848 33.75 3.75V6.83C29.1703 7.69442 24.8191 9.49722 20.97 12.125L18.7863 9.9475C18.5518 9.71316 18.234 9.58152 17.9025 9.58152C17.571 9.58152 17.2532 9.71316 17.0187 9.9475L9.9475 17.0187C9.71316 17.2532 9.58152 17.571 9.58152 17.9025C9.58152 18.234 9.71316 18.5518 9.9475 18.7863L12.125 20.97C9.49722 24.8191 7.69442 29.1703 6.83 33.75H3.75C3.41848 33.75 3.10054 33.8817 2.86612 34.1161C2.6317 34.3505 2.5 34.6685 2.5 35V45C2.5 45.3315 2.6317 45.6495 2.86612 45.8839C3.10054 46.1183 3.41848 46.25 3.75 46.25H6.83C7.69442 50.8297 9.49722 55.1809 12.125 59.03L9.9475 61.2138C9.71316 61.4482 9.58152 61.766 9.58152 62.0975C9.58152 62.429 9.71316 62.7468 9.9475 62.9812L17.0187 70.0525C17.2532 70.2868 17.571 70.4185 17.9025 70.4185C18.234 70.4185 18.5518 70.2868 18.7863 70.0525L20.97 67.875C24.8191 70.5028 29.1703 72.3056 33.75 73.17V76.25C33.75 76.5815 33.8817 76.8995 34.1161 77.1339C34.3505 77.3683 34.6685 77.5 35 77.5H45C45.3315 77.5 45.6495 77.3683 45.8839 77.1339C46.1183 76.8995 46.25 76.5815 46.25 76.25V73.17C50.8297 72.3056 55.1809 70.5028 59.03 67.875L61.2138 70.0575C61.4482 70.2918 61.766 70.4235 62.0975 70.4235C62.429 70.4235 62.7468 70.2918 62.9812 70.0575L70.0525 62.9863C70.2868 62.7518 70.4185 62.434 70.4185 62.1025C70.4185 61.771 70.2868 61.4532 70.0525 61.2188L67.875 59.03C70.5028 55.1809 72.3056 50.8297 73.17 46.25H76.25C76.5815 46.25 76.8995 46.1183 77.1339 45.8839C77.3683 45.6495 77.5 45.3315 77.5 45V35C77.5 34.6685 77.3683 34.3505 77.1339 34.1161C76.8995 33.8817 76.5815 33.75 76.25 33.75ZM75 43.75H72.1162C71.8177 43.7501 71.5291 43.8571 71.3026 44.0515C71.0761 44.2459 70.9266 44.515 70.8813 44.81C70.1125 49.7373 68.1756 54.4091 65.2325 58.435C65.0555 58.676 64.9708 58.9725 64.9937 59.2707C65.0167 59.5688 65.1457 59.8489 65.3575 60.06L67.4025 62.105L62.0988 67.4087L60.0537 65.3638C59.8426 65.152 59.5626 65.0229 59.2644 65C58.9663 64.9771 58.6698 65.0618 58.4287 65.2388C54.4029 68.1818 49.7311 70.1187 44.8037 70.8875C44.5087 70.9329 44.2396 71.0823 44.0452 71.3089C43.8508 71.5354 43.7439 71.824 43.7437 72.1225V75H36.25V72.1162C36.2499 71.8177 36.1429 71.5291 35.9485 71.3026C35.7541 71.0761 35.485 70.9266 35.19 70.8813C30.2627 70.1125 25.5909 68.1756 21.565 65.2325C21.324 65.0555 21.0275 64.9708 20.7293 64.9937C20.4312 65.0167 20.1511 65.1457 19.94 65.3575L17.895 67.4025L12.5912 62.0988L14.6362 60.0537C14.848 59.8426 14.9771 59.5626 15 59.2644C15.0229 58.9663 14.9382 58.6698 14.7612 58.4287C11.8235 54.4035 9.89102 49.734 9.125 44.81C9.07947 44.5139 8.9291 44.244 8.70128 44.0494C8.47345 43.8549 8.18334 43.7486 7.88375 43.75H5V36.25H7.88375C8.18226 36.2499 8.47088 36.1429 8.6974 35.9485C8.92391 35.7541 9.07338 35.485 9.11875 35.19C9.88754 30.2627 11.8244 25.5909 14.7675 21.565C14.9445 21.324 15.0292 21.0275 15.0063 20.7293C14.9833 20.4312 14.8543 20.1511 14.6425 19.94L12.5975 17.895L17.9012 12.5912L19.9462 14.6362C20.1574 14.848 20.4374 14.9771 20.7356 15C21.0337 15.0229 21.3302 14.9382 21.5713 14.7612C25.5965 11.8235 30.266 9.89102 35.19 9.125C35.4861 9.07947 35.756 8.9291 35.9506 8.70128C36.1451 8.47345 36.2514 8.18334 36.25 7.88375V5H43.75V7.88375C43.7501 8.18226 43.8571 8.47088 44.0515 8.6974C44.2459 8.92391 44.515 9.07338 44.81 9.11875C49.7373 9.88754 54.4091 11.8244 58.435 14.7675C58.676 14.9445 58.9725 15.0292 59.2707 15.0063C59.5688 14.9833 59.8489 14.8543 60.06 14.6425L62.105 12.5975L67.4087 17.9012L65.3638 19.9462C65.152 20.1574 65.0229 20.4374 65 20.7356C64.9771 21.0337 65.0618 21.3302 65.2388 21.5713C68.1818 25.5971 70.1187 30.2689 70.8875 35.1963C70.9329 35.4913 71.0823 35.7604 71.3089 35.9548C71.5354 36.1492 71.824 36.2561 72.1225 36.2562H75V43.75Z" fill="#499A9A"/>
<path d="M52.6891 33.3139L45.0004 32.1351V32.0226L46.8091 31.1189C47.0169 31.0151 47.1917 30.8554 47.3138 30.6578C47.4359 30.4602 47.5005 30.2324 47.5004 30.0001V27.5001C47.4996 26.1583 47.1389 24.8413 46.4557 23.6863C45.7726 22.5314 44.7922 21.5809 43.6166 20.9339C44.2928 20.2258 44.7461 19.3347 44.9205 18.3713C45.0948 17.4079 44.9825 16.4145 44.5974 15.5143C44.2123 14.6142 43.5714 13.8469 42.7542 13.3076C41.937 12.7684 40.9795 12.481 40.0004 12.481C39.0213 12.481 38.0638 12.7684 37.2466 13.3076C36.4294 13.8469 35.7885 14.6142 35.4034 15.5143C35.0183 16.4145 34.906 17.4079 35.0803 18.3713C35.2546 19.3347 35.708 20.2258 36.3841 20.9339C35.2086 21.5809 34.2281 22.5314 33.545 23.6863C32.8619 24.8413 32.5012 26.1583 32.5004 27.5001V30.0001C32.5003 30.2324 32.5649 30.4602 32.687 30.6578C32.8091 30.8554 32.9838 31.0151 33.1916 31.1189L35.0004 32.0226V32.1351L27.3116 33.3139C27.0844 33.3485 26.8711 33.4451 26.6953 33.5931C26.5194 33.7411 26.3877 33.9347 26.3147 34.1526C26.2417 34.3706 26.2302 34.6045 26.2815 34.8285C26.3328 35.0526 26.4449 35.2581 26.6054 35.4226L32.4154 41.3726L31.0404 49.7989C31.0025 50.0306 31.0306 50.2684 31.1215 50.4849C31.2124 50.7014 31.3625 50.8879 31.5545 51.023C31.7466 51.1582 31.9728 51.2365 32.2073 51.2491C32.4418 51.2616 32.675 51.2078 32.8804 51.0939L40.0004 47.1539L47.1254 51.0939C47.3307 51.2078 47.564 51.2616 47.7985 51.2491C48.033 51.2365 48.2592 51.1582 48.4512 51.023C48.6433 50.8879 48.7934 50.7014 48.8843 50.4849C48.9752 50.2684 49.0033 50.0306 48.9654 49.7989L47.5904 41.3726L53.4004 35.4226C53.5609 35.2581 53.673 35.0526 53.7243 34.8285C53.7755 34.6045 53.7641 34.3706 53.6911 34.1526C53.6181 33.9347 53.4864 33.7411 53.3105 33.5931C53.1346 33.4451 52.9214 33.3485 52.6941 33.3139H52.6891ZM40.0004 15.0001C40.4948 15.0001 40.9782 15.1468 41.3893 15.4215C41.8004 15.6962 42.1209 16.0866 42.3101 16.5434C42.4993 17.0002 42.5488 17.5029 42.4524 17.9879C42.3559 18.4728 42.1178 18.9183 41.7682 19.2679C41.4185 19.6175 40.9731 19.8556 40.4881 19.9521C40.0032 20.0486 39.5005 19.9991 39.0437 19.8098C38.5869 19.6206 38.1964 19.3002 37.9217 18.8891C37.647 18.4779 37.5004 17.9946 37.5004 17.5001C37.5004 16.8371 37.7638 16.2012 38.2326 15.7324C38.7015 15.2635 39.3373 15.0001 40.0004 15.0001ZM35.0004 27.5001C35.0004 26.1741 35.5272 24.9023 36.4649 23.9646C37.4025 23.0269 38.6743 22.5001 40.0004 22.5001C41.3265 22.5001 42.5982 23.0269 43.5359 23.9646C44.4736 24.9023 45.0004 26.1741 45.0004 27.5001V29.2276L43.1916 30.1314C42.9838 30.2352 42.8091 30.3949 42.687 30.5925C42.5649 30.7901 42.5003 31.0178 42.5004 31.2501V35.0001H37.5004V31.2501C37.5005 31.0178 37.4359 30.7901 37.3138 30.5925C37.1917 30.3949 37.0169 30.2352 36.8091 30.1314L35.0004 29.2276V27.5001ZM45.3554 40.0776C45.2189 40.2176 45.1171 40.3877 45.0583 40.5742C44.9994 40.7607 44.9852 40.9584 45.0166 41.1514L46.0766 47.6601L40.6054 44.6314C40.4202 44.529 40.212 44.4752 40.0004 44.4752C39.7888 44.4752 39.5806 44.529 39.3954 44.6314L33.9241 47.6601L34.9841 41.1514C35.0156 40.9584 35.0013 40.7607 34.9425 40.5742C34.8837 40.3877 34.7819 40.2176 34.6454 40.0776L30.0941 35.4164L35.0004 34.6664V36.2501C35.0004 36.5817 35.1321 36.8996 35.3665 37.134C35.6009 37.3684 35.9189 37.5001 36.2504 37.5001H43.7504C44.0819 37.5001 44.3999 37.3684 44.6343 37.134C44.8687 36.8996 45.0004 36.5817 45.0004 36.2501V34.6639L49.9066 35.4139L45.3554 40.0776Z" fill="#499A9A"/>
<path d="M41.2509 59.4825V52.5H38.7509V59.4825L35.8847 56.6162L34.1172 58.3838L39.1172 63.3838C39.3516 63.6181 39.6695 63.7497 40.0009 63.7497C40.3324 63.7497 40.6503 63.6181 40.8847 63.3838L45.8847 58.3838L44.1172 56.6162L41.2509 59.4825Z" fill="#499A9A"/>
<path d="M60.8838 34.1162L59.1162 35.8837L61.9825 38.75H55V41.25H61.9825L59.1162 44.1162L60.8838 45.8837L65.8838 40.8837C66.1181 40.6493 66.2497 40.3314 66.2497 40C66.2497 39.6685 66.1181 39.3506 65.8838 39.1162L60.8838 34.1162Z" fill="#499A9A"/>
<path d="M20.8835 35.8837L19.116 34.1162L14.116 39.1162C13.8816 39.3506 13.75 39.6685 13.75 40C13.75 40.3314 13.8816 40.6493 14.116 40.8837L19.116 45.8837L20.8835 44.1162L18.0172 41.25H24.9997V38.75H18.0172L20.8835 35.8837Z" fill="#499A9A"/>
</svg>

