<svg width="80" height="80" viewBox="0 0 80 80" fill="none" xmlns="http://www.w3.org/2000/svg">
<path d="M72 15.8306C72.0003 13.0576 70.9317 10.3902 69.0145 8.37801C67.0973 6.36582 64.4776 5.16222 61.6951 5.01524C58.9127 4.86826 56.1796 5.7891 54.0592 7.58801C51.9387 9.38691 50.5924 11.9268 50.2978 14.6842C44.5349 12.1481 38.1178 11.4747 31.9502 12.7588C25.7825 14.043 20.1749 17.22 15.9169 21.8426C11.6589 26.4652 8.96495 32.3004 8.21443 38.5268C7.46391 44.7531 8.69458 51.0569 11.7332 56.5506C11.3246 56.7212 10.9756 57.008 10.7301 57.3751C10.4846 57.7422 10.3533 58.1733 10.3529 58.6143V61.129C10.3535 61.7222 10.5906 62.291 11.0121 62.7105C11.4336 63.13 12.0052 63.3659 12.6013 63.3666H13.2176C13.4867 64.3123 13.8658 65.2236 14.3471 66.0819L13.9106 66.5163C13.4898 66.9364 13.2536 67.5054 13.2536 68.0985C13.2536 68.6916 13.4898 69.2606 13.9106 69.6807L15.6972 71.4587C16.1194 71.8774 16.6911 72.1125 17.2871 72.1125C17.8831 72.1125 18.4548 71.8774 18.877 71.4587L19.3135 71.0241C20.1759 71.5035 21.0915 71.8811 22.0419 72.1492V72.7624C22.0425 73.3556 22.2796 73.9243 22.7011 74.3438C23.1226 74.7633 23.694 74.9993 24.2901 75H26.8169C27.413 74.9993 27.9846 74.7634 28.4061 74.3439C28.8276 73.9244 29.0647 73.3556 29.0653 72.7624V72.1492C30.0156 71.8811 30.9313 71.5035 31.7937 71.0243L32.2301 71.4587C32.5641 71.7901 32.9942 72.0086 33.4598 72.0836C33.9253 72.1586 34.4027 72.0861 34.8247 71.8765C35.9154 71.9945 37.0117 72.054 38.1089 72.0548C43.2051 72.0536 48.2177 70.7653 52.6774 68.3107C57.137 65.856 60.8978 62.3152 63.6077 58.0198C66.3175 53.7244 67.8878 48.8149 68.1715 43.7509C68.4552 38.687 67.443 33.6342 65.2297 29.0656C68.389 24.7669 72 19.4913 72 15.8306ZM38.1086 70.1912C37.6714 70.1905 37.2352 70.1496 36.8055 70.069L37.1962 69.6801C37.6172 69.2602 37.8537 68.6912 37.8537 68.0979C37.8537 67.5047 37.6172 66.9357 37.1962 66.5157L36.7596 66.0812C37.2412 65.2231 37.6205 64.3121 37.89 63.3666H38.507C39.103 63.3659 39.6745 63.1299 40.096 62.7104C40.5175 62.2909 40.7546 61.7222 40.7552 61.129V58.6143C40.7545 58.021 40.5174 57.4523 40.0959 57.0329C39.6745 56.6134 39.103 56.3775 38.507 56.3768H37.89C37.804 56.0755 37.7059 55.7782 37.5982 55.4854C37.7684 55.4838 37.939 55.481 38.1086 55.481C42.1682 55.4655 46.2158 55.9237 50.1682 56.8462C49.5944 58.6869 48.8621 60.4748 47.9794 62.1901C45.2893 67.3497 41.7839 70.1912 38.1086 70.1912ZM38.1086 53.618C37.6685 53.618 37.2273 53.6248 36.7869 53.6348L37.1962 53.2276C37.6172 52.8076 37.8536 52.2386 37.8536 51.6454C37.8536 51.0521 37.6172 50.4831 37.1962 50.0631L35.4095 48.2851C34.9874 47.8663 34.4157 47.6312 33.8197 47.6312C33.2237 47.6312 32.6519 47.8663 32.2298 48.2851L31.7933 48.7195C30.9308 48.2403 30.0152 47.8628 29.0649 47.5946V46.9805C29.0642 46.3873 28.8271 45.8186 28.4056 45.3991C27.9841 44.9797 27.4126 44.7437 26.8165 44.7431H24.2903C24.1858 44.7439 24.0815 44.7519 23.9781 44.7671C23.9497 44.1778 23.9301 43.5864 23.9194 42.993L52.2968 43.0488C52.2475 47.1018 51.7076 51.1342 50.6888 55.0587C46.5671 54.0866 42.3444 53.603 38.1086 53.618ZM13.9113 53.2276L14.3479 53.6621C13.9767 54.3243 13.6662 55.0184 13.4201 55.736C11.2341 51.8212 10.0223 47.4421 9.88611 42.9654L22.0479 42.9894C22.0647 44.0638 22.1121 45.1368 22.1887 46.1937C22.0924 46.445 22.0426 46.7116 22.042 46.9805V47.5946C21.0918 47.8625 20.1761 48.2397 19.3136 48.7186L18.8771 48.2842C18.455 47.8655 17.8833 47.6304 17.2873 47.6304C16.6913 47.6304 16.1197 47.8655 15.6975 48.2842L13.9107 50.0623C13.4895 50.4823 13.253 51.0516 13.2531 51.6451C13.2533 52.2385 13.49 52.8077 13.9113 53.2276ZM38.1086 13.9873C41.7839 13.9873 45.2893 16.8289 47.9788 21.9884C48.8614 23.7031 49.5937 25.4904 50.1676 27.3303C46.216 28.2569 42.1683 28.7158 38.1086 28.6975C34.0488 28.7129 30.0013 28.2547 26.0487 27.3324C26.6228 25.4917 27.3554 23.7037 28.2383 21.9884C30.9277 16.8292 34.433 13.9876 38.1086 13.9876V13.9873ZM38.1086 30.5606C42.3447 30.5791 46.5679 30.0957 50.6893 29.1207C51.7124 33.063 52.2526 37.114 52.298 41.1855L23.9202 41.1295C23.9695 37.0766 24.5094 33.0443 25.528 29.1199C29.6498 30.0922 33.8726 30.5759 38.1086 30.5609V30.5606ZM22.0479 41.1262L9.89065 41.1024C10.0875 35.3511 12.0634 29.8004 15.5485 25.2085C17.8994 26.6141 20.6667 27.7716 23.7189 28.6453C22.6596 32.7236 22.0985 36.9142 22.0479 41.1262ZM54.1695 43.0517L66.3268 43.0756C66.13 48.8269 64.1541 54.3776 60.6691 58.9696C58.3181 57.5639 55.5509 56.4065 52.4986 55.5328C53.5581 51.4545 54.1191 47.2638 54.1695 43.0517ZM54.1709 41.1887C54.1247 36.9553 53.5632 32.7431 52.4986 28.6442C53.6646 28.309 54.7914 27.9309 55.8792 27.5099C56.6704 28.6173 57.4634 29.684 58.1968 30.671C59.0463 31.8141 59.7799 32.801 60.3462 33.6266C60.4321 33.7518 60.5474 33.8543 60.6822 33.9251C60.8169 33.996 60.9669 34.033 61.1193 34.033C61.2717 34.033 61.4218 33.996 61.5565 33.9251C61.6912 33.8543 61.8065 33.7518 61.8924 33.6266C62.4412 32.8266 63.1484 31.8733 63.9647 30.7748C65.4273 34.0681 66.2318 37.6133 66.3331 41.2126L54.1709 41.1887ZM61.1181 6.86404C63.5068 6.86671 65.7969 7.81226 67.486 9.49324C69.1751 11.1742 70.1252 13.4534 70.1278 15.8306C70.1278 19.3488 65.559 25.4957 62.5356 29.5637C62.0177 30.2605 61.5424 30.9001 61.1181 31.4853C60.6939 30.9002 60.2186 30.2605 59.7008 29.5639C56.6773 25.4959 52.1083 19.3481 52.1083 15.8306C52.111 13.4534 53.0611 11.1743 54.7502 9.49328C56.4393 7.81231 58.7294 6.86675 61.1181 6.86404ZM50.306 16.7401C50.6852 19.4215 52.6135 22.7663 54.7776 25.936C53.8735 26.2721 52.9406 26.5784 51.9789 26.8549C51.3686 24.8826 50.5861 22.9673 49.6405 21.1307C48.2314 18.4275 46.5907 16.2903 44.7948 14.7771C46.6959 15.2375 48.5431 15.8955 50.306 16.7401ZM31.4082 14.7893C29.6179 16.3019 27.9819 18.4348 26.5765 21.131C25.6303 22.9686 24.8475 24.8851 24.237 26.8585C21.4406 26.0582 18.9028 25.0105 16.7356 23.7444C20.5726 19.3144 25.7011 16.1844 31.4082 14.7893ZM33.5537 70.1411L32.6015 69.1937C32.4508 69.0436 32.2531 68.9493 32.0413 68.9263C31.8294 68.9033 31.6159 68.953 31.4362 69.0671C30.3611 69.7508 29.1734 70.2405 27.9275 70.5139C27.7195 70.5599 27.5334 70.675 27.4001 70.8404C27.2667 71.0058 27.1941 71.2115 27.1941 71.4236V72.7629C27.1928 72.8619 27.1527 72.9564 27.0824 73.0264C27.0122 73.0963 26.9172 73.1362 26.8178 73.1375H24.2903C24.1909 73.1362 24.0959 73.0963 24.0256 73.0264C23.9554 72.9564 23.9153 72.8619 23.914 72.7629V71.4236C23.9141 71.2115 23.8414 71.0058 23.708 70.8404C23.5747 70.675 23.3886 70.5598 23.1806 70.5139C21.9347 70.2406 20.747 69.7507 19.672 69.0669C19.4923 68.9529 19.2788 68.9033 19.067 68.9263C18.8551 68.9494 18.6574 69.0437 18.5067 69.1937L17.5547 70.1411C17.4837 70.2104 17.3881 70.2493 17.2886 70.2493C17.1891 70.2493 17.0936 70.2104 17.0225 70.1411L15.2358 68.363C15.1662 68.2923 15.1272 68.1972 15.1272 68.0982C15.1272 67.9992 15.1662 67.9041 15.2358 67.8334L16.1879 66.886C16.3386 66.7359 16.4334 66.5392 16.4565 66.3283C16.4796 66.1174 16.4297 65.905 16.3151 65.7261C15.6278 64.6562 15.1354 63.474 14.8605 62.2339C14.8144 62.0269 14.6987 61.8417 14.5325 61.709C14.3663 61.5763 14.1596 61.5039 13.9465 61.504H12.6007C12.5013 61.5027 12.4063 61.4628 12.336 61.3929C12.2657 61.323 12.2256 61.2285 12.2243 61.1295V58.6143C12.2256 58.5153 12.2657 58.4208 12.336 58.3509C12.4063 58.2809 12.5013 58.2411 12.6007 58.2398H13.9465C14.1596 58.2398 14.3663 58.1675 14.5325 58.0348C14.6987 57.9021 14.8144 57.7169 14.8605 57.5099C15.1353 56.27 15.6275 55.0879 16.3145 54.018C16.4291 53.8391 16.479 53.6267 16.4558 53.4158C16.4327 53.205 16.3379 53.0083 16.1872 52.8583L15.2352 51.9107C15.1658 51.8398 15.127 51.7448 15.127 51.6459C15.127 51.547 15.1658 51.4519 15.2352 51.3811L17.022 49.6028C17.093 49.5336 17.1885 49.4949 17.288 49.4949C17.3874 49.4949 17.4829 49.5336 17.554 49.6028L18.506 50.5503C18.6567 50.7003 18.8544 50.7946 19.0663 50.8176C19.2782 50.8406 19.4917 50.791 19.6714 50.6768C20.7465 49.9933 21.9342 49.5035 23.18 49.23C23.388 49.1841 23.5741 49.069 23.7074 48.9036C23.8408 48.7382 23.9135 48.5324 23.9134 48.3204V46.981C23.9148 46.8821 23.9548 46.7876 24.0251 46.7177C24.0954 46.6477 24.1903 46.6079 24.2897 46.6065H26.8165C26.9159 46.6079 27.0108 46.6477 27.0811 46.7177C27.1514 46.7876 27.1914 46.8821 27.1927 46.981V48.3204C27.1927 48.5324 27.2654 48.7382 27.3987 48.9036C27.5321 49.069 27.7181 49.1841 27.9262 49.23C29.1721 49.5036 30.3598 49.9934 31.4349 50.677C31.6146 50.7911 31.8281 50.8407 32.04 50.8177C32.2519 50.7946 32.4495 50.7003 32.6002 50.5503L33.5522 49.6028C33.6233 49.5336 33.7188 49.4948 33.8183 49.4948C33.9178 49.4948 34.0133 49.5336 34.0844 49.6028L35.871 51.3809C35.9404 51.4518 35.9792 51.5468 35.9792 51.6457C35.9792 51.7447 35.9404 51.8397 35.871 51.9106L34.919 52.8581C34.7683 53.0081 34.6736 53.2048 34.6504 53.4157C34.6273 53.6266 34.6772 53.839 34.7918 54.0178C35.4788 55.0878 35.971 56.2698 36.2458 57.5097C36.2919 57.7167 36.4076 57.9019 36.5738 58.0346C36.7399 58.1673 36.9466 58.2397 37.1596 58.2397H38.5056C38.605 58.241 38.6999 58.2809 38.7702 58.3508C38.8405 58.4207 38.8806 58.5152 38.8819 58.6141V61.1288C38.8806 61.2277 38.8405 61.3222 38.7702 61.3921C38.6999 61.4621 38.605 61.5019 38.5056 61.5033H37.1596C36.9466 61.5033 36.7399 61.5756 36.5738 61.7083C36.4076 61.841 36.2919 62.0262 36.2458 62.2332C35.971 63.4731 35.4788 64.6551 34.7918 65.7249C34.6772 65.9038 34.6273 66.1163 34.6505 66.3272C34.6736 66.5381 34.7684 66.7348 34.9192 66.8848L35.8712 67.8321C35.9405 67.903 35.9794 67.998 35.9794 68.097C35.9794 68.1959 35.9405 68.291 35.8712 68.3618L34.0845 70.1399C34.0135 70.2087 33.9183 70.2472 33.8193 70.2474C33.7202 70.2475 33.6249 70.2093 33.5537 70.1408V70.1411ZM44.8088 69.39C46.5983 67.8775 48.2351 65.7447 49.6405 63.0483C50.5867 61.2108 51.3695 59.2943 51.9801 57.321C54.7765 58.1213 57.3142 59.1688 59.4813 60.4351C55.6444 64.8649 50.5158 67.9948 44.8088 69.3897V69.39ZM65.1248 13.2037C65.1249 12.4151 64.8899 11.6442 64.4498 10.9884C64.0096 10.3327 63.3839 9.82159 62.6518 9.51975C61.9198 9.21791 61.1142 9.13889 60.337 9.29268C59.5598 9.44648 58.8459 9.82617 58.2856 10.3838C57.7252 10.9413 57.3436 11.6518 57.189 12.4252C57.0343 13.1986 57.1136 14.0004 57.4168 14.729C57.72 15.4575 58.2334 16.0803 58.8923 16.5185C59.5511 16.9567 60.3257 17.1906 61.1181 17.1906C62.1803 17.1895 63.1987 16.769 63.9498 16.0215C64.7009 15.274 65.1233 14.2605 65.1245 13.2034L65.1248 13.2037ZM58.9841 13.2037C58.9841 12.7836 59.1093 12.3729 59.3438 12.0236C59.5784 11.6744 59.9117 11.4021 60.3017 11.2414C60.6917 11.0807 61.1208 11.0386 61.5348 11.1206C61.9488 11.2026 62.3291 11.4049 62.6276 11.7019C62.9261 11.999 63.1293 12.3775 63.2117 12.7895C63.294 13.2015 63.2517 13.6286 63.0902 14.0167C62.9286 14.4048 62.6551 14.7365 62.3041 14.9699C61.9531 15.2033 61.5405 15.3279 61.1184 15.3279C60.5524 15.3273 60.0098 15.1033 59.6096 14.705C59.2094 14.3067 58.9843 13.7666 58.9838 13.2034L58.9841 13.2037ZM25.5543 51.793C23.9487 51.793 22.3792 52.2668 21.0443 53.1546C19.7093 54.0423 18.6689 55.304 18.0544 56.7802C17.44 58.2564 17.2792 59.8808 17.5925 61.448C17.9057 63.0151 18.6788 64.4546 19.8141 65.5845C20.9494 66.7143 22.3958 67.4838 23.9705 67.7955C25.5452 68.1073 27.1774 67.9473 28.6607 67.3358C30.144 66.7244 31.4119 65.6889 32.3039 64.3604C33.1959 63.0318 33.672 61.4699 33.672 59.872C33.6699 57.7299 32.8138 55.6762 31.2918 54.1615C29.7698 52.6468 27.7061 51.7949 25.5537 51.7927L25.5543 51.793ZM28.5685 54.4302C27.5369 54.6114 26.5237 54.8213 25.5355 55.0606C25.4137 54.6028 25.2962 54.1399 25.187 53.6679C25.3086 53.6607 25.4309 53.6562 25.5537 53.6562C26.6082 53.655 27.6456 53.9213 28.5679 54.4299L28.5685 54.4302ZM23.3554 54.055C23.4715 54.5577 23.5966 55.0509 23.7267 55.5388C22.4897 55.893 21.2983 56.2917 20.1665 56.7337C20.8914 55.5051 22.0163 54.5599 23.3548 54.0548L23.3554 54.055ZM19.3081 59.8717C19.3086 59.6116 19.3256 59.3517 19.3588 59.0937C20.9429 58.3902 22.5755 57.8004 24.2442 57.3289C25.234 60.4846 26.5256 63.2721 28.0657 65.5612C27.1153 65.9775 26.0755 66.1513 25.0406 66.0669C24.0057 65.9824 23.0083 65.6424 22.1387 65.0775C21.2692 64.5126 20.5549 63.7408 20.0607 62.8319C19.5666 61.923 19.308 60.9058 19.3085 59.8723L19.3081 59.8717ZM29.6456 64.5616C28.2058 62.4319 26.9925 59.8209 26.055 56.8511C27.4712 56.5109 28.9417 56.2322 30.4479 56.0169C31.4473 57.2692 31.9219 58.8574 31.7724 60.4497C31.6229 62.042 30.8609 63.5153 29.6456 64.5616Z" fill="#499A9A"/>
</svg>


