<svg width="80" height="80" viewBox="0 0 80 80" fill="none" xmlns="http://www.w3.org/2000/svg">
<path d="M50.235 2.40576C41.0304 2.40576 33.5684 9.86776 33.5684 19.0724C33.5684 28.2771 41.0304 35.7391 50.235 35.7391C59.4397 35.7391 66.9017 28.2771 66.9017 19.0724C66.9017 9.86776 59.4397 2.40576 50.235 2.40576ZM50.235 33.3582C42.3452 33.3582 35.9492 26.9622 35.9492 19.0724C35.9492 11.1827 42.3452 4.78665 50.235 4.78665C58.1248 4.78665 64.5208 11.1827 64.5208 19.0724C64.5208 26.9622 58.1248 33.3582 50.235 33.3582Z" fill="#499A9A"/>
<path d="M50.2359 28.2985C45.0786 28.2985 40.8959 24.0447 41.0121 18.8614C41.1279 13.7023 45.5224 9.61563 50.6772 9.8563C52.3332 9.93363 53.9121 10.4461 55.293 11.3539C55.5306 11.5101 55.5828 11.8307 55.4137 12.0594L54.8224 12.859C54.6675 13.0685 54.3761 13.1234 54.1572 12.9819C52.4675 11.8894 50.4046 11.5467 48.325 12.071C45.879 12.6874 43.9472 14.5947 43.2761 17.0263C41.9324 21.893 45.5777 26.3141 50.2361 26.3141C52.3026 26.3141 54.2364 25.4496 55.6101 23.927C55.7846 23.7336 56.0804 23.7112 56.2841 23.8734L57.0626 24.4921C57.2852 24.6692 57.3181 24.9925 57.129 25.2052C55.3761 27.1776 52.8924 28.2985 50.2359 28.2985Z" fill="#499A9A"/>
<path d="M57.6748 18.4775C56.1979 18.4775 54.9961 17.2759 54.9961 15.7988C54.9961 14.3219 56.1977 13.1201 57.6748 13.1201C59.1517 13.1201 60.3534 14.3217 60.3534 15.7988C60.3534 17.2759 59.1517 18.4775 57.6748 18.4775ZM57.6748 14.7077C57.073 14.7077 56.5834 15.1972 56.5834 15.799C56.5834 16.4008 57.073 16.8903 57.6748 16.8903C58.2765 16.8903 58.7661 16.4008 58.7661 15.799C58.7661 15.1972 58.2765 14.7077 57.6748 14.7077Z" fill="#499A9A"/>
<path d="M68.8891 77.111H11.1113C6.69999 77.111 3.11133 73.5223 3.11133 69.111V34.6665C3.11133 30.2552 6.69999 26.6665 11.1113 26.6665H31.8462C32.5824 26.6665 33.1796 27.2634 33.1796 27.9998C33.1796 28.7363 32.5824 29.3332 31.8462 29.3332H11.1113C8.17044 29.3332 5.77799 31.7256 5.77799 34.6665V69.111C5.77799 72.0516 8.17044 74.4443 11.1113 74.4443H68.8891C71.8298 74.4443 74.2224 72.0516 74.2224 69.111V34.6665C74.2224 31.7256 71.8298 29.3332 68.8891 29.3332C68.1529 29.3332 67.5558 28.7363 67.5558 27.9998C67.5558 27.2634 68.1529 26.6665 68.8891 26.6665C73.3004 26.6665 76.8891 30.2552 76.8891 34.6665V69.111C76.8891 73.5223 73.3004 77.111 68.8891 77.111Z" fill="#499A9A"/>
<path d="M21.7782 69.3334C21.042 69.3334 20.4449 68.7363 20.4449 68.0001V54.4445H14.8893V68.0001C14.8893 68.7363 14.2922 69.3334 13.556 69.3334C12.8198 69.3334 12.2227 68.7363 12.2227 68.0001V53.1112C12.2227 52.3749 12.8198 51.7778 13.556 51.7778H21.7782C22.5144 51.7778 23.1115 52.3749 23.1115 53.1112V68.0001C23.1115 68.7363 22.5144 69.3334 21.7782 69.3334Z" fill="#499A9A"/>
<path d="M36.6669 69.3332C35.9307 69.3332 35.3336 68.7361 35.3336 67.9999V51.111H29.778V67.9999C29.778 68.7361 29.1809 69.3332 28.4447 69.3332C27.7084 69.3332 27.1113 68.7361 27.1113 67.9999V49.7777C27.1113 49.0414 27.7084 48.4443 28.4447 48.4443H36.6669C37.4031 48.4443 38.0002 49.0414 38.0002 49.7777V67.9999C38.0002 68.7361 37.4031 69.3332 36.6669 69.3332Z" fill="#499A9A"/>
<path d="M51.5556 69.3333C50.8193 69.3333 50.2222 68.7362 50.2222 68V46.6667H44.6667V68C44.6667 68.7362 44.0696 69.3333 43.3333 69.3333C42.5971 69.3333 42 68.7362 42 68V45.3333C42 44.5971 42.5971 44 43.3333 44H51.5556C52.2918 44 52.8889 44.5971 52.8889 45.3333V68C52.8889 68.7362 52.2918 69.3333 51.5556 69.3333Z" fill="#499A9A"/>
<path d="M66.4442 69.3334C65.708 69.3334 65.1109 68.7363 65.1109 68.0001V42.4445H59.5553V68.0001C59.5553 68.7363 58.9582 69.3334 58.222 69.3334C57.4858 69.3334 56.8887 68.7363 56.8887 68.0001V41.1112C56.8887 40.3749 57.4858 39.7778 58.222 39.7778H66.4442C67.1804 39.7778 67.7776 40.3749 67.7776 41.1112V68.0001C67.7776 68.7363 67.1804 69.3334 66.4442 69.3334Z" fill="#499A9A"/>
</svg>


