<?xml version="1.0" encoding="UTF-8"?>
<svg id="Layer_2" xmlns="http://www.w3.org/2000/svg" viewBox="0 0 101 101">
  <defs>
    <style>
      .cls-1 {
        fill: teal;
      }
    </style>
  </defs>
  <g id="Layer_1-2" data-name="Layer_1">
    <g>
      <path class="cls-1" d="M38.24,6.49c-.11-.67-.11-1.35.02-2.04s.38-1.34.75-1.95c.37-.61.86-1.13,1.46-1.56s1.33-.71,2.16-.85c1-.17,1.9-.09,2.7.24s1.43.82,1.9,1.46l-1.21,1.15c-.27-.41-.59-.72-.95-.93s-.73-.33-1.12-.37c-.39-.04-.76-.03-1.11.03-.57.1-1.05.3-1.45.6-.4.31-.71.68-.94,1.11-.23.43-.38.9-.44,1.4-.07.5-.06.99.02,1.47.09.54.26,1.04.51,1.5.25.46.57.85.95,1.17.38.33.8.56,1.27.71.46.15.96.17,1.47.09.36-.06.72-.19,1.09-.37.36-.19.68-.45.96-.77s.48-.71.6-1.16l1.58.56c-.13.59-.4,1.11-.81,1.57-.42.46-.91.85-1.48,1.14-.57.3-1.15.5-1.74.6-.76.13-1.48.08-2.18-.14-.7-.22-1.33-.56-1.89-1.02-.56-.46-1.03-1.01-1.4-1.65-.37-.64-.62-1.3-.73-1.99Z"/>
      <path class="cls-1" d="M53.37,11.01c-.65-.05-1.22-.2-1.72-.46-.5-.26-.92-.6-1.26-1.02-.34-.42-.6-.89-.76-1.41-.16-.52-.22-1.06-.18-1.62.04-.58.18-1.12.42-1.6.24-.49.55-.92.96-1.28.4-.37.87-.64,1.4-.83.53-.19,1.12-.25,1.76-.21.65.05,1.22.2,1.71.46.49.26.91.6,1.26,1.02.35.42.6.89.76,1.41.16.52.22,1.07.18,1.65-.04.56-.18,1.08-.42,1.57-.24.49-.55.92-.96,1.28-.4.37-.87.64-1.4.83-.53.18-1.12.25-1.76.21ZM51.23,6.61c-.04.53.04,1.01.23,1.43.19.43.46.78.81,1.04.35.27.75.41,1.2.45.47.03.9-.05,1.28-.26.38-.21.7-.52.95-.93.25-.41.4-.86.43-1.37.04-.52-.04-.99-.23-1.43s-.46-.78-.82-1.05c-.35-.26-.76-.41-1.21-.45-.46-.03-.88.06-1.27.28-.38.22-.7.53-.95.93-.25.4-.39.85-.43,1.35Z"/>
      <path class="cls-1" d="M65.61,13.55l-1.64-.5,1.32-4.37c.22-.73.26-1.31.12-1.71-.14-.41-.44-.68-.9-.82-.32-.1-.67-.11-1.03-.05-.37.07-.71.2-1.04.39-.33.19-.6.45-.83.77l-1.41,4.65-1.66-.5,2.37-7.83,1.51.46-.47,1.57c.31-.29.66-.51,1.05-.66.4-.15.82-.23,1.28-.25.46-.01.91.05,1.37.19.47.14.84.35,1.1.61.26.26.43.57.51.91.08.35.1.72.05,1.13-.05.41-.13.82-.26,1.25l-1.45,4.77Z"/>
      <path class="cls-1" d="M71.2,16c-.15,0-.35-.02-.6-.05-.24-.03-.5-.07-.78-.14-.27-.07-.54-.17-.8-.3-.32-.16-.58-.37-.79-.63-.21-.26-.34-.55-.38-.87-.04-.33.04-.68.23-1.06l2.34-4.58-.98-.5.61-1.19.98.5,1.23-2.41,1.54.79-1.23,2.41,1.6.82-.61,1.19-1.6-.82-2.08,4.07c-.11.26-.12.49-.04.68.08.2.23.35.45.46.21.11.44.18.69.2.24.02.41.03.5.04l-.29,1.39Z"/>
      <path class="cls-1" d="M72.63,14.42c.31-.42.71-.69,1.18-.82.47-.13.99-.12,1.54.03.55.15,1.1.43,1.65.84.29.22.57.47.84.74.27.27.49.55.67.81l.31-.41c.34-.45.47-.91.39-1.38-.08-.46-.39-.89-.9-1.29-.37-.28-.76-.48-1.19-.6-.42-.12-.91-.19-1.47-.22l.26-1.29c.63.03,1.23.14,1.78.33s1.07.47,1.56.83c.88.66,1.4,1.42,1.55,2.26.16.84-.09,1.68-.72,2.53l-1.83,2.43c-.12.16-.17.29-.16.4,0,.11.08.22.2.33l-.84,1.11c-.14-.07-.27-.14-.37-.2-.1-.06-.19-.12-.26-.16-.3-.24-.47-.48-.51-.74-.04-.26,0-.49.12-.7l.25-.41c-.55.16-1.13.17-1.73.03-.6-.14-1.13-.38-1.58-.72-.44-.33-.76-.71-.97-1.15-.21-.44-.29-.88-.25-1.34.04-.45.2-.87.49-1.25ZM76.51,17.99c.18-.04.34-.1.48-.16.14-.06.25-.13.32-.23l.55-.73c-.17-.27-.36-.52-.59-.76-.22-.24-.46-.45-.7-.64-.51-.39-1-.6-1.46-.64s-.82.11-1.09.46c-.14.19-.23.41-.25.66-.02.25.02.5.13.76s.31.5.6.71c.31.24.65.4,1.02.49.37.09.7.12.99.08Z"/>
      <path class="cls-1" d="M80.54,24.76c-.42-.48-.72-1-.89-1.53-.17-.54-.23-1.08-.17-1.63.05-.55.21-1.07.46-1.56.25-.49.59-.92,1.01-1.29.58-.51,1.22-.84,1.94-.99.71-.16,1.42-.12,2.13.12.71.24,1.35.68,1.91,1.33.55.64.89,1.31,1.02,2.03s.06,1.39-.21,2.03l-1.51-.94c.13-.36.16-.74.08-1.12-.07-.38-.25-.73-.52-1.05-.3-.35-.67-.59-1.09-.72-.42-.13-.85-.14-1.3-.03-.45.11-.88.34-1.28.69-.4.35-.68.74-.85,1.18-.17.44-.22.88-.16,1.32.07.45.24.84.54,1.18.18.21.4.39.65.52.25.13.51.22.77.26.27.04.51.02.71-.04l.71,1.61c-.42.13-.86.16-1.33.11-.46-.06-.92-.2-1.38-.45-.45-.24-.87-.58-1.25-1.02Z"/>
      <path class="cls-1" d="M86.19,32.05c-.13-.08-.29-.2-.48-.35-.2-.15-.39-.33-.59-.53s-.37-.43-.52-.68c-.18-.31-.3-.62-.35-.95-.05-.33,0-.64.14-.94.14-.3.39-.56.76-.78l4.4-2.66-.57-.94,1.15-.69.57.94,2.32-1.4.9,1.48-2.32,1.4.93,1.54-1.14.69-.93-1.54-3.91,2.36c-.23.16-.36.35-.39.56-.03.21.01.42.14.62.13.21.28.38.48.53.19.15.33.25.41.3l-.98,1.03Z"/>
      <path class="cls-1" d="M88.91,40.88c-.22-.87-.25-1.63-.1-2.31.14-.67.43-1.25.85-1.74.42-.49.93-.9,1.54-1.23s1.27-.58,1.97-.76l5.5-1.37.43,1.73-5.5,1.37c-.5.13-.97.29-1.41.51-.44.21-.81.48-1.13.79-.31.32-.53.69-.65,1.12-.12.43-.11.93.03,1.49.14.58.37,1.03.68,1.36.31.32.68.55,1.11.69.43.13.89.19,1.37.18.48-.02.97-.09,1.46-.21l5.5-1.37.43,1.73-5.5,1.37c-.74.19-1.47.27-2.17.26-.7-.01-1.35-.14-1.94-.39s-1.1-.63-1.53-1.16c-.43-.53-.75-1.21-.96-2.04Z"/>
      <path class="cls-1" d="M90,49.86c-.01-.69.09-1.35.31-1.97.22-.62.55-1.16,1-1.61l1.16.61c-.4.49-.7.98-.88,1.46-.19.48-.27.96-.27,1.43,0,.49.1.89.29,1.19.18.3.45.44.8.44.26,0,.45-.09.57-.25.12-.16.23-.4.32-.7.09-.3.19-.66.29-1.07.17-.58.34-1.07.53-1.48.19-.41.42-.71.7-.92.28-.2.64-.31,1.07-.32.52,0,.97.12,1.35.39.38.27.67.64.88,1.13.21.49.32,1.05.33,1.69,0,.6-.07,1.15-.25,1.67-.17.51-.45.97-.84,1.36l-1.14-.72c.32-.36.55-.74.7-1.13.15-.39.22-.81.22-1.25,0-.24-.04-.48-.1-.72-.06-.24-.17-.43-.32-.59-.15-.16-.36-.23-.63-.23-.23,0-.41.07-.53.21-.13.13-.23.33-.33.58-.09.25-.19.56-.29.93-.17.64-.34,1.19-.52,1.65-.18.45-.41.81-.69,1.06-.28.25-.67.38-1.17.39-.78.01-1.4-.27-1.85-.86-.46-.59-.69-1.37-.71-2.36Z"/>
      <path class="cls-1" d="M89.98,54.22l2,.23-.17,1.42-2-.23.16-1.43Z"/>
      <path class="cls-1" d="M94.49,62.42c.63.25,1.22.6,1.74,1.07.52.46.95,1.01,1.29,1.64.33.63.53,1.32.59,2.05.06.74-.07,1.5-.38,2.3-.37.95-.9,1.68-1.59,2.2-.69.51-1.43.81-2.23.88l-.36-1.63c.49-.02.92-.13,1.28-.34.36-.2.66-.46.89-.78.23-.32.42-.64.55-.97.21-.54.28-1.06.22-1.55-.06-.5-.22-.95-.47-1.37-.25-.42-.58-.79-.97-1.1-.4-.31-.82-.56-1.27-.73-.51-.2-1.02-.31-1.55-.32-.52-.02-1.02.05-1.49.21s-.89.4-1.25.73-.64.73-.83,1.22c-.13.34-.21.72-.23,1.13-.02.41.03.82.17,1.22.13.41.36.77.69,1.1l-1.29,1.07c-.44-.41-.75-.91-.94-1.51s-.26-1.22-.23-1.86c.03-.64.16-1.24.38-1.8.28-.71.69-1.32,1.23-1.8.54-.49,1.16-.85,1.85-1.1.69-.25,1.4-.37,2.13-.36s1.43.13,2.09.39Z"/>
      <path class="cls-1" d="M82.86,73.1c.37-.53.8-.95,1.28-1.24.48-.29.99-.48,1.52-.56.54-.08,1.07-.05,1.6.07.53.13,1.02.35,1.48.67.48.33.87.73,1.16,1.18s.5.95.61,1.48c.11.53.11,1.08,0,1.63-.12.55-.36,1.1-.72,1.62-.37.53-.8.94-1.27,1.23-.47.29-.98.47-1.52.56-.54.08-1.07.06-1.6-.06s-1.03-.36-1.51-.69c-.46-.32-.84-.71-1.14-1.16s-.5-.95-.61-1.48c-.11-.53-.11-1.08,0-1.63.12-.55.36-1.09.72-1.62ZM87.73,73.52c-.43-.3-.88-.48-1.35-.54-.47-.06-.9,0-1.31.16-.41.16-.74.43-1,.8-.27.39-.41.8-.43,1.24-.02.44.09.87.31,1.29.22.42.54.78.95,1.07.42.3.87.48,1.34.54.47.06.91,0,1.32-.16.41-.17.74-.44,1-.81.27-.38.4-.79.41-1.23,0-.44-.1-.88-.31-1.29-.21-.42-.53-.77-.94-1.06Z"/>
      <path class="cls-1" d="M74.4,82.31l1.27-1.15,3.06,3.38c.52.57.98.9,1.4.99.42.09.81-.03,1.17-.35.25-.23.44-.51.57-.86.13-.35.2-.71.2-1.09,0-.38-.07-.75-.23-1.11l-3.26-3.6,1.28-1.16,5.49,6.06-1.17,1.06-1.1-1.21c.09.41.1.83.02,1.24-.07.42-.22.83-.44,1.22-.22.4-.51.76-.87,1.08-.37.33-.73.54-1.09.63-.36.09-.71.08-1.05-.03-.34-.11-.67-.28-.99-.53-.32-.25-.64-.54-.94-.87l-3.34-3.69Z"/>
      <path class="cls-1" d="M69.43,85.84c.08-.13.2-.29.35-.49s.32-.4.52-.59c.2-.2.42-.38.67-.53.3-.19.62-.31.95-.36.33-.05.64-.01.94.12.3.13.56.38.79.74l2.73,4.36.93-.59.71,1.14-.93.59,1.44,2.3-1.47.92-1.44-2.3-1.52.95-.71-1.14,1.52-.95-2.42-3.88c-.17-.23-.35-.36-.57-.39-.21-.03-.42.02-.62.15-.2.13-.38.29-.52.49-.14.19-.24.33-.29.41l-1.05-.96Z"/>
      <path class="cls-1" d="M70.04,87.89c.2.48.23.96.1,1.43-.13.48-.4.91-.81,1.31-.41.4-.93.73-1.56.98-.34.14-.7.25-1.07.34-.37.09-.72.14-1.04.16l.19.48c.21.53.54.87.99,1.04.44.17.96.13,1.56-.12.43-.17.8-.41,1.12-.71.32-.3.63-.68.94-1.15l.97.88c-.35.53-.75.98-1.2,1.36s-.95.69-1.51.92c-1.02.42-1.93.48-2.73.18-.8-.3-1.4-.94-1.8-1.92l-1.15-2.81c-.07-.18-.16-.3-.26-.35s-.23-.05-.39,0l-.52-1.28c.13-.09.26-.16.36-.22.11-.06.2-.1.27-.15.35-.13.65-.15.89-.06s.42.25.54.46l.22.42c.15-.56.43-1.06.86-1.51.42-.45.9-.78,1.42-.99.51-.21,1-.29,1.48-.24.48.04.91.2,1.28.47.37.27.64.62.82,1.06ZM64.99,89.39c-.05.18-.09.34-.11.5-.02.15-.01.28.03.39l.34.85c.32,0,.64-.04.96-.11.32-.07.63-.16.91-.28.59-.24,1.02-.55,1.3-.93.27-.38.32-.77.16-1.17-.09-.22-.23-.4-.44-.55-.2-.15-.44-.24-.72-.27-.28-.04-.59.01-.92.15-.36.15-.67.36-.93.62-.26.27-.45.54-.57.81Z"/>
      <path class="cls-1" d="M57.13,89.39c.63-.11,1.22-.11,1.77.02.55.13,1.05.36,1.49.68s.81.72,1.1,1.19c.29.47.49.97.59,1.53.14.76.09,1.48-.14,2.17-.23.69-.62,1.28-1.19,1.77-.57.49-1.28.81-2.12.96-.83.15-1.58.09-2.26-.16s-1.22-.66-1.64-1.22l1.58-.81c.25.3.55.51.92.64.37.13.75.16,1.17.09.45-.08.84-.27,1.17-.57.32-.3.56-.66.7-1.1.14-.44.16-.93.07-1.46-.09-.52-.29-.97-.58-1.33-.29-.37-.64-.64-1.06-.81-.41-.17-.84-.22-1.29-.14-.28.05-.54.15-.78.29-.24.15-.45.32-.61.53-.17.21-.28.42-.33.64l-1.75-.21c.11-.43.3-.82.58-1.19s.65-.69,1.09-.96c.44-.27.95-.45,1.52-.55Z"/>
      <path class="cls-1" d="M48,90.52c.14-.06.32-.14.55-.23.23-.09.48-.17.75-.23.27-.06.55-.1.85-.1.36,0,.69.06.99.19.3.13.55.33.73.6.19.27.28.62.28,1.05l.02,5.15h1.1s0,1.33,0,1.33h-1.1s.01,2.72.01,2.72h-1.73s-.01-2.7-.01-2.7h-1.8s0-1.33,0-1.33h1.8s-.02-4.58-.02-4.58c-.02-.28-.12-.49-.28-.63-.16-.13-.36-.2-.61-.2-.24,0-.48.05-.7.14s-.38.16-.46.2l-.38-1.37Z"/>
      <path class="cls-1" d="M39.04,88.32c.85.26,1.53.62,2.03,1.09s.85,1.01,1.06,1.62c.2.61.29,1.26.26,1.96-.03.69-.15,1.39-.36,2.08l-1.64,5.43-1.7-.52,1.64-5.43c.15-.49.24-.98.29-1.47.04-.49,0-.94-.1-1.37-.11-.43-.32-.81-.63-1.13-.31-.32-.74-.57-1.29-.74-.57-.17-1.08-.21-1.51-.11-.43.1-.82.3-1.16.6-.34.3-.62.67-.85,1.09-.23.42-.42.88-.57,1.36l-1.64,5.43-1.7-.52,1.64-5.43c.22-.73.52-1.4.89-1.99.37-.6.82-1.08,1.33-1.47.52-.38,1.11-.62,1.78-.72.67-.1,1.42-.02,2.24.23Z"/>
      <path class="cls-1" d="M30.79,84.67c.6.34,1.11.77,1.54,1.28.42.51.71,1.07.87,1.68l-1.12.69c-.21-.6-.48-1.1-.8-1.5-.32-.41-.68-.73-1.09-.96-.43-.25-.82-.36-1.16-.36-.35,0-.61.16-.78.47-.13.23-.15.43-.07.62.08.19.23.4.44.63.21.23.47.5.77.8.41.44.75.85,1,1.21.26.37.4.72.43,1.07.03.34-.06.7-.28,1.08-.26.45-.6.77-1.02.96-.42.19-.9.25-1.42.18-.52-.07-1.06-.26-1.62-.58-.52-.3-.95-.65-1.3-1.07-.35-.41-.6-.88-.74-1.41l1.21-.62c.15.46.35.86.61,1.19s.58.6.96.82c.21.12.43.21.67.28.23.07.46.08.67.02s.38-.2.52-.43c.11-.2.15-.39.1-.56-.05-.18-.16-.37-.33-.58-.17-.21-.39-.45-.65-.73-.47-.47-.85-.9-1.15-1.29-.3-.39-.48-.77-.56-1.14-.07-.37.02-.77.26-1.2.39-.68.95-1.06,1.68-1.15.74-.09,1.53.11,2.39.6Z"/>
      <path class="cls-1" d="M27.03,82.4l-1.22,1.6-1.14-.87,1.22-1.6,1.14.87Z"/>
      <path class="cls-1" d="M17.69,82.08c-.54.42-1.14.73-1.81.95-.67.21-1.36.3-2.07.26s-1.4-.22-2.06-.55c-.66-.33-1.25-.83-1.77-1.51-.62-.8-.98-1.64-1.07-2.49-.09-.86.04-1.65.39-2.37l1.58.53c-.23.43-.36.86-.37,1.27-.01.41.06.8.21,1.17.15.36.33.69.55.97.35.46.76.79,1.22.99s.93.3,1.42.3c.49,0,.97-.09,1.44-.27.47-.18.9-.42,1.28-.71.43-.33.79-.72,1.07-1.16.28-.44.48-.9.58-1.39.11-.49.11-.97.02-1.45-.09-.48-.3-.93-.62-1.34-.23-.29-.51-.55-.84-.78-.34-.23-.72-.39-1.13-.49-.42-.09-.85-.09-1.3.02l-.25-1.66c.57-.17,1.16-.18,1.77-.03.61.15,1.17.4,1.71.76.53.36.98.78,1.35,1.25.47.61.77,1.27.91,1.98.14.72.13,1.43,0,2.15-.14.72-.41,1.39-.79,2.02-.38.63-.85,1.16-1.41,1.59Z"/>
      <path class="cls-1" d="M14.5,66.61c.27.59.4,1.17.41,1.73s-.09,1.09-.3,1.6c-.21.5-.5.95-.88,1.34-.38.39-.82.7-1.34.93-.53.24-1.07.37-1.61.4-.54.02-1.07-.05-1.58-.23-.51-.18-.98-.46-1.39-.84s-.76-.87-1.02-1.45c-.27-.59-.4-1.17-.41-1.73,0-.56.1-1.09.3-1.6.21-.51.5-.96.87-1.34.38-.39.83-.7,1.36-.94.51-.23,1.04-.36,1.58-.38.54-.02,1.07.05,1.58.23.51.18.98.46,1.4.84.42.38.76.87,1.02,1.45ZM11.65,70.59c.48-.22.87-.51,1.15-.88.29-.37.46-.77.53-1.21.07-.43,0-.85-.18-1.27-.19-.43-.47-.77-.84-1-.37-.24-.79-.37-1.27-.4-.48-.03-.95.06-1.41.27-.47.21-.85.51-1.14.88-.29.37-.47.78-.53,1.22-.06.44,0,.86.18,1.27.19.42.47.75.85.98s.8.37,1.27.4c.47.03.93-.06,1.39-.27Z"/>
      <path class="cls-1" d="M10.92,54.62l.34,1.68-4.47.9c-.75.15-1.27.39-1.56.7-.29.32-.39.71-.29,1.19.07.33.22.64.45.93.23.29.51.53.83.73.32.2.68.32,1.07.37l4.75-.96.34,1.7-8.01,1.62-.31-1.54,1.6-.33c-.4-.13-.76-.34-1.08-.62s-.6-.61-.82-1.01c-.23-.39-.39-.83-.48-1.3-.1-.48-.09-.9.01-1.26.11-.36.3-.65.56-.89.27-.24.59-.43.96-.58.38-.15.79-.27,1.23-.36l4.87-.99Z"/>
      <path class="cls-1" d="M10.43,48.53c.07.13.15.32.24.55s.17.48.24.75c.07.27.11.55.11.85,0,.36-.05.69-.18,1-.12.31-.32.56-.59.74-.27.19-.62.29-1.04.3l-5.14.1.02,1.1-1.34.03-.02-1.1-2.71.06-.03-1.73,2.71-.06-.04-1.8,1.34-.03.04,1.8,4.57-.09c.28-.03.49-.12.62-.29.13-.17.2-.37.19-.61,0-.24-.06-.47-.15-.7-.09-.22-.16-.38-.2-.46l1.36-.41Z"/>
      <path class="cls-1" d="M8.37,48.02c-.51-.08-.94-.3-1.28-.65-.34-.36-.57-.81-.7-1.37-.13-.56-.14-1.17-.04-1.85.06-.36.14-.73.26-1.09.11-.36.25-.69.4-.97l-.51-.08c-.56-.09-1.03.02-1.4.31-.37.29-.6.76-.7,1.41-.07.46-.06.9.03,1.33.09.43.26.9.5,1.4l-1.25.38c-.27-.57-.46-1.15-.55-1.73-.1-.58-.1-1.17,0-1.77.17-1.09.58-1.9,1.25-2.44.67-.54,1.52-.72,2.57-.56l3,.46c.2.03.34.01.43-.04.09-.06.16-.17.19-.34l1.37.21c0,.16,0,.3,0,.42,0,.12-.01.22-.02.31-.07.37-.2.64-.41.8-.21.16-.43.24-.67.23l-.47-.02c.4.41.69.92.85,1.51.16.59.2,1.17.12,1.73-.09.54-.27,1.01-.55,1.4-.29.39-.64.68-1.06.86-.42.18-.86.23-1.34.16ZM9.67,42.91c-.12-.14-.25-.25-.37-.35-.12-.1-.24-.16-.35-.17l-.9-.14c-.16.27-.29.57-.39.88-.1.31-.18.62-.23.92-.1.63-.05,1.16.13,1.59.18.43.49.67.92.74.23.04.47,0,.7-.09s.43-.26.61-.48c.17-.22.29-.51.34-.86.06-.38.04-.76-.05-1.13-.09-.37-.23-.67-.4-.91Z"/>
      <path class="cls-1" d="M13.72,36.11c-.23.6-.53,1.1-.93,1.51-.39.41-.84.72-1.35.93-.51.21-1.04.33-1.59.34s-1.09-.08-1.61-.28c-.72-.27-1.32-.68-1.79-1.23-.48-.55-.78-1.19-.91-1.93-.13-.74-.04-1.51.26-2.32.3-.79.73-1.41,1.3-1.86.57-.45,1.2-.71,1.88-.78l-.11,1.78c-.38.06-.72.21-1.02.46-.3.25-.52.57-.67.96-.16.43-.2.86-.11,1.29.09.43.28.82.59,1.17.31.35.71.61,1.22.8.49.19.97.25,1.44.19.47-.06.88-.23,1.24-.49s.62-.61.78-1.04c.1-.27.15-.54.15-.82,0-.28-.05-.55-.14-.8s-.22-.46-.38-.61l1.08-1.4c.31.31.55.68.72,1.12.17.44.26.91.26,1.43,0,.52-.1,1.05-.3,1.59Z"/>
      <path class="cls-1" d="M17.42,27.72c-.01.15-.04.35-.08.59-.04.24-.1.5-.19.77-.08.27-.2.53-.35.78-.18.31-.41.56-.67.76-.27.2-.57.3-.89.32-.33.02-.67-.08-1.04-.3l-4.43-2.61-.56.95-1.15-.68.56-.95-2.33-1.38.88-1.49,2.33,1.38.91-1.55,1.15.68-.91,1.55,3.94,2.32c.25.12.48.15.68.08.2-.07.36-.21.48-.42.12-.21.2-.43.24-.67.04-.24.06-.41.07-.5l1.37.37Z"/>
      <path class="cls-1" d="M23.9,21.13c-.66.6-1.32.99-1.98,1.18-.66.19-1.3.21-1.93.07-.63-.14-1.23-.4-1.81-.78-.58-.38-1.11-.84-1.6-1.38l-3.81-4.2,1.32-1.2,3.81,4.2c.35.38.72.72,1.11,1s.81.49,1.23.62c.42.12.85.14,1.29.04.44-.1.87-.34,1.29-.73.44-.4.74-.82.87-1.24.14-.43.17-.86.08-1.31-.09-.45-.25-.88-.49-1.3-.24-.42-.53-.81-.87-1.19l-3.81-4.2,1.32-1.2,3.81,4.2c.52.57.93,1.16,1.25,1.79.32.63.51,1.26.57,1.9.06.64-.04,1.27-.3,1.9-.26.63-.71,1.23-1.35,1.81Z"/>
      <path class="cls-1" d="M31.27,15.93c-.6.34-1.23.56-1.88.66-.65.1-1.28.06-1.89-.11v-1.31c.61.12,1.18.15,1.69.08.51-.06.97-.21,1.38-.45.43-.24.73-.51.9-.82.17-.3.17-.61,0-.91-.13-.23-.29-.36-.49-.38-.2-.03-.46-.01-.77.05s-.67.15-1.08.25c-.59.13-1.11.21-1.56.24s-.82-.03-1.14-.18c-.31-.15-.57-.41-.79-.79-.25-.45-.35-.91-.3-1.37.05-.46.24-.9.57-1.31s.77-.78,1.33-1.1c.52-.29,1.05-.48,1.58-.57.53-.09,1.06-.06,1.59.09l-.09,1.35c-.47-.11-.91-.14-1.33-.08-.42.05-.82.19-1.2.4-.21.12-.41.26-.58.43-.18.17-.3.35-.36.56-.06.21-.03.43.1.67.11.2.26.32.43.37.18.05.4.05.67.01.26-.04.58-.1.96-.18.64-.16,1.21-.27,1.69-.33.49-.06.91-.02,1.26.1s.65.41.9.85c.38.68.42,1.36.12,2.04-.3.68-.88,1.26-1.74,1.75Z"/>
      <path class="cls-1" d="M35.12,13.86l-.75-1.87,1.33-.53.75,1.87-1.33.53Z"/>
    </g>
  </g>
</svg>