<?xml version="1.0" encoding="UTF-8"?>
<svg id="Layer_2" xmlns="http://www.w3.org/2000/svg" xmlns:xlink="http://www.w3.org/1999/xlink" viewBox="0 0 1345.68 166.53">
  <defs>
    <style>
      .cls-1 {
        fill: url(#linear-gradient-13);
      }

      .cls-2 {
        fill: url(#linear-gradient-2);
      }

      .cls-3 {
        fill: url(#linear-gradient-10);
      }

      .cls-4 {
        fill: url(#linear-gradient-12);
      }

      .cls-5 {
        fill: url(#linear-gradient-4);
      }

      .cls-6 {
        fill: url(#linear-gradient-3);
      }

      .cls-7 {
        fill: url(#linear-gradient-5);
      }

      .cls-8 {
        fill: url(#linear-gradient-8);
      }

      .cls-9 {
        fill: url(#linear-gradient-14);
      }

      .cls-10 {
        fill: url(#linear-gradient-7);
      }

      .cls-11 {
        fill: url(#linear-gradient-9);
      }

      .cls-12 {
        fill: url(#linear-gradient-11);
      }

      .cls-13 {
        fill: url(#linear-gradient-6);
      }

      .cls-14 {
        fill: url(#linear-gradient);
      }
    </style>
    <linearGradient id="linear-gradient" x1="64.33" y1="184.6" x2="64.33" y2="-13.42" gradientUnits="userSpaceOnUse">
      <stop offset="0" stop-color="#edcb9d"/>
      <stop offset="1" stop-color="#f4e3c7"/>
    </linearGradient>
    <linearGradient id="linear-gradient-2" x1="199.59" y1="184.6" x2="199.59" y2="-13.42" xlink:href="#linear-gradient"/>
    <linearGradient id="linear-gradient-3" x1="334.74" y1="184.6" x2="334.74" y2="-13.42" xlink:href="#linear-gradient"/>
    <linearGradient id="linear-gradient-4" x1="429.53" y1="184.6" x2="429.53" y2="-13.42" xlink:href="#linear-gradient"/>
    <linearGradient id="linear-gradient-5" x1="878.21" y1="184.6" x2="878.21" y2="-13.42" xlink:href="#linear-gradient"/>
    <linearGradient id="linear-gradient-6" x1="921.09" y1="184.6" x2="921.09" y2="-13.42" xlink:href="#linear-gradient"/>
    <linearGradient id="linear-gradient-7" x1="429.53" y1="184.6" x2="429.53" y2="-13.42" xlink:href="#linear-gradient"/>
    <linearGradient id="linear-gradient-8" x1="526.37" y1="184.6" x2="526.37" y2="-13.42" xlink:href="#linear-gradient"/>
    <linearGradient id="linear-gradient-9" x1="673.73" y1="184.6" x2="673.73" y2="-13.42" xlink:href="#linear-gradient"/>
    <linearGradient id="linear-gradient-10" x1="794.2" y1="184.6" x2="794.2" y2="-13.42" xlink:href="#linear-gradient"/>
    <linearGradient id="linear-gradient-11" x1="903.13" y1="184.6" x2="903.13" y2="-13.42" xlink:href="#linear-gradient"/>
    <linearGradient id="linear-gradient-12" x1="1034.81" y1="184.6" x2="1034.81" y2="-13.42" xlink:href="#linear-gradient"/>
    <linearGradient id="linear-gradient-13" x1="1166.93" y1="184.6" x2="1166.93" y2="-13.42" xlink:href="#linear-gradient"/>
    <linearGradient id="linear-gradient-14" x1="1284.15" y1="184.6" x2="1284.15" y2="-13.42" xlink:href="#linear-gradient"/>
  </defs>
  <g id="Layer_1-2" data-name="Layer_1">
    <g>
      <path class="cls-14" d="M0,164.28V5.15h70.6c7.17,0,13.86,1.5,20.06,4.48,6.2,2.99,11.58,7.02,16.14,12.1,4.56,5.08,8.07,10.76,10.53,17.03,2.47,6.27,3.7,12.7,3.7,19.27s-1.16,13.15-3.47,19.27c-2.32,6.13-5.64,11.54-9.97,16.25-4.34,4.71-9.41,8.33-15.24,10.87l36.31,59.84h-34.07l-32.72-53.34h-30.93v53.34H0ZM30.93,83.82h38.77c3.88,0,7.32-1.16,10.31-3.47,2.99-2.31,5.38-5.41,7.17-9.3,1.79-3.88,2.69-8.22,2.69-13s-1.05-9.34-3.14-13.22c-2.09-3.88-4.71-6.95-7.84-9.19s-6.58-3.36-10.31-3.36H30.93v51.55Z"/>
      <path class="cls-2" d="M254.17,164.28h-30.03v-64.94c0-8.98-1.76-15.68-5.27-20.1-3.51-4.42-8.33-6.63-14.46-6.63-3.59,0-7.4,1.02-11.43,3.06-4.03,2.05-7.66,4.85-10.87,8.43-3.21,3.58-5.64,7.7-7.28,12.37v67.81h-29.81V.67h29.81v68.99c4.63-7.39,10.65-13.15,18.04-17.29,7.4-4.14,15.5-6.21,24.32-6.21,7.62,0,13.86,1.26,18.71,3.77,4.85,2.51,8.59,5.99,11.21,10.41,2.61,4.43,4.44,9.34,5.49,14.74,1.04,5.39,1.57,10.9,1.57,16.51v72.69Z"/>
      <path class="cls-6" d="M334.85,166.53c-9.41,0-17.93-1.59-25.55-4.76-7.62-3.18-14.12-7.54-19.5-13.08-5.38-5.54-9.49-11.86-12.33-18.95-2.84-7.09-4.26-14.7-4.26-22.83,0-10.93,2.5-21.02,7.51-30.26,5.01-9.24,12.1-16.63,21.29-22.17,9.19-5.54,20.21-8.31,33.06-8.31s23.61,2.78,32.72,8.32c9.11,5.55,16.14,12.84,21.07,21.87,4.93,9.03,7.4,18.87,7.4,29.52,0,1.93-.08,3.74-.22,5.44-.15,1.7-.3,3.14-.45,4.33h-90.55c.45,6.14,2.13,11.36,5.04,15.67,2.91,4.31,6.65,7.63,11.21,9.97,4.56,2.34,9.37,3.51,14.46,3.51,6.13,0,11.84-1.46,17.15-4.37,5.3-2.91,8.93-6.84,10.87-11.77l25.55,7.17c-2.69,5.98-6.65,11.28-11.88,15.91-5.23,4.63-11.43,8.26-18.6,10.87-7.17,2.61-15.17,3.92-23.98,3.92ZM304.14,96.82h61.41c-.6-5.84-2.28-10.92-5.04-15.22-2.77-4.31-6.39-7.67-10.87-10.08-4.48-2.41-9.49-3.61-15.02-3.61s-10.28,1.21-14.68,3.61c-4.41,2.41-8,5.77-10.76,10.08-2.77,4.31-4.45,9.38-5.04,15.22Z"/>
      <rect class="cls-5" x="414.53" width="30" height="30"/>
      <g>
        <rect class="cls-7" x="865.21" width="26" height="26"/>
        <rect class="cls-13" x="908.09" width="26" height="26"/>
      </g>
      <rect class="cls-10" x="414.53" y="47" width="30" height="117"/>
      <path class="cls-8" d="M580.94,164.28h-30.03v-64.94c0-9.28-1.61-16.05-4.82-20.32-3.21-4.27-7.81-6.41-13.78-6.41-4.03,0-8.11,1.02-12.22,3.06-4.11,2.05-7.77,4.85-10.98,8.43-3.21,3.58-5.72,7.7-7.51,12.37v67.81h-29.81V47.96h27.12v21.7c2.99-5.02,6.8-9.23,11.43-12.63,4.63-3.4,9.94-6.06,15.91-7.98,5.97-1.92,12.4-2.88,19.28-2.88,7.32,0,13.34,1.3,18.04,3.88,4.71,2.58,8.29,6.09,10.76,10.53s4.18,9.34,5.16,14.74c.97,5.39,1.46,10.82,1.46,16.28v72.69Z"/>
      <path class="cls-11" d="M737.83,123.49c0,8.82-2.32,16.25-6.95,22.3-4.63,6.05-10.87,10.65-18.72,13.78s-16.4,4.71-25.66,4.71h-76.88V5.15h85.17c7.47,0,13.93,1.98,19.39,5.94,5.45,3.96,9.64,9.04,12.55,15.24,2.91,6.2,4.37,12.66,4.37,19.39,0,7.62-1.94,14.83-5.83,21.63-3.89,6.8-9.56,11.92-17.03,15.35,9.11,2.69,16.32,7.55,21.63,14.57,5.3,7.02,7.96,15.77,7.96,26.22ZM640.56,31.6v40.12h41.24c3.43,0,6.57-.82,9.41-2.47,2.84-1.64,5.12-3.96,6.84-6.95,1.72-2.99,2.58-6.5,2.58-10.53s-.78-7.73-2.35-10.65c-1.57-2.91-3.66-5.23-6.28-6.95-2.62-1.72-5.57-2.58-8.85-2.58h-42.58ZM706.68,117.44c0-4.03-.82-7.66-2.46-10.87-1.65-3.21-3.85-5.79-6.61-7.73-2.77-1.94-5.94-2.91-9.53-2.91h-47.52v42.14h45.95c3.73,0,7.13-.93,10.2-2.8,3.06-1.87,5.49-4.37,7.28-7.51,1.79-3.14,2.69-6.57,2.69-10.31Z"/>
      <path class="cls-3" d="M829.28,72.84c-9.27.15-17.48,1.91-24.65,5.27-7.17,3.36-12.4,8.33-15.69,14.91v71.27h-29.81V47.96h27.57v23.98c4.18-8.07,9.53-14.42,16.02-19.05,6.5-4.63,13.34-7.17,20.51-7.62,1.49.15,2.69.19,3.59.11.9-.07,1.71.04,2.46.34v27.12Z"/>
      <path class="cls-12" d="M844.52,120.78V47.96h30.26v66.22c0,8.86,1.64,15.54,4.93,20.04,3.29,4.5,8.14,6.76,14.57,6.76,3.88,0,7.73-.77,11.54-2.3,3.81-1.53,7.32-3.84,10.53-6.91,3.21-3.08,5.94-6.95,8.18-11.64V47.96h30.26v82.82c0,3.1.52,5.31,1.57,6.64,1.04,1.33,2.84,2.14,5.38,2.43v24.43c-2.99.45-5.49.78-7.51,1.01-2.02.22-3.85.34-5.49.34-5.23,0-9.53-1.26-12.89-3.78-3.36-2.52-5.42-5.85-6.16-9.99l-.67-9.32c-5.23,7.84-11.92,13.81-20.06,17.88-8.15,4.07-17.22,6.1-27.23,6.1-12.1,0-21.33-3.88-27.68-11.66-6.35-7.77-9.53-19.13-9.53-34.09Z"/>
      <path class="cls-4" d="M1039.06,166.53c-9.71,0-18.34-1.59-25.89-4.77-7.55-3.18-14.01-7.61-19.39-13.3-5.38-5.69-9.49-12.15-12.33-19.39-2.84-7.24-4.26-14.85-4.26-22.83,0-10.79,2.47-20.76,7.4-29.92,4.93-9.16,12.03-16.47,21.29-21.94,9.26-5.47,20.25-8.2,32.95-8.2s23.61,2.77,32.72,8.29c9.11,5.53,15.84,12.78,20.17,21.74l-29.14,8.96c-2.54-4.33-5.9-7.66-10.09-9.97-4.19-2.31-8.89-3.47-14.12-3.47-5.53,0-10.61,1.43-15.24,4.29-4.63,2.86-8.33,6.85-11.09,11.98-2.77,5.13-4.15,11.21-4.15,18.25s1.38,12.75,4.15,18.03c2.76,5.28,6.46,9.38,11.09,12.31,4.63,2.93,9.79,4.39,15.47,4.39,3.73,0,7.17-.6,10.31-1.79,3.14-1.19,6.01-2.88,8.63-5.04,2.61-2.16,4.52-4.52,5.72-7.06l29.14,8.97c-2.69,5.83-6.61,11.06-11.77,15.69-5.16,4.63-11.21,8.26-18.15,10.87s-14.76,3.92-23.42,3.92Z"/>
      <path class="cls-1" d="M1191.02,164.28l-34.29-50.27-16.14,15.57v34.7h-29.81V.67h29.81v99.56l47.52-52.27h31.83l-43.71,49.37,46.84,66.95h-32.05Z"/>
      <path class="cls-9" d="M1284.26,166.53c-9.41,0-17.93-1.59-25.55-4.76-7.62-3.18-14.12-7.54-19.5-13.08-5.38-5.54-9.49-11.86-12.33-18.95-2.84-7.09-4.26-14.7-4.26-22.83,0-10.93,2.5-21.02,7.51-30.26,5-9.24,12.1-16.63,21.29-22.17,9.19-5.54,20.21-8.31,33.06-8.31s23.61,2.78,32.72,8.32c9.11,5.55,16.14,12.84,21.07,21.87,4.93,9.03,7.4,18.87,7.4,29.52,0,1.93-.08,3.74-.22,5.44-.15,1.7-.3,3.14-.45,4.33h-90.55c.45,6.14,2.13,11.36,5.04,15.67,2.91,4.31,6.65,7.63,11.21,9.97,4.56,2.34,9.37,3.51,14.46,3.51,6.12,0,11.84-1.46,17.15-4.37,5.3-2.91,8.93-6.84,10.87-11.77l25.55,7.17c-2.69,5.98-6.65,11.28-11.88,15.91-5.23,4.63-11.43,8.26-18.6,10.87-7.17,2.61-15.17,3.92-23.98,3.92ZM1253.56,96.82h61.41c-.6-5.84-2.28-10.92-5.04-15.22-2.77-4.31-6.39-7.67-10.87-10.08-4.48-2.41-9.49-3.61-15.02-3.61s-10.28,1.21-14.68,3.61c-4.41,2.41-7.99,5.77-10.76,10.08-2.77,4.31-4.45,9.38-5.04,15.22Z"/>
    </g>
  </g>
</svg>