<svg width="64" height="64" viewBox="0 0 64 64" fill="none" xmlns="http://www.w3.org/2000/svg">
<g clip-path="url(#clip0_3753_28090)">
<path d="M11.6445 34.7944H26.4217" stroke="#499A9A" stroke-width="1.875" stroke-miterlimit="10" stroke-linecap="round" stroke-linejoin="round"/>
<path d="M11.6445 41.0776H26.4217" stroke="#499A9A" stroke-width="1.875" stroke-miterlimit="10" stroke-linecap="round" stroke-linejoin="round"/>
<path d="M11.6445 47.3608H26.4217" stroke="#499A9A" stroke-width="1.875" stroke-miterlimit="10" stroke-linecap="round" stroke-linejoin="round"/>
<path d="M11.6445 53.644H19.129" stroke="#499A9A" stroke-width="1.875" stroke-miterlimit="10" stroke-linecap="round" stroke-linejoin="round"/>
<mask id="mask0_3753_28090" style="mask-type:luminance" maskUnits="userSpaceOnUse" x="0" y="0" width="64" height="64">
<path d="M0 3.8147e-06H64V64H0V3.8147e-06Z" fill="white"/>
</mask>
<g mask="url(#mask0_3753_28090)">
<path d="M63.0611 48.0256V46.0323C63.0611 45.026 62.2455 44.2104 61.2392 44.2104C60.4505 44.2104 59.7546 43.7019 59.5074 42.9531C59.3047 42.3395 59.0579 41.7463 58.7701 41.177C58.4169 40.478 58.5586 39.6305 59.1124 39.0768L59.1126 39.0765C59.8241 38.365 59.8241 37.2114 59.1126 36.4999L57.7032 35.0904C56.9916 34.3789 55.8381 34.3789 55.1265 35.0904L55.1262 35.0906C54.5726 35.6444 53.725 35.7863 53.0261 35.433C52.4569 35.1453 51.8635 34.8981 51.25 34.6956C50.5012 34.4485 49.9927 33.7524 49.9927 32.9639C49.9927 31.9576 49.177 31.142 48.1707 31.142H46.1775C45.1712 31.142 44.3554 31.9576 44.3554 32.9639C44.3554 33.7524 43.847 34.4485 43.0982 34.6956C42.4847 34.8981 41.8914 35.1453 41.3221 35.433C40.6231 35.7863 39.7756 35.6444 39.2219 35.0906L39.2216 35.0904C38.5101 34.3789 37.3565 34.3789 36.645 35.0904L35.2356 36.4999C34.524 37.2114 34.524 38.365 35.2356 39.0765L35.2357 39.0768C35.7895 39.6305 35.9314 40.478 35.5781 41.177C35.2904 41.7463 35.0432 42.3395 34.8407 42.9531C34.5936 43.7019 33.8976 44.2104 33.109 44.2104C32.1027 44.2104 31.2871 45.026 31.2871 46.0323V48.0256C31.2871 49.0319 32.1027 49.8475 33.109 49.8475C33.8976 49.8475 34.5936 50.356 34.8407 51.1049C35.0432 51.7184 35.2904 52.3118 35.5781 52.881C35.9314 53.5799 35.7895 54.4274 35.2357 54.9813L35.2356 54.9814C34.524 55.6929 34.524 56.8465 35.2356 57.558L36.645 58.9675C37.3565 59.6791 38.5101 59.6791 39.2216 58.9675L39.2219 58.9673C39.7756 58.4136 40.6231 58.2718 41.3221 58.625C41.8914 58.9128 42.4847 59.1596 43.0982 59.3621C43.847 59.6095 44.3554 60.3054 44.3554 61.094C44.3554 62.1003 45.1712 62.916 46.1775 62.916H48.1707C49.177 62.916 49.9927 62.1003 49.9927 61.094C49.9927 60.3054 50.5012 59.6095 51.25 59.3621C51.8635 59.1596 52.4569 58.9128 53.0261 58.625C53.725 58.2718 54.5726 58.4136 55.1262 58.9673L55.1265 58.9675C55.8381 59.6791 56.9916 59.6791 57.7032 58.9675L59.1126 57.558C59.8241 56.8465 59.8241 55.6929 59.1126 54.9814L59.1124 54.9813C58.5586 54.4274 58.4169 53.5799 58.7701 52.881C59.0579 52.3118 59.3047 51.7184 59.5074 51.1049C59.7546 50.356 60.4505 49.8475 61.2392 49.8475C62.2455 49.8475 63.0611 49.0319 63.0611 48.0256Z" stroke="#499A9A" stroke-width="1.875" stroke-miterlimit="10" stroke-linecap="round" stroke-linejoin="round"/>
<path d="M44.5074 6.42866V3.77041C44.5074 2.28678 43.3047 1.08403 41.8211 1.08403H3.62387C2.14025 1.08403 0.9375 2.28678 0.9375 3.77041V54.885C0.9375 56.3688 2.14025 57.5715 3.62387 57.5715H6.28212" stroke="#499A9A" stroke-width="1.875" stroke-miterlimit="10" stroke-linecap="round" stroke-linejoin="round"/>
<path d="M6.62891 19.2769H16.4438C17.9274 19.2769 19.13 18.0742 19.13 16.5906V6.77573" stroke="#499A9A" stroke-width="1.875" stroke-miterlimit="10" stroke-linecap="round" stroke-linejoin="round"/>
<path d="M34.1902 18.791H43.1925C43.9074 18.791 44.487 18.2113 44.487 17.4964V14.9605C44.487 14.2456 43.9074 13.666 43.1925 13.666H27.7164C27.0014 13.666 26.4219 14.2456 26.4219 14.9605V17.4964C26.4219 18.2113 27.0014 18.791 27.7164 18.791H29.8074" stroke="#499A9A" stroke-width="1.875" stroke-miterlimit="10" stroke-linecap="round" stroke-linejoin="round"/>
<path d="M49.8512 27.4375V9.11501C49.8512 7.63139 48.6485 6.42864 47.1649 6.42864H20.7259C19.7037 6.42864 18.7236 6.83464 18.0007 7.55739L7.41013 18.1483C6.68725 18.8709 6.28125 19.8511 6.28125 20.8731V60.2296C6.28125 61.7133 7.48413 62.916 8.96775 62.916H40.6659" stroke="#499A9A" stroke-width="1.875" stroke-miterlimit="10" stroke-linecap="round" stroke-linejoin="round"/>
<path d="M56.2679 47.029C56.2679 52.0508 52.1969 56.1218 47.1749 56.1218C42.153 56.1218 38.082 52.0508 38.082 47.029C38.082 42.0071 42.153 37.9361 47.1749 37.9361C52.1969 37.9361 56.2679 42.0071 56.2679 47.029Z" stroke="#499A9A" stroke-width="1.875" stroke-miterlimit="10" stroke-linecap="round" stroke-linejoin="round"/>
<path d="M50.5348 46.0111C50.5348 47.867 49.0305 49.3713 47.1746 49.3713C45.3188 49.3713 43.8145 47.867 43.8145 46.0111C43.8145 44.1553 45.3188 42.651 47.1746 42.651C49.0305 42.651 50.5348 44.1553 50.5348 46.0111Z" stroke="#499A9A" stroke-width="1.875" stroke-miterlimit="10" stroke-linecap="round" stroke-linejoin="round"/>
<path d="M54.169 52.8389C53.1364 50.8447 51.2775 49.3476 49.0449 48.8034" stroke="#499A9A" stroke-width="1.875" stroke-miterlimit="10" stroke-linecap="round" stroke-linejoin="round"/>
<path d="M45.3058 48.8034C43.0731 49.3476 41.2141 50.8447 40.1816 52.8389" stroke="#499A9A" stroke-width="1.875" stroke-miterlimit="10" stroke-linecap="round" stroke-linejoin="round"/>
</g>
</g>
<defs>
<clipPath id="clip0_3753_28090">
<rect width="64" height="64" fill="white"/>
</clipPath>
</defs>
</svg>
