<svg width="64" height="64" viewBox="0 0 64 64" fill="none" xmlns="http://www.w3.org/2000/svg">
<g clip-path="url(#clip0_3753_28421)">
<path d="M8.55859 6.19396V2.70523C8.55859 1.72899 9.34984 0.937744 10.3261 0.937744H44.1221C45.0984 0.937744 45.8896 1.72899 45.8896 2.70523V21.1414" stroke="#499A9A" stroke-width="2" stroke-miterlimit="10" stroke-linecap="round" stroke-linejoin="round"/>
<path d="M8.55859 10.5813V37.0511C8.55859 38.0274 9.34984 38.8186 10.3261 38.8186H45.8896" stroke="#499A9A" stroke-width="2" stroke-miterlimit="10" stroke-linecap="round" stroke-linejoin="round"/>
<path d="M50.3809 63.0622V43.858C50.3809 43.1606 50.9462 42.5952 51.6436 42.5952H54.4216V63.0622H50.3809Z" stroke="#499A9A" stroke-width="2" stroke-miterlimit="10" stroke-linecap="round" stroke-linejoin="round"/>
<path d="M54.4219 63.0622V42.5952H61.7991C62.4965 42.5952 63.0618 43.1606 63.0618 43.858V61.7996C63.0618 62.497 62.4965 63.0623 61.7991 63.0623H54.4219V63.0622Z" stroke="#499A9A" stroke-width="2" stroke-miterlimit="10" stroke-linecap="round" stroke-linejoin="round"/>
<path d="M16.2891 49.8921C16.2891 51.6355 17.7024 53.0488 19.4458 53.0488H29.5655L31.272 54.9196" stroke="#499A9A" stroke-width="2" stroke-miterlimit="10" stroke-linecap="round" stroke-linejoin="round"/>
<path d="M39.6551 63.0622H26.2477C23.6864 63.0622 21.1665 62.4135 18.924 61.1747L9.62027 56.0385C8.29903 55.3085 7.22654 54.2023 6.53904 52.8598L1.20282 42.4436C0.631575 41.3286 1.01032 39.9611 2.07407 39.2986C2.47031 39.0511 2.91156 38.9336 3.34781 38.9336C4.13405 38.9336 4.9053 39.3186 5.36655 40.0248L11.464 49.3385L16.6477 51.3535C16.4102 50.8985 16.2777 50.3773 16.2902 49.8248C16.3265 48.0948 17.7915 46.7348 19.5227 46.7348H25.3564C26.0364 46.7348 26.7077 46.5773 27.3164 46.2723L31.7076 44.0761C33.1939 43.3336 34.8314 42.9473 36.4926 42.9473C37.3226 42.9473 38.1476 43.0436 38.9501 43.2336C39.7526 43.4223 40.5338 43.7048 41.2763 44.0761L46.5938 46.7348H50.3825" stroke="#499A9A" stroke-width="2" stroke-miterlimit="10" stroke-linecap="round" stroke-linejoin="round"/>
<path d="M50.3829 63.0623H44.043" stroke="#499A9A" stroke-width="2" stroke-miterlimit="10" stroke-linecap="round" stroke-linejoin="round"/>
<path d="M27.8457 11.7968L30.4061 5.0743C30.4584 4.94643 30.6394 4.94618 30.6921 5.07405L33.2292 11.7969" stroke="#499A9A" stroke-width="2" stroke-miterlimit="10" stroke-linecap="round" stroke-linejoin="round"/>
<path d="M28.6445 10.1226H32.4438" stroke="#499A9A" stroke-width="2" stroke-miterlimit="10" stroke-linecap="round" stroke-linejoin="round"/>
<path d="M37.0703 11.7967V4.9909L41.8483 11.7967V4.97827" stroke="#499A9A" stroke-width="2" stroke-miterlimit="10" stroke-linecap="round" stroke-linejoin="round"/>
<path d="M12.5996 4.9812V11.794H14.9872" stroke="#499A9A" stroke-width="2" stroke-miterlimit="10" stroke-linecap="round" stroke-linejoin="round"/>
<path d="M21.3858 11.7967C23.2687 11.7967 24.795 10.2704 24.795 8.3875C24.795 6.50464 23.2687 4.97827 21.3858 4.97827C19.5029 4.97827 17.9766 6.50464 17.9766 8.3875C17.9766 10.2704 19.5029 11.7967 21.3858 11.7967Z" stroke="#499A9A" stroke-width="2" stroke-miterlimit="10" stroke-linecap="round" stroke-linejoin="round"/>
<path d="M16.6406 29.8535H26.6969" stroke="#499A9A" stroke-width="2" stroke-miterlimit="10" stroke-linecap="round" stroke-linejoin="round"/>
<path d="M26.6969 24.8027H16.6406" stroke="#499A9A" stroke-width="2" stroke-miterlimit="10" stroke-linecap="round" stroke-linejoin="round"/>
<path d="M41.8487 22.1169V15.8374H12.5996V34.7779H38.466" stroke="#499A9A" stroke-width="2" stroke-miterlimit="10" stroke-linecap="round" stroke-linejoin="round"/>
<path d="M41.8488 19.8782H12.5996" stroke="#499A9A" stroke-width="2" stroke-miterlimit="10" stroke-linecap="round" stroke-linejoin="round"/>
<path d="M30.7363 15.8374V34.7779" stroke="#499A9A" stroke-width="2" stroke-miterlimit="10" stroke-linecap="round" stroke-linejoin="round"/>
<path d="M47.585 25.9392L44.1934 34.0204" stroke="#499A9A" stroke-width="2" stroke-miterlimit="10" stroke-linecap="round" stroke-linejoin="round"/>
<circle cx="43.3437" cy="25.9392" r="0.937495" fill="#499A9A"/>
<circle cx="48.4355" cy="34.0203" r="0.937495" fill="#499A9A"/>
<path d="M54.4969 31.995C54.6482 31.3475 54.7282 30.6726 54.7282 29.9801C54.7282 25.0976 50.7707 21.1414 45.8895 21.1414C41.0083 21.1414 37.0508 25.0976 37.0508 29.9801C37.0508 34.8613 41.0083 38.8188 45.8895 38.8188C48.5082 38.8188 50.8595 37.68 52.4782 35.8713" stroke="#499A9A" stroke-width="2" stroke-miterlimit="10" stroke-linecap="round" stroke-linejoin="round"/>
</g>
<defs>
<clipPath id="clip0_3753_28421">
<rect width="64" height="64" fill="white"/>
</clipPath>
</defs>
</svg>
