<svg width="64" height="64" viewBox="0 0 64 64" fill="none" xmlns="http://www.w3.org/2000/svg">
<path d="M13.1211 54.1085V50.243C13.1211 48.4097 14.605 46.9236 16.4355 46.9236H24.0282C25.8587 46.9236 27.3427 48.4097 27.3427 50.243V54.1085H13.1211Z" stroke="#499A9A" stroke-width="2" stroke-miterlimit="10" stroke-linecap="round" stroke-linejoin="round"/>
<path d="M20.2329 46.9235C17.4205 46.9235 15.1406 44.6437 15.1406 41.8314V40.9085C15.1406 38.0962 17.4205 35.8164 20.2327 35.8164C23.0451 35.8164 25.3249 38.0963 25.3249 40.9085V41.8314C25.325 44.6437 23.0451 46.9235 20.2329 46.9235Z" stroke="#499A9A" stroke-width="2" stroke-miterlimit="10" stroke-linecap="round" stroke-linejoin="round"/>
<path d="M15.5664 30.4517H38.6465" stroke="#499A9A" stroke-width="2" stroke-miterlimit="10" stroke-linecap="round" stroke-linejoin="round"/>
<path d="M35.6939 24.4883H18.519C16.8883 24.4883 15.5664 23.1664 15.5664 21.5356C15.5664 19.9049 16.8883 18.583 18.519 18.583H35.6939C37.3247 18.583 38.6465 19.9049 38.6465 21.5356C38.6465 23.1663 37.3247 24.4883 35.6939 24.4883Z" stroke="#499A9A" stroke-width="2" stroke-miterlimit="10" stroke-linecap="round" stroke-linejoin="round"/>
<path d="M36.5967 61.2476H6.49609V11.7214H18.3371" stroke="#499A9A" stroke-width="2" stroke-miterlimit="10" stroke-linecap="round" stroke-linejoin="round"/>
<path d="M36.2617 11.7214H47.7152V32.9648" stroke="#499A9A" stroke-width="2" stroke-miterlimit="10" stroke-linecap="round" stroke-linejoin="round"/>
<path d="M27.3442 18.583C32.0949 18.583 35.9462 14.7309 35.9462 9.979C35.9462 5.22714 32.0949 1.375 27.3442 1.375C22.5934 1.375 18.7422 5.22714 18.7422 9.979C18.7422 14.7309 22.5934 18.583 27.3442 18.583Z" stroke="#499A9A" stroke-width="2" stroke-miterlimit="10" stroke-linecap="round" stroke-linejoin="round"/>
<path d="M25.3691 10.0108L26.8345 11.2884L29.3194 8.66943" stroke="#499A9A" stroke-width="2" stroke-miterlimit="10" stroke-linecap="round" stroke-linejoin="round"/>
<path d="M55.3322 57.7603V60.028C55.3322 61.4624 54.1707 62.6251 52.7378 62.6251H39.5202C38.0873 62.6251 36.9258 61.4624 36.9258 60.028V57.7603" stroke="#499A9A" stroke-width="2" stroke-miterlimit="10" stroke-linecap="round" stroke-linejoin="round"/>
<path d="M48.6996 49.8174V46.4457C48.6996 45.0697 49.1901 43.7268 50.1242 42.7174C51.0238 41.7453 51.5737 40.4443 51.5737 39.0147C51.5737 35.9305 49.0147 33.4448 45.9063 33.5692C43.0951 33.6817 40.8078 35.9669 40.6904 38.7809C40.6277 40.2832 41.1728 41.6579 42.0998 42.6789C43.0363 43.7104 43.5598 45.051 43.5598 46.4449V49.8174" stroke="#499A9A" stroke-width="2" stroke-miterlimit="10" stroke-linecap="round" stroke-linejoin="round"/>
<path d="M57.5044 57.0261H34.7559V53.1579C34.7559 51.7183 35.9229 50.5513 37.3625 50.5513H54.8976C56.3372 50.5513 57.5042 51.7183 57.5042 53.1579V57.0261H57.5044Z" stroke="#499A9A" stroke-width="2" stroke-miterlimit="10" stroke-linecap="round" stroke-linejoin="round"/>
<circle cx="46.1289" cy="39.1279" r="1.375" fill="#499A9A"/>
</svg>
