<svg width="63" height="63" viewBox="0 0 63 63" fill="none" xmlns="http://www.w3.org/2000/svg">
<g clip-path="url(#clip0_3753_28203)">
<path d="M62.0762 26.5165V56.3012C62.0762 57.4099 61.1779 58.3081 60.0693 58.3081H2.92877C1.82012 58.3081 0.921875 57.4099 0.921875 56.3012V41.5257M0.921875 37.2191V6.69854C0.921875 5.58989 1.82012 4.69165 2.92877 4.69165H60.0693C61.1779 4.69165 62.0762 5.58989 62.0762 6.69854V22.2098" stroke="#499A9A" stroke-width="2" stroke-miterlimit="10" stroke-linecap="round" stroke-linejoin="round"/>
<path d="M9.37449 12.5237H1.25586" stroke="#499A9A" stroke-width="2" stroke-miterlimit="10" stroke-linecap="round" stroke-linejoin="round"/>
<path d="M61.7438 12.5237H13.6816" stroke="#499A9A" stroke-width="2" stroke-miterlimit="10" stroke-linecap="round" stroke-linejoin="round"/>
<circle cx="13.5732" cy="8.60791" r="0.922852" fill="#499A9A"/>
<circle cx="9.37402" cy="8.60791" r="0.922852" fill="#499A9A"/>
<circle cx="5.17676" cy="8.60791" r="0.922852" fill="#499A9A"/>
<path d="M24.6913 51.438H12.4453" stroke="#499A9A" stroke-width="2" stroke-miterlimit="10" stroke-linecap="round" stroke-linejoin="round"/>
<path d="M8.32808 51.4349C6.79873 51.3653 5.58008 50.1034 5.58008 48.5569V26.1022C5.58008 24.5111 6.86998 23.2212 8.4611 23.2212H28.6097C30.2008 23.2212 31.4907 24.5111 31.4907 26.1022V48.5569C31.4907 50.0218 30.3974 51.2313 28.9822 51.4141" stroke="#499A9A" stroke-width="2" stroke-miterlimit="10" stroke-linecap="round" stroke-linejoin="round"/>
<path d="M10.3164 48.1764V29.2029C10.3164 28.4967 10.8888 27.9243 11.595 27.9243H25.4773C26.1834 27.9243 26.7558 28.4967 26.7558 29.2029V48.1221" stroke="#499A9A" stroke-width="2" stroke-miterlimit="10" stroke-linecap="round" stroke-linejoin="round"/>
<path d="M11.0626 54.3744H9.57094C8.97515 54.3744 8.49219 53.8915 8.49219 53.2957V49.6205C8.49219 49.0247 8.97515 48.5417 9.57094 48.5417H11.0626C11.6584 48.5417 12.1414 49.0247 12.1414 49.6205V53.2957C12.1413 53.8915 11.6583 54.3744 11.0626 54.3744Z" stroke="#499A9A" stroke-width="2" stroke-miterlimit="10" stroke-linecap="round" stroke-linejoin="round"/>
<path d="M27.5021 54.3744H26.0104C25.4146 54.3744 24.9316 53.8915 24.9316 53.2957V49.6205C24.9316 49.0247 25.4146 48.5417 26.0104 48.5417H27.5021C28.0979 48.5417 28.5807 49.0247 28.5807 49.6205V53.2957C28.5807 53.8915 28.0978 54.3744 27.5021 54.3744Z" stroke="#499A9A" stroke-width="2" stroke-miterlimit="10" stroke-linecap="round" stroke-linejoin="round"/>
<path d="M23.159 19.5857H14.4945C14.1718 19.5857 13.9102 19.3241 13.9102 19.0014V17.0424C13.9102 16.7196 14.1718 16.458 14.4945 16.458H23.159C23.4817 16.458 23.7433 16.7196 23.7433 17.0424V19.0014C23.7434 19.3241 23.4818 19.5857 23.159 19.5857Z" stroke="#499A9A" stroke-width="2" stroke-miterlimit="10" stroke-linecap="round" stroke-linejoin="round"/>
<path d="M15.3281 22.9482V19.9832" stroke="#499A9A" stroke-width="2" stroke-miterlimit="10" stroke-linecap="round" stroke-linejoin="round"/>
<path d="M22.3262 22.9482V19.9832" stroke="#499A9A" stroke-width="2" stroke-miterlimit="10" stroke-linecap="round" stroke-linejoin="round"/>
<path d="M13.3281 31.9751H23.744" stroke="#499A9A" stroke-width="2" stroke-miterlimit="10" stroke-linecap="round" stroke-linejoin="round"/>
<path d="M15.4941 32.2322V33.6951" stroke="#499A9A" stroke-width="2" stroke-miterlimit="10" stroke-linecap="round" stroke-linejoin="round"/>
<path d="M36.0977 20.1965L37.6093 21.3874L39.5812 18.7593" stroke="#499A9A" stroke-width="2" stroke-miterlimit="10" stroke-linecap="round" stroke-linejoin="round"/>
<path d="M36.0977 29.2437L37.6093 30.4348L39.5812 27.8066" stroke="#499A9A" stroke-width="2" stroke-miterlimit="10" stroke-linecap="round" stroke-linejoin="round"/>
<path d="M36.0977 38.2913L37.6093 39.4824L39.5812 36.8542" stroke="#499A9A" stroke-width="2" stroke-miterlimit="10" stroke-linecap="round" stroke-linejoin="round"/>
<path d="M45.9811 53.1243H57.0356C57.7296 53.1243 58.2919 52.562 58.2919 51.8667V47.1504C58.2919 46.4564 57.7296 45.8928 57.0356 45.8928H37.4724C36.7772 45.8928 36.2148 46.4564 36.2148 47.1504V51.8667C36.2148 52.562 36.7772 53.1243 37.4724 53.1243H41.6744" stroke="#499A9A" stroke-width="2" stroke-miterlimit="10" stroke-linecap="round" stroke-linejoin="round"/>
<path d="M43.5332 20.0732H58.2907" stroke="#499A9A" stroke-width="2" stroke-miterlimit="10" stroke-linecap="round" stroke-linejoin="round"/>
<path d="M43.5332 29.1208H54.3429" stroke="#499A9A" stroke-width="2" stroke-miterlimit="10" stroke-linecap="round" stroke-linejoin="round"/>
<path d="M43.5332 38.1682H58.2907" stroke="#499A9A" stroke-width="2" stroke-miterlimit="10" stroke-linecap="round" stroke-linejoin="round"/>
</g>
<defs>
<clipPath id="clip0_3753_28203">
<rect width="63" height="63" fill="white"/>
</clipPath>
</defs>
</svg>
