<svg width="64" height="64" viewBox="0 0 64 64" fill="none" xmlns="http://www.w3.org/2000/svg">
<g clip-path="url(#clip0_3753_28283)">
<path d="M12.8118 62.625C19.1281 62.625 24.2485 57.5046 24.2485 51.1882C24.2485 44.8719 19.1281 39.7515 12.8118 39.7515C6.49541 39.7515 1.375 44.8719 1.375 51.1882C1.375 57.5046 6.49541 62.625 12.8118 62.625Z" stroke="#499A9A" stroke-width="2" stroke-miterlimit="10" stroke-linecap="round" stroke-linejoin="round"/>
<path d="M12.8125 47.376V51.1882H16.6248" stroke="#499A9A" stroke-width="2" stroke-miterlimit="10" stroke-linecap="round" stroke-linejoin="round"/>
<path d="M12.8125 19.1655C18.427 19.1655 22.9785 23.717 22.9785 29.3315V31.873H2.64648V29.3315C2.64648 23.7169 7.19798 19.1655 12.8125 19.1655Z" stroke="#499A9A" stroke-width="2" stroke-miterlimit="10" stroke-linecap="round" stroke-linejoin="round"/>
<path d="M12.8115 6.45801C15.6188 6.45801 17.8945 8.73376 17.8945 11.541V14.0825C17.8945 16.8898 15.6188 19.1655 12.8115 19.1655C10.0043 19.1655 7.72852 16.8898 7.72852 14.0825V11.541C7.72852 8.73376 10.0043 6.45801 12.8115 6.45801Z" stroke="#499A9A" stroke-width="2" stroke-miterlimit="10" stroke-linecap="round" stroke-linejoin="round"/>
<path d="M54.7956 52.9451C55.7632 48.8471 53.2256 44.7405 49.1275 43.7729C45.0295 42.8052 40.9229 45.3429 39.9552 49.4409C38.9876 53.539 41.5252 57.6455 45.6233 58.6132C49.7213 59.5809 53.8279 57.0432 54.7956 52.9451Z" stroke="#499A9A" stroke-width="2" stroke-miterlimit="10" stroke-linecap="round" stroke-linejoin="round"/>
<path d="M47.375 39.7515V43.5637" stroke="#499A9A" stroke-width="2" stroke-miterlimit="10" stroke-linecap="round" stroke-linejoin="round"/>
<path d="M47.375 62.625V58.8127" stroke="#499A9A" stroke-width="2" stroke-miterlimit="10" stroke-linecap="round" stroke-linejoin="round"/>
<path d="M39.2891 43.1013L41.6746 45.4868" stroke="#499A9A" stroke-width="2" stroke-miterlimit="10" stroke-linecap="round" stroke-linejoin="round"/>
<path d="M55.4635 59.2753L53.0781 56.8899" stroke="#499A9A" stroke-width="2" stroke-miterlimit="10" stroke-linecap="round" stroke-linejoin="round"/>
<path d="M35.9395 51.1882H39.7518" stroke="#499A9A" stroke-width="2" stroke-miterlimit="10" stroke-linecap="round" stroke-linejoin="round"/>
<path d="M58.8123 51.1882H55" stroke="#499A9A" stroke-width="2" stroke-miterlimit="10" stroke-linecap="round" stroke-linejoin="round"/>
<path d="M39.2891 59.2753L41.6746 56.8899" stroke="#499A9A" stroke-width="2" stroke-miterlimit="10" stroke-linecap="round" stroke-linejoin="round"/>
<path d="M55.4635 43.1013L53.0781 45.4868" stroke="#499A9A" stroke-width="2" stroke-miterlimit="10" stroke-linecap="round" stroke-linejoin="round"/>
<path d="M35.9392 8.99951H58.8127C60.9182 8.99951 62.625 10.7063 62.625 12.8118V15.3533C62.625 17.4588 60.9182 19.1655 58.8127 19.1655H35.9392C33.8338 19.1655 32.127 17.4588 32.127 15.3533V12.8118C32.1271 10.7063 33.8338 8.99951 35.9392 8.99951Z" stroke="#499A9A" stroke-width="2" stroke-miterlimit="10" stroke-linecap="round" stroke-linejoin="round"/>
<path d="M41.0215 21.707V16.624" stroke="#499A9A" stroke-width="2" stroke-miterlimit="10" stroke-linecap="round" stroke-linejoin="round"/>
<path d="M53.7305 21.707V16.624" stroke="#499A9A" stroke-width="2" stroke-miterlimit="10" stroke-linecap="round" stroke-linejoin="round"/>
<path d="M42.293 8.9995V3.9165C42.293 2.51288 43.4308 1.375 44.8345 1.375H49.9175C51.3211 1.375 52.459 2.51288 52.459 3.9165V8.68112" stroke="#499A9A" stroke-width="2" stroke-miterlimit="10" stroke-linecap="round" stroke-linejoin="round"/>
<path d="M33.3984 18.6811V28.0608C33.3984 30.1663 35.1052 31.873 37.2107 31.873H57.5427C59.6482 31.873 61.3549 30.1663 61.3549 28.0608V18.6296" stroke="#499A9A" stroke-width="2" stroke-miterlimit="10" stroke-linecap="round" stroke-linejoin="round"/>
<circle cx="47.375" cy="50.9341" r="1.375" fill="#499A9A"/>
</g>
<defs>
<clipPath id="clip0_3753_28283">
<rect width="64" height="64" fill="white"/>
</clipPath>
</defs>
</svg>
