<svg width="64" height="54" viewBox="0 0 64 54" fill="none" xmlns="http://www.w3.org/2000/svg">
<path d="M37.5184 39.1754H6.39453V18.2922H38.4135V35.8072" stroke="#499A9A" stroke-width="2" stroke-miterlimit="10" stroke-linejoin="round"/>
<path d="M5.86328 25.2444H38.9452" stroke="#499A9A" stroke-width="2" stroke-miterlimit="10" stroke-linejoin="round"/>
<path d="M5.86328 32.1965H38.4138" stroke="#499A9A" stroke-width="2" stroke-miterlimit="10" stroke-linejoin="round"/>
<path d="M27.918 39.1754V18.2922" stroke="#499A9A" stroke-width="2" stroke-miterlimit="10" stroke-linejoin="round"/>
<path d="M43.805 4.14624H1V12.7924H43.805V4.14624Z" stroke="#499A9A" stroke-width="2" stroke-miterlimit="10" stroke-linecap="round" stroke-linejoin="round"/>
<path d="M43.805 29.4782V12.7922H1V44.6754H38.2665" stroke="#499A9A" stroke-width="2" stroke-miterlimit="10" stroke-linejoin="round"/>
<path d="M14.75 7.29225V1" stroke="#499A9A" stroke-width="2" stroke-miterlimit="10" stroke-linecap="round" stroke-linejoin="round"/>
<path d="M7.0957 7.29225V1" stroke="#499A9A" stroke-width="2" stroke-miterlimit="10" stroke-linecap="round" stroke-linejoin="round"/>
<path d="M30.0605 7.29225V1" stroke="#499A9A" stroke-width="2" stroke-miterlimit="10" stroke-linecap="round" stroke-linejoin="round"/>
<path d="M22.4043 7.29225V1" stroke="#499A9A" stroke-width="2" stroke-miterlimit="10" stroke-linecap="round" stroke-linejoin="round"/>
<path d="M37.7148 7.29225V1" stroke="#499A9A" stroke-width="2" stroke-miterlimit="10" stroke-linecap="round" stroke-linejoin="round"/>
<path d="M16.8906 39.1754V18.2922" stroke="#499A9A" stroke-width="2" stroke-miterlimit="10" stroke-linejoin="round"/>
<path d="M49.8857 39.267C51.5182 39.267 52.8417 37.9435 52.8417 36.311C52.8417 34.6784 51.5182 33.355 49.8857 33.355C48.2531 33.355 46.9297 34.6784 46.9297 36.311C46.9297 37.9435 48.2531 39.267 49.8857 39.267Z" stroke="#499A9A" stroke-width="2" stroke-miterlimit="10" stroke-linejoin="round"/>
<path d="M44.6191 45.5957V44.5322C44.6191 41.6243 46.9764 39.2671 49.8841 39.2671C52.7919 39.2671 55.1493 41.6243 55.1493 44.5322V45.5957H44.6191Z" stroke="#499A9A" stroke-width="2" stroke-miterlimit="10" stroke-linejoin="round"/>
<path d="M49.8848 52.7984C56.7139 52.7984 62.25 47.2623 62.25 40.4331C62.25 33.604 56.7139 28.0679 49.8848 28.0679C43.0556 28.0679 37.5195 33.604 37.5195 40.4331C37.5195 47.2623 43.0556 52.7984 49.8848 52.7984Z" stroke="#499A9A" stroke-width="2" stroke-miterlimit="10" stroke-linejoin="round"/>
</svg>
