<svg width="64" height="64" viewBox="0 0 64 64" fill="none" xmlns="http://www.w3.org/2000/svg">
<g clip-path="url(#clip0_3753_28461)">
<path d="M45.6631 4.10164C42.4241 2.50652 38.8736 1.46214 35.1383 1.09289C25.7738 0.167394 17.1501 3.43852 10.9011 9.23664L9.5765 7.97839C9.0365 7.46539 8.14525 7.70002 7.928 8.41252L5.41338 16.6563C5.1725 17.446 5.93663 18.1719 6.713 17.8908L14.8169 14.9563C15.5173 14.7026 15.7059 13.8006 15.1659 13.2876L13.8163 12.0055C18.9665 7.31502 25.9184 4.57164 33.5068 4.98677C46.8948 5.71914 57.9058 16.4356 58.9671 29.8015C60.323 46.8743 45.7218 61.0005 28.5093 58.8343C16.594 57.3348 6.95525 47.8914 5.23588 36.0059C4.70963 32.3678 4.91475 28.8401 5.72375 25.5474C5.95588 24.6026 5.4605 23.6329 4.56575 23.2511C3.44 22.7709 2.13138 23.3983 1.83813 24.5865C0.996503 27.9966 0.715753 31.6245 1.11925 35.3731C2.68138 49.8828 14.401 61.5105 28.9269 62.9138C48.5845 64.8128 65.0039 48.2595 62.8765 28.5625C61.8566 19.1199 56.5171 10.9088 48.9045 5.94752" stroke="#499A9A" stroke-width="1.875" stroke-miterlimit="10" stroke-linecap="round" stroke-linejoin="round"/>
<path d="M49.0353 21.98H14.9668C14.4135 21.98 13.9648 22.4286 13.9648 22.982V41.0182C13.9648 41.5716 14.4135 42.0202 14.9668 42.0202H49.0353C49.5887 42.0202 50.0373 41.5716 50.0373 41.0182V22.982C50.0373 22.4286 49.5887 21.98 49.0353 21.98Z" stroke="#499A9A" stroke-width="1.875" stroke-miterlimit="10" stroke-linecap="round" stroke-linejoin="round"/>
<path d="M25.5153 38.012H20.9788L17.9727 35.0059V28.9939L20.9788 25.9878H25.5153" stroke="#499A9A" stroke-width="1.875" stroke-miterlimit="10" stroke-linecap="round" stroke-linejoin="round"/>
<path d="M38.6133 25.9878H43.0223L46.0284 28.9939V35.0059L43.0223 38.012H38.6133" stroke="#499A9A" stroke-width="1.875" stroke-miterlimit="10" stroke-linecap="round" stroke-linejoin="round"/>
<path d="M24.5893 28.1749C25.7918 24.5386 28.6571 21.98 32.0005 21.98C36.4276 21.98 40.0166 26.4661 40.0166 32.0001C40.0166 37.5341 36.4276 42.0202 32.0005 42.0202C27.5734 42.0202 23.9844 37.5341 23.9844 32.0001" stroke="#499A9A" stroke-width="1.875" stroke-miterlimit="10" stroke-linecap="round" stroke-linejoin="round"/>
</g>
<defs>
<clipPath id="clip0_3753_28461">
<rect width="64" height="64" fill="white"/>
</clipPath>
</defs>
</svg>
