<svg width="64" height="64" viewBox="0 0 64 64" fill="none" xmlns="http://www.w3.org/2000/svg">
<mask id="mask0_3753_28527" style="mask-type:luminance" maskUnits="userSpaceOnUse" x="0" y="0" width="64" height="64">
<path d="M0 3.8147e-06H64V64H0V3.8147e-06Z" fill="white"/>
</mask>
<g mask="url(#mask0_3753_28527)">
<path d="M6.15735 14.6325L6.6461 13.7863C7.57235 12.1825 9.56235 11.5425 11.2486 12.3063L15.3599 14.1688C18.0386 11.6688 21.2811 9.76375 24.8761 8.6675L25.3186 4.18375C25.4999 2.34125 27.0499 0.937504 28.9011 0.937504H35.0961C36.9474 0.937504 38.4974 2.34125 38.6786 4.18375L39.1211 8.6675C42.7161 9.76375 45.9586 11.6688 48.6373 14.1688L52.7486 12.3063C54.4349 11.5425 56.4248 12.1825 57.3511 13.7863L60.4486 19.1513C61.3736 20.755 60.9324 22.7988 59.4286 23.8775L55.7661 26.5025C56.1736 28.2688 56.3886 30.11 56.3886 32C56.3886 33.89 56.1736 35.7313 55.7661 37.4975L59.4286 40.1225C60.9324 41.2013 61.3736 43.245 60.4486 44.8488L57.3511 50.2137C56.4248 51.8175 54.4349 52.4575 52.7486 51.6937L48.6373 49.8313C45.9586 52.3312 42.7161 54.2363 39.1211 55.3325L38.6786 59.8163C38.4974 61.6587 36.9474 63.0625 35.0961 63.0625H28.9011C27.0499 63.0625 25.4999 61.6587 25.3186 59.8163L24.8761 55.3325C21.2811 54.2363 18.0386 52.3312 15.3599 49.8313L11.2486 51.6937C9.56235 52.4575 7.57235 51.8175 6.6461 50.2137L3.5486 44.8488C2.6236 43.245 3.06485 41.2013 4.5686 40.1225L8.2311 37.4975C7.8236 35.7313 7.6086 33.89 7.6086 32C7.6086 30.11 7.8236 28.2688 8.2311 26.5025L4.5686 23.8775C3.06485 22.7988 2.6236 20.755 3.5486 19.1513L3.96985 18.4213" stroke="#499A9A" stroke-width="2" stroke-miterlimit="10" stroke-linecap="round" stroke-linejoin="round"/>
<path d="M21.8086 22.7652C19.5948 25.2077 18.2461 28.4464 18.2461 32.0002C18.2461 39.5952 24.4036 45.7527 31.9998 45.7527C38.3236 45.7527 43.6498 41.4839 45.2561 35.6714" stroke="#499A9A" stroke-width="2" stroke-miterlimit="10" stroke-linecap="round" stroke-linejoin="round"/>
<path d="M42.2936 35.6713H45.8736C48.2936 35.6713 50.2561 33.7101 50.2561 31.2901V21.3014C50.2561 18.8814 48.2936 16.9188 45.8736 16.9188H26.1911C23.7711 16.9188 21.8086 18.8814 21.8086 21.3014V31.2901C21.8086 33.7101 23.7711 35.6713 26.1911 35.6713H30.3786V40.1376C30.3786 41.4801 32.1661 41.9426 32.8173 40.7676L35.6373 35.6713H37.9211" stroke="#499A9A" stroke-width="2" stroke-miterlimit="10" stroke-linecap="round" stroke-linejoin="round"/>
<path d="M26.7227 20.9221H41.1032" stroke="#499A9A" stroke-width="2" stroke-miterlimit="10" stroke-linecap="round" stroke-linejoin="round"/>
<path d="M26.7227 25.2563H41.1032" stroke="#499A9A" stroke-width="2" stroke-miterlimit="10" stroke-linecap="round" stroke-linejoin="round"/>
<path d="M26.7227 29.5903H34.5667" stroke="#499A9A" stroke-width="2" stroke-miterlimit="10" stroke-linecap="round" stroke-linejoin="round"/>
</g>
</svg>
