<svg width="64" height="64" viewBox="0 0 64 64" fill="none" xmlns="http://www.w3.org/2000/svg">
<path d="M47.2442 39.9895V6.919L41.5638 1.25H5.46094V62.75H47.2442" stroke="#499A9A" stroke-width="2" stroke-miterlimit="10" stroke-linecap="round" stroke-linejoin="round"/>
<path d="M40.6644 24.8739V20.3894L39.2507 19.9974C38.9097 18.3252 38.2503 16.7684 37.3384 15.3929L38.0611 14.1169L34.8837 10.9459L33.6051 11.667C32.2268 10.757 30.6668 10.099 28.9912 9.75866L28.5984 8.34766H24.1051L23.7123 9.75866C22.0367 10.099 20.4768 10.757 19.0984 11.667L17.8198 10.9459L14.6424 14.1169L15.3651 15.3929C14.4533 16.7684 13.7939 18.3252 13.4528 19.9974L12.0391 20.3894V24.8739L13.4528 25.2659C13.7938 26.9382 14.4532 28.4949 15.3651 29.8704L14.6424 31.1464L17.8198 34.3174L19.0984 33.5963C20.4767 34.5063 22.0367 35.1643 23.7123 35.5047L24.1051 36.9157H28.5987L28.9914 35.5047C30.6671 35.1643 32.2269 34.5063 33.6053 33.5963L34.8839 34.3174L38.0613 31.1464L37.3387 29.8704C38.2504 28.4949 38.9098 26.9382 39.2509 25.2659L40.6644 24.8739Z" stroke="#499A9A" stroke-width="2" stroke-miterlimit="10" stroke-linecap="round" stroke-linejoin="round"/>
<path d="M26.3525 29.7492C30.2912 29.7492 33.4842 26.5625 33.4842 22.6317C33.4842 18.7008 30.2912 15.5142 26.3525 15.5142C22.4137 15.5142 19.2207 18.7008 19.2207 22.6317C19.2207 26.5625 22.4137 29.7492 26.3525 29.7492Z" stroke="#499A9A" stroke-width="2" stroke-miterlimit="10" stroke-linecap="round" stroke-linejoin="round"/>
<path d="M12.0391 55.6523H36.6356" stroke="#499A9A" stroke-width="2" stroke-miterlimit="10" stroke-linecap="round" stroke-linejoin="round"/>
<path d="M39.7036 43.0808H12.0391V50.2678H36.0109C36.3148 47.4217 37.6799 44.8922 39.7036 43.0808Z" stroke="#499A9A" stroke-width="2" stroke-miterlimit="10" stroke-linecap="round" stroke-linejoin="round"/>
<path d="M47.2438 62.7499C53.4826 62.7499 58.5403 57.7024 58.5403 51.476C58.5403 45.2496 53.4826 40.2021 47.2438 40.2021C41.0049 40.2021 35.9473 45.2496 35.9473 51.476C35.9473 57.7024 41.0049 62.7499 47.2438 62.7499Z" stroke="#499A9A" stroke-width="2" stroke-miterlimit="10" stroke-linecap="round" stroke-linejoin="round"/>
<path d="M47.2715 47.7693V51.476L50.7389 54.4904" stroke="#499A9A" stroke-width="2" stroke-miterlimit="10" stroke-linecap="round" stroke-linejoin="round"/>
</svg>
