<svg width="100" height="100" viewBox="0 0 100 100" fill="none" xmlns="http://www.w3.org/2000/svg">
<g clip-path="url(#clip0_1042_8509)">
<path d="M1.54494 51.1966C0.514981 51.1966 0 50.5866 0 50.1173C0 22.6185 22.3315 0.234619 49.7659 0.234619C50.7959 0.234619 51.3109 0.844661 51.3109 1.31392C51.3109 2.29938 50.7491 2.86249 49.7659 2.86249C23.7828 2.86249 2.62172 24.0732 2.62172 50.1173C2.62172 50.6335 2.05993 51.1966 1.54494 51.1966Z" fill="#008080"/>
<path d="M49.7656 100C48.7825 100 48.2207 99.4369 48.2207 98.4514C48.2207 97.8883 48.8761 96.9029 49.7656 96.9029C75.7488 96.9029 96.9098 75.6922 96.9098 49.6481C96.9098 48.6626 97.4716 48.0995 98.4548 48.0995C99.4379 48.0995 99.9997 48.6626 99.9997 49.6481C99.5316 77.4284 77.0128 100 49.7656 100Z" fill="#008080"/>
<path d="M43.8211 9.19756C43.8211 9.19756 43.3529 8.96293 43.2124 8.96293C42.7443 8.96293 42.6038 8.96293 42.3697 8.7283C41.9484 8.30596 41.8548 7.8367 41.9016 7.55514H41.9952L42.3229 7.03895L48.9241 0.469263C49.205 0.187705 49.5795 0 49.954 0C50.1413 0 50.3754 0 50.469 0.281558C50.9372 0.844674 51.1244 1.26701 51.0776 1.64242H50.984L50.6563 2.15861L43.8679 8.96293V9.19756H43.8211Z" fill="#008080"/>
<path d="M49.4863 99.9531C49.2054 99.9531 49.0649 99.9062 48.9245 99.7654C48.5968 99.4369 48.4095 98.9677 48.4563 98.5923H48.55L48.8777 98.0761L55.432 91.5064C55.7597 91.1779 56.0406 91.0371 56.2747 91.0371C56.5088 91.0371 56.7897 91.1779 57.1174 91.5064C57.726 92.1164 57.726 93.0549 57.1174 93.665L50.9844 99.8123H50.8908C50.6567 99.8123 50.3758 99.8123 50.1417 99.9062C49.8608 99.9062 49.6267 99.9062 49.4863 99.9062V99.9531Z" fill="#008080"/>
<path d="M46.0201 81.2295C44.2879 81.2295 43.0238 80.3379 42.0407 78.367L41.0575 73.909L40.6362 73.7682C37.9676 72.8766 35.7204 71.5157 33.9414 69.7325L33.6137 69.4041L28.9789 70.4364C28.6043 70.5303 28.2298 70.5772 27.8553 70.5772C27.0126 70.5772 25.4676 70.3426 24.7654 68.5594L20.9732 62.3182C20.271 60.9573 20.0837 58.9395 21.7223 57.7194L24.9058 54.5284V54.1061C24.3909 51.3843 24.3909 48.6157 24.859 45.9409V45.5186L21.8159 42.4214C20.5987 41.2013 20.271 39.2304 21.0201 37.7288L24.7654 31.206C25.7953 29.8452 27.0594 29.1413 28.5107 29.1413C28.8384 29.1413 29.1661 29.1413 29.5407 29.2351L34.1287 30.7837L34.4564 30.4552C35.3459 29.5636 36.6568 28.672 37.5463 28.2497C38.2485 28.015 38.8571 27.6396 39.4658 27.2642C40.0276 26.9357 40.5425 26.6072 41.198 26.4195L41.6193 26.2788L42.6493 21.6331C43.0238 20.0845 44.6624 18.9583 46.535 18.9583H54.0257C56.4601 18.9583 57.2092 20.6476 57.4433 21.6331L58.4732 26.2788L58.8946 26.4195C61.5631 27.3111 63.8103 28.672 65.5893 30.4552L65.9171 30.7837L70.5987 29.2351C70.5987 29.2351 71.0669 29.1413 71.3478 29.1413C72.7991 29.1413 74.2036 29.9859 74.7654 31.1591L78.5107 37.7757C79.2598 39.2304 78.932 41.2483 77.7148 42.4683L74.1568 45.5186L74.2504 45.9409C74.7186 48.6626 74.7186 51.4313 74.2504 54.1061L74.1568 54.5284L77.7616 57.6255C78.932 58.7987 79.2598 60.7696 78.5107 62.3182L74.8122 68.3717C74.2036 69.6387 72.7523 70.4364 71.3478 70.4364C71.0669 70.4364 70.786 70.4364 70.5519 70.3426L65.8702 69.3102L65.5425 69.6387C64.653 70.5303 63.3422 71.4219 62.4526 71.8442C62.1717 71.985 61.844 72.1727 61.4695 72.3604C60.6736 72.7827 59.7373 73.3459 58.801 73.6743L58.4264 73.8151L56.8815 77.9446C56.8347 80.291 55.1025 81.1826 53.4171 81.1826H45.9264L46.0201 81.2295ZM33.8478 66.4008C34.3159 66.4008 34.4564 66.4008 34.6905 66.6354C36.9845 68.4655 39.2785 69.9202 42.3684 71.4688C42.3684 71.5627 42.6961 71.7034 42.9302 71.8442C43.3047 72.0319 43.3047 72.0789 43.3047 72.1727L44.756 77.5223C44.756 77.9446 45.1774 78.6016 45.9732 78.6016H53.4639C54.0725 78.6016 54.7279 78.1793 54.7279 77.3346L56.0856 72.4073C56.0856 71.7504 56.6006 71.6096 56.741 71.6096C57.7242 71.328 58.4732 70.9526 59.1755 70.5772C59.8309 70.2487 60.5332 69.9202 61.1886 69.6856C62.0781 69.1225 62.6867 68.6532 63.2953 68.137C63.8571 67.6678 64.4189 67.2454 65.1212 66.7762C65.4957 66.4008 65.8702 66.26 66.0575 66.26L71.6287 67.8555H72.6586L76.638 60.8635L76.7317 60.0188V59.6903L72.7523 55.7016C72.4714 55.42 72.2841 54.9977 72.3309 54.9038C72.9864 51.619 72.9864 48.2872 72.5182 45.3778C72.5182 45.237 72.5182 44.4392 72.7523 44.2046L76.7317 40.2159V39.6528L76.638 38.9958L72.6586 32.0038H71.535L66.3852 33.4585C65.683 33.4585 65.4957 33.4585 65.2616 33.1769C62.8272 31.206 60.3927 29.282 57.4433 28.2966C57.0688 28.2027 56.6474 27.7335 56.5538 27.5458L54.962 21.68H44.8497L43.3047 27.4519C43.3047 27.7804 43.0706 28.2497 42.6493 28.2497H42.3216L42.0875 28.4843C41.6193 28.9536 40.9171 29.329 40.168 29.7513C39.6062 30.0329 39.0444 30.3614 38.4826 30.7368C37.1249 31.1591 36.1418 32.1446 34.7841 33.4585H34.5032H34.4096H33.4732L28.3234 32.0038H27.1998L23.1268 39.1366V40.122L27.1062 44.1108C27.3871 44.3923 27.5744 44.8147 27.5276 44.9085C26.8721 48.1934 26.8721 51.5251 27.3403 54.4346C27.3403 55.2323 27.3403 55.42 27.1062 55.6077L23.1268 59.5965V60.3942L27.1998 67.7616H28.1362L33.3796 66.3538H33.7541L33.8478 66.4008Z" fill="#008080"/>
<path d="M49.7657 65.7438C41.2919 65.7438 34.1758 58.5641 34.1758 50.1173C34.1758 41.6706 41.2919 34.4908 49.7657 34.4908C58.2395 34.4908 65.3556 41.6236 65.3556 50.1173C65.3556 58.611 58.1926 65.7438 49.7657 65.7438ZM49.7657 37.1187C42.7432 37.1187 36.7975 43.0784 36.7975 50.1173C36.7975 57.1563 42.7432 63.1159 49.7657 63.1159C56.7881 63.1159 62.7338 57.1563 62.7338 50.1173C62.7338 42.6091 57.2563 37.1187 49.7657 37.1187Z" fill="#008080"/>
<path d="M49.7673 51.1966V50.7274L49.2523 50.8212L37.08 43.7823C36.7991 43.6415 36.565 43.36 36.4246 42.9845C36.2841 42.6091 36.3309 42.2806 36.4246 41.9991C36.6118 41.6237 37.1736 41.2952 37.6886 41.2952C37.8759 41.2952 38.0163 41.2952 38.1568 41.389L49.7673 48.1464L61.4246 41.3421C61.4246 41.3421 61.8927 41.1544 62.1736 41.1544C62.6418 41.1544 62.9227 41.389 63.0632 41.8114C63.2972 42.3276 63.3441 42.7968 63.2504 43.1253C63.1568 43.36 62.9695 43.5007 62.6418 43.6415L50.5163 51.1028H49.8141L49.7673 51.1966Z" fill="#008080"/>
<path d="M49.7656 65.7438C48.7825 65.7438 48.2207 65.1807 48.2207 64.1952V49.6481C48.2207 48.6626 48.7825 48.0995 49.7656 48.0995C50.7488 48.0995 51.3106 48.6626 51.3106 49.6481V64.1952C51.3106 65.1807 50.7488 65.7438 49.7656 65.7438Z" fill="#008080"/>
</g>
<defs>
<clipPath id="clip0_1042_8509">
<rect width="100" height="100" fill="white"/>
</clipPath>
</defs>
</svg>








