<svg width="80" height="80" viewBox="0 0 80 80" fill="none" xmlns="http://www.w3.org/2000/svg">
<path d="M39.9999 43.972C36.232 41.7968 31.9266 40.623 27.5005 40.623H15.5918V61.0816H20.4454L36.6646 77.3009C37.9718 78.608 40.091 78.608 41.3982 77.3009C42.7054 75.9937 42.7054 73.8744 41.3982 72.5673L39.6124 70.7815L42.976 74.1451C44.2832 75.4523 46.4024 75.4523 47.7096 74.1451C49.0168 72.8379 49.0168 70.7187 47.7096 69.4115L44.346 66.0479L50.0765 71.7784C51.3837 73.0855 53.5029 73.0855 54.8101 71.7784C56.1173 70.4712 56.1173 68.352 54.8101 67.0448L49.0796 61.3143L52.4432 64.6779C53.7504 65.9851 55.8696 65.9851 57.1768 64.6779C58.2854 63.5693 58.4538 61.8765 57.682 60.5904" stroke="#499A9A" stroke-width="2" stroke-miterlimit="10" stroke-linejoin="round"/>
<path d="M58.1567 61.0815H64.4067V40.623H52.4981C45.8677 40.623 39.5089 43.257 34.8205 47.9454L31.8886 50.8773C30.5814 52.1845 30.5814 54.3037 31.8886 55.6109C33.1958 56.918 35.315 56.918 36.6222 55.6109L41.3808 50.8523H48.0844L58.1567 61.0815Z" stroke="#499A9A" stroke-width="2" stroke-miterlimit="10" stroke-linecap="round" stroke-linejoin="round"/>
<path d="M71.2832 40.623H64.4082V61.0816H71.2832V40.623Z" stroke="#499A9A" stroke-width="2" stroke-miterlimit="10" stroke-linecap="round" stroke-linejoin="round"/>
<path d="M15.5918 40.623H8.7168V61.0816H15.5918V40.623Z" stroke="#499A9A" stroke-width="2" stroke-miterlimit="10" stroke-linecap="round" stroke-linejoin="round"/>
<path d="M43.1603 31.795L39.9995 33.6095L36.8387 31.795C30.3759 28.0848 26.3906 21.2017 26.3906 13.7497V6.40625L39.9995 1.71875L53.6084 6.40625V13.7497C53.6084 21.2017 49.6231 28.0848 43.1603 31.795Z" stroke="#499A9A" stroke-width="2" stroke-miterlimit="10" stroke-linejoin="round"/>
<path d="M34.1484 15.8012L38.2494 19.9022L45.8506 12.3008" stroke="#499A9A" stroke-width="2" stroke-miterlimit="10" stroke-linecap="round" stroke-linejoin="round"/>
</svg>




