<svg width="80" height="80" viewBox="0 0 80 80" fill="none" xmlns="http://www.w3.org/2000/svg">
<path d="M11.1753 36.4184C10.6404 38.7162 10.3574 41.1109 10.3574 43.5716C10.3574 60.9292 24.4284 75.0002 41.786 75.0002C59.1436 75.0002 73.2146 60.9292 73.2146 43.5716C73.2146 37.2476 71.3457 31.3604 68.1314 26.4306M53.4271 14.3706C49.8269 12.9339 45.899 12.1431 41.786 12.1431C34.9139 12.1431 28.5574 14.3495 23.3849 18.0915" stroke="#499A9A" stroke-width="2" stroke-miterlimit="2.6131" stroke-linecap="round" stroke-linejoin="round"/>
<path d="M60.1232 68.8366H44.2743C34.4108 68.8366 31.6576 59.8104 35.7268 54.5224M53.9041 46.9818C53.9985 45.0731 55.5891 43.5409 57.5201 43.5409C60.1199 43.5409 62.2472 41.4138 62.2472 38.8139C62.2472 36.2138 60.1199 34.0868 57.5201 34.0868H55.2736C51.9176 34.0868 49.1693 31.3399 49.1693 27.9824C49.1693 24.6249 51.9162 21.8779 55.2736 21.8779H55.5015" stroke="#499A9A" stroke-width="2" stroke-miterlimit="2.6131" stroke-linecap="round" stroke-linejoin="round"/>
<path d="M24.3855 33.3569C27.2728 33.9841 29.4525 36.5674 29.4525 39.6356C29.4525 43.1691 26.5608 46.0601 23.0284 46.0601C20.8634 46.0601 19.0923 47.8314 19.0923 49.9961C19.0923 52.1611 17.3211 53.9324 15.1561 53.9325H12.9297" stroke="#499A9A" stroke-width="2" stroke-miterlimit="2.6131" stroke-linecap="round" stroke-linejoin="round"/>
<path fill-rule="evenodd" clip-rule="evenodd" d="M63.5717 17.8573C65.3421 17.8573 66.786 16.4134 66.786 14.643C66.786 12.8726 65.342 11.4287 63.5717 11.4287C61.8014 11.4287 60.3574 12.8726 60.3574 14.643C60.3574 16.4133 61.8013 17.8573 63.5717 17.8573Z" stroke="#499A9A" stroke-width="2" stroke-miterlimit="22.9256" stroke-linecap="round" stroke-linejoin="round"/>
<path fill-rule="evenodd" clip-rule="evenodd" d="M16.4291 28.93C18.1996 28.93 19.6434 27.4862 19.6434 25.7158C19.6434 23.9453 18.1994 22.5015 16.4291 22.5015C14.6587 22.5015 13.2148 23.9453 13.2148 25.7158C13.2148 27.4862 14.6588 28.93 16.4291 28.93Z" stroke="#499A9A" stroke-width="2" stroke-miterlimit="22.9256" stroke-linecap="round" stroke-linejoin="round"/>
<path fill-rule="evenodd" clip-rule="evenodd" d="M44.2748 51.1971C46.0453 51.1971 47.4891 49.7531 47.4891 47.9828C47.4891 46.2124 46.0451 44.7686 44.2748 44.7686C42.5045 44.7686 41.0605 46.2124 41.0605 47.9828C41.0605 49.7531 42.5045 51.1971 44.2748 51.1971Z" stroke="#499A9A" stroke-width="2" stroke-miterlimit="22.9256" stroke-linecap="round" stroke-linejoin="round"/>
<path fill-rule="evenodd" clip-rule="evenodd" d="M63.5706 5C58.245 5 53.9277 9.31729 53.9277 14.6429C53.9277 21.4116 60.235 27.3846 63.5706 29.0677C66.9062 27.3846 73.2134 21.4116 73.2134 14.6429C73.2134 9.31729 68.8962 5 63.5706 5Z" stroke="#499A9A" stroke-width="2" stroke-miterlimit="22.9256" stroke-linecap="round" stroke-linejoin="round"/>
<path fill-rule="evenodd" clip-rule="evenodd" d="M16.428 16.0728C11.1024 16.0728 6.78516 20.39 6.78516 25.7156C6.78516 32.4843 13.0924 38.4573 16.428 40.1405C19.7636 38.4573 26.0709 32.4843 26.0709 25.7156C26.0709 20.39 21.7536 16.0728 16.428 16.0728Z" stroke="#499A9A" stroke-width="2" stroke-miterlimit="22.9256" stroke-linecap="round" stroke-linejoin="round"/>
<path fill-rule="evenodd" clip-rule="evenodd" d="M44.2757 38.3403C38.9501 38.3403 34.6328 42.6576 34.6328 47.9832C34.6328 54.7518 40.9401 60.7249 44.2757 62.408C47.6112 60.7249 53.9185 54.7518 53.9185 47.9832C53.9185 42.6576 49.6012 38.3403 44.2757 38.3403Z" stroke="#499A9A" stroke-width="2" stroke-miterlimit="22.9256" stroke-linecap="round" stroke-linejoin="round"/>
</svg>




