<svg width="80" height="80" viewBox="0 0 80 80" fill="none" xmlns="http://www.w3.org/2000/svg">
<path d="M57.8393 11.498L41.7489 27.5886L33.0332 18.8731" stroke="#499A9A" stroke-width="2" stroke-miterlimit="10" stroke-linecap="round" stroke-linejoin="round"/>
<path d="M64.8466 33.5346H26.0236C23.9223 33.5346 22.2188 31.8311 22.2188 29.7298V7.80488C22.2188 5.70356 23.9223 4 26.0236 4H64.8466C66.9479 4 68.6514 5.70356 68.6514 7.80488V29.7298C68.6514 31.8312 66.9479 33.5346 64.8466 33.5346Z" stroke="#499A9A" stroke-width="2" stroke-miterlimit="10" stroke-linecap="round" stroke-linejoin="round"/>
<path d="M51.8481 33.5347V36.4735C51.8481 38.0966 50.5324 39.4123 48.9093 39.4123H41.9642C40.3411 39.4123 39.0254 38.0966 39.0254 36.4735V33.5347" stroke="#499A9A" stroke-width="2" stroke-miterlimit="10" stroke-linecap="round" stroke-linejoin="round"/>
<path d="M48.6703 71.2128V73.943C48.6703 75.079 47.7492 76.0001 46.6132 76.0001H44.2622C43.126 76.0001 42.2051 75.079 42.2051 73.943V70.2651" stroke="#499A9A" stroke-width="2" stroke-miterlimit="10" stroke-linecap="round" stroke-linejoin="round"/>
<path d="M42.2051 45.9318V43.1751V39.4121H48.6704V43.4999V45.9318" stroke="#499A9A" stroke-width="2" stroke-miterlimit="10" stroke-linecap="round" stroke-linejoin="round"/>
<path d="M51.0204 52.1342H58.5265C60.3338 52.1342 61.7784 50.5884 61.6142 48.7489C61.4705 47.1394 60.0706 45.9319 58.4548 45.9319H42.2046V43.1753H39.7449C36.6401 43.1753 33.741 44.7284 32.0188 47.3102C30.4613 49.6494 27.9236 51.1556 25.1289 51.4083" stroke="#499A9A" stroke-width="2" stroke-miterlimit="10" stroke-linecap="round" stroke-linejoin="round"/>
<path d="M51.0195 52.1338H61.0732C62.6878 52.1338 64.0869 53.3401 64.2312 54.9482C64.3963 56.7876 62.9524 58.3353 61.1433 58.3353C58.6499 58.3353 59.2449 58.3353 55.4459 58.3353" stroke="#499A9A" stroke-width="2" stroke-miterlimit="10" stroke-linecap="round" stroke-linejoin="round"/>
<path d="M51.0039 58.3354H58.3874C60.0999 58.3354 61.4883 59.7238 61.4883 61.4363C61.4883 63.1488 60.0999 64.5371 58.3874 64.5371H51.151" stroke="#499A9A" stroke-width="2" stroke-miterlimit="10" stroke-linecap="round" stroke-linejoin="round"/>
<path d="M22.2001 72.1167H14.2725C12.656 72.1167 11.3457 70.8064 11.3457 69.1899V50.2374C11.3457 48.6209 12.656 47.3105 14.2725 47.3105H22.2001C23.8166 47.3105 25.127 48.6209 25.127 50.2374V69.1899C25.127 70.8063 23.8165 72.1167 22.2001 72.1167Z" stroke="#499A9A" stroke-width="2" stroke-miterlimit="10" stroke-linecap="round" stroke-linejoin="round"/>
<path d="M51.1518 64.5376H54.2536C55.1103 64.5376 55.8861 64.8844 56.4474 65.4456C57.0088 66.007 57.3555 66.7813 57.3555 67.638C57.3555 69.3499 55.9669 70.7384 54.2536 70.7384H46.2852C44.9422 70.7384 43.608 70.5871 42.3075 70.2888C41.0071 69.9906 39.7391 69.5467 38.5312 68.9619C36.114 67.7922 33.4632 67.184 30.7772 67.184H25.1289" stroke="#499A9A" stroke-width="2" stroke-miterlimit="10" stroke-linecap="round" stroke-linejoin="round"/>
<path d="M17.2246 53.959H18.694" stroke="#499A9A" stroke-width="2" stroke-miterlimit="10" stroke-linecap="round" stroke-linejoin="round"/>
</svg>





