<svg width="72" height="72" viewBox="0 0 72 72" fill="none" xmlns="http://www.w3.org/2000/svg">
<mask id="mask0_3650_7405" style="mask-type:luminance" maskUnits="userSpaceOnUse" x="0" y="0" width="72" height="72">
<path d="M72 0H0V72H72V0Z" fill="white"/>
</mask>
<g mask="url(#mask0_3650_7405)">
<mask id="mask1_3650_7405" style="mask-type:luminance" maskUnits="userSpaceOnUse" x="0" y="0" width="72" height="72">
<path d="M0 7.62939e-06H72V72H0V7.62939e-06Z" fill="white"/>
</mask>
<g mask="url(#mask1_3650_7405)">
<path d="M53.1978 44.5075L62.6192 35.1849C66.1384 31.6657 72.9061 36.1053 69.2496 40.407L57.8411 53.8288C57.3945 54.3543 56.8815 54.8198 56.3153 55.2138C54.4759 56.389 52.2856 56.7807 50.1277 56.7807H33.198C31.9733 56.7807 30.7495 56.8515 29.533 56.9931L24.6639 57.54L14.5645 47.7393C14.5645 47.7393 20.2939 36.9199 31.5324 40.0298C33.6345 40.6116 35.8097 40.8891 37.9906 40.8891H49.1174C54.3554 40.8891 54.3963 49.2115 49.0737 49.2115H39.3873" stroke="#499A9A" stroke-width="2" stroke-miterlimit="10" stroke-linecap="round" stroke-linejoin="round"/>
<path d="M18.0307 70.2935L27.6388 60.4359C27.6415 60.4331 27.6413 60.4288 27.6386 60.4262L11.3351 44.6049C11.3325 44.6023 11.3281 44.6024 11.3254 44.6051L1.62695 54.6737L18.0307 70.2935Z" stroke="#499A9A" stroke-width="2" stroke-miterlimit="10" stroke-linecap="round" stroke-linejoin="round"/>
<path d="M33.6348 49.158L33.6483 49.2153" stroke="#499A9A" stroke-width="2" stroke-miterlimit="10" stroke-linecap="round" stroke-linejoin="round"/>
<path d="M13.1552 15.1971C10.1095 15.4854 7.72656 18.0501 7.72656 21.1713V27.5611C7.72656 28.6649 8.62122 29.5596 9.72498 29.5596H23.4275C24.5312 29.5596 25.4259 28.6649 25.4259 27.5611V21.1713C25.4259 18.0477 23.0395 15.4816 19.9905 15.1964" stroke="#499A9A" stroke-width="2" stroke-miterlimit="10" stroke-linecap="round" stroke-linejoin="round"/>
<path d="M23.2817 9.40849C23.2817 13.1117 20.2796 16.1138 16.5764 16.1138C12.8732 16.1138 9.87109 13.1117 9.87109 9.40849C9.87109 5.70527 12.8732 2.70321 16.5764 2.70321C20.2796 2.70321 23.2817 5.70527 23.2817 9.40849Z" stroke="#499A9A" stroke-width="2" stroke-miterlimit="10" stroke-linecap="round" stroke-linejoin="round"/>
<path d="M30.8545 15.1971C27.8087 15.4854 25.4258 18.0501 25.4258 21.1713V27.5611C25.4258 28.6649 26.3204 29.5596 27.4242 29.5596H41.1267C42.2305 29.5596 43.1251 28.6649 43.1251 27.5611V21.1713C43.1251 18.0477 40.7387 15.4816 37.6897 15.1964" stroke="#499A9A" stroke-width="2" stroke-miterlimit="10" stroke-linecap="round" stroke-linejoin="round"/>
<path d="M40.9809 9.40849C40.9809 13.1117 37.9788 16.1138 34.2756 16.1138C30.5724 16.1138 27.5703 13.1117 27.5703 9.40849C27.5703 5.70527 30.5724 2.70321 34.2756 2.70321C37.9788 2.70321 40.9809 5.70527 40.9809 9.40849Z" stroke="#499A9A" stroke-width="2" stroke-miterlimit="10" stroke-linecap="round" stroke-linejoin="round"/>
<path d="M48.5556 15.1971C45.5098 15.4854 43.127 18.0501 43.127 21.1713V27.5611C43.127 28.6649 44.0216 29.5596 45.1254 29.5596H58.8279C59.9316 29.5596 60.8263 28.6649 60.8263 27.5611V21.1713C60.8263 18.0477 58.4399 15.4816 55.3909 15.1964" stroke="#499A9A" stroke-width="2" stroke-miterlimit="10" stroke-linecap="round" stroke-linejoin="round"/>
<path d="M58.682 9.40849C58.682 13.1117 55.68 16.1138 51.9768 16.1138C48.2735 16.1138 45.2715 13.1117 45.2715 9.40849C45.2715 5.70527 48.2735 2.70321 51.9768 2.70321C55.68 2.70321 58.682 5.70527 58.682 9.40849Z" stroke="#499A9A" stroke-width="2" stroke-miterlimit="10" stroke-linecap="round" stroke-linejoin="round"/>
</g>
</g>
</svg>



