<svg width="523" height="273" viewBox="0 0 523 273" fill="none" xmlns="http://www.w3.org/2000/svg">
<circle cx="187.5" cy="137.319" r="52" fill="white"/>
<path d="M150.584 142.354H155.756C157.429 142.354 158.037 143.535 158.037 144.621C158.037 145.707 157.546 146.422 156.633 146.72V146.744C157.37 146.852 157.803 147.555 157.85 148.557C157.92 150.144 157.967 150.537 158.248 150.871H156.937C156.738 150.633 156.738 150.275 156.68 149.249C156.598 147.722 156.095 147.257 155.065 147.257H151.824V150.871H150.584V142.354V142.354ZM155.288 146.16C156.505 146.16 156.797 145.409 156.797 144.812C156.797 144.001 156.318 143.451 155.323 143.451H151.824V146.159H155.288V146.16Z" fill="#082326"/>
<path d="M159.232 142.284H160.402V145.564H160.426C160.976 144.693 161.947 144.407 162.824 144.407C164.299 144.407 165.399 145.051 165.399 146.614V150.872H164.229V146.852C164.229 145.933 163.668 145.409 162.415 145.409C161.351 145.409 160.403 146.041 160.403 147.27V150.872H159.233V142.284H159.232Z" fill="#082326"/>
<path d="M167.797 148.104C167.891 149.393 169.014 150.085 170.055 150.085C170.722 150.085 171.635 149.858 172.033 148.976H173.273C172.688 150.479 171.319 151.087 170.113 151.087C167.727 151.087 166.557 149.548 166.557 147.747C166.557 145.946 167.727 144.408 170.113 144.408C171.728 144.408 173.436 145.362 173.436 147.951V148.106H167.796L167.797 148.104ZM172.196 147.174C172.021 146.041 171.154 145.409 170.055 145.409C168.955 145.409 168.007 146.053 167.831 147.174H172.196Z" fill="#082326"/>
<path d="M174.631 142.284H175.801V143.596H174.631V142.284ZM174.631 144.621H175.801V150.872H174.631V144.621Z" fill="#082326"/>
<path d="M177.229 144.621H178.398V145.564H178.422C178.972 144.693 179.943 144.407 180.82 144.407C182.295 144.407 183.395 145.051 183.395 146.614V150.872H182.225V146.852C182.225 145.933 181.664 145.409 180.412 145.409C179.347 145.409 178.399 146.041 178.399 147.27V150.872H177.229V144.621H177.229Z" fill="#082326"/>
<path d="M184.811 142.354H189.315C190.918 142.354 191.749 143.118 191.749 144.454C191.749 145.288 191.374 146.136 190.11 146.41V146.434C191.737 146.601 192.03 147.806 192.03 148.533C192.03 149.452 191.539 150.871 189.233 150.871H184.811V142.354V142.354ZM185.349 146.22H189.07C189.502 146.22 191.211 146.22 191.211 144.49C191.211 142.761 189.878 142.832 188.987 142.832H185.349V146.22ZM185.349 150.395H189.117C189.537 150.395 191.492 150.395 191.492 148.486C191.492 146.697 189.9 146.697 188.976 146.697H185.349V150.395Z" fill="#082326"/>
<path d="M193.213 144.765H193.752V146.208H193.775C194.173 145.134 195.086 144.573 196.256 144.573C196.419 144.573 196.537 144.597 196.7 144.645V145.193C196.572 145.146 196.419 145.122 196.08 145.122C194.524 145.122 193.752 146.326 193.752 147.567V150.871H193.213V144.764V144.765Z" fill="#082326"/>
<path d="M203.169 150.872H202.631V149.655H202.607C202.233 150.383 201.449 151.062 200.08 151.062C197.33 151.062 197.33 149.273 197.33 148.533V144.764H197.869V148.509C197.869 149.75 198.326 150.584 200.092 150.584C201.859 150.584 202.632 149.464 202.632 148.33V144.763H203.17V150.87L203.169 150.872ZM198.747 142.474H199.285V143.739H198.747V142.474ZM201.227 142.474H201.765V143.739H201.227V142.474Z" fill="#082326"/>
<path d="M210.053 146.685C209.983 145.909 208.953 145.051 207.514 145.051C205.618 145.051 204.67 146.423 204.67 147.878C204.67 148.868 205.349 150.585 207.514 150.585C208.719 150.585 209.865 150.001 210.135 148.737H210.673C210.357 150.335 209.023 151.062 207.514 151.062C205.549 151.062 204.133 149.774 204.133 147.877C204.133 145.73 205.677 144.573 207.514 144.573C209.352 144.573 210.521 145.646 210.592 146.684H210.053V146.685Z" fill="#082326"/>
<path d="M211.632 142.354H212.171V148.009L216.442 144.764H217.237L214.205 147.066L217.518 150.872H216.78L213.785 147.412L212.17 148.629V150.872H211.631V142.354H211.632Z" fill="#082326"/>
<path d="M218.326 147.937C218.361 149.464 219.379 150.584 221.18 150.584C222.982 150.584 223.521 149.392 223.732 148.843H224.27C223.767 150.382 222.713 151.062 221.122 151.062C219.074 151.062 217.787 149.798 217.787 147.77C217.787 146.494 218.582 144.573 221.134 144.573C223.216 144.573 224.41 145.98 224.433 147.937H218.325H218.326ZM223.825 147.46C223.603 145.79 222.456 145.051 221.076 145.051C219.531 145.051 218.56 146.005 218.326 147.46H223.825Z" fill="#082326"/>
<path d="M172.416 125.99C172.416 127.45 171.256 128.632 169.824 128.632C168.392 128.632 167.232 127.45 167.232 125.99C167.232 124.531 168.392 123.349 169.824 123.349C171.256 123.349 172.416 124.532 172.416 125.99Z" fill="#082326"/>
<path d="M182.781 125.99C182.781 127.45 181.621 128.632 180.189 128.632C178.758 128.632 177.598 127.45 177.598 125.99C177.598 124.531 178.758 123.349 180.189 123.349C181.621 123.349 182.781 124.532 182.781 125.99Z" fill="#082326"/>
<path d="M193.145 125.99C193.145 127.45 191.985 128.632 190.555 128.632C189.124 128.632 187.963 127.45 187.963 125.99C187.963 124.531 189.123 123.349 190.555 123.349C191.986 123.349 193.145 124.532 193.145 125.99Z" fill="#082326"/>
<path d="M203.513 125.99C203.513 127.45 202.353 128.632 200.921 128.632C199.489 128.632 198.33 127.45 198.33 125.99C198.33 124.531 199.49 123.349 200.921 123.349C202.352 123.349 203.513 124.532 203.513 125.99Z" fill="#082326"/>
<path d="M177.598 133.916C177.598 135.375 176.438 136.558 175.006 136.558C173.574 136.558 172.414 135.375 172.414 133.916C172.414 132.456 173.574 131.274 175.006 131.274C176.438 131.274 177.598 132.457 177.598 133.916Z" fill="#082326"/>
<path d="M187.964 133.916C187.964 135.375 186.804 136.558 185.372 136.558C183.94 136.558 182.781 135.375 182.781 133.916C182.781 132.456 183.941 131.274 185.372 131.274C186.803 131.274 187.964 132.457 187.964 133.916Z" fill="#082326"/>
<path d="M198.33 133.916C198.33 135.375 197.17 136.558 195.738 136.558C194.306 136.558 193.146 135.375 193.146 133.916C193.146 132.456 194.307 131.274 195.738 131.274C197.169 131.274 198.33 132.457 198.33 133.916Z" fill="#082326"/>
<circle cx="314.379" cy="137.319" r="52" fill="white"/>
<g clip-path="url(#clip0_1699_17987)">
<path d="M334.494 139.332C334.497 139.403 334.486 139.473 334.46 139.54C334.434 139.606 334.395 139.666 334.344 139.717C334.293 139.767 334.233 139.806 334.167 139.832C334.1 139.857 334.029 139.869 333.957 139.865H327.66C327.522 139.859 327.391 139.8 327.296 139.701C327.2 139.601 327.147 139.469 327.147 139.332V135.086C327.147 135.019 327.16 134.953 327.186 134.891C327.212 134.829 327.25 134.773 327.297 134.725C327.345 134.678 327.401 134.641 327.464 134.615C327.526 134.589 327.592 134.576 327.66 134.576H333.957C334.026 134.573 334.096 134.584 334.16 134.608C334.225 134.632 334.285 134.669 334.335 134.717C334.385 134.764 334.425 134.822 334.453 134.885C334.48 134.948 334.494 135.017 334.494 135.086V139.332ZM349.673 139.162C350.967 138.967 351.601 138.094 351.601 136.759V134.746C351.601 133.193 350.698 132.319 349.161 132.319H339.546V142.098H341.962V134.576H348.651C348.719 134.573 348.788 134.584 348.851 134.608C348.915 134.632 348.973 134.67 349.021 134.718C349.069 134.766 349.107 134.823 349.132 134.887C349.156 134.95 349.167 135.018 349.164 135.086V136.42C349.167 136.488 349.156 136.556 349.132 136.619C349.107 136.683 349.069 136.74 349.021 136.788C348.973 136.836 348.915 136.874 348.851 136.898C348.788 136.922 348.719 136.933 348.651 136.93H342.963V139.187H346.868L348.918 142.098H351.871L349.673 139.162ZM327.172 132.319C325.61 132.319 324.731 133.217 324.731 134.746V139.647C324.731 141.2 325.634 142.073 327.172 142.073H334.469C336.007 142.073 336.91 141.176 336.91 139.647V134.746C336.91 133.193 336.007 132.319 334.469 132.319H327.172ZM311.282 139.647C311.282 141.2 312.186 142.073 313.723 142.073H322.217V139.841H314.236C314.166 139.841 314.098 139.827 314.034 139.8C313.97 139.773 313.912 139.733 313.864 139.683C313.816 139.634 313.779 139.575 313.755 139.51C313.731 139.445 313.72 139.376 313.723 139.307V135.086C313.723 134.951 313.777 134.821 313.873 134.725C313.969 134.63 314.1 134.576 314.236 134.576H322.241V132.319H313.723C312.161 132.319 311.282 133.217 311.282 134.746V139.647ZM308.644 132.319H306.206V142.098H308.644V132.319ZM291.608 132.319V142.098H294.049V134.576H300.689C300.759 134.569 300.83 134.577 300.896 134.6C300.963 134.623 301.024 134.66 301.075 134.708C301.126 134.756 301.166 134.815 301.192 134.88C301.218 134.946 301.229 135.016 301.226 135.086V136.42C301.229 136.49 301.218 136.56 301.192 136.625C301.166 136.691 301.126 136.749 301.075 136.798C301.024 136.846 300.963 136.883 300.896 136.906C300.83 136.929 300.759 136.937 300.689 136.93H295.198V139.187H301.202C302.764 139.187 303.643 138.289 303.643 136.76V134.746C303.643 133.193 302.74 132.319 301.202 132.319H291.608ZM278.941 132.319C277.379 132.319 276.5 133.217 276.5 134.746V139.647C276.5 141.2 277.403 142.073 278.941 142.073H288.413V140.011H279.431C279.363 140.011 279.297 139.998 279.235 139.972C279.172 139.947 279.116 139.909 279.068 139.862C279.021 139.814 278.983 139.758 278.957 139.696C278.931 139.634 278.918 139.568 278.918 139.501V134.892C278.915 134.823 278.926 134.754 278.95 134.689C278.974 134.625 279.012 134.566 279.06 134.516C279.107 134.466 279.165 134.426 279.229 134.399C279.293 134.372 279.361 134.358 279.431 134.358H285.728C285.799 134.355 285.87 134.366 285.937 134.392C286.004 134.417 286.064 134.456 286.115 134.507C286.165 134.557 286.205 134.617 286.231 134.683C286.256 134.75 286.268 134.821 286.264 134.892V135.789C286.265 135.857 286.25 135.925 286.223 135.987C286.195 136.049 286.155 136.105 286.104 136.15C286.054 136.196 285.994 136.231 285.929 136.252C285.864 136.273 285.796 136.281 285.728 136.274H279.921V138.336H286.241C287.802 138.336 288.681 137.414 288.681 135.91V134.746C288.681 133.193 287.778 132.319 286.241 132.319H278.941Z" fill="#025064"/>
</g>
<circle cx="250.5" cy="137.319" r="20" fill="#499A9A"/>
<g clip-path="url(#clip1_1699_17987)">
<path d="M254.344 133.476L246.656 141.163" stroke="white" stroke-width="1.875" stroke-miterlimit="10" stroke-linecap="round"/>
<mask id="mask0_1699_17987" style="mask-type:luminance" maskUnits="userSpaceOnUse" x="238" y="125" width="25" height="25">
<path d="M238.5 125.319H262.5V149.319H238.5V125.319Z" fill="white"/>
</mask>
<g mask="url(#mask0_1699_17987)">
<path d="M255.305 137.817C256.578 137.588 257.836 136.791 258.972 135.653L259.338 135.283C261.642 132.975 262.544 130.09 260.138 127.679C257.727 125.272 254.892 126.177 252.584 128.481L252.213 128.847C251.094 129.965 250.303 131.202 250.061 132.455" stroke="white" stroke-width="1.875" stroke-miterlimit="10" stroke-linecap="round"/>
<path d="M250.998 142.124C250.769 143.397 249.971 144.655 248.834 145.791L248.464 146.157C246.156 148.461 243.27 149.363 240.86 146.956C238.453 144.546 239.358 141.711 241.662 139.403L242.028 139.032C243.145 137.913 244.383 137.122 245.636 136.879" stroke="white" stroke-width="1.875" stroke-miterlimit="10" stroke-linecap="round"/>
</g>
</g>
<path d="M0 101.319H61.5455C94.7186 101.319 127.097 91.165 154.329 72.221L160.365 68.022C214.189 30.5795 285.936 31.7931 338.463 71.0347C364.78 90.6959 396.75 101.319 429.601 101.319H522.5" stroke="url(#paint0_linear_1699_17987)" stroke-width="1.5"/>
<circle opacity="0.5" cx="88.8265" cy="98.6459" r="2.32653" fill="#28B67E"/>
<circle opacity="0.5" cx="2.32653" cy="2.32653" r="2.32653" transform="matrix(1 0 0 -1 86.5 183.973)" fill="#28B67E"/>
<circle opacity="0.5" cx="143.827" cy="58.6459" r="2.32653" fill="#28B67E"/>
<circle opacity="0.5" cx="2.32653" cy="2.32653" r="2.32653" transform="matrix(1 0 0 -1 141.5 223.973)" fill="#28B67E"/>
<circle opacity="0.5" cx="317.827" cy="58.6459" r="2.32653" fill="#28B67E"/>
<circle opacity="0.5" cx="2.32653" cy="2.32653" r="2.32653" transform="matrix(1 0 0 -1 315.5 223.973)" fill="#28B67E"/>
<circle opacity="0.5" cx="349.827" cy="58.6459" r="2.32653" fill="#28B67E"/>
<circle opacity="0.5" cx="2.32653" cy="2.32653" r="2.32653" transform="matrix(1 0 0 -1 347.5 223.973)" fill="#28B67E"/>
<circle opacity="0.5" cx="400.827" cy="58.6459" r="2.32653" fill="#28B67E"/>
<circle opacity="0.5" cx="2.32653" cy="2.32653" r="2.32653" transform="matrix(1 0 0 -1 398.5 223.973)" fill="#28B67E"/>
<circle opacity="0.5" cx="89.8265" cy="58.6459" r="2.32653" fill="#28B67E"/>
<circle opacity="0.5" cx="2.32653" cy="2.32653" r="2.32653" transform="matrix(1 0 0 -1 87.5 223.973)" fill="#28B67E"/>
<path opacity="0.2" d="M0 81.3193H61.5455C94.7186 81.3193 127.097 71.165 154.329 52.221L160.365 48.022C214.189 10.5795 285.936 11.7931 338.463 51.0347C364.78 70.6959 396.75 81.3193 429.601 81.3193H522.5" stroke="url(#paint1_linear_1699_17987)" stroke-width="1.5"/>
<path opacity="0.1" d="M0 61.3193H61.5455C94.7186 61.3193 127.097 51.165 154.329 32.221L160.365 28.022C214.189 -9.42053 285.936 -8.20689 338.463 31.0347C364.78 50.6959 396.75 61.3193 429.601 61.3193H522.5" stroke="url(#paint2_linear_1699_17987)" stroke-width="1.5"/>
<path d="M0 179.319H61.5455C94.7186 179.319 127.097 189.474 154.329 208.418L160.365 212.617C214.189 250.059 285.936 248.846 338.463 209.604C364.78 189.943 396.75 179.319 429.601 179.319H522.5" stroke="url(#paint3_linear_1699_17987)" stroke-width="1.5"/>
<path opacity="0.5" d="M0 199.319H61.5455C94.7186 199.319 127.097 209.474 154.329 228.418L160.365 232.617C214.189 270.059 285.936 268.846 338.463 229.604C364.78 209.943 396.75 199.319 429.601 199.319H522.5" stroke="url(#paint4_linear_1699_17987)" stroke-width="1.5"/>
<path opacity="0.1" d="M0 219.319H61.5455C94.7186 219.319 127.097 229.474 154.329 248.418L160.365 252.617C214.189 290.059 285.936 288.846 338.463 249.604C364.78 229.943 396.75 219.319 429.601 219.319H522.5" stroke="url(#paint5_linear_1699_17987)" stroke-width="1.5"/>
<defs>
<linearGradient id="paint0_linear_1699_17987" x1="522.5" y1="53.3193" x2="0" y2="53.3193" gradientUnits="userSpaceOnUse">
<stop stop-color="#499A9A" stop-opacity="0"/>
<stop offset="0.5" stop-color="#499A9A"/>
<stop offset="1" stop-color="#499A9A" stop-opacity="0"/>
</linearGradient>
<linearGradient id="paint1_linear_1699_17987" x1="522.5" y1="33.3193" x2="0" y2="33.3193" gradientUnits="userSpaceOnUse">
<stop stop-color="#499A9A" stop-opacity="0"/>
<stop offset="0.5" stop-color="#499A9A"/>
<stop offset="1" stop-color="#499A9A" stop-opacity="0"/>
</linearGradient>
<linearGradient id="paint2_linear_1699_17987" x1="522.5" y1="13.3193" x2="0" y2="13.3193" gradientUnits="userSpaceOnUse">
<stop stop-color="#499A9A" stop-opacity="0"/>
<stop offset="0.5" stop-color="#499A9A"/>
<stop offset="1" stop-color="#499A9A" stop-opacity="0"/>
</linearGradient>
<linearGradient id="paint3_linear_1699_17987" x1="522.5" y1="227.319" x2="0" y2="227.319" gradientUnits="userSpaceOnUse">
<stop stop-color="#499A9A" stop-opacity="0"/>
<stop offset="0.5" stop-color="#499A9A"/>
<stop offset="1" stop-color="#499A9A" stop-opacity="0"/>
</linearGradient>
<linearGradient id="paint4_linear_1699_17987" x1="522.5" y1="247.319" x2="0" y2="247.319" gradientUnits="userSpaceOnUse">
<stop stop-color="#499A9A" stop-opacity="0"/>
<stop offset="0.5" stop-color="#499A9A"/>
<stop offset="1" stop-color="#499A9A" stop-opacity="0"/>
</linearGradient>
<linearGradient id="paint5_linear_1699_17987" x1="522.5" y1="267.319" x2="0" y2="267.319" gradientUnits="userSpaceOnUse">
<stop stop-color="#499A9A" stop-opacity="0"/>
<stop offset="0.5" stop-color="#499A9A"/>
<stop offset="1" stop-color="#499A9A" stop-opacity="0"/>
</linearGradient>
<clipPath id="clip0_1699_17987">
<rect width="76" height="10" fill="white" transform="translate(276.5 132.319)"/>
</clipPath>
<clipPath id="clip1_1699_17987">
<rect width="24" height="24" fill="white" transform="translate(238.5 125.319)"/>
</clipPath>
</defs>
</svg>
